%TF.GenerationSoftware,KiCad,Pcbnew,7.0.7*%
%TF.CreationDate,2024-01-15T15:14:14+00:00*%
%TF.ProjectId,cardboard,63617264-626f-4617-9264-2e6b69636164,rev?*%
%TF.SameCoordinates,Original*%
%TF.FileFunction,Drillmap*%
%TF.FilePolarity,Positive*%
%FSLAX45Y45*%
G04 Gerber Fmt 4.5, Leading zero omitted, Abs format (unit mm)*
G04 Created by KiCad (PCBNEW 7.0.7) date 2024-01-15 15:14:14*
%MOMM*%
%LPD*%
G01*
G04 APERTURE LIST*
%ADD10C,0.200000*%
%ADD11C,0.040000*%
%ADD12C,0.050000*%
%ADD13C,0.100000*%
%ADD14C,0.320000*%
G04 APERTURE END LIST*
D10*
X8401500Y-5717000D02*
X12601500Y-5717000D01*
X12601500Y-12617000D01*
X8401500Y-12617000D01*
X8401500Y-5717000D01*
D11*
X8581500Y-5897000D02*
X8621500Y-5937000D01*
X8621500Y-5897000D02*
X8581500Y-5937000D01*
X8581500Y-6697000D02*
X8621500Y-6737000D01*
X8621500Y-6697000D02*
X8581500Y-6737000D01*
X8581500Y-7797000D02*
X8621500Y-7837000D01*
X8621500Y-7797000D02*
X8581500Y-7837000D01*
X8581500Y-8297000D02*
X8621500Y-8337000D01*
X8621500Y-8297000D02*
X8581500Y-8337000D01*
X9081500Y-5897000D02*
X9121500Y-5937000D01*
X9121500Y-5897000D02*
X9081500Y-5937000D01*
X9181500Y-7797000D02*
X9221500Y-7837000D01*
X9221500Y-7797000D02*
X9181500Y-7837000D01*
X9181500Y-8297000D02*
X9221500Y-8337000D01*
X9221500Y-8297000D02*
X9181500Y-8337000D01*
X9191500Y-6807000D02*
X9231500Y-6847000D01*
X9231500Y-6807000D02*
X9191500Y-6847000D01*
X9217014Y-7248345D02*
X9257014Y-7288345D01*
X9257014Y-7248345D02*
X9217014Y-7288345D01*
X9391500Y-6737000D02*
X9431500Y-6777000D01*
X9431500Y-6737000D02*
X9391500Y-6777000D01*
X9431500Y-6267000D02*
X9471500Y-6307000D01*
X9471500Y-6267000D02*
X9431500Y-6307000D01*
X9781500Y-7397000D02*
X9821500Y-7437000D01*
X9821500Y-7397000D02*
X9781500Y-7437000D01*
X9781500Y-7797000D02*
X9821500Y-7837000D01*
X9821500Y-7797000D02*
X9781500Y-7837000D01*
X9781500Y-8297000D02*
X9821500Y-8337000D01*
X9821500Y-8297000D02*
X9781500Y-8337000D01*
X9782500Y-6409000D02*
X9822500Y-6449000D01*
X9822500Y-6409000D02*
X9782500Y-6449000D01*
X9782500Y-6749000D02*
X9822500Y-6789000D01*
X9822500Y-6749000D02*
X9782500Y-6789000D01*
X10110000Y-7187000D02*
X10150000Y-7227000D01*
X10150000Y-7187000D02*
X10110000Y-7227000D01*
X10181500Y-8297000D02*
X10221500Y-8337000D01*
X10221500Y-8297000D02*
X10181500Y-8337000D01*
X10210000Y-6907000D02*
X10250000Y-6947000D01*
X10250000Y-6907000D02*
X10210000Y-6947000D01*
X10211500Y-6257000D02*
X10251500Y-6297000D01*
X10251500Y-6257000D02*
X10211500Y-6297000D01*
X10281500Y-7397000D02*
X10321500Y-7437000D01*
X10321500Y-7397000D02*
X10281500Y-7437000D01*
X10281500Y-7797000D02*
X10321500Y-7837000D01*
X10321500Y-7797000D02*
X10281500Y-7837000D01*
X10319999Y-6272000D02*
X10359999Y-6312000D01*
X10359999Y-6272000D02*
X10319999Y-6312000D01*
X10330000Y-6887000D02*
X10370000Y-6927000D01*
X10370000Y-6887000D02*
X10330000Y-6927000D01*
X10385000Y-7182000D02*
X10425000Y-7222000D01*
X10425000Y-7182000D02*
X10385000Y-7222000D01*
X10440500Y-6507000D02*
X10480500Y-6547000D01*
X10480500Y-6507000D02*
X10440500Y-6547000D01*
X10440500Y-6634000D02*
X10480500Y-6674000D01*
X10480500Y-6634000D02*
X10440500Y-6674000D01*
X10440500Y-6761000D02*
X10480500Y-6801000D01*
X10480500Y-6761000D02*
X10440500Y-6801000D01*
X10522319Y-6999620D02*
X10562319Y-7039620D01*
X10562319Y-6999620D02*
X10522319Y-7039620D01*
X10567500Y-6507000D02*
X10607500Y-6547000D01*
X10607500Y-6507000D02*
X10567500Y-6547000D01*
X10567500Y-6634000D02*
X10607500Y-6674000D01*
X10607500Y-6634000D02*
X10567500Y-6674000D01*
X10567500Y-6761000D02*
X10607500Y-6801000D01*
X10607500Y-6761000D02*
X10567500Y-6801000D01*
X10591500Y-7757000D02*
X10631500Y-7797000D01*
X10631500Y-7757000D02*
X10591500Y-7797000D01*
X10631500Y-8697000D02*
X10671500Y-8737000D01*
X10671500Y-8697000D02*
X10631500Y-8737000D01*
X10657319Y-7010566D02*
X10697319Y-7050566D01*
X10697319Y-7010566D02*
X10657319Y-7050566D01*
X10663186Y-6265444D02*
X10703186Y-6305444D01*
X10703186Y-6265444D02*
X10663186Y-6305444D01*
X10694500Y-6507000D02*
X10734500Y-6547000D01*
X10734500Y-6507000D02*
X10694500Y-6547000D01*
X10694500Y-6634000D02*
X10734500Y-6674000D01*
X10734500Y-6634000D02*
X10694500Y-6674000D01*
X10694500Y-6761000D02*
X10734500Y-6801000D01*
X10734500Y-6761000D02*
X10694500Y-6801000D01*
X10701500Y-7747000D02*
X10741500Y-7787000D01*
X10741500Y-7747000D02*
X10701500Y-7787000D01*
X10740000Y-7997000D02*
X10780000Y-8037000D01*
X10780000Y-7997000D02*
X10740000Y-8037000D01*
X10761439Y-7542145D02*
X10801439Y-7582145D01*
X10801439Y-7542145D02*
X10761439Y-7582145D01*
X10761500Y-6017000D02*
X10801500Y-6057000D01*
X10801500Y-6017000D02*
X10761500Y-6057000D01*
X10812000Y-6319000D02*
X10852000Y-6359000D01*
X10852000Y-6319000D02*
X10812000Y-6359000D01*
X10821500Y-6883950D02*
X10861500Y-6923950D01*
X10861500Y-6883950D02*
X10821500Y-6923950D01*
X10881999Y-7544373D02*
X10921999Y-7584373D01*
X10921999Y-7544373D02*
X10881999Y-7584373D01*
X10885050Y-7806950D02*
X10925050Y-7846950D01*
X10925050Y-7806950D02*
X10885050Y-7846950D01*
X10954937Y-6642000D02*
X10994937Y-6682000D01*
X10994937Y-6642000D02*
X10954937Y-6682000D01*
X11094950Y-7737000D02*
X11134950Y-7777000D01*
X11134950Y-7737000D02*
X11094950Y-7777000D01*
X11120000Y-6777000D02*
X11160000Y-6817000D01*
X11160000Y-6777000D02*
X11120000Y-6817000D01*
X11120873Y-6642577D02*
X11160873Y-6682577D01*
X11160873Y-6642577D02*
X11120873Y-6682577D01*
X11140000Y-7267000D02*
X11180000Y-7307000D01*
X11180000Y-7267000D02*
X11140000Y-7307000D01*
X11142163Y-7381634D02*
X11182163Y-7421634D01*
X11182163Y-7381634D02*
X11142163Y-7421634D01*
X11221500Y-6147000D02*
X11261500Y-6187000D01*
X11261500Y-6147000D02*
X11221500Y-6187000D01*
X11226475Y-6441975D02*
X11266475Y-6481975D01*
X11266475Y-6441975D02*
X11226475Y-6481975D01*
X11271500Y-6537000D02*
X11311500Y-6577000D01*
X11311500Y-6537000D02*
X11271500Y-6577000D01*
X11292234Y-7752579D02*
X11332234Y-7792579D01*
X11332234Y-7752579D02*
X11292234Y-7792579D01*
X11481500Y-7827000D02*
X11521500Y-7867000D01*
X11521500Y-7827000D02*
X11481500Y-7867000D01*
X11540000Y-8297000D02*
X11580000Y-8337000D01*
X11580000Y-8297000D02*
X11540000Y-8337000D01*
X11581500Y-7297000D02*
X11621500Y-7337000D01*
X11621500Y-7297000D02*
X11581500Y-7337000D01*
X11681500Y-5897000D02*
X11721500Y-5937000D01*
X11721500Y-5897000D02*
X11681500Y-5937000D01*
X11681500Y-6697000D02*
X11721500Y-6737000D01*
X11721500Y-6697000D02*
X11681500Y-6737000D01*
X11981500Y-7897000D02*
X12021500Y-7937000D01*
X12021500Y-7897000D02*
X11981500Y-7937000D01*
X12121500Y-6267000D02*
X12161500Y-6307000D01*
X12161500Y-6267000D02*
X12121500Y-6307000D01*
X12381500Y-5897000D02*
X12421500Y-5937000D01*
X12421500Y-5897000D02*
X12381500Y-5937000D01*
X12381500Y-6697000D02*
X12421500Y-6737000D01*
X12421500Y-6697000D02*
X12381500Y-6737000D01*
X12381500Y-7797000D02*
X12421500Y-7837000D01*
X12421500Y-7797000D02*
X12381500Y-7837000D01*
X12381500Y-8297000D02*
X12421500Y-8337000D01*
X12421500Y-8297000D02*
X12381500Y-8337000D01*
D12*
X9016500Y-6747000D02*
G75*
G03*
X9016500Y-6747000I-25000J0D01*
G01*
X10225000Y-6467000D02*
G75*
G03*
X10225000Y-6467000I-25000J0D01*
G01*
X10825000Y-6227000D02*
G75*
G03*
X10825000Y-6227000I-25000J0D01*
G01*
X11276500Y-6317000D02*
G75*
G03*
X11276500Y-6317000I-25000J0D01*
G01*
X11288500Y-7060000D02*
G75*
G03*
X11288500Y-7060000I-25000J0D01*
G01*
X11542500Y-7060000D02*
G75*
G03*
X11542500Y-7060000I-25000J0D01*
G01*
X11796500Y-7060000D02*
G75*
G03*
X11796500Y-7060000I-25000J0D01*
G01*
D13*
X9612500Y-5867000D02*
X9612500Y-5967000D01*
X9562500Y-5917000D02*
X9662500Y-5917000D01*
X9866500Y-5867000D02*
X9866500Y-5967000D01*
X9816500Y-5917000D02*
X9916500Y-5917000D01*
X10120500Y-5867000D02*
X10120500Y-5967000D01*
X10070500Y-5917000D02*
X10170500Y-5917000D01*
X10374500Y-5867000D02*
X10374500Y-5967000D01*
X10324500Y-5917000D02*
X10424500Y-5917000D01*
X10628500Y-5867000D02*
X10628500Y-5967000D01*
X10578500Y-5917000D02*
X10678500Y-5917000D01*
X10634000Y-8277000D02*
X10634000Y-8377000D01*
X10584000Y-8327000D02*
X10684000Y-8327000D01*
X10882500Y-5867000D02*
X10882500Y-5967000D01*
X10832500Y-5917000D02*
X10932500Y-5917000D01*
X10888000Y-8277000D02*
X10888000Y-8377000D01*
X10838000Y-8327000D02*
X10938000Y-8327000D01*
X11136500Y-5867000D02*
X11136500Y-5967000D01*
X11086500Y-5917000D02*
X11186500Y-5917000D01*
X11390500Y-5867000D02*
X11390500Y-5967000D01*
X11340500Y-5917000D02*
X11440500Y-5917000D01*
D14*
X8914638Y-7430138D02*
X8914638Y-7203862D01*
X8688362Y-7203862D01*
X8688362Y-7430138D01*
X8914638Y-7430138D01*
X12314638Y-7430138D02*
X12314638Y-7203862D01*
X12088362Y-7203862D01*
X12088362Y-7430138D01*
X12314638Y-7430138D01*
D10*
X8652277Y-12938484D02*
X8652277Y-12738484D01*
X8652277Y-12738484D02*
X8699896Y-12738484D01*
X8699896Y-12738484D02*
X8728467Y-12748008D01*
X8728467Y-12748008D02*
X8747515Y-12767055D01*
X8747515Y-12767055D02*
X8757039Y-12786103D01*
X8757039Y-12786103D02*
X8766563Y-12824198D01*
X8766563Y-12824198D02*
X8766563Y-12852769D01*
X8766563Y-12852769D02*
X8757039Y-12890865D01*
X8757039Y-12890865D02*
X8747515Y-12909912D01*
X8747515Y-12909912D02*
X8728467Y-12928960D01*
X8728467Y-12928960D02*
X8699896Y-12938484D01*
X8699896Y-12938484D02*
X8652277Y-12938484D01*
X8852277Y-12938484D02*
X8852277Y-12805150D01*
X8852277Y-12843246D02*
X8861801Y-12824198D01*
X8861801Y-12824198D02*
X8871324Y-12814674D01*
X8871324Y-12814674D02*
X8890372Y-12805150D01*
X8890372Y-12805150D02*
X8909420Y-12805150D01*
X8976086Y-12938484D02*
X8976086Y-12805150D01*
X8976086Y-12738484D02*
X8966563Y-12748008D01*
X8966563Y-12748008D02*
X8976086Y-12757531D01*
X8976086Y-12757531D02*
X8985610Y-12748008D01*
X8985610Y-12748008D02*
X8976086Y-12738484D01*
X8976086Y-12738484D02*
X8976086Y-12757531D01*
X9099896Y-12938484D02*
X9080848Y-12928960D01*
X9080848Y-12928960D02*
X9071324Y-12909912D01*
X9071324Y-12909912D02*
X9071324Y-12738484D01*
X9204658Y-12938484D02*
X9185610Y-12928960D01*
X9185610Y-12928960D02*
X9176086Y-12909912D01*
X9176086Y-12909912D02*
X9176086Y-12738484D01*
X9433229Y-12938484D02*
X9433229Y-12738484D01*
X9433229Y-12738484D02*
X9499896Y-12881341D01*
X9499896Y-12881341D02*
X9566563Y-12738484D01*
X9566563Y-12738484D02*
X9566563Y-12938484D01*
X9747515Y-12938484D02*
X9747515Y-12833722D01*
X9747515Y-12833722D02*
X9737991Y-12814674D01*
X9737991Y-12814674D02*
X9718944Y-12805150D01*
X9718944Y-12805150D02*
X9680848Y-12805150D01*
X9680848Y-12805150D02*
X9661801Y-12814674D01*
X9747515Y-12928960D02*
X9728467Y-12938484D01*
X9728467Y-12938484D02*
X9680848Y-12938484D01*
X9680848Y-12938484D02*
X9661801Y-12928960D01*
X9661801Y-12928960D02*
X9652277Y-12909912D01*
X9652277Y-12909912D02*
X9652277Y-12890865D01*
X9652277Y-12890865D02*
X9661801Y-12871817D01*
X9661801Y-12871817D02*
X9680848Y-12862293D01*
X9680848Y-12862293D02*
X9728467Y-12862293D01*
X9728467Y-12862293D02*
X9747515Y-12852769D01*
X9842753Y-12805150D02*
X9842753Y-13005150D01*
X9842753Y-12814674D02*
X9861801Y-12805150D01*
X9861801Y-12805150D02*
X9899896Y-12805150D01*
X9899896Y-12805150D02*
X9918944Y-12814674D01*
X9918944Y-12814674D02*
X9928467Y-12824198D01*
X9928467Y-12824198D02*
X9937991Y-12843246D01*
X9937991Y-12843246D02*
X9937991Y-12900388D01*
X9937991Y-12900388D02*
X9928467Y-12919436D01*
X9928467Y-12919436D02*
X9918944Y-12928960D01*
X9918944Y-12928960D02*
X9899896Y-12938484D01*
X9899896Y-12938484D02*
X9861801Y-12938484D01*
X9861801Y-12938484D02*
X9842753Y-12928960D01*
X10023705Y-12919436D02*
X10033229Y-12928960D01*
X10033229Y-12928960D02*
X10023705Y-12938484D01*
X10023705Y-12938484D02*
X10014182Y-12928960D01*
X10014182Y-12928960D02*
X10023705Y-12919436D01*
X10023705Y-12919436D02*
X10023705Y-12938484D01*
X10023705Y-12814674D02*
X10033229Y-12824198D01*
X10033229Y-12824198D02*
X10023705Y-12833722D01*
X10023705Y-12833722D02*
X10014182Y-12824198D01*
X10014182Y-12824198D02*
X10023705Y-12814674D01*
X10023705Y-12814674D02*
X10023705Y-12833722D01*
D11*
X8351500Y-13247000D02*
X8391500Y-13287000D01*
X8391500Y-13247000D02*
X8351500Y-13287000D01*
D10*
X8690372Y-13158484D02*
X8709420Y-13158484D01*
X8709420Y-13158484D02*
X8728467Y-13168008D01*
X8728467Y-13168008D02*
X8737991Y-13177531D01*
X8737991Y-13177531D02*
X8747515Y-13196579D01*
X8747515Y-13196579D02*
X8757039Y-13234674D01*
X8757039Y-13234674D02*
X8757039Y-13282293D01*
X8757039Y-13282293D02*
X8747515Y-13320388D01*
X8747515Y-13320388D02*
X8737991Y-13339436D01*
X8737991Y-13339436D02*
X8728467Y-13348960D01*
X8728467Y-13348960D02*
X8709420Y-13358484D01*
X8709420Y-13358484D02*
X8690372Y-13358484D01*
X8690372Y-13358484D02*
X8671324Y-13348960D01*
X8671324Y-13348960D02*
X8661801Y-13339436D01*
X8661801Y-13339436D02*
X8652277Y-13320388D01*
X8652277Y-13320388D02*
X8642753Y-13282293D01*
X8642753Y-13282293D02*
X8642753Y-13234674D01*
X8642753Y-13234674D02*
X8652277Y-13196579D01*
X8652277Y-13196579D02*
X8661801Y-13177531D01*
X8661801Y-13177531D02*
X8671324Y-13168008D01*
X8671324Y-13168008D02*
X8690372Y-13158484D01*
X8842753Y-13339436D02*
X8852277Y-13348960D01*
X8852277Y-13348960D02*
X8842753Y-13358484D01*
X8842753Y-13358484D02*
X8833229Y-13348960D01*
X8833229Y-13348960D02*
X8842753Y-13339436D01*
X8842753Y-13339436D02*
X8842753Y-13358484D01*
X9023705Y-13225150D02*
X9023705Y-13358484D01*
X8976086Y-13148960D02*
X8928467Y-13291817D01*
X8928467Y-13291817D02*
X9052277Y-13291817D01*
X9166563Y-13158484D02*
X9185610Y-13158484D01*
X9185610Y-13158484D02*
X9204658Y-13168008D01*
X9204658Y-13168008D02*
X9214182Y-13177531D01*
X9214182Y-13177531D02*
X9223705Y-13196579D01*
X9223705Y-13196579D02*
X9233229Y-13234674D01*
X9233229Y-13234674D02*
X9233229Y-13282293D01*
X9233229Y-13282293D02*
X9223705Y-13320388D01*
X9223705Y-13320388D02*
X9214182Y-13339436D01*
X9214182Y-13339436D02*
X9204658Y-13348960D01*
X9204658Y-13348960D02*
X9185610Y-13358484D01*
X9185610Y-13358484D02*
X9166563Y-13358484D01*
X9166563Y-13358484D02*
X9147515Y-13348960D01*
X9147515Y-13348960D02*
X9137991Y-13339436D01*
X9137991Y-13339436D02*
X9128467Y-13320388D01*
X9128467Y-13320388D02*
X9118944Y-13282293D01*
X9118944Y-13282293D02*
X9118944Y-13234674D01*
X9118944Y-13234674D02*
X9128467Y-13196579D01*
X9128467Y-13196579D02*
X9137991Y-13177531D01*
X9137991Y-13177531D02*
X9147515Y-13168008D01*
X9147515Y-13168008D02*
X9166563Y-13158484D01*
X9357039Y-13158484D02*
X9376086Y-13158484D01*
X9376086Y-13158484D02*
X9395134Y-13168008D01*
X9395134Y-13168008D02*
X9404658Y-13177531D01*
X9404658Y-13177531D02*
X9414182Y-13196579D01*
X9414182Y-13196579D02*
X9423705Y-13234674D01*
X9423705Y-13234674D02*
X9423705Y-13282293D01*
X9423705Y-13282293D02*
X9414182Y-13320388D01*
X9414182Y-13320388D02*
X9404658Y-13339436D01*
X9404658Y-13339436D02*
X9395134Y-13348960D01*
X9395134Y-13348960D02*
X9376086Y-13358484D01*
X9376086Y-13358484D02*
X9357039Y-13358484D01*
X9357039Y-13358484D02*
X9337991Y-13348960D01*
X9337991Y-13348960D02*
X9328467Y-13339436D01*
X9328467Y-13339436D02*
X9318944Y-13320388D01*
X9318944Y-13320388D02*
X9309420Y-13282293D01*
X9309420Y-13282293D02*
X9309420Y-13234674D01*
X9309420Y-13234674D02*
X9318944Y-13196579D01*
X9318944Y-13196579D02*
X9328467Y-13177531D01*
X9328467Y-13177531D02*
X9337991Y-13168008D01*
X9337991Y-13168008D02*
X9357039Y-13158484D01*
X9509420Y-13358484D02*
X9509420Y-13225150D01*
X9509420Y-13244198D02*
X9518944Y-13234674D01*
X9518944Y-13234674D02*
X9537991Y-13225150D01*
X9537991Y-13225150D02*
X9566563Y-13225150D01*
X9566563Y-13225150D02*
X9585610Y-13234674D01*
X9585610Y-13234674D02*
X9595134Y-13253722D01*
X9595134Y-13253722D02*
X9595134Y-13358484D01*
X9595134Y-13253722D02*
X9604658Y-13234674D01*
X9604658Y-13234674D02*
X9623705Y-13225150D01*
X9623705Y-13225150D02*
X9652277Y-13225150D01*
X9652277Y-13225150D02*
X9671325Y-13234674D01*
X9671325Y-13234674D02*
X9680848Y-13253722D01*
X9680848Y-13253722D02*
X9680848Y-13358484D01*
X9776086Y-13358484D02*
X9776086Y-13225150D01*
X9776086Y-13244198D02*
X9785610Y-13234674D01*
X9785610Y-13234674D02*
X9804658Y-13225150D01*
X9804658Y-13225150D02*
X9833229Y-13225150D01*
X9833229Y-13225150D02*
X9852277Y-13234674D01*
X9852277Y-13234674D02*
X9861801Y-13253722D01*
X9861801Y-13253722D02*
X9861801Y-13358484D01*
X9861801Y-13253722D02*
X9871325Y-13234674D01*
X9871325Y-13234674D02*
X9890372Y-13225150D01*
X9890372Y-13225150D02*
X9918944Y-13225150D01*
X9918944Y-13225150D02*
X9937991Y-13234674D01*
X9937991Y-13234674D02*
X9947515Y-13253722D01*
X9947515Y-13253722D02*
X9947515Y-13358484D01*
X10337991Y-13148960D02*
X10166563Y-13406103D01*
X10595134Y-13158484D02*
X10614182Y-13158484D01*
X10614182Y-13158484D02*
X10633229Y-13168008D01*
X10633229Y-13168008D02*
X10642753Y-13177531D01*
X10642753Y-13177531D02*
X10652277Y-13196579D01*
X10652277Y-13196579D02*
X10661801Y-13234674D01*
X10661801Y-13234674D02*
X10661801Y-13282293D01*
X10661801Y-13282293D02*
X10652277Y-13320388D01*
X10652277Y-13320388D02*
X10642753Y-13339436D01*
X10642753Y-13339436D02*
X10633229Y-13348960D01*
X10633229Y-13348960D02*
X10614182Y-13358484D01*
X10614182Y-13358484D02*
X10595134Y-13358484D01*
X10595134Y-13358484D02*
X10576087Y-13348960D01*
X10576087Y-13348960D02*
X10566563Y-13339436D01*
X10566563Y-13339436D02*
X10557039Y-13320388D01*
X10557039Y-13320388D02*
X10547515Y-13282293D01*
X10547515Y-13282293D02*
X10547515Y-13234674D01*
X10547515Y-13234674D02*
X10557039Y-13196579D01*
X10557039Y-13196579D02*
X10566563Y-13177531D01*
X10566563Y-13177531D02*
X10576087Y-13168008D01*
X10576087Y-13168008D02*
X10595134Y-13158484D01*
X10747515Y-13339436D02*
X10757039Y-13348960D01*
X10757039Y-13348960D02*
X10747515Y-13358484D01*
X10747515Y-13358484D02*
X10737991Y-13348960D01*
X10737991Y-13348960D02*
X10747515Y-13339436D01*
X10747515Y-13339436D02*
X10747515Y-13358484D01*
X10880848Y-13158484D02*
X10899896Y-13158484D01*
X10899896Y-13158484D02*
X10918944Y-13168008D01*
X10918944Y-13168008D02*
X10928468Y-13177531D01*
X10928468Y-13177531D02*
X10937991Y-13196579D01*
X10937991Y-13196579D02*
X10947515Y-13234674D01*
X10947515Y-13234674D02*
X10947515Y-13282293D01*
X10947515Y-13282293D02*
X10937991Y-13320388D01*
X10937991Y-13320388D02*
X10928468Y-13339436D01*
X10928468Y-13339436D02*
X10918944Y-13348960D01*
X10918944Y-13348960D02*
X10899896Y-13358484D01*
X10899896Y-13358484D02*
X10880848Y-13358484D01*
X10880848Y-13358484D02*
X10861801Y-13348960D01*
X10861801Y-13348960D02*
X10852277Y-13339436D01*
X10852277Y-13339436D02*
X10842753Y-13320388D01*
X10842753Y-13320388D02*
X10833229Y-13282293D01*
X10833229Y-13282293D02*
X10833229Y-13234674D01*
X10833229Y-13234674D02*
X10842753Y-13196579D01*
X10842753Y-13196579D02*
X10852277Y-13177531D01*
X10852277Y-13177531D02*
X10861801Y-13168008D01*
X10861801Y-13168008D02*
X10880848Y-13158484D01*
X11137991Y-13358484D02*
X11023706Y-13358484D01*
X11080848Y-13358484D02*
X11080848Y-13158484D01*
X11080848Y-13158484D02*
X11061801Y-13187055D01*
X11061801Y-13187055D02*
X11042753Y-13206103D01*
X11042753Y-13206103D02*
X11023706Y-13215627D01*
X11318944Y-13158484D02*
X11223706Y-13158484D01*
X11223706Y-13158484D02*
X11214182Y-13253722D01*
X11214182Y-13253722D02*
X11223706Y-13244198D01*
X11223706Y-13244198D02*
X11242753Y-13234674D01*
X11242753Y-13234674D02*
X11290372Y-13234674D01*
X11290372Y-13234674D02*
X11309420Y-13244198D01*
X11309420Y-13244198D02*
X11318944Y-13253722D01*
X11318944Y-13253722D02*
X11328467Y-13272769D01*
X11328467Y-13272769D02*
X11328467Y-13320388D01*
X11328467Y-13320388D02*
X11318944Y-13339436D01*
X11318944Y-13339436D02*
X11309420Y-13348960D01*
X11309420Y-13348960D02*
X11290372Y-13358484D01*
X11290372Y-13358484D02*
X11242753Y-13358484D01*
X11242753Y-13358484D02*
X11223706Y-13348960D01*
X11223706Y-13348960D02*
X11214182Y-13339436D01*
X11395134Y-13158484D02*
X11528467Y-13158484D01*
X11528467Y-13158484D02*
X11442753Y-13358484D01*
X11595134Y-13158484D02*
X11595134Y-13196579D01*
X11671325Y-13158484D02*
X11671325Y-13196579D01*
X11966563Y-13434674D02*
X11957039Y-13425150D01*
X11957039Y-13425150D02*
X11937991Y-13396579D01*
X11937991Y-13396579D02*
X11928468Y-13377531D01*
X11928468Y-13377531D02*
X11918944Y-13348960D01*
X11918944Y-13348960D02*
X11909420Y-13301341D01*
X11909420Y-13301341D02*
X11909420Y-13263246D01*
X11909420Y-13263246D02*
X11918944Y-13215627D01*
X11918944Y-13215627D02*
X11928468Y-13187055D01*
X11928468Y-13187055D02*
X11937991Y-13168008D01*
X11937991Y-13168008D02*
X11957039Y-13139436D01*
X11957039Y-13139436D02*
X11966563Y-13129912D01*
X12128468Y-13158484D02*
X12090372Y-13158484D01*
X12090372Y-13158484D02*
X12071325Y-13168008D01*
X12071325Y-13168008D02*
X12061801Y-13177531D01*
X12061801Y-13177531D02*
X12042753Y-13206103D01*
X12042753Y-13206103D02*
X12033229Y-13244198D01*
X12033229Y-13244198D02*
X12033229Y-13320388D01*
X12033229Y-13320388D02*
X12042753Y-13339436D01*
X12042753Y-13339436D02*
X12052277Y-13348960D01*
X12052277Y-13348960D02*
X12071325Y-13358484D01*
X12071325Y-13358484D02*
X12109420Y-13358484D01*
X12109420Y-13358484D02*
X12128468Y-13348960D01*
X12128468Y-13348960D02*
X12137991Y-13339436D01*
X12137991Y-13339436D02*
X12147515Y-13320388D01*
X12147515Y-13320388D02*
X12147515Y-13272769D01*
X12147515Y-13272769D02*
X12137991Y-13253722D01*
X12137991Y-13253722D02*
X12128468Y-13244198D01*
X12128468Y-13244198D02*
X12109420Y-13234674D01*
X12109420Y-13234674D02*
X12071325Y-13234674D01*
X12071325Y-13234674D02*
X12052277Y-13244198D01*
X12052277Y-13244198D02*
X12042753Y-13253722D01*
X12042753Y-13253722D02*
X12033229Y-13272769D01*
X12261801Y-13244198D02*
X12242753Y-13234674D01*
X12242753Y-13234674D02*
X12233229Y-13225150D01*
X12233229Y-13225150D02*
X12223706Y-13206103D01*
X12223706Y-13206103D02*
X12223706Y-13196579D01*
X12223706Y-13196579D02*
X12233229Y-13177531D01*
X12233229Y-13177531D02*
X12242753Y-13168008D01*
X12242753Y-13168008D02*
X12261801Y-13158484D01*
X12261801Y-13158484D02*
X12299896Y-13158484D01*
X12299896Y-13158484D02*
X12318944Y-13168008D01*
X12318944Y-13168008D02*
X12328468Y-13177531D01*
X12328468Y-13177531D02*
X12337991Y-13196579D01*
X12337991Y-13196579D02*
X12337991Y-13206103D01*
X12337991Y-13206103D02*
X12328468Y-13225150D01*
X12328468Y-13225150D02*
X12318944Y-13234674D01*
X12318944Y-13234674D02*
X12299896Y-13244198D01*
X12299896Y-13244198D02*
X12261801Y-13244198D01*
X12261801Y-13244198D02*
X12242753Y-13253722D01*
X12242753Y-13253722D02*
X12233229Y-13263246D01*
X12233229Y-13263246D02*
X12223706Y-13282293D01*
X12223706Y-13282293D02*
X12223706Y-13320388D01*
X12223706Y-13320388D02*
X12233229Y-13339436D01*
X12233229Y-13339436D02*
X12242753Y-13348960D01*
X12242753Y-13348960D02*
X12261801Y-13358484D01*
X12261801Y-13358484D02*
X12299896Y-13358484D01*
X12299896Y-13358484D02*
X12318944Y-13348960D01*
X12318944Y-13348960D02*
X12328468Y-13339436D01*
X12328468Y-13339436D02*
X12337991Y-13320388D01*
X12337991Y-13320388D02*
X12337991Y-13282293D01*
X12337991Y-13282293D02*
X12328468Y-13263246D01*
X12328468Y-13263246D02*
X12318944Y-13253722D01*
X12318944Y-13253722D02*
X12299896Y-13244198D01*
X12576087Y-13358484D02*
X12576087Y-13158484D01*
X12661801Y-13358484D02*
X12661801Y-13253722D01*
X12661801Y-13253722D02*
X12652277Y-13234674D01*
X12652277Y-13234674D02*
X12633230Y-13225150D01*
X12633230Y-13225150D02*
X12604658Y-13225150D01*
X12604658Y-13225150D02*
X12585610Y-13234674D01*
X12585610Y-13234674D02*
X12576087Y-13244198D01*
X12785610Y-13358484D02*
X12766563Y-13348960D01*
X12766563Y-13348960D02*
X12757039Y-13339436D01*
X12757039Y-13339436D02*
X12747515Y-13320388D01*
X12747515Y-13320388D02*
X12747515Y-13263246D01*
X12747515Y-13263246D02*
X12757039Y-13244198D01*
X12757039Y-13244198D02*
X12766563Y-13234674D01*
X12766563Y-13234674D02*
X12785610Y-13225150D01*
X12785610Y-13225150D02*
X12814182Y-13225150D01*
X12814182Y-13225150D02*
X12833230Y-13234674D01*
X12833230Y-13234674D02*
X12842753Y-13244198D01*
X12842753Y-13244198D02*
X12852277Y-13263246D01*
X12852277Y-13263246D02*
X12852277Y-13320388D01*
X12852277Y-13320388D02*
X12842753Y-13339436D01*
X12842753Y-13339436D02*
X12833230Y-13348960D01*
X12833230Y-13348960D02*
X12814182Y-13358484D01*
X12814182Y-13358484D02*
X12785610Y-13358484D01*
X12966563Y-13358484D02*
X12947515Y-13348960D01*
X12947515Y-13348960D02*
X12937991Y-13329912D01*
X12937991Y-13329912D02*
X12937991Y-13158484D01*
X13118944Y-13348960D02*
X13099896Y-13358484D01*
X13099896Y-13358484D02*
X13061801Y-13358484D01*
X13061801Y-13358484D02*
X13042753Y-13348960D01*
X13042753Y-13348960D02*
X13033230Y-13329912D01*
X13033230Y-13329912D02*
X13033230Y-13253722D01*
X13033230Y-13253722D02*
X13042753Y-13234674D01*
X13042753Y-13234674D02*
X13061801Y-13225150D01*
X13061801Y-13225150D02*
X13099896Y-13225150D01*
X13099896Y-13225150D02*
X13118944Y-13234674D01*
X13118944Y-13234674D02*
X13128468Y-13253722D01*
X13128468Y-13253722D02*
X13128468Y-13272769D01*
X13128468Y-13272769D02*
X13033230Y-13291817D01*
X13204658Y-13348960D02*
X13223706Y-13358484D01*
X13223706Y-13358484D02*
X13261801Y-13358484D01*
X13261801Y-13358484D02*
X13280849Y-13348960D01*
X13280849Y-13348960D02*
X13290372Y-13329912D01*
X13290372Y-13329912D02*
X13290372Y-13320388D01*
X13290372Y-13320388D02*
X13280849Y-13301341D01*
X13280849Y-13301341D02*
X13261801Y-13291817D01*
X13261801Y-13291817D02*
X13233230Y-13291817D01*
X13233230Y-13291817D02*
X13214182Y-13282293D01*
X13214182Y-13282293D02*
X13204658Y-13263246D01*
X13204658Y-13263246D02*
X13204658Y-13253722D01*
X13204658Y-13253722D02*
X13214182Y-13234674D01*
X13214182Y-13234674D02*
X13233230Y-13225150D01*
X13233230Y-13225150D02*
X13261801Y-13225150D01*
X13261801Y-13225150D02*
X13280849Y-13234674D01*
X13357039Y-13434674D02*
X13366563Y-13425150D01*
X13366563Y-13425150D02*
X13385611Y-13396579D01*
X13385611Y-13396579D02*
X13395134Y-13377531D01*
X13395134Y-13377531D02*
X13404658Y-13348960D01*
X13404658Y-13348960D02*
X13414182Y-13301341D01*
X13414182Y-13301341D02*
X13414182Y-13263246D01*
X13414182Y-13263246D02*
X13404658Y-13215627D01*
X13404658Y-13215627D02*
X13395134Y-13187055D01*
X13395134Y-13187055D02*
X13385611Y-13168008D01*
X13385611Y-13168008D02*
X13366563Y-13139436D01*
X13366563Y-13139436D02*
X13357039Y-13129912D01*
D12*
X8391500Y-13531000D02*
G75*
G03*
X8391500Y-13531000I-25000J0D01*
G01*
D10*
X8690372Y-13422484D02*
X8709420Y-13422484D01*
X8709420Y-13422484D02*
X8728467Y-13432008D01*
X8728467Y-13432008D02*
X8737991Y-13441531D01*
X8737991Y-13441531D02*
X8747515Y-13460579D01*
X8747515Y-13460579D02*
X8757039Y-13498674D01*
X8757039Y-13498674D02*
X8757039Y-13546293D01*
X8757039Y-13546293D02*
X8747515Y-13584388D01*
X8747515Y-13584388D02*
X8737991Y-13603436D01*
X8737991Y-13603436D02*
X8728467Y-13612960D01*
X8728467Y-13612960D02*
X8709420Y-13622484D01*
X8709420Y-13622484D02*
X8690372Y-13622484D01*
X8690372Y-13622484D02*
X8671324Y-13612960D01*
X8671324Y-13612960D02*
X8661801Y-13603436D01*
X8661801Y-13603436D02*
X8652277Y-13584388D01*
X8652277Y-13584388D02*
X8642753Y-13546293D01*
X8642753Y-13546293D02*
X8642753Y-13498674D01*
X8642753Y-13498674D02*
X8652277Y-13460579D01*
X8652277Y-13460579D02*
X8661801Y-13441531D01*
X8661801Y-13441531D02*
X8671324Y-13432008D01*
X8671324Y-13432008D02*
X8690372Y-13422484D01*
X8842753Y-13603436D02*
X8852277Y-13612960D01*
X8852277Y-13612960D02*
X8842753Y-13622484D01*
X8842753Y-13622484D02*
X8833229Y-13612960D01*
X8833229Y-13612960D02*
X8842753Y-13603436D01*
X8842753Y-13603436D02*
X8842753Y-13622484D01*
X9033229Y-13422484D02*
X8937991Y-13422484D01*
X8937991Y-13422484D02*
X8928467Y-13517722D01*
X8928467Y-13517722D02*
X8937991Y-13508198D01*
X8937991Y-13508198D02*
X8957039Y-13498674D01*
X8957039Y-13498674D02*
X9004658Y-13498674D01*
X9004658Y-13498674D02*
X9023705Y-13508198D01*
X9023705Y-13508198D02*
X9033229Y-13517722D01*
X9033229Y-13517722D02*
X9042753Y-13536769D01*
X9042753Y-13536769D02*
X9042753Y-13584388D01*
X9042753Y-13584388D02*
X9033229Y-13603436D01*
X9033229Y-13603436D02*
X9023705Y-13612960D01*
X9023705Y-13612960D02*
X9004658Y-13622484D01*
X9004658Y-13622484D02*
X8957039Y-13622484D01*
X8957039Y-13622484D02*
X8937991Y-13612960D01*
X8937991Y-13612960D02*
X8928467Y-13603436D01*
X9166563Y-13422484D02*
X9185610Y-13422484D01*
X9185610Y-13422484D02*
X9204658Y-13432008D01*
X9204658Y-13432008D02*
X9214182Y-13441531D01*
X9214182Y-13441531D02*
X9223705Y-13460579D01*
X9223705Y-13460579D02*
X9233229Y-13498674D01*
X9233229Y-13498674D02*
X9233229Y-13546293D01*
X9233229Y-13546293D02*
X9223705Y-13584388D01*
X9223705Y-13584388D02*
X9214182Y-13603436D01*
X9214182Y-13603436D02*
X9204658Y-13612960D01*
X9204658Y-13612960D02*
X9185610Y-13622484D01*
X9185610Y-13622484D02*
X9166563Y-13622484D01*
X9166563Y-13622484D02*
X9147515Y-13612960D01*
X9147515Y-13612960D02*
X9137991Y-13603436D01*
X9137991Y-13603436D02*
X9128467Y-13584388D01*
X9128467Y-13584388D02*
X9118944Y-13546293D01*
X9118944Y-13546293D02*
X9118944Y-13498674D01*
X9118944Y-13498674D02*
X9128467Y-13460579D01*
X9128467Y-13460579D02*
X9137991Y-13441531D01*
X9137991Y-13441531D02*
X9147515Y-13432008D01*
X9147515Y-13432008D02*
X9166563Y-13422484D01*
X9357039Y-13422484D02*
X9376086Y-13422484D01*
X9376086Y-13422484D02*
X9395134Y-13432008D01*
X9395134Y-13432008D02*
X9404658Y-13441531D01*
X9404658Y-13441531D02*
X9414182Y-13460579D01*
X9414182Y-13460579D02*
X9423705Y-13498674D01*
X9423705Y-13498674D02*
X9423705Y-13546293D01*
X9423705Y-13546293D02*
X9414182Y-13584388D01*
X9414182Y-13584388D02*
X9404658Y-13603436D01*
X9404658Y-13603436D02*
X9395134Y-13612960D01*
X9395134Y-13612960D02*
X9376086Y-13622484D01*
X9376086Y-13622484D02*
X9357039Y-13622484D01*
X9357039Y-13622484D02*
X9337991Y-13612960D01*
X9337991Y-13612960D02*
X9328467Y-13603436D01*
X9328467Y-13603436D02*
X9318944Y-13584388D01*
X9318944Y-13584388D02*
X9309420Y-13546293D01*
X9309420Y-13546293D02*
X9309420Y-13498674D01*
X9309420Y-13498674D02*
X9318944Y-13460579D01*
X9318944Y-13460579D02*
X9328467Y-13441531D01*
X9328467Y-13441531D02*
X9337991Y-13432008D01*
X9337991Y-13432008D02*
X9357039Y-13422484D01*
X9509420Y-13622484D02*
X9509420Y-13489150D01*
X9509420Y-13508198D02*
X9518944Y-13498674D01*
X9518944Y-13498674D02*
X9537991Y-13489150D01*
X9537991Y-13489150D02*
X9566563Y-13489150D01*
X9566563Y-13489150D02*
X9585610Y-13498674D01*
X9585610Y-13498674D02*
X9595134Y-13517722D01*
X9595134Y-13517722D02*
X9595134Y-13622484D01*
X9595134Y-13517722D02*
X9604658Y-13498674D01*
X9604658Y-13498674D02*
X9623705Y-13489150D01*
X9623705Y-13489150D02*
X9652277Y-13489150D01*
X9652277Y-13489150D02*
X9671325Y-13498674D01*
X9671325Y-13498674D02*
X9680848Y-13517722D01*
X9680848Y-13517722D02*
X9680848Y-13622484D01*
X9776086Y-13622484D02*
X9776086Y-13489150D01*
X9776086Y-13508198D02*
X9785610Y-13498674D01*
X9785610Y-13498674D02*
X9804658Y-13489150D01*
X9804658Y-13489150D02*
X9833229Y-13489150D01*
X9833229Y-13489150D02*
X9852277Y-13498674D01*
X9852277Y-13498674D02*
X9861801Y-13517722D01*
X9861801Y-13517722D02*
X9861801Y-13622484D01*
X9861801Y-13517722D02*
X9871325Y-13498674D01*
X9871325Y-13498674D02*
X9890372Y-13489150D01*
X9890372Y-13489150D02*
X9918944Y-13489150D01*
X9918944Y-13489150D02*
X9937991Y-13498674D01*
X9937991Y-13498674D02*
X9947515Y-13517722D01*
X9947515Y-13517722D02*
X9947515Y-13622484D01*
X10337991Y-13412960D02*
X10166563Y-13670103D01*
X10595134Y-13422484D02*
X10614182Y-13422484D01*
X10614182Y-13422484D02*
X10633229Y-13432008D01*
X10633229Y-13432008D02*
X10642753Y-13441531D01*
X10642753Y-13441531D02*
X10652277Y-13460579D01*
X10652277Y-13460579D02*
X10661801Y-13498674D01*
X10661801Y-13498674D02*
X10661801Y-13546293D01*
X10661801Y-13546293D02*
X10652277Y-13584388D01*
X10652277Y-13584388D02*
X10642753Y-13603436D01*
X10642753Y-13603436D02*
X10633229Y-13612960D01*
X10633229Y-13612960D02*
X10614182Y-13622484D01*
X10614182Y-13622484D02*
X10595134Y-13622484D01*
X10595134Y-13622484D02*
X10576087Y-13612960D01*
X10576087Y-13612960D02*
X10566563Y-13603436D01*
X10566563Y-13603436D02*
X10557039Y-13584388D01*
X10557039Y-13584388D02*
X10547515Y-13546293D01*
X10547515Y-13546293D02*
X10547515Y-13498674D01*
X10547515Y-13498674D02*
X10557039Y-13460579D01*
X10557039Y-13460579D02*
X10566563Y-13441531D01*
X10566563Y-13441531D02*
X10576087Y-13432008D01*
X10576087Y-13432008D02*
X10595134Y-13422484D01*
X10747515Y-13603436D02*
X10757039Y-13612960D01*
X10757039Y-13612960D02*
X10747515Y-13622484D01*
X10747515Y-13622484D02*
X10737991Y-13612960D01*
X10737991Y-13612960D02*
X10747515Y-13603436D01*
X10747515Y-13603436D02*
X10747515Y-13622484D01*
X10880848Y-13422484D02*
X10899896Y-13422484D01*
X10899896Y-13422484D02*
X10918944Y-13432008D01*
X10918944Y-13432008D02*
X10928468Y-13441531D01*
X10928468Y-13441531D02*
X10937991Y-13460579D01*
X10937991Y-13460579D02*
X10947515Y-13498674D01*
X10947515Y-13498674D02*
X10947515Y-13546293D01*
X10947515Y-13546293D02*
X10937991Y-13584388D01*
X10937991Y-13584388D02*
X10928468Y-13603436D01*
X10928468Y-13603436D02*
X10918944Y-13612960D01*
X10918944Y-13612960D02*
X10899896Y-13622484D01*
X10899896Y-13622484D02*
X10880848Y-13622484D01*
X10880848Y-13622484D02*
X10861801Y-13612960D01*
X10861801Y-13612960D02*
X10852277Y-13603436D01*
X10852277Y-13603436D02*
X10842753Y-13584388D01*
X10842753Y-13584388D02*
X10833229Y-13546293D01*
X10833229Y-13546293D02*
X10833229Y-13498674D01*
X10833229Y-13498674D02*
X10842753Y-13460579D01*
X10842753Y-13460579D02*
X10852277Y-13441531D01*
X10852277Y-13441531D02*
X10861801Y-13432008D01*
X10861801Y-13432008D02*
X10880848Y-13422484D01*
X11137991Y-13622484D02*
X11023706Y-13622484D01*
X11080848Y-13622484D02*
X11080848Y-13422484D01*
X11080848Y-13422484D02*
X11061801Y-13451055D01*
X11061801Y-13451055D02*
X11042753Y-13470103D01*
X11042753Y-13470103D02*
X11023706Y-13479627D01*
X11233229Y-13622484D02*
X11271325Y-13622484D01*
X11271325Y-13622484D02*
X11290372Y-13612960D01*
X11290372Y-13612960D02*
X11299896Y-13603436D01*
X11299896Y-13603436D02*
X11318944Y-13574865D01*
X11318944Y-13574865D02*
X11328467Y-13536769D01*
X11328467Y-13536769D02*
X11328467Y-13460579D01*
X11328467Y-13460579D02*
X11318944Y-13441531D01*
X11318944Y-13441531D02*
X11309420Y-13432008D01*
X11309420Y-13432008D02*
X11290372Y-13422484D01*
X11290372Y-13422484D02*
X11252277Y-13422484D01*
X11252277Y-13422484D02*
X11233229Y-13432008D01*
X11233229Y-13432008D02*
X11223706Y-13441531D01*
X11223706Y-13441531D02*
X11214182Y-13460579D01*
X11214182Y-13460579D02*
X11214182Y-13508198D01*
X11214182Y-13508198D02*
X11223706Y-13527246D01*
X11223706Y-13527246D02*
X11233229Y-13536769D01*
X11233229Y-13536769D02*
X11252277Y-13546293D01*
X11252277Y-13546293D02*
X11290372Y-13546293D01*
X11290372Y-13546293D02*
X11309420Y-13536769D01*
X11309420Y-13536769D02*
X11318944Y-13527246D01*
X11318944Y-13527246D02*
X11328467Y-13508198D01*
X11395134Y-13422484D02*
X11528467Y-13422484D01*
X11528467Y-13422484D02*
X11442753Y-13622484D01*
X11595134Y-13422484D02*
X11595134Y-13460579D01*
X11671325Y-13422484D02*
X11671325Y-13460579D01*
X11966563Y-13698674D02*
X11957039Y-13689150D01*
X11957039Y-13689150D02*
X11937991Y-13660579D01*
X11937991Y-13660579D02*
X11928468Y-13641531D01*
X11928468Y-13641531D02*
X11918944Y-13612960D01*
X11918944Y-13612960D02*
X11909420Y-13565341D01*
X11909420Y-13565341D02*
X11909420Y-13527246D01*
X11909420Y-13527246D02*
X11918944Y-13479627D01*
X11918944Y-13479627D02*
X11928468Y-13451055D01*
X11928468Y-13451055D02*
X11937991Y-13432008D01*
X11937991Y-13432008D02*
X11957039Y-13403436D01*
X11957039Y-13403436D02*
X11966563Y-13393912D01*
X12023706Y-13422484D02*
X12157039Y-13422484D01*
X12157039Y-13422484D02*
X12071325Y-13622484D01*
X12385610Y-13622484D02*
X12385610Y-13422484D01*
X12471325Y-13622484D02*
X12471325Y-13517722D01*
X12471325Y-13517722D02*
X12461801Y-13498674D01*
X12461801Y-13498674D02*
X12442753Y-13489150D01*
X12442753Y-13489150D02*
X12414182Y-13489150D01*
X12414182Y-13489150D02*
X12395134Y-13498674D01*
X12395134Y-13498674D02*
X12385610Y-13508198D01*
X12595134Y-13622484D02*
X12576087Y-13612960D01*
X12576087Y-13612960D02*
X12566563Y-13603436D01*
X12566563Y-13603436D02*
X12557039Y-13584388D01*
X12557039Y-13584388D02*
X12557039Y-13527246D01*
X12557039Y-13527246D02*
X12566563Y-13508198D01*
X12566563Y-13508198D02*
X12576087Y-13498674D01*
X12576087Y-13498674D02*
X12595134Y-13489150D01*
X12595134Y-13489150D02*
X12623706Y-13489150D01*
X12623706Y-13489150D02*
X12642753Y-13498674D01*
X12642753Y-13498674D02*
X12652277Y-13508198D01*
X12652277Y-13508198D02*
X12661801Y-13527246D01*
X12661801Y-13527246D02*
X12661801Y-13584388D01*
X12661801Y-13584388D02*
X12652277Y-13603436D01*
X12652277Y-13603436D02*
X12642753Y-13612960D01*
X12642753Y-13612960D02*
X12623706Y-13622484D01*
X12623706Y-13622484D02*
X12595134Y-13622484D01*
X12776087Y-13622484D02*
X12757039Y-13612960D01*
X12757039Y-13612960D02*
X12747515Y-13593912D01*
X12747515Y-13593912D02*
X12747515Y-13422484D01*
X12928468Y-13612960D02*
X12909420Y-13622484D01*
X12909420Y-13622484D02*
X12871325Y-13622484D01*
X12871325Y-13622484D02*
X12852277Y-13612960D01*
X12852277Y-13612960D02*
X12842753Y-13593912D01*
X12842753Y-13593912D02*
X12842753Y-13517722D01*
X12842753Y-13517722D02*
X12852277Y-13498674D01*
X12852277Y-13498674D02*
X12871325Y-13489150D01*
X12871325Y-13489150D02*
X12909420Y-13489150D01*
X12909420Y-13489150D02*
X12928468Y-13498674D01*
X12928468Y-13498674D02*
X12937991Y-13517722D01*
X12937991Y-13517722D02*
X12937991Y-13536769D01*
X12937991Y-13536769D02*
X12842753Y-13555817D01*
X13014182Y-13612960D02*
X13033230Y-13622484D01*
X13033230Y-13622484D02*
X13071325Y-13622484D01*
X13071325Y-13622484D02*
X13090372Y-13612960D01*
X13090372Y-13612960D02*
X13099896Y-13593912D01*
X13099896Y-13593912D02*
X13099896Y-13584388D01*
X13099896Y-13584388D02*
X13090372Y-13565341D01*
X13090372Y-13565341D02*
X13071325Y-13555817D01*
X13071325Y-13555817D02*
X13042753Y-13555817D01*
X13042753Y-13555817D02*
X13023706Y-13546293D01*
X13023706Y-13546293D02*
X13014182Y-13527246D01*
X13014182Y-13527246D02*
X13014182Y-13517722D01*
X13014182Y-13517722D02*
X13023706Y-13498674D01*
X13023706Y-13498674D02*
X13042753Y-13489150D01*
X13042753Y-13489150D02*
X13071325Y-13489150D01*
X13071325Y-13489150D02*
X13090372Y-13498674D01*
X13166563Y-13698674D02*
X13176087Y-13689150D01*
X13176087Y-13689150D02*
X13195134Y-13660579D01*
X13195134Y-13660579D02*
X13204658Y-13641531D01*
X13204658Y-13641531D02*
X13214182Y-13612960D01*
X13214182Y-13612960D02*
X13223706Y-13565341D01*
X13223706Y-13565341D02*
X13223706Y-13527246D01*
X13223706Y-13527246D02*
X13214182Y-13479627D01*
X13214182Y-13479627D02*
X13204658Y-13451055D01*
X13204658Y-13451055D02*
X13195134Y-13432008D01*
X13195134Y-13432008D02*
X13176087Y-13403436D01*
X13176087Y-13403436D02*
X13166563Y-13393912D01*
D13*
X8341500Y-13745000D02*
X8341500Y-13845000D01*
X8291500Y-13795000D02*
X8391500Y-13795000D01*
D10*
X8757039Y-13886484D02*
X8642753Y-13886484D01*
X8699896Y-13886484D02*
X8699896Y-13686484D01*
X8699896Y-13686484D02*
X8680848Y-13715055D01*
X8680848Y-13715055D02*
X8661801Y-13734103D01*
X8661801Y-13734103D02*
X8642753Y-13743627D01*
X8842753Y-13867436D02*
X8852277Y-13876960D01*
X8852277Y-13876960D02*
X8842753Y-13886484D01*
X8842753Y-13886484D02*
X8833229Y-13876960D01*
X8833229Y-13876960D02*
X8842753Y-13867436D01*
X8842753Y-13867436D02*
X8842753Y-13886484D01*
X8976086Y-13686484D02*
X8995134Y-13686484D01*
X8995134Y-13686484D02*
X9014182Y-13696008D01*
X9014182Y-13696008D02*
X9023705Y-13705531D01*
X9023705Y-13705531D02*
X9033229Y-13724579D01*
X9033229Y-13724579D02*
X9042753Y-13762674D01*
X9042753Y-13762674D02*
X9042753Y-13810293D01*
X9042753Y-13810293D02*
X9033229Y-13848388D01*
X9033229Y-13848388D02*
X9023705Y-13867436D01*
X9023705Y-13867436D02*
X9014182Y-13876960D01*
X9014182Y-13876960D02*
X8995134Y-13886484D01*
X8995134Y-13886484D02*
X8976086Y-13886484D01*
X8976086Y-13886484D02*
X8957039Y-13876960D01*
X8957039Y-13876960D02*
X8947515Y-13867436D01*
X8947515Y-13867436D02*
X8937991Y-13848388D01*
X8937991Y-13848388D02*
X8928467Y-13810293D01*
X8928467Y-13810293D02*
X8928467Y-13762674D01*
X8928467Y-13762674D02*
X8937991Y-13724579D01*
X8937991Y-13724579D02*
X8947515Y-13705531D01*
X8947515Y-13705531D02*
X8957039Y-13696008D01*
X8957039Y-13696008D02*
X8976086Y-13686484D01*
X9166563Y-13686484D02*
X9185610Y-13686484D01*
X9185610Y-13686484D02*
X9204658Y-13696008D01*
X9204658Y-13696008D02*
X9214182Y-13705531D01*
X9214182Y-13705531D02*
X9223705Y-13724579D01*
X9223705Y-13724579D02*
X9233229Y-13762674D01*
X9233229Y-13762674D02*
X9233229Y-13810293D01*
X9233229Y-13810293D02*
X9223705Y-13848388D01*
X9223705Y-13848388D02*
X9214182Y-13867436D01*
X9214182Y-13867436D02*
X9204658Y-13876960D01*
X9204658Y-13876960D02*
X9185610Y-13886484D01*
X9185610Y-13886484D02*
X9166563Y-13886484D01*
X9166563Y-13886484D02*
X9147515Y-13876960D01*
X9147515Y-13876960D02*
X9137991Y-13867436D01*
X9137991Y-13867436D02*
X9128467Y-13848388D01*
X9128467Y-13848388D02*
X9118944Y-13810293D01*
X9118944Y-13810293D02*
X9118944Y-13762674D01*
X9118944Y-13762674D02*
X9128467Y-13724579D01*
X9128467Y-13724579D02*
X9137991Y-13705531D01*
X9137991Y-13705531D02*
X9147515Y-13696008D01*
X9147515Y-13696008D02*
X9166563Y-13686484D01*
X9357039Y-13686484D02*
X9376086Y-13686484D01*
X9376086Y-13686484D02*
X9395134Y-13696008D01*
X9395134Y-13696008D02*
X9404658Y-13705531D01*
X9404658Y-13705531D02*
X9414182Y-13724579D01*
X9414182Y-13724579D02*
X9423705Y-13762674D01*
X9423705Y-13762674D02*
X9423705Y-13810293D01*
X9423705Y-13810293D02*
X9414182Y-13848388D01*
X9414182Y-13848388D02*
X9404658Y-13867436D01*
X9404658Y-13867436D02*
X9395134Y-13876960D01*
X9395134Y-13876960D02*
X9376086Y-13886484D01*
X9376086Y-13886484D02*
X9357039Y-13886484D01*
X9357039Y-13886484D02*
X9337991Y-13876960D01*
X9337991Y-13876960D02*
X9328467Y-13867436D01*
X9328467Y-13867436D02*
X9318944Y-13848388D01*
X9318944Y-13848388D02*
X9309420Y-13810293D01*
X9309420Y-13810293D02*
X9309420Y-13762674D01*
X9309420Y-13762674D02*
X9318944Y-13724579D01*
X9318944Y-13724579D02*
X9328467Y-13705531D01*
X9328467Y-13705531D02*
X9337991Y-13696008D01*
X9337991Y-13696008D02*
X9357039Y-13686484D01*
X9509420Y-13886484D02*
X9509420Y-13753150D01*
X9509420Y-13772198D02*
X9518944Y-13762674D01*
X9518944Y-13762674D02*
X9537991Y-13753150D01*
X9537991Y-13753150D02*
X9566563Y-13753150D01*
X9566563Y-13753150D02*
X9585610Y-13762674D01*
X9585610Y-13762674D02*
X9595134Y-13781722D01*
X9595134Y-13781722D02*
X9595134Y-13886484D01*
X9595134Y-13781722D02*
X9604658Y-13762674D01*
X9604658Y-13762674D02*
X9623705Y-13753150D01*
X9623705Y-13753150D02*
X9652277Y-13753150D01*
X9652277Y-13753150D02*
X9671325Y-13762674D01*
X9671325Y-13762674D02*
X9680848Y-13781722D01*
X9680848Y-13781722D02*
X9680848Y-13886484D01*
X9776086Y-13886484D02*
X9776086Y-13753150D01*
X9776086Y-13772198D02*
X9785610Y-13762674D01*
X9785610Y-13762674D02*
X9804658Y-13753150D01*
X9804658Y-13753150D02*
X9833229Y-13753150D01*
X9833229Y-13753150D02*
X9852277Y-13762674D01*
X9852277Y-13762674D02*
X9861801Y-13781722D01*
X9861801Y-13781722D02*
X9861801Y-13886484D01*
X9861801Y-13781722D02*
X9871325Y-13762674D01*
X9871325Y-13762674D02*
X9890372Y-13753150D01*
X9890372Y-13753150D02*
X9918944Y-13753150D01*
X9918944Y-13753150D02*
X9937991Y-13762674D01*
X9937991Y-13762674D02*
X9947515Y-13781722D01*
X9947515Y-13781722D02*
X9947515Y-13886484D01*
X10337991Y-13676960D02*
X10166563Y-13934103D01*
X10595134Y-13686484D02*
X10614182Y-13686484D01*
X10614182Y-13686484D02*
X10633229Y-13696008D01*
X10633229Y-13696008D02*
X10642753Y-13705531D01*
X10642753Y-13705531D02*
X10652277Y-13724579D01*
X10652277Y-13724579D02*
X10661801Y-13762674D01*
X10661801Y-13762674D02*
X10661801Y-13810293D01*
X10661801Y-13810293D02*
X10652277Y-13848388D01*
X10652277Y-13848388D02*
X10642753Y-13867436D01*
X10642753Y-13867436D02*
X10633229Y-13876960D01*
X10633229Y-13876960D02*
X10614182Y-13886484D01*
X10614182Y-13886484D02*
X10595134Y-13886484D01*
X10595134Y-13886484D02*
X10576087Y-13876960D01*
X10576087Y-13876960D02*
X10566563Y-13867436D01*
X10566563Y-13867436D02*
X10557039Y-13848388D01*
X10557039Y-13848388D02*
X10547515Y-13810293D01*
X10547515Y-13810293D02*
X10547515Y-13762674D01*
X10547515Y-13762674D02*
X10557039Y-13724579D01*
X10557039Y-13724579D02*
X10566563Y-13705531D01*
X10566563Y-13705531D02*
X10576087Y-13696008D01*
X10576087Y-13696008D02*
X10595134Y-13686484D01*
X10747515Y-13867436D02*
X10757039Y-13876960D01*
X10757039Y-13876960D02*
X10747515Y-13886484D01*
X10747515Y-13886484D02*
X10737991Y-13876960D01*
X10737991Y-13876960D02*
X10747515Y-13867436D01*
X10747515Y-13867436D02*
X10747515Y-13886484D01*
X10880848Y-13686484D02*
X10899896Y-13686484D01*
X10899896Y-13686484D02*
X10918944Y-13696008D01*
X10918944Y-13696008D02*
X10928468Y-13705531D01*
X10928468Y-13705531D02*
X10937991Y-13724579D01*
X10937991Y-13724579D02*
X10947515Y-13762674D01*
X10947515Y-13762674D02*
X10947515Y-13810293D01*
X10947515Y-13810293D02*
X10937991Y-13848388D01*
X10937991Y-13848388D02*
X10928468Y-13867436D01*
X10928468Y-13867436D02*
X10918944Y-13876960D01*
X10918944Y-13876960D02*
X10899896Y-13886484D01*
X10899896Y-13886484D02*
X10880848Y-13886484D01*
X10880848Y-13886484D02*
X10861801Y-13876960D01*
X10861801Y-13876960D02*
X10852277Y-13867436D01*
X10852277Y-13867436D02*
X10842753Y-13848388D01*
X10842753Y-13848388D02*
X10833229Y-13810293D01*
X10833229Y-13810293D02*
X10833229Y-13762674D01*
X10833229Y-13762674D02*
X10842753Y-13724579D01*
X10842753Y-13724579D02*
X10852277Y-13705531D01*
X10852277Y-13705531D02*
X10861801Y-13696008D01*
X10861801Y-13696008D02*
X10880848Y-13686484D01*
X11014182Y-13686484D02*
X11137991Y-13686484D01*
X11137991Y-13686484D02*
X11071325Y-13762674D01*
X11071325Y-13762674D02*
X11099896Y-13762674D01*
X11099896Y-13762674D02*
X11118944Y-13772198D01*
X11118944Y-13772198D02*
X11128468Y-13781722D01*
X11128468Y-13781722D02*
X11137991Y-13800769D01*
X11137991Y-13800769D02*
X11137991Y-13848388D01*
X11137991Y-13848388D02*
X11128468Y-13867436D01*
X11128468Y-13867436D02*
X11118944Y-13876960D01*
X11118944Y-13876960D02*
X11099896Y-13886484D01*
X11099896Y-13886484D02*
X11042753Y-13886484D01*
X11042753Y-13886484D02*
X11023706Y-13876960D01*
X11023706Y-13876960D02*
X11014182Y-13867436D01*
X11233229Y-13886484D02*
X11271325Y-13886484D01*
X11271325Y-13886484D02*
X11290372Y-13876960D01*
X11290372Y-13876960D02*
X11299896Y-13867436D01*
X11299896Y-13867436D02*
X11318944Y-13838865D01*
X11318944Y-13838865D02*
X11328467Y-13800769D01*
X11328467Y-13800769D02*
X11328467Y-13724579D01*
X11328467Y-13724579D02*
X11318944Y-13705531D01*
X11318944Y-13705531D02*
X11309420Y-13696008D01*
X11309420Y-13696008D02*
X11290372Y-13686484D01*
X11290372Y-13686484D02*
X11252277Y-13686484D01*
X11252277Y-13686484D02*
X11233229Y-13696008D01*
X11233229Y-13696008D02*
X11223706Y-13705531D01*
X11223706Y-13705531D02*
X11214182Y-13724579D01*
X11214182Y-13724579D02*
X11214182Y-13772198D01*
X11214182Y-13772198D02*
X11223706Y-13791246D01*
X11223706Y-13791246D02*
X11233229Y-13800769D01*
X11233229Y-13800769D02*
X11252277Y-13810293D01*
X11252277Y-13810293D02*
X11290372Y-13810293D01*
X11290372Y-13810293D02*
X11309420Y-13800769D01*
X11309420Y-13800769D02*
X11318944Y-13791246D01*
X11318944Y-13791246D02*
X11328467Y-13772198D01*
X11499896Y-13753150D02*
X11499896Y-13886484D01*
X11452277Y-13676960D02*
X11404658Y-13819817D01*
X11404658Y-13819817D02*
X11528467Y-13819817D01*
X11595134Y-13686484D02*
X11595134Y-13724579D01*
X11671325Y-13686484D02*
X11671325Y-13724579D01*
X11966563Y-13962674D02*
X11957039Y-13953150D01*
X11957039Y-13953150D02*
X11937991Y-13924579D01*
X11937991Y-13924579D02*
X11928468Y-13905531D01*
X11928468Y-13905531D02*
X11918944Y-13876960D01*
X11918944Y-13876960D02*
X11909420Y-13829341D01*
X11909420Y-13829341D02*
X11909420Y-13791246D01*
X11909420Y-13791246D02*
X11918944Y-13743627D01*
X11918944Y-13743627D02*
X11928468Y-13715055D01*
X11928468Y-13715055D02*
X11937991Y-13696008D01*
X11937991Y-13696008D02*
X11957039Y-13667436D01*
X11957039Y-13667436D02*
X11966563Y-13657912D01*
X12147515Y-13886484D02*
X12033229Y-13886484D01*
X12090372Y-13886484D02*
X12090372Y-13686484D01*
X12090372Y-13686484D02*
X12071325Y-13715055D01*
X12071325Y-13715055D02*
X12052277Y-13734103D01*
X12052277Y-13734103D02*
X12033229Y-13743627D01*
X12271325Y-13686484D02*
X12290372Y-13686484D01*
X12290372Y-13686484D02*
X12309420Y-13696008D01*
X12309420Y-13696008D02*
X12318944Y-13705531D01*
X12318944Y-13705531D02*
X12328468Y-13724579D01*
X12328468Y-13724579D02*
X12337991Y-13762674D01*
X12337991Y-13762674D02*
X12337991Y-13810293D01*
X12337991Y-13810293D02*
X12328468Y-13848388D01*
X12328468Y-13848388D02*
X12318944Y-13867436D01*
X12318944Y-13867436D02*
X12309420Y-13876960D01*
X12309420Y-13876960D02*
X12290372Y-13886484D01*
X12290372Y-13886484D02*
X12271325Y-13886484D01*
X12271325Y-13886484D02*
X12252277Y-13876960D01*
X12252277Y-13876960D02*
X12242753Y-13867436D01*
X12242753Y-13867436D02*
X12233229Y-13848388D01*
X12233229Y-13848388D02*
X12223706Y-13810293D01*
X12223706Y-13810293D02*
X12223706Y-13762674D01*
X12223706Y-13762674D02*
X12233229Y-13724579D01*
X12233229Y-13724579D02*
X12242753Y-13705531D01*
X12242753Y-13705531D02*
X12252277Y-13696008D01*
X12252277Y-13696008D02*
X12271325Y-13686484D01*
X12576087Y-13886484D02*
X12576087Y-13686484D01*
X12661801Y-13886484D02*
X12661801Y-13781722D01*
X12661801Y-13781722D02*
X12652277Y-13762674D01*
X12652277Y-13762674D02*
X12633230Y-13753150D01*
X12633230Y-13753150D02*
X12604658Y-13753150D01*
X12604658Y-13753150D02*
X12585610Y-13762674D01*
X12585610Y-13762674D02*
X12576087Y-13772198D01*
X12785610Y-13886484D02*
X12766563Y-13876960D01*
X12766563Y-13876960D02*
X12757039Y-13867436D01*
X12757039Y-13867436D02*
X12747515Y-13848388D01*
X12747515Y-13848388D02*
X12747515Y-13791246D01*
X12747515Y-13791246D02*
X12757039Y-13772198D01*
X12757039Y-13772198D02*
X12766563Y-13762674D01*
X12766563Y-13762674D02*
X12785610Y-13753150D01*
X12785610Y-13753150D02*
X12814182Y-13753150D01*
X12814182Y-13753150D02*
X12833230Y-13762674D01*
X12833230Y-13762674D02*
X12842753Y-13772198D01*
X12842753Y-13772198D02*
X12852277Y-13791246D01*
X12852277Y-13791246D02*
X12852277Y-13848388D01*
X12852277Y-13848388D02*
X12842753Y-13867436D01*
X12842753Y-13867436D02*
X12833230Y-13876960D01*
X12833230Y-13876960D02*
X12814182Y-13886484D01*
X12814182Y-13886484D02*
X12785610Y-13886484D01*
X12966563Y-13886484D02*
X12947515Y-13876960D01*
X12947515Y-13876960D02*
X12937991Y-13857912D01*
X12937991Y-13857912D02*
X12937991Y-13686484D01*
X13118944Y-13876960D02*
X13099896Y-13886484D01*
X13099896Y-13886484D02*
X13061801Y-13886484D01*
X13061801Y-13886484D02*
X13042753Y-13876960D01*
X13042753Y-13876960D02*
X13033230Y-13857912D01*
X13033230Y-13857912D02*
X13033230Y-13781722D01*
X13033230Y-13781722D02*
X13042753Y-13762674D01*
X13042753Y-13762674D02*
X13061801Y-13753150D01*
X13061801Y-13753150D02*
X13099896Y-13753150D01*
X13099896Y-13753150D02*
X13118944Y-13762674D01*
X13118944Y-13762674D02*
X13128468Y-13781722D01*
X13128468Y-13781722D02*
X13128468Y-13800769D01*
X13128468Y-13800769D02*
X13033230Y-13819817D01*
X13204658Y-13876960D02*
X13223706Y-13886484D01*
X13223706Y-13886484D02*
X13261801Y-13886484D01*
X13261801Y-13886484D02*
X13280849Y-13876960D01*
X13280849Y-13876960D02*
X13290372Y-13857912D01*
X13290372Y-13857912D02*
X13290372Y-13848388D01*
X13290372Y-13848388D02*
X13280849Y-13829341D01*
X13280849Y-13829341D02*
X13261801Y-13819817D01*
X13261801Y-13819817D02*
X13233230Y-13819817D01*
X13233230Y-13819817D02*
X13214182Y-13810293D01*
X13214182Y-13810293D02*
X13204658Y-13791246D01*
X13204658Y-13791246D02*
X13204658Y-13781722D01*
X13204658Y-13781722D02*
X13214182Y-13762674D01*
X13214182Y-13762674D02*
X13233230Y-13753150D01*
X13233230Y-13753150D02*
X13261801Y-13753150D01*
X13261801Y-13753150D02*
X13280849Y-13762674D01*
X13357039Y-13962674D02*
X13366563Y-13953150D01*
X13366563Y-13953150D02*
X13385611Y-13924579D01*
X13385611Y-13924579D02*
X13395134Y-13905531D01*
X13395134Y-13905531D02*
X13404658Y-13876960D01*
X13404658Y-13876960D02*
X13414182Y-13829341D01*
X13414182Y-13829341D02*
X13414182Y-13791246D01*
X13414182Y-13791246D02*
X13404658Y-13743627D01*
X13404658Y-13743627D02*
X13395134Y-13715055D01*
X13395134Y-13715055D02*
X13385611Y-13696008D01*
X13385611Y-13696008D02*
X13366563Y-13667436D01*
X13366563Y-13667436D02*
X13357039Y-13657912D01*
X8362211Y-14129711D02*
X8362211Y-13988289D01*
X8220789Y-13988289D01*
X8220789Y-14129711D01*
X8362211Y-14129711D01*
X8633229Y-13950484D02*
X8757039Y-13950484D01*
X8757039Y-13950484D02*
X8690372Y-14026674D01*
X8690372Y-14026674D02*
X8718944Y-14026674D01*
X8718944Y-14026674D02*
X8737991Y-14036198D01*
X8737991Y-14036198D02*
X8747515Y-14045722D01*
X8747515Y-14045722D02*
X8757039Y-14064769D01*
X8757039Y-14064769D02*
X8757039Y-14112388D01*
X8757039Y-14112388D02*
X8747515Y-14131436D01*
X8747515Y-14131436D02*
X8737991Y-14140960D01*
X8737991Y-14140960D02*
X8718944Y-14150484D01*
X8718944Y-14150484D02*
X8661801Y-14150484D01*
X8661801Y-14150484D02*
X8642753Y-14140960D01*
X8642753Y-14140960D02*
X8633229Y-14131436D01*
X8842753Y-14131436D02*
X8852277Y-14140960D01*
X8852277Y-14140960D02*
X8842753Y-14150484D01*
X8842753Y-14150484D02*
X8833229Y-14140960D01*
X8833229Y-14140960D02*
X8842753Y-14131436D01*
X8842753Y-14131436D02*
X8842753Y-14150484D01*
X8928467Y-13969531D02*
X8937991Y-13960008D01*
X8937991Y-13960008D02*
X8957039Y-13950484D01*
X8957039Y-13950484D02*
X9004658Y-13950484D01*
X9004658Y-13950484D02*
X9023705Y-13960008D01*
X9023705Y-13960008D02*
X9033229Y-13969531D01*
X9033229Y-13969531D02*
X9042753Y-13988579D01*
X9042753Y-13988579D02*
X9042753Y-14007627D01*
X9042753Y-14007627D02*
X9033229Y-14036198D01*
X9033229Y-14036198D02*
X8918944Y-14150484D01*
X8918944Y-14150484D02*
X9042753Y-14150484D01*
X9166563Y-13950484D02*
X9185610Y-13950484D01*
X9185610Y-13950484D02*
X9204658Y-13960008D01*
X9204658Y-13960008D02*
X9214182Y-13969531D01*
X9214182Y-13969531D02*
X9223705Y-13988579D01*
X9223705Y-13988579D02*
X9233229Y-14026674D01*
X9233229Y-14026674D02*
X9233229Y-14074293D01*
X9233229Y-14074293D02*
X9223705Y-14112388D01*
X9223705Y-14112388D02*
X9214182Y-14131436D01*
X9214182Y-14131436D02*
X9204658Y-14140960D01*
X9204658Y-14140960D02*
X9185610Y-14150484D01*
X9185610Y-14150484D02*
X9166563Y-14150484D01*
X9166563Y-14150484D02*
X9147515Y-14140960D01*
X9147515Y-14140960D02*
X9137991Y-14131436D01*
X9137991Y-14131436D02*
X9128467Y-14112388D01*
X9128467Y-14112388D02*
X9118944Y-14074293D01*
X9118944Y-14074293D02*
X9118944Y-14026674D01*
X9118944Y-14026674D02*
X9128467Y-13988579D01*
X9128467Y-13988579D02*
X9137991Y-13969531D01*
X9137991Y-13969531D02*
X9147515Y-13960008D01*
X9147515Y-13960008D02*
X9166563Y-13950484D01*
X9357039Y-13950484D02*
X9376086Y-13950484D01*
X9376086Y-13950484D02*
X9395134Y-13960008D01*
X9395134Y-13960008D02*
X9404658Y-13969531D01*
X9404658Y-13969531D02*
X9414182Y-13988579D01*
X9414182Y-13988579D02*
X9423705Y-14026674D01*
X9423705Y-14026674D02*
X9423705Y-14074293D01*
X9423705Y-14074293D02*
X9414182Y-14112388D01*
X9414182Y-14112388D02*
X9404658Y-14131436D01*
X9404658Y-14131436D02*
X9395134Y-14140960D01*
X9395134Y-14140960D02*
X9376086Y-14150484D01*
X9376086Y-14150484D02*
X9357039Y-14150484D01*
X9357039Y-14150484D02*
X9337991Y-14140960D01*
X9337991Y-14140960D02*
X9328467Y-14131436D01*
X9328467Y-14131436D02*
X9318944Y-14112388D01*
X9318944Y-14112388D02*
X9309420Y-14074293D01*
X9309420Y-14074293D02*
X9309420Y-14026674D01*
X9309420Y-14026674D02*
X9318944Y-13988579D01*
X9318944Y-13988579D02*
X9328467Y-13969531D01*
X9328467Y-13969531D02*
X9337991Y-13960008D01*
X9337991Y-13960008D02*
X9357039Y-13950484D01*
X9509420Y-14150484D02*
X9509420Y-14017150D01*
X9509420Y-14036198D02*
X9518944Y-14026674D01*
X9518944Y-14026674D02*
X9537991Y-14017150D01*
X9537991Y-14017150D02*
X9566563Y-14017150D01*
X9566563Y-14017150D02*
X9585610Y-14026674D01*
X9585610Y-14026674D02*
X9595134Y-14045722D01*
X9595134Y-14045722D02*
X9595134Y-14150484D01*
X9595134Y-14045722D02*
X9604658Y-14026674D01*
X9604658Y-14026674D02*
X9623705Y-14017150D01*
X9623705Y-14017150D02*
X9652277Y-14017150D01*
X9652277Y-14017150D02*
X9671325Y-14026674D01*
X9671325Y-14026674D02*
X9680848Y-14045722D01*
X9680848Y-14045722D02*
X9680848Y-14150484D01*
X9776086Y-14150484D02*
X9776086Y-14017150D01*
X9776086Y-14036198D02*
X9785610Y-14026674D01*
X9785610Y-14026674D02*
X9804658Y-14017150D01*
X9804658Y-14017150D02*
X9833229Y-14017150D01*
X9833229Y-14017150D02*
X9852277Y-14026674D01*
X9852277Y-14026674D02*
X9861801Y-14045722D01*
X9861801Y-14045722D02*
X9861801Y-14150484D01*
X9861801Y-14045722D02*
X9871325Y-14026674D01*
X9871325Y-14026674D02*
X9890372Y-14017150D01*
X9890372Y-14017150D02*
X9918944Y-14017150D01*
X9918944Y-14017150D02*
X9937991Y-14026674D01*
X9937991Y-14026674D02*
X9947515Y-14045722D01*
X9947515Y-14045722D02*
X9947515Y-14150484D01*
X10337991Y-13940960D02*
X10166563Y-14198103D01*
X10595134Y-13950484D02*
X10614182Y-13950484D01*
X10614182Y-13950484D02*
X10633229Y-13960008D01*
X10633229Y-13960008D02*
X10642753Y-13969531D01*
X10642753Y-13969531D02*
X10652277Y-13988579D01*
X10652277Y-13988579D02*
X10661801Y-14026674D01*
X10661801Y-14026674D02*
X10661801Y-14074293D01*
X10661801Y-14074293D02*
X10652277Y-14112388D01*
X10652277Y-14112388D02*
X10642753Y-14131436D01*
X10642753Y-14131436D02*
X10633229Y-14140960D01*
X10633229Y-14140960D02*
X10614182Y-14150484D01*
X10614182Y-14150484D02*
X10595134Y-14150484D01*
X10595134Y-14150484D02*
X10576087Y-14140960D01*
X10576087Y-14140960D02*
X10566563Y-14131436D01*
X10566563Y-14131436D02*
X10557039Y-14112388D01*
X10557039Y-14112388D02*
X10547515Y-14074293D01*
X10547515Y-14074293D02*
X10547515Y-14026674D01*
X10547515Y-14026674D02*
X10557039Y-13988579D01*
X10557039Y-13988579D02*
X10566563Y-13969531D01*
X10566563Y-13969531D02*
X10576087Y-13960008D01*
X10576087Y-13960008D02*
X10595134Y-13950484D01*
X10747515Y-14131436D02*
X10757039Y-14140960D01*
X10757039Y-14140960D02*
X10747515Y-14150484D01*
X10747515Y-14150484D02*
X10737991Y-14140960D01*
X10737991Y-14140960D02*
X10747515Y-14131436D01*
X10747515Y-14131436D02*
X10747515Y-14150484D01*
X10947515Y-14150484D02*
X10833229Y-14150484D01*
X10890372Y-14150484D02*
X10890372Y-13950484D01*
X10890372Y-13950484D02*
X10871325Y-13979055D01*
X10871325Y-13979055D02*
X10852277Y-13998103D01*
X10852277Y-13998103D02*
X10833229Y-14007627D01*
X11023706Y-13969531D02*
X11033229Y-13960008D01*
X11033229Y-13960008D02*
X11052277Y-13950484D01*
X11052277Y-13950484D02*
X11099896Y-13950484D01*
X11099896Y-13950484D02*
X11118944Y-13960008D01*
X11118944Y-13960008D02*
X11128468Y-13969531D01*
X11128468Y-13969531D02*
X11137991Y-13988579D01*
X11137991Y-13988579D02*
X11137991Y-14007627D01*
X11137991Y-14007627D02*
X11128468Y-14036198D01*
X11128468Y-14036198D02*
X11014182Y-14150484D01*
X11014182Y-14150484D02*
X11137991Y-14150484D01*
X11309420Y-13950484D02*
X11271325Y-13950484D01*
X11271325Y-13950484D02*
X11252277Y-13960008D01*
X11252277Y-13960008D02*
X11242753Y-13969531D01*
X11242753Y-13969531D02*
X11223706Y-13998103D01*
X11223706Y-13998103D02*
X11214182Y-14036198D01*
X11214182Y-14036198D02*
X11214182Y-14112388D01*
X11214182Y-14112388D02*
X11223706Y-14131436D01*
X11223706Y-14131436D02*
X11233229Y-14140960D01*
X11233229Y-14140960D02*
X11252277Y-14150484D01*
X11252277Y-14150484D02*
X11290372Y-14150484D01*
X11290372Y-14150484D02*
X11309420Y-14140960D01*
X11309420Y-14140960D02*
X11318944Y-14131436D01*
X11318944Y-14131436D02*
X11328467Y-14112388D01*
X11328467Y-14112388D02*
X11328467Y-14064769D01*
X11328467Y-14064769D02*
X11318944Y-14045722D01*
X11318944Y-14045722D02*
X11309420Y-14036198D01*
X11309420Y-14036198D02*
X11290372Y-14026674D01*
X11290372Y-14026674D02*
X11252277Y-14026674D01*
X11252277Y-14026674D02*
X11233229Y-14036198D01*
X11233229Y-14036198D02*
X11223706Y-14045722D01*
X11223706Y-14045722D02*
X11214182Y-14064769D01*
X11452277Y-13950484D02*
X11471325Y-13950484D01*
X11471325Y-13950484D02*
X11490372Y-13960008D01*
X11490372Y-13960008D02*
X11499896Y-13969531D01*
X11499896Y-13969531D02*
X11509420Y-13988579D01*
X11509420Y-13988579D02*
X11518944Y-14026674D01*
X11518944Y-14026674D02*
X11518944Y-14074293D01*
X11518944Y-14074293D02*
X11509420Y-14112388D01*
X11509420Y-14112388D02*
X11499896Y-14131436D01*
X11499896Y-14131436D02*
X11490372Y-14140960D01*
X11490372Y-14140960D02*
X11471325Y-14150484D01*
X11471325Y-14150484D02*
X11452277Y-14150484D01*
X11452277Y-14150484D02*
X11433229Y-14140960D01*
X11433229Y-14140960D02*
X11423706Y-14131436D01*
X11423706Y-14131436D02*
X11414182Y-14112388D01*
X11414182Y-14112388D02*
X11404658Y-14074293D01*
X11404658Y-14074293D02*
X11404658Y-14026674D01*
X11404658Y-14026674D02*
X11414182Y-13988579D01*
X11414182Y-13988579D02*
X11423706Y-13969531D01*
X11423706Y-13969531D02*
X11433229Y-13960008D01*
X11433229Y-13960008D02*
X11452277Y-13950484D01*
X11595134Y-13950484D02*
X11595134Y-13988579D01*
X11671325Y-13950484D02*
X11671325Y-13988579D01*
X11966563Y-14226674D02*
X11957039Y-14217150D01*
X11957039Y-14217150D02*
X11937991Y-14188579D01*
X11937991Y-14188579D02*
X11928468Y-14169531D01*
X11928468Y-14169531D02*
X11918944Y-14140960D01*
X11918944Y-14140960D02*
X11909420Y-14093341D01*
X11909420Y-14093341D02*
X11909420Y-14055246D01*
X11909420Y-14055246D02*
X11918944Y-14007627D01*
X11918944Y-14007627D02*
X11928468Y-13979055D01*
X11928468Y-13979055D02*
X11937991Y-13960008D01*
X11937991Y-13960008D02*
X11957039Y-13931436D01*
X11957039Y-13931436D02*
X11966563Y-13921912D01*
X12033229Y-13969531D02*
X12042753Y-13960008D01*
X12042753Y-13960008D02*
X12061801Y-13950484D01*
X12061801Y-13950484D02*
X12109420Y-13950484D01*
X12109420Y-13950484D02*
X12128468Y-13960008D01*
X12128468Y-13960008D02*
X12137991Y-13969531D01*
X12137991Y-13969531D02*
X12147515Y-13988579D01*
X12147515Y-13988579D02*
X12147515Y-14007627D01*
X12147515Y-14007627D02*
X12137991Y-14036198D01*
X12137991Y-14036198D02*
X12023706Y-14150484D01*
X12023706Y-14150484D02*
X12147515Y-14150484D01*
X12385610Y-14150484D02*
X12385610Y-13950484D01*
X12471325Y-14150484D02*
X12471325Y-14045722D01*
X12471325Y-14045722D02*
X12461801Y-14026674D01*
X12461801Y-14026674D02*
X12442753Y-14017150D01*
X12442753Y-14017150D02*
X12414182Y-14017150D01*
X12414182Y-14017150D02*
X12395134Y-14026674D01*
X12395134Y-14026674D02*
X12385610Y-14036198D01*
X12595134Y-14150484D02*
X12576087Y-14140960D01*
X12576087Y-14140960D02*
X12566563Y-14131436D01*
X12566563Y-14131436D02*
X12557039Y-14112388D01*
X12557039Y-14112388D02*
X12557039Y-14055246D01*
X12557039Y-14055246D02*
X12566563Y-14036198D01*
X12566563Y-14036198D02*
X12576087Y-14026674D01*
X12576087Y-14026674D02*
X12595134Y-14017150D01*
X12595134Y-14017150D02*
X12623706Y-14017150D01*
X12623706Y-14017150D02*
X12642753Y-14026674D01*
X12642753Y-14026674D02*
X12652277Y-14036198D01*
X12652277Y-14036198D02*
X12661801Y-14055246D01*
X12661801Y-14055246D02*
X12661801Y-14112388D01*
X12661801Y-14112388D02*
X12652277Y-14131436D01*
X12652277Y-14131436D02*
X12642753Y-14140960D01*
X12642753Y-14140960D02*
X12623706Y-14150484D01*
X12623706Y-14150484D02*
X12595134Y-14150484D01*
X12776087Y-14150484D02*
X12757039Y-14140960D01*
X12757039Y-14140960D02*
X12747515Y-14121912D01*
X12747515Y-14121912D02*
X12747515Y-13950484D01*
X12928468Y-14140960D02*
X12909420Y-14150484D01*
X12909420Y-14150484D02*
X12871325Y-14150484D01*
X12871325Y-14150484D02*
X12852277Y-14140960D01*
X12852277Y-14140960D02*
X12842753Y-14121912D01*
X12842753Y-14121912D02*
X12842753Y-14045722D01*
X12842753Y-14045722D02*
X12852277Y-14026674D01*
X12852277Y-14026674D02*
X12871325Y-14017150D01*
X12871325Y-14017150D02*
X12909420Y-14017150D01*
X12909420Y-14017150D02*
X12928468Y-14026674D01*
X12928468Y-14026674D02*
X12937991Y-14045722D01*
X12937991Y-14045722D02*
X12937991Y-14064769D01*
X12937991Y-14064769D02*
X12842753Y-14083817D01*
X13014182Y-14140960D02*
X13033230Y-14150484D01*
X13033230Y-14150484D02*
X13071325Y-14150484D01*
X13071325Y-14150484D02*
X13090372Y-14140960D01*
X13090372Y-14140960D02*
X13099896Y-14121912D01*
X13099896Y-14121912D02*
X13099896Y-14112388D01*
X13099896Y-14112388D02*
X13090372Y-14093341D01*
X13090372Y-14093341D02*
X13071325Y-14083817D01*
X13071325Y-14083817D02*
X13042753Y-14083817D01*
X13042753Y-14083817D02*
X13023706Y-14074293D01*
X13023706Y-14074293D02*
X13014182Y-14055246D01*
X13014182Y-14055246D02*
X13014182Y-14045722D01*
X13014182Y-14045722D02*
X13023706Y-14026674D01*
X13023706Y-14026674D02*
X13042753Y-14017150D01*
X13042753Y-14017150D02*
X13071325Y-14017150D01*
X13071325Y-14017150D02*
X13090372Y-14026674D01*
X13166563Y-14226674D02*
X13176087Y-14217150D01*
X13176087Y-14217150D02*
X13195134Y-14188579D01*
X13195134Y-14188579D02*
X13204658Y-14169531D01*
X13204658Y-14169531D02*
X13214182Y-14140960D01*
X13214182Y-14140960D02*
X13223706Y-14093341D01*
X13223706Y-14093341D02*
X13223706Y-14055246D01*
X13223706Y-14055246D02*
X13214182Y-14007627D01*
X13214182Y-14007627D02*
X13204658Y-13979055D01*
X13204658Y-13979055D02*
X13195134Y-13960008D01*
X13195134Y-13960008D02*
X13176087Y-13931436D01*
X13176087Y-13931436D02*
X13166563Y-13921912D01*
M02*
