G04 #@! TF.GenerationSoftware,KiCad,Pcbnew,7.0.7*
G04 #@! TF.CreationDate,2024-01-15T15:13:53+00:00*
G04 #@! TF.ProjectId,cardboard,63617264-626f-4617-9264-2e6b69636164,rev?*
G04 #@! TF.SameCoordinates,Original*
G04 #@! TF.FileFunction,Legend,Bot*
G04 #@! TF.FilePolarity,Positive*
%FSLAX46Y46*%
G04 Gerber Fmt 4.6, Leading zero omitted, Abs format (unit mm)*
G04 Created by KiCad (PCBNEW 7.0.7) date 2024-01-15 15:13:53*
%MOMM*%
%LPD*%
G01*
G04 APERTURE LIST*
%ADD10C,0.200000*%
%ADD11C,0.150000*%
%ADD12C,0.254000*%
%ADD13C,0.120000*%
%ADD14R,1.000000X1.000000*%
%ADD15C,1.000000*%
%ADD16C,6.400000*%
%ADD17R,1.700000X1.700000*%
%ADD18O,1.700000X1.700000*%
%ADD19R,1.050000X1.050000*%
%ADD20R,2.200000X1.050000*%
%ADD21R,1.050000X2.200000*%
G04 APERTURE END LIST*
D10*
X113974695Y-75817619D02*
X113174695Y-75817619D01*
X113174695Y-75817619D02*
X113174695Y-76122381D01*
X113174695Y-76122381D02*
X113212790Y-76198571D01*
X113212790Y-76198571D02*
X113250885Y-76236666D01*
X113250885Y-76236666D02*
X113327076Y-76274762D01*
X113327076Y-76274762D02*
X113441361Y-76274762D01*
X113441361Y-76274762D02*
X113517552Y-76236666D01*
X113517552Y-76236666D02*
X113555647Y-76198571D01*
X113555647Y-76198571D02*
X113593742Y-76122381D01*
X113593742Y-76122381D02*
X113593742Y-75817619D01*
X113250885Y-76579523D02*
X113212790Y-76617619D01*
X113212790Y-76617619D02*
X113174695Y-76693809D01*
X113174695Y-76693809D02*
X113174695Y-76884285D01*
X113174695Y-76884285D02*
X113212790Y-76960476D01*
X113212790Y-76960476D02*
X113250885Y-76998571D01*
X113250885Y-76998571D02*
X113327076Y-77036666D01*
X113327076Y-77036666D02*
X113403266Y-77036666D01*
X113403266Y-77036666D02*
X113517552Y-76998571D01*
X113517552Y-76998571D02*
X113974695Y-76541428D01*
X113974695Y-76541428D02*
X113974695Y-77036666D01*
X113174695Y-77531905D02*
X113174695Y-77608095D01*
X113174695Y-77608095D02*
X113212790Y-77684286D01*
X113212790Y-77684286D02*
X113250885Y-77722381D01*
X113250885Y-77722381D02*
X113327076Y-77760476D01*
X113327076Y-77760476D02*
X113479457Y-77798571D01*
X113479457Y-77798571D02*
X113669933Y-77798571D01*
X113669933Y-77798571D02*
X113822314Y-77760476D01*
X113822314Y-77760476D02*
X113898504Y-77722381D01*
X113898504Y-77722381D02*
X113936600Y-77684286D01*
X113936600Y-77684286D02*
X113974695Y-77608095D01*
X113974695Y-77608095D02*
X113974695Y-77531905D01*
X113974695Y-77531905D02*
X113936600Y-77455714D01*
X113936600Y-77455714D02*
X113898504Y-77417619D01*
X113898504Y-77417619D02*
X113822314Y-77379524D01*
X113822314Y-77379524D02*
X113669933Y-77341428D01*
X113669933Y-77341428D02*
X113479457Y-77341428D01*
X113479457Y-77341428D02*
X113327076Y-77379524D01*
X113327076Y-77379524D02*
X113250885Y-77417619D01*
X113250885Y-77417619D02*
X113212790Y-77455714D01*
X113212790Y-77455714D02*
X113174695Y-77531905D01*
X113250885Y-78103333D02*
X113212790Y-78141429D01*
X113212790Y-78141429D02*
X113174695Y-78217619D01*
X113174695Y-78217619D02*
X113174695Y-78408095D01*
X113174695Y-78408095D02*
X113212790Y-78484286D01*
X113212790Y-78484286D02*
X113250885Y-78522381D01*
X113250885Y-78522381D02*
X113327076Y-78560476D01*
X113327076Y-78560476D02*
X113403266Y-78560476D01*
X113403266Y-78560476D02*
X113517552Y-78522381D01*
X113517552Y-78522381D02*
X113974695Y-78065238D01*
X113974695Y-78065238D02*
X113974695Y-78560476D01*
D11*
X93249819Y-57884285D02*
X93964104Y-57884285D01*
X93964104Y-57884285D02*
X94106961Y-57836666D01*
X94106961Y-57836666D02*
X94202200Y-57741428D01*
X94202200Y-57741428D02*
X94249819Y-57598571D01*
X94249819Y-57598571D02*
X94249819Y-57503333D01*
X93583152Y-58789047D02*
X94249819Y-58789047D01*
X93202200Y-58550952D02*
X93916485Y-58312857D01*
X93916485Y-58312857D02*
X93916485Y-58931904D01*
X94249819Y-59836666D02*
X94249819Y-59265238D01*
X94249819Y-59550952D02*
X93249819Y-59550952D01*
X93249819Y-59550952D02*
X93392676Y-59455714D01*
X93392676Y-59455714D02*
X93487914Y-59360476D01*
X93487914Y-59360476D02*
X93535533Y-59265238D01*
X93345057Y-60217619D02*
X93297438Y-60265238D01*
X93297438Y-60265238D02*
X93249819Y-60360476D01*
X93249819Y-60360476D02*
X93249819Y-60598571D01*
X93249819Y-60598571D02*
X93297438Y-60693809D01*
X93297438Y-60693809D02*
X93345057Y-60741428D01*
X93345057Y-60741428D02*
X93440295Y-60789047D01*
X93440295Y-60789047D02*
X93535533Y-60789047D01*
X93535533Y-60789047D02*
X93678390Y-60741428D01*
X93678390Y-60741428D02*
X94249819Y-60170000D01*
X94249819Y-60170000D02*
X94249819Y-60789047D01*
D10*
X110567380Y-71329695D02*
X110567380Y-70529695D01*
X110567380Y-70529695D02*
X110262618Y-70529695D01*
X110262618Y-70529695D02*
X110186428Y-70567790D01*
X110186428Y-70567790D02*
X110148333Y-70605885D01*
X110148333Y-70605885D02*
X110110237Y-70682076D01*
X110110237Y-70682076D02*
X110110237Y-70796361D01*
X110110237Y-70796361D02*
X110148333Y-70872552D01*
X110148333Y-70872552D02*
X110186428Y-70910647D01*
X110186428Y-70910647D02*
X110262618Y-70948742D01*
X110262618Y-70948742D02*
X110567380Y-70948742D01*
X109805476Y-70605885D02*
X109767380Y-70567790D01*
X109767380Y-70567790D02*
X109691190Y-70529695D01*
X109691190Y-70529695D02*
X109500714Y-70529695D01*
X109500714Y-70529695D02*
X109424523Y-70567790D01*
X109424523Y-70567790D02*
X109386428Y-70605885D01*
X109386428Y-70605885D02*
X109348333Y-70682076D01*
X109348333Y-70682076D02*
X109348333Y-70758266D01*
X109348333Y-70758266D02*
X109386428Y-70872552D01*
X109386428Y-70872552D02*
X109843571Y-71329695D01*
X109843571Y-71329695D02*
X109348333Y-71329695D01*
X108853094Y-70529695D02*
X108776904Y-70529695D01*
X108776904Y-70529695D02*
X108700713Y-70567790D01*
X108700713Y-70567790D02*
X108662618Y-70605885D01*
X108662618Y-70605885D02*
X108624523Y-70682076D01*
X108624523Y-70682076D02*
X108586428Y-70834457D01*
X108586428Y-70834457D02*
X108586428Y-71024933D01*
X108586428Y-71024933D02*
X108624523Y-71177314D01*
X108624523Y-71177314D02*
X108662618Y-71253504D01*
X108662618Y-71253504D02*
X108700713Y-71291600D01*
X108700713Y-71291600D02*
X108776904Y-71329695D01*
X108776904Y-71329695D02*
X108853094Y-71329695D01*
X108853094Y-71329695D02*
X108929285Y-71291600D01*
X108929285Y-71291600D02*
X108967380Y-71253504D01*
X108967380Y-71253504D02*
X109005475Y-71177314D01*
X109005475Y-71177314D02*
X109043571Y-71024933D01*
X109043571Y-71024933D02*
X109043571Y-70834457D01*
X109043571Y-70834457D02*
X109005475Y-70682076D01*
X109005475Y-70682076D02*
X108967380Y-70605885D01*
X108967380Y-70605885D02*
X108929285Y-70567790D01*
X108929285Y-70567790D02*
X108853094Y-70529695D01*
X108091189Y-70529695D02*
X108014999Y-70529695D01*
X108014999Y-70529695D02*
X107938808Y-70567790D01*
X107938808Y-70567790D02*
X107900713Y-70605885D01*
X107900713Y-70605885D02*
X107862618Y-70682076D01*
X107862618Y-70682076D02*
X107824523Y-70834457D01*
X107824523Y-70834457D02*
X107824523Y-71024933D01*
X107824523Y-71024933D02*
X107862618Y-71177314D01*
X107862618Y-71177314D02*
X107900713Y-71253504D01*
X107900713Y-71253504D02*
X107938808Y-71291600D01*
X107938808Y-71291600D02*
X108014999Y-71329695D01*
X108014999Y-71329695D02*
X108091189Y-71329695D01*
X108091189Y-71329695D02*
X108167380Y-71291600D01*
X108167380Y-71291600D02*
X108205475Y-71253504D01*
X108205475Y-71253504D02*
X108243570Y-71177314D01*
X108243570Y-71177314D02*
X108281666Y-71024933D01*
X108281666Y-71024933D02*
X108281666Y-70834457D01*
X108281666Y-70834457D02*
X108243570Y-70682076D01*
X108243570Y-70682076D02*
X108205475Y-70605885D01*
X108205475Y-70605885D02*
X108167380Y-70567790D01*
X108167380Y-70567790D02*
X108091189Y-70529695D01*
D12*
X112800000Y-75770000D02*
X112800000Y-78370000D01*
X110200000Y-75770000D02*
X110200000Y-76300330D01*
X110200000Y-78370000D02*
X110200000Y-77858000D01*
D13*
X115235000Y-57840000D02*
X115235000Y-60500000D01*
X97395000Y-57840000D02*
X115235000Y-57840000D01*
X97395000Y-57840000D02*
X97395000Y-60500000D01*
X96125000Y-57840000D02*
X94795000Y-57840000D01*
X94795000Y-57840000D02*
X94795000Y-59170000D01*
X97395000Y-60500000D02*
X115235000Y-60500000D01*
D12*
X107700000Y-71570000D02*
X110300000Y-71570000D01*
X107700000Y-74170000D02*
X108230330Y-74170000D01*
X110300000Y-74170000D02*
X109788000Y-74170000D01*
%LPC*%
D14*
X117715000Y-70600000D03*
D15*
X117515000Y-109170000D03*
D14*
X102000000Y-64670000D03*
X108000000Y-62270000D03*
X112515000Y-63170000D03*
D16*
X122015000Y-73170000D03*
D14*
X89915000Y-67470000D03*
D16*
X88015000Y-73170000D03*
D15*
X92515000Y-109170000D03*
D14*
X112635000Y-70600000D03*
X115175000Y-70600000D03*
D17*
X106340000Y-83270000D03*
D18*
X108880000Y-83270000D03*
D19*
X109975000Y-77070000D03*
D20*
X111500000Y-75595000D03*
X111500000Y-78545000D03*
D17*
X96125000Y-59170000D03*
D18*
X98665000Y-59170000D03*
X101205000Y-59170000D03*
X103745000Y-59170000D03*
X106285000Y-59170000D03*
X108825000Y-59170000D03*
X111365000Y-59170000D03*
X113905000Y-59170000D03*
D19*
X109000000Y-74395000D03*
D21*
X107525000Y-72870000D03*
X110475000Y-72870000D03*
%LPD*%
M02*
