G04 #@! TF.GenerationSoftware,KiCad,Pcbnew,7.0.7*
G04 #@! TF.CreationDate,2024-01-15T15:13:53+00:00*
G04 #@! TF.ProjectId,cardboard,63617264-626f-4617-9264-2e6b69636164,rev?*
G04 #@! TF.SameCoordinates,Original*
G04 #@! TF.FileFunction,Legend,Top*
G04 #@! TF.FilePolarity,Positive*
%FSLAX46Y46*%
G04 Gerber Fmt 4.6, Leading zero omitted, Abs format (unit mm)*
G04 Created by KiCad (PCBNEW 7.0.7) date 2024-01-15 15:13:53*
%MOMM*%
%LPD*%
G01*
G04 APERTURE LIST*
G04 Aperture macros list*
%AMRoundRect*
0 Rectangle with rounded corners*
0 $1 Rounding radius*
0 $2 $3 $4 $5 $6 $7 $8 $9 X,Y pos of 4 corners*
0 Add a 4 corners polygon primitive as box body*
4,1,4,$2,$3,$4,$5,$6,$7,$8,$9,$2,$3,0*
0 Add four circle primitives for the rounded corners*
1,1,$1+$1,$2,$3*
1,1,$1+$1,$4,$5*
1,1,$1+$1,$6,$7*
1,1,$1+$1,$8,$9*
0 Add four rect primitives between the rounded corners*
20,1,$1+$1,$2,$3,$4,$5,0*
20,1,$1+$1,$4,$5,$6,$7,0*
20,1,$1+$1,$6,$7,$8,$9,0*
20,1,$1+$1,$8,$9,$2,$3,0*%
G04 Aperture macros list end*
%ADD10C,0.200000*%
%ADD11C,0.120000*%
%ADD12C,0.100000*%
%ADD13C,0.250000*%
%ADD14RoundRect,0.225000X0.225000X-0.225000X0.225000X0.225000X-0.225000X0.225000X-0.225000X-0.225000X0*%
%ADD15R,0.600000X0.600000*%
%ADD16RoundRect,0.225000X-0.225000X0.225000X-0.225000X-0.225000X0.225000X-0.225000X0.225000X0.225000X0*%
%ADD17RoundRect,0.225000X-0.225000X-0.225000X0.225000X-0.225000X0.225000X0.225000X-0.225000X0.225000X0*%
%ADD18R,0.500000X1.000000*%
%ADD19R,1.200000X1.400000*%
%ADD20R,1.000000X1.000000*%
%ADD21R,0.800000X0.800000*%
%ADD22RoundRect,0.225000X0.225000X0.225000X-0.225000X0.225000X-0.225000X-0.225000X0.225000X-0.225000X0*%
%ADD23C,1.000000*%
%ADD24R,0.600000X0.700000*%
%ADD25C,6.400000*%
%ADD26R,1.700000X1.700000*%
%ADD27O,1.700000X1.700000*%
%ADD28R,0.850000X0.300000*%
%ADD29R,0.300000X0.850000*%
%ADD30R,3.600000X3.600000*%
G04 APERTURE END LIST*
D10*
X88498504Y-60265237D02*
X88536600Y-60303333D01*
X88536600Y-60303333D02*
X88574695Y-60417618D01*
X88574695Y-60417618D02*
X88574695Y-60493809D01*
X88574695Y-60493809D02*
X88536600Y-60608095D01*
X88536600Y-60608095D02*
X88460409Y-60684285D01*
X88460409Y-60684285D02*
X88384219Y-60722380D01*
X88384219Y-60722380D02*
X88231838Y-60760476D01*
X88231838Y-60760476D02*
X88117552Y-60760476D01*
X88117552Y-60760476D02*
X87965171Y-60722380D01*
X87965171Y-60722380D02*
X87888980Y-60684285D01*
X87888980Y-60684285D02*
X87812790Y-60608095D01*
X87812790Y-60608095D02*
X87774695Y-60493809D01*
X87774695Y-60493809D02*
X87774695Y-60417618D01*
X87774695Y-60417618D02*
X87812790Y-60303333D01*
X87812790Y-60303333D02*
X87850885Y-60265237D01*
X88574695Y-59503333D02*
X88574695Y-59960476D01*
X88574695Y-59731904D02*
X87774695Y-59731904D01*
X87774695Y-59731904D02*
X87888980Y-59808095D01*
X87888980Y-59808095D02*
X87965171Y-59884285D01*
X87965171Y-59884285D02*
X88003266Y-59960476D01*
X87774695Y-59008094D02*
X87774695Y-58931904D01*
X87774695Y-58931904D02*
X87812790Y-58855713D01*
X87812790Y-58855713D02*
X87850885Y-58817618D01*
X87850885Y-58817618D02*
X87927076Y-58779523D01*
X87927076Y-58779523D02*
X88079457Y-58741428D01*
X88079457Y-58741428D02*
X88269933Y-58741428D01*
X88269933Y-58741428D02*
X88422314Y-58779523D01*
X88422314Y-58779523D02*
X88498504Y-58817618D01*
X88498504Y-58817618D02*
X88536600Y-58855713D01*
X88536600Y-58855713D02*
X88574695Y-58931904D01*
X88574695Y-58931904D02*
X88574695Y-59008094D01*
X88574695Y-59008094D02*
X88536600Y-59084285D01*
X88536600Y-59084285D02*
X88498504Y-59122380D01*
X88498504Y-59122380D02*
X88422314Y-59160475D01*
X88422314Y-59160475D02*
X88269933Y-59198571D01*
X88269933Y-59198571D02*
X88079457Y-59198571D01*
X88079457Y-59198571D02*
X87927076Y-59160475D01*
X87927076Y-59160475D02*
X87850885Y-59122380D01*
X87850885Y-59122380D02*
X87812790Y-59084285D01*
X87812790Y-59084285D02*
X87774695Y-59008094D01*
X87774695Y-58246189D02*
X87774695Y-58169999D01*
X87774695Y-58169999D02*
X87812790Y-58093808D01*
X87812790Y-58093808D02*
X87850885Y-58055713D01*
X87850885Y-58055713D02*
X87927076Y-58017618D01*
X87927076Y-58017618D02*
X88079457Y-57979523D01*
X88079457Y-57979523D02*
X88269933Y-57979523D01*
X88269933Y-57979523D02*
X88422314Y-58017618D01*
X88422314Y-58017618D02*
X88498504Y-58055713D01*
X88498504Y-58055713D02*
X88536600Y-58093808D01*
X88536600Y-58093808D02*
X88574695Y-58169999D01*
X88574695Y-58169999D02*
X88574695Y-58246189D01*
X88574695Y-58246189D02*
X88536600Y-58322380D01*
X88536600Y-58322380D02*
X88498504Y-58360475D01*
X88498504Y-58360475D02*
X88422314Y-58398570D01*
X88422314Y-58398570D02*
X88269933Y-58436666D01*
X88269933Y-58436666D02*
X88079457Y-58436666D01*
X88079457Y-58436666D02*
X87927076Y-58398570D01*
X87927076Y-58398570D02*
X87850885Y-58360475D01*
X87850885Y-58360475D02*
X87812790Y-58322380D01*
X87812790Y-58322380D02*
X87774695Y-58246189D01*
X93719762Y-80853504D02*
X93681666Y-80891600D01*
X93681666Y-80891600D02*
X93567381Y-80929695D01*
X93567381Y-80929695D02*
X93491190Y-80929695D01*
X93491190Y-80929695D02*
X93376904Y-80891600D01*
X93376904Y-80891600D02*
X93300714Y-80815409D01*
X93300714Y-80815409D02*
X93262619Y-80739219D01*
X93262619Y-80739219D02*
X93224523Y-80586838D01*
X93224523Y-80586838D02*
X93224523Y-80472552D01*
X93224523Y-80472552D02*
X93262619Y-80320171D01*
X93262619Y-80320171D02*
X93300714Y-80243980D01*
X93300714Y-80243980D02*
X93376904Y-80167790D01*
X93376904Y-80167790D02*
X93491190Y-80129695D01*
X93491190Y-80129695D02*
X93567381Y-80129695D01*
X93567381Y-80129695D02*
X93681666Y-80167790D01*
X93681666Y-80167790D02*
X93719762Y-80205885D01*
X93986428Y-80129695D02*
X94481666Y-80129695D01*
X94481666Y-80129695D02*
X94215000Y-80434457D01*
X94215000Y-80434457D02*
X94329285Y-80434457D01*
X94329285Y-80434457D02*
X94405476Y-80472552D01*
X94405476Y-80472552D02*
X94443571Y-80510647D01*
X94443571Y-80510647D02*
X94481666Y-80586838D01*
X94481666Y-80586838D02*
X94481666Y-80777314D01*
X94481666Y-80777314D02*
X94443571Y-80853504D01*
X94443571Y-80853504D02*
X94405476Y-80891600D01*
X94405476Y-80891600D02*
X94329285Y-80929695D01*
X94329285Y-80929695D02*
X94100714Y-80929695D01*
X94100714Y-80929695D02*
X94024523Y-80891600D01*
X94024523Y-80891600D02*
X93986428Y-80853504D01*
X94976905Y-80129695D02*
X95053095Y-80129695D01*
X95053095Y-80129695D02*
X95129286Y-80167790D01*
X95129286Y-80167790D02*
X95167381Y-80205885D01*
X95167381Y-80205885D02*
X95205476Y-80282076D01*
X95205476Y-80282076D02*
X95243571Y-80434457D01*
X95243571Y-80434457D02*
X95243571Y-80624933D01*
X95243571Y-80624933D02*
X95205476Y-80777314D01*
X95205476Y-80777314D02*
X95167381Y-80853504D01*
X95167381Y-80853504D02*
X95129286Y-80891600D01*
X95129286Y-80891600D02*
X95053095Y-80929695D01*
X95053095Y-80929695D02*
X94976905Y-80929695D01*
X94976905Y-80929695D02*
X94900714Y-80891600D01*
X94900714Y-80891600D02*
X94862619Y-80853504D01*
X94862619Y-80853504D02*
X94824524Y-80777314D01*
X94824524Y-80777314D02*
X94786428Y-80624933D01*
X94786428Y-80624933D02*
X94786428Y-80434457D01*
X94786428Y-80434457D02*
X94824524Y-80282076D01*
X94824524Y-80282076D02*
X94862619Y-80205885D01*
X94862619Y-80205885D02*
X94900714Y-80167790D01*
X94900714Y-80167790D02*
X94976905Y-80129695D01*
X95548333Y-80205885D02*
X95586429Y-80167790D01*
X95586429Y-80167790D02*
X95662619Y-80129695D01*
X95662619Y-80129695D02*
X95853095Y-80129695D01*
X95853095Y-80129695D02*
X95929286Y-80167790D01*
X95929286Y-80167790D02*
X95967381Y-80205885D01*
X95967381Y-80205885D02*
X96005476Y-80282076D01*
X96005476Y-80282076D02*
X96005476Y-80358266D01*
X96005476Y-80358266D02*
X95967381Y-80472552D01*
X95967381Y-80472552D02*
X95510238Y-80929695D01*
X95510238Y-80929695D02*
X96005476Y-80929695D01*
X119698504Y-79065237D02*
X119736600Y-79103333D01*
X119736600Y-79103333D02*
X119774695Y-79217618D01*
X119774695Y-79217618D02*
X119774695Y-79293809D01*
X119774695Y-79293809D02*
X119736600Y-79408095D01*
X119736600Y-79408095D02*
X119660409Y-79484285D01*
X119660409Y-79484285D02*
X119584219Y-79522380D01*
X119584219Y-79522380D02*
X119431838Y-79560476D01*
X119431838Y-79560476D02*
X119317552Y-79560476D01*
X119317552Y-79560476D02*
X119165171Y-79522380D01*
X119165171Y-79522380D02*
X119088980Y-79484285D01*
X119088980Y-79484285D02*
X119012790Y-79408095D01*
X119012790Y-79408095D02*
X118974695Y-79293809D01*
X118974695Y-79293809D02*
X118974695Y-79217618D01*
X118974695Y-79217618D02*
X119012790Y-79103333D01*
X119012790Y-79103333D02*
X119050885Y-79065237D01*
X118974695Y-78798571D02*
X118974695Y-78303333D01*
X118974695Y-78303333D02*
X119279457Y-78569999D01*
X119279457Y-78569999D02*
X119279457Y-78455714D01*
X119279457Y-78455714D02*
X119317552Y-78379523D01*
X119317552Y-78379523D02*
X119355647Y-78341428D01*
X119355647Y-78341428D02*
X119431838Y-78303333D01*
X119431838Y-78303333D02*
X119622314Y-78303333D01*
X119622314Y-78303333D02*
X119698504Y-78341428D01*
X119698504Y-78341428D02*
X119736600Y-78379523D01*
X119736600Y-78379523D02*
X119774695Y-78455714D01*
X119774695Y-78455714D02*
X119774695Y-78684285D01*
X119774695Y-78684285D02*
X119736600Y-78760476D01*
X119736600Y-78760476D02*
X119698504Y-78798571D01*
X118974695Y-77808094D02*
X118974695Y-77731904D01*
X118974695Y-77731904D02*
X119012790Y-77655713D01*
X119012790Y-77655713D02*
X119050885Y-77617618D01*
X119050885Y-77617618D02*
X119127076Y-77579523D01*
X119127076Y-77579523D02*
X119279457Y-77541428D01*
X119279457Y-77541428D02*
X119469933Y-77541428D01*
X119469933Y-77541428D02*
X119622314Y-77579523D01*
X119622314Y-77579523D02*
X119698504Y-77617618D01*
X119698504Y-77617618D02*
X119736600Y-77655713D01*
X119736600Y-77655713D02*
X119774695Y-77731904D01*
X119774695Y-77731904D02*
X119774695Y-77808094D01*
X119774695Y-77808094D02*
X119736600Y-77884285D01*
X119736600Y-77884285D02*
X119698504Y-77922380D01*
X119698504Y-77922380D02*
X119622314Y-77960475D01*
X119622314Y-77960475D02*
X119469933Y-77998571D01*
X119469933Y-77998571D02*
X119279457Y-77998571D01*
X119279457Y-77998571D02*
X119127076Y-77960475D01*
X119127076Y-77960475D02*
X119050885Y-77922380D01*
X119050885Y-77922380D02*
X119012790Y-77884285D01*
X119012790Y-77884285D02*
X118974695Y-77808094D01*
X118974695Y-77046189D02*
X118974695Y-76969999D01*
X118974695Y-76969999D02*
X119012790Y-76893808D01*
X119012790Y-76893808D02*
X119050885Y-76855713D01*
X119050885Y-76855713D02*
X119127076Y-76817618D01*
X119127076Y-76817618D02*
X119279457Y-76779523D01*
X119279457Y-76779523D02*
X119469933Y-76779523D01*
X119469933Y-76779523D02*
X119622314Y-76817618D01*
X119622314Y-76817618D02*
X119698504Y-76855713D01*
X119698504Y-76855713D02*
X119736600Y-76893808D01*
X119736600Y-76893808D02*
X119774695Y-76969999D01*
X119774695Y-76969999D02*
X119774695Y-77046189D01*
X119774695Y-77046189D02*
X119736600Y-77122380D01*
X119736600Y-77122380D02*
X119698504Y-77160475D01*
X119698504Y-77160475D02*
X119622314Y-77198570D01*
X119622314Y-77198570D02*
X119469933Y-77236666D01*
X119469933Y-77236666D02*
X119279457Y-77236666D01*
X119279457Y-77236666D02*
X119127076Y-77198570D01*
X119127076Y-77198570D02*
X119050885Y-77160475D01*
X119050885Y-77160475D02*
X119012790Y-77122380D01*
X119012790Y-77122380D02*
X118974695Y-77046189D01*
X93119762Y-82253504D02*
X93081666Y-82291600D01*
X93081666Y-82291600D02*
X92967381Y-82329695D01*
X92967381Y-82329695D02*
X92891190Y-82329695D01*
X92891190Y-82329695D02*
X92776904Y-82291600D01*
X92776904Y-82291600D02*
X92700714Y-82215409D01*
X92700714Y-82215409D02*
X92662619Y-82139219D01*
X92662619Y-82139219D02*
X92624523Y-81986838D01*
X92624523Y-81986838D02*
X92624523Y-81872552D01*
X92624523Y-81872552D02*
X92662619Y-81720171D01*
X92662619Y-81720171D02*
X92700714Y-81643980D01*
X92700714Y-81643980D02*
X92776904Y-81567790D01*
X92776904Y-81567790D02*
X92891190Y-81529695D01*
X92891190Y-81529695D02*
X92967381Y-81529695D01*
X92967381Y-81529695D02*
X93081666Y-81567790D01*
X93081666Y-81567790D02*
X93119762Y-81605885D01*
X93386428Y-81529695D02*
X93881666Y-81529695D01*
X93881666Y-81529695D02*
X93615000Y-81834457D01*
X93615000Y-81834457D02*
X93729285Y-81834457D01*
X93729285Y-81834457D02*
X93805476Y-81872552D01*
X93805476Y-81872552D02*
X93843571Y-81910647D01*
X93843571Y-81910647D02*
X93881666Y-81986838D01*
X93881666Y-81986838D02*
X93881666Y-82177314D01*
X93881666Y-82177314D02*
X93843571Y-82253504D01*
X93843571Y-82253504D02*
X93805476Y-82291600D01*
X93805476Y-82291600D02*
X93729285Y-82329695D01*
X93729285Y-82329695D02*
X93500714Y-82329695D01*
X93500714Y-82329695D02*
X93424523Y-82291600D01*
X93424523Y-82291600D02*
X93386428Y-82253504D01*
X94643571Y-82329695D02*
X94186428Y-82329695D01*
X94415000Y-82329695D02*
X94415000Y-81529695D01*
X94415000Y-81529695D02*
X94338809Y-81643980D01*
X94338809Y-81643980D02*
X94262619Y-81720171D01*
X94262619Y-81720171D02*
X94186428Y-81758266D01*
X95367381Y-81529695D02*
X94986429Y-81529695D01*
X94986429Y-81529695D02*
X94948333Y-81910647D01*
X94948333Y-81910647D02*
X94986429Y-81872552D01*
X94986429Y-81872552D02*
X95062619Y-81834457D01*
X95062619Y-81834457D02*
X95253095Y-81834457D01*
X95253095Y-81834457D02*
X95329286Y-81872552D01*
X95329286Y-81872552D02*
X95367381Y-81910647D01*
X95367381Y-81910647D02*
X95405476Y-81986838D01*
X95405476Y-81986838D02*
X95405476Y-82177314D01*
X95405476Y-82177314D02*
X95367381Y-82253504D01*
X95367381Y-82253504D02*
X95329286Y-82291600D01*
X95329286Y-82291600D02*
X95253095Y-82329695D01*
X95253095Y-82329695D02*
X95062619Y-82329695D01*
X95062619Y-82329695D02*
X94986429Y-82291600D01*
X94986429Y-82291600D02*
X94948333Y-82253504D01*
X98119762Y-83453504D02*
X98081666Y-83491600D01*
X98081666Y-83491600D02*
X97967381Y-83529695D01*
X97967381Y-83529695D02*
X97891190Y-83529695D01*
X97891190Y-83529695D02*
X97776904Y-83491600D01*
X97776904Y-83491600D02*
X97700714Y-83415409D01*
X97700714Y-83415409D02*
X97662619Y-83339219D01*
X97662619Y-83339219D02*
X97624523Y-83186838D01*
X97624523Y-83186838D02*
X97624523Y-83072552D01*
X97624523Y-83072552D02*
X97662619Y-82920171D01*
X97662619Y-82920171D02*
X97700714Y-82843980D01*
X97700714Y-82843980D02*
X97776904Y-82767790D01*
X97776904Y-82767790D02*
X97891190Y-82729695D01*
X97891190Y-82729695D02*
X97967381Y-82729695D01*
X97967381Y-82729695D02*
X98081666Y-82767790D01*
X98081666Y-82767790D02*
X98119762Y-82805885D01*
X98386428Y-82729695D02*
X98881666Y-82729695D01*
X98881666Y-82729695D02*
X98615000Y-83034457D01*
X98615000Y-83034457D02*
X98729285Y-83034457D01*
X98729285Y-83034457D02*
X98805476Y-83072552D01*
X98805476Y-83072552D02*
X98843571Y-83110647D01*
X98843571Y-83110647D02*
X98881666Y-83186838D01*
X98881666Y-83186838D02*
X98881666Y-83377314D01*
X98881666Y-83377314D02*
X98843571Y-83453504D01*
X98843571Y-83453504D02*
X98805476Y-83491600D01*
X98805476Y-83491600D02*
X98729285Y-83529695D01*
X98729285Y-83529695D02*
X98500714Y-83529695D01*
X98500714Y-83529695D02*
X98424523Y-83491600D01*
X98424523Y-83491600D02*
X98386428Y-83453504D01*
X99376905Y-82729695D02*
X99453095Y-82729695D01*
X99453095Y-82729695D02*
X99529286Y-82767790D01*
X99529286Y-82767790D02*
X99567381Y-82805885D01*
X99567381Y-82805885D02*
X99605476Y-82882076D01*
X99605476Y-82882076D02*
X99643571Y-83034457D01*
X99643571Y-83034457D02*
X99643571Y-83224933D01*
X99643571Y-83224933D02*
X99605476Y-83377314D01*
X99605476Y-83377314D02*
X99567381Y-83453504D01*
X99567381Y-83453504D02*
X99529286Y-83491600D01*
X99529286Y-83491600D02*
X99453095Y-83529695D01*
X99453095Y-83529695D02*
X99376905Y-83529695D01*
X99376905Y-83529695D02*
X99300714Y-83491600D01*
X99300714Y-83491600D02*
X99262619Y-83453504D01*
X99262619Y-83453504D02*
X99224524Y-83377314D01*
X99224524Y-83377314D02*
X99186428Y-83224933D01*
X99186428Y-83224933D02*
X99186428Y-83034457D01*
X99186428Y-83034457D02*
X99224524Y-82882076D01*
X99224524Y-82882076D02*
X99262619Y-82805885D01*
X99262619Y-82805885D02*
X99300714Y-82767790D01*
X99300714Y-82767790D02*
X99376905Y-82729695D01*
X100024524Y-83529695D02*
X100176905Y-83529695D01*
X100176905Y-83529695D02*
X100253095Y-83491600D01*
X100253095Y-83491600D02*
X100291191Y-83453504D01*
X100291191Y-83453504D02*
X100367381Y-83339219D01*
X100367381Y-83339219D02*
X100405476Y-83186838D01*
X100405476Y-83186838D02*
X100405476Y-82882076D01*
X100405476Y-82882076D02*
X100367381Y-82805885D01*
X100367381Y-82805885D02*
X100329286Y-82767790D01*
X100329286Y-82767790D02*
X100253095Y-82729695D01*
X100253095Y-82729695D02*
X100100714Y-82729695D01*
X100100714Y-82729695D02*
X100024524Y-82767790D01*
X100024524Y-82767790D02*
X99986429Y-82805885D01*
X99986429Y-82805885D02*
X99948333Y-82882076D01*
X99948333Y-82882076D02*
X99948333Y-83072552D01*
X99948333Y-83072552D02*
X99986429Y-83148742D01*
X99986429Y-83148742D02*
X100024524Y-83186838D01*
X100024524Y-83186838D02*
X100100714Y-83224933D01*
X100100714Y-83224933D02*
X100253095Y-83224933D01*
X100253095Y-83224933D02*
X100329286Y-83186838D01*
X100329286Y-83186838D02*
X100367381Y-83148742D01*
X100367381Y-83148742D02*
X100405476Y-83072552D01*
X110098504Y-69065237D02*
X110136600Y-69103333D01*
X110136600Y-69103333D02*
X110174695Y-69217618D01*
X110174695Y-69217618D02*
X110174695Y-69293809D01*
X110174695Y-69293809D02*
X110136600Y-69408095D01*
X110136600Y-69408095D02*
X110060409Y-69484285D01*
X110060409Y-69484285D02*
X109984219Y-69522380D01*
X109984219Y-69522380D02*
X109831838Y-69560476D01*
X109831838Y-69560476D02*
X109717552Y-69560476D01*
X109717552Y-69560476D02*
X109565171Y-69522380D01*
X109565171Y-69522380D02*
X109488980Y-69484285D01*
X109488980Y-69484285D02*
X109412790Y-69408095D01*
X109412790Y-69408095D02*
X109374695Y-69293809D01*
X109374695Y-69293809D02*
X109374695Y-69217618D01*
X109374695Y-69217618D02*
X109412790Y-69103333D01*
X109412790Y-69103333D02*
X109450885Y-69065237D01*
X109450885Y-68760476D02*
X109412790Y-68722380D01*
X109412790Y-68722380D02*
X109374695Y-68646190D01*
X109374695Y-68646190D02*
X109374695Y-68455714D01*
X109374695Y-68455714D02*
X109412790Y-68379523D01*
X109412790Y-68379523D02*
X109450885Y-68341428D01*
X109450885Y-68341428D02*
X109527076Y-68303333D01*
X109527076Y-68303333D02*
X109603266Y-68303333D01*
X109603266Y-68303333D02*
X109717552Y-68341428D01*
X109717552Y-68341428D02*
X110174695Y-68798571D01*
X110174695Y-68798571D02*
X110174695Y-68303333D01*
X109374695Y-67808094D02*
X109374695Y-67731904D01*
X109374695Y-67731904D02*
X109412790Y-67655713D01*
X109412790Y-67655713D02*
X109450885Y-67617618D01*
X109450885Y-67617618D02*
X109527076Y-67579523D01*
X109527076Y-67579523D02*
X109679457Y-67541428D01*
X109679457Y-67541428D02*
X109869933Y-67541428D01*
X109869933Y-67541428D02*
X110022314Y-67579523D01*
X110022314Y-67579523D02*
X110098504Y-67617618D01*
X110098504Y-67617618D02*
X110136600Y-67655713D01*
X110136600Y-67655713D02*
X110174695Y-67731904D01*
X110174695Y-67731904D02*
X110174695Y-67808094D01*
X110174695Y-67808094D02*
X110136600Y-67884285D01*
X110136600Y-67884285D02*
X110098504Y-67922380D01*
X110098504Y-67922380D02*
X110022314Y-67960475D01*
X110022314Y-67960475D02*
X109869933Y-67998571D01*
X109869933Y-67998571D02*
X109679457Y-67998571D01*
X109679457Y-67998571D02*
X109527076Y-67960475D01*
X109527076Y-67960475D02*
X109450885Y-67922380D01*
X109450885Y-67922380D02*
X109412790Y-67884285D01*
X109412790Y-67884285D02*
X109374695Y-67808094D01*
X110174695Y-66779523D02*
X110174695Y-67236666D01*
X110174695Y-67008094D02*
X109374695Y-67008094D01*
X109374695Y-67008094D02*
X109488980Y-67084285D01*
X109488980Y-67084285D02*
X109565171Y-67160475D01*
X109565171Y-67160475D02*
X109603266Y-67236666D01*
X92698504Y-71265237D02*
X92736600Y-71303333D01*
X92736600Y-71303333D02*
X92774695Y-71417618D01*
X92774695Y-71417618D02*
X92774695Y-71493809D01*
X92774695Y-71493809D02*
X92736600Y-71608095D01*
X92736600Y-71608095D02*
X92660409Y-71684285D01*
X92660409Y-71684285D02*
X92584219Y-71722380D01*
X92584219Y-71722380D02*
X92431838Y-71760476D01*
X92431838Y-71760476D02*
X92317552Y-71760476D01*
X92317552Y-71760476D02*
X92165171Y-71722380D01*
X92165171Y-71722380D02*
X92088980Y-71684285D01*
X92088980Y-71684285D02*
X92012790Y-71608095D01*
X92012790Y-71608095D02*
X91974695Y-71493809D01*
X91974695Y-71493809D02*
X91974695Y-71417618D01*
X91974695Y-71417618D02*
X92012790Y-71303333D01*
X92012790Y-71303333D02*
X92050885Y-71265237D01*
X92050885Y-70960476D02*
X92012790Y-70922380D01*
X92012790Y-70922380D02*
X91974695Y-70846190D01*
X91974695Y-70846190D02*
X91974695Y-70655714D01*
X91974695Y-70655714D02*
X92012790Y-70579523D01*
X92012790Y-70579523D02*
X92050885Y-70541428D01*
X92050885Y-70541428D02*
X92127076Y-70503333D01*
X92127076Y-70503333D02*
X92203266Y-70503333D01*
X92203266Y-70503333D02*
X92317552Y-70541428D01*
X92317552Y-70541428D02*
X92774695Y-70998571D01*
X92774695Y-70998571D02*
X92774695Y-70503333D01*
X92774695Y-69741428D02*
X92774695Y-70198571D01*
X92774695Y-69969999D02*
X91974695Y-69969999D01*
X91974695Y-69969999D02*
X92088980Y-70046190D01*
X92088980Y-70046190D02*
X92165171Y-70122380D01*
X92165171Y-70122380D02*
X92203266Y-70198571D01*
X92050885Y-69436666D02*
X92012790Y-69398570D01*
X92012790Y-69398570D02*
X91974695Y-69322380D01*
X91974695Y-69322380D02*
X91974695Y-69131904D01*
X91974695Y-69131904D02*
X92012790Y-69055713D01*
X92012790Y-69055713D02*
X92050885Y-69017618D01*
X92050885Y-69017618D02*
X92127076Y-68979523D01*
X92127076Y-68979523D02*
X92203266Y-68979523D01*
X92203266Y-68979523D02*
X92317552Y-69017618D01*
X92317552Y-69017618D02*
X92774695Y-69474761D01*
X92774695Y-69474761D02*
X92774695Y-68979523D01*
X92098504Y-81465237D02*
X92136600Y-81503333D01*
X92136600Y-81503333D02*
X92174695Y-81617618D01*
X92174695Y-81617618D02*
X92174695Y-81693809D01*
X92174695Y-81693809D02*
X92136600Y-81808095D01*
X92136600Y-81808095D02*
X92060409Y-81884285D01*
X92060409Y-81884285D02*
X91984219Y-81922380D01*
X91984219Y-81922380D02*
X91831838Y-81960476D01*
X91831838Y-81960476D02*
X91717552Y-81960476D01*
X91717552Y-81960476D02*
X91565171Y-81922380D01*
X91565171Y-81922380D02*
X91488980Y-81884285D01*
X91488980Y-81884285D02*
X91412790Y-81808095D01*
X91412790Y-81808095D02*
X91374695Y-81693809D01*
X91374695Y-81693809D02*
X91374695Y-81617618D01*
X91374695Y-81617618D02*
X91412790Y-81503333D01*
X91412790Y-81503333D02*
X91450885Y-81465237D01*
X91374695Y-81198571D02*
X91374695Y-80703333D01*
X91374695Y-80703333D02*
X91679457Y-80969999D01*
X91679457Y-80969999D02*
X91679457Y-80855714D01*
X91679457Y-80855714D02*
X91717552Y-80779523D01*
X91717552Y-80779523D02*
X91755647Y-80741428D01*
X91755647Y-80741428D02*
X91831838Y-80703333D01*
X91831838Y-80703333D02*
X92022314Y-80703333D01*
X92022314Y-80703333D02*
X92098504Y-80741428D01*
X92098504Y-80741428D02*
X92136600Y-80779523D01*
X92136600Y-80779523D02*
X92174695Y-80855714D01*
X92174695Y-80855714D02*
X92174695Y-81084285D01*
X92174695Y-81084285D02*
X92136600Y-81160476D01*
X92136600Y-81160476D02*
X92098504Y-81198571D01*
X91374695Y-80208094D02*
X91374695Y-80131904D01*
X91374695Y-80131904D02*
X91412790Y-80055713D01*
X91412790Y-80055713D02*
X91450885Y-80017618D01*
X91450885Y-80017618D02*
X91527076Y-79979523D01*
X91527076Y-79979523D02*
X91679457Y-79941428D01*
X91679457Y-79941428D02*
X91869933Y-79941428D01*
X91869933Y-79941428D02*
X92022314Y-79979523D01*
X92022314Y-79979523D02*
X92098504Y-80017618D01*
X92098504Y-80017618D02*
X92136600Y-80055713D01*
X92136600Y-80055713D02*
X92174695Y-80131904D01*
X92174695Y-80131904D02*
X92174695Y-80208094D01*
X92174695Y-80208094D02*
X92136600Y-80284285D01*
X92136600Y-80284285D02*
X92098504Y-80322380D01*
X92098504Y-80322380D02*
X92022314Y-80360475D01*
X92022314Y-80360475D02*
X91869933Y-80398571D01*
X91869933Y-80398571D02*
X91679457Y-80398571D01*
X91679457Y-80398571D02*
X91527076Y-80360475D01*
X91527076Y-80360475D02*
X91450885Y-80322380D01*
X91450885Y-80322380D02*
X91412790Y-80284285D01*
X91412790Y-80284285D02*
X91374695Y-80208094D01*
X91374695Y-79674761D02*
X91374695Y-79179523D01*
X91374695Y-79179523D02*
X91679457Y-79446189D01*
X91679457Y-79446189D02*
X91679457Y-79331904D01*
X91679457Y-79331904D02*
X91717552Y-79255713D01*
X91717552Y-79255713D02*
X91755647Y-79217618D01*
X91755647Y-79217618D02*
X91831838Y-79179523D01*
X91831838Y-79179523D02*
X92022314Y-79179523D01*
X92022314Y-79179523D02*
X92098504Y-79217618D01*
X92098504Y-79217618D02*
X92136600Y-79255713D01*
X92136600Y-79255713D02*
X92174695Y-79331904D01*
X92174695Y-79331904D02*
X92174695Y-79560475D01*
X92174695Y-79560475D02*
X92136600Y-79636666D01*
X92136600Y-79636666D02*
X92098504Y-79674761D01*
X103298504Y-75865237D02*
X103336600Y-75903333D01*
X103336600Y-75903333D02*
X103374695Y-76017618D01*
X103374695Y-76017618D02*
X103374695Y-76093809D01*
X103374695Y-76093809D02*
X103336600Y-76208095D01*
X103336600Y-76208095D02*
X103260409Y-76284285D01*
X103260409Y-76284285D02*
X103184219Y-76322380D01*
X103184219Y-76322380D02*
X103031838Y-76360476D01*
X103031838Y-76360476D02*
X102917552Y-76360476D01*
X102917552Y-76360476D02*
X102765171Y-76322380D01*
X102765171Y-76322380D02*
X102688980Y-76284285D01*
X102688980Y-76284285D02*
X102612790Y-76208095D01*
X102612790Y-76208095D02*
X102574695Y-76093809D01*
X102574695Y-76093809D02*
X102574695Y-76017618D01*
X102574695Y-76017618D02*
X102612790Y-75903333D01*
X102612790Y-75903333D02*
X102650885Y-75865237D01*
X102650885Y-75560476D02*
X102612790Y-75522380D01*
X102612790Y-75522380D02*
X102574695Y-75446190D01*
X102574695Y-75446190D02*
X102574695Y-75255714D01*
X102574695Y-75255714D02*
X102612790Y-75179523D01*
X102612790Y-75179523D02*
X102650885Y-75141428D01*
X102650885Y-75141428D02*
X102727076Y-75103333D01*
X102727076Y-75103333D02*
X102803266Y-75103333D01*
X102803266Y-75103333D02*
X102917552Y-75141428D01*
X102917552Y-75141428D02*
X103374695Y-75598571D01*
X103374695Y-75598571D02*
X103374695Y-75103333D01*
X102574695Y-74608094D02*
X102574695Y-74531904D01*
X102574695Y-74531904D02*
X102612790Y-74455713D01*
X102612790Y-74455713D02*
X102650885Y-74417618D01*
X102650885Y-74417618D02*
X102727076Y-74379523D01*
X102727076Y-74379523D02*
X102879457Y-74341428D01*
X102879457Y-74341428D02*
X103069933Y-74341428D01*
X103069933Y-74341428D02*
X103222314Y-74379523D01*
X103222314Y-74379523D02*
X103298504Y-74417618D01*
X103298504Y-74417618D02*
X103336600Y-74455713D01*
X103336600Y-74455713D02*
X103374695Y-74531904D01*
X103374695Y-74531904D02*
X103374695Y-74608094D01*
X103374695Y-74608094D02*
X103336600Y-74684285D01*
X103336600Y-74684285D02*
X103298504Y-74722380D01*
X103298504Y-74722380D02*
X103222314Y-74760475D01*
X103222314Y-74760475D02*
X103069933Y-74798571D01*
X103069933Y-74798571D02*
X102879457Y-74798571D01*
X102879457Y-74798571D02*
X102727076Y-74760475D01*
X102727076Y-74760475D02*
X102650885Y-74722380D01*
X102650885Y-74722380D02*
X102612790Y-74684285D01*
X102612790Y-74684285D02*
X102574695Y-74608094D01*
X102574695Y-74074761D02*
X102574695Y-73579523D01*
X102574695Y-73579523D02*
X102879457Y-73846189D01*
X102879457Y-73846189D02*
X102879457Y-73731904D01*
X102879457Y-73731904D02*
X102917552Y-73655713D01*
X102917552Y-73655713D02*
X102955647Y-73617618D01*
X102955647Y-73617618D02*
X103031838Y-73579523D01*
X103031838Y-73579523D02*
X103222314Y-73579523D01*
X103222314Y-73579523D02*
X103298504Y-73617618D01*
X103298504Y-73617618D02*
X103336600Y-73655713D01*
X103336600Y-73655713D02*
X103374695Y-73731904D01*
X103374695Y-73731904D02*
X103374695Y-73960475D01*
X103374695Y-73960475D02*
X103336600Y-74036666D01*
X103336600Y-74036666D02*
X103298504Y-74074761D01*
X93119762Y-83453504D02*
X93081666Y-83491600D01*
X93081666Y-83491600D02*
X92967381Y-83529695D01*
X92967381Y-83529695D02*
X92891190Y-83529695D01*
X92891190Y-83529695D02*
X92776904Y-83491600D01*
X92776904Y-83491600D02*
X92700714Y-83415409D01*
X92700714Y-83415409D02*
X92662619Y-83339219D01*
X92662619Y-83339219D02*
X92624523Y-83186838D01*
X92624523Y-83186838D02*
X92624523Y-83072552D01*
X92624523Y-83072552D02*
X92662619Y-82920171D01*
X92662619Y-82920171D02*
X92700714Y-82843980D01*
X92700714Y-82843980D02*
X92776904Y-82767790D01*
X92776904Y-82767790D02*
X92891190Y-82729695D01*
X92891190Y-82729695D02*
X92967381Y-82729695D01*
X92967381Y-82729695D02*
X93081666Y-82767790D01*
X93081666Y-82767790D02*
X93119762Y-82805885D01*
X93386428Y-82729695D02*
X93881666Y-82729695D01*
X93881666Y-82729695D02*
X93615000Y-83034457D01*
X93615000Y-83034457D02*
X93729285Y-83034457D01*
X93729285Y-83034457D02*
X93805476Y-83072552D01*
X93805476Y-83072552D02*
X93843571Y-83110647D01*
X93843571Y-83110647D02*
X93881666Y-83186838D01*
X93881666Y-83186838D02*
X93881666Y-83377314D01*
X93881666Y-83377314D02*
X93843571Y-83453504D01*
X93843571Y-83453504D02*
X93805476Y-83491600D01*
X93805476Y-83491600D02*
X93729285Y-83529695D01*
X93729285Y-83529695D02*
X93500714Y-83529695D01*
X93500714Y-83529695D02*
X93424523Y-83491600D01*
X93424523Y-83491600D02*
X93386428Y-83453504D01*
X94376905Y-82729695D02*
X94453095Y-82729695D01*
X94453095Y-82729695D02*
X94529286Y-82767790D01*
X94529286Y-82767790D02*
X94567381Y-82805885D01*
X94567381Y-82805885D02*
X94605476Y-82882076D01*
X94605476Y-82882076D02*
X94643571Y-83034457D01*
X94643571Y-83034457D02*
X94643571Y-83224933D01*
X94643571Y-83224933D02*
X94605476Y-83377314D01*
X94605476Y-83377314D02*
X94567381Y-83453504D01*
X94567381Y-83453504D02*
X94529286Y-83491600D01*
X94529286Y-83491600D02*
X94453095Y-83529695D01*
X94453095Y-83529695D02*
X94376905Y-83529695D01*
X94376905Y-83529695D02*
X94300714Y-83491600D01*
X94300714Y-83491600D02*
X94262619Y-83453504D01*
X94262619Y-83453504D02*
X94224524Y-83377314D01*
X94224524Y-83377314D02*
X94186428Y-83224933D01*
X94186428Y-83224933D02*
X94186428Y-83034457D01*
X94186428Y-83034457D02*
X94224524Y-82882076D01*
X94224524Y-82882076D02*
X94262619Y-82805885D01*
X94262619Y-82805885D02*
X94300714Y-82767790D01*
X94300714Y-82767790D02*
X94376905Y-82729695D01*
X95329286Y-82729695D02*
X95176905Y-82729695D01*
X95176905Y-82729695D02*
X95100714Y-82767790D01*
X95100714Y-82767790D02*
X95062619Y-82805885D01*
X95062619Y-82805885D02*
X94986429Y-82920171D01*
X94986429Y-82920171D02*
X94948333Y-83072552D01*
X94948333Y-83072552D02*
X94948333Y-83377314D01*
X94948333Y-83377314D02*
X94986429Y-83453504D01*
X94986429Y-83453504D02*
X95024524Y-83491600D01*
X95024524Y-83491600D02*
X95100714Y-83529695D01*
X95100714Y-83529695D02*
X95253095Y-83529695D01*
X95253095Y-83529695D02*
X95329286Y-83491600D01*
X95329286Y-83491600D02*
X95367381Y-83453504D01*
X95367381Y-83453504D02*
X95405476Y-83377314D01*
X95405476Y-83377314D02*
X95405476Y-83186838D01*
X95405476Y-83186838D02*
X95367381Y-83110647D01*
X95367381Y-83110647D02*
X95329286Y-83072552D01*
X95329286Y-83072552D02*
X95253095Y-83034457D01*
X95253095Y-83034457D02*
X95100714Y-83034457D01*
X95100714Y-83034457D02*
X95024524Y-83072552D01*
X95024524Y-83072552D02*
X94986429Y-83110647D01*
X94986429Y-83110647D02*
X94948333Y-83186838D01*
X123098504Y-79065237D02*
X123136600Y-79103333D01*
X123136600Y-79103333D02*
X123174695Y-79217618D01*
X123174695Y-79217618D02*
X123174695Y-79293809D01*
X123174695Y-79293809D02*
X123136600Y-79408095D01*
X123136600Y-79408095D02*
X123060409Y-79484285D01*
X123060409Y-79484285D02*
X122984219Y-79522380D01*
X122984219Y-79522380D02*
X122831838Y-79560476D01*
X122831838Y-79560476D02*
X122717552Y-79560476D01*
X122717552Y-79560476D02*
X122565171Y-79522380D01*
X122565171Y-79522380D02*
X122488980Y-79484285D01*
X122488980Y-79484285D02*
X122412790Y-79408095D01*
X122412790Y-79408095D02*
X122374695Y-79293809D01*
X122374695Y-79293809D02*
X122374695Y-79217618D01*
X122374695Y-79217618D02*
X122412790Y-79103333D01*
X122412790Y-79103333D02*
X122450885Y-79065237D01*
X122374695Y-78798571D02*
X122374695Y-78303333D01*
X122374695Y-78303333D02*
X122679457Y-78569999D01*
X122679457Y-78569999D02*
X122679457Y-78455714D01*
X122679457Y-78455714D02*
X122717552Y-78379523D01*
X122717552Y-78379523D02*
X122755647Y-78341428D01*
X122755647Y-78341428D02*
X122831838Y-78303333D01*
X122831838Y-78303333D02*
X123022314Y-78303333D01*
X123022314Y-78303333D02*
X123098504Y-78341428D01*
X123098504Y-78341428D02*
X123136600Y-78379523D01*
X123136600Y-78379523D02*
X123174695Y-78455714D01*
X123174695Y-78455714D02*
X123174695Y-78684285D01*
X123174695Y-78684285D02*
X123136600Y-78760476D01*
X123136600Y-78760476D02*
X123098504Y-78798571D01*
X123174695Y-77541428D02*
X123174695Y-77998571D01*
X123174695Y-77769999D02*
X122374695Y-77769999D01*
X122374695Y-77769999D02*
X122488980Y-77846190D01*
X122488980Y-77846190D02*
X122565171Y-77922380D01*
X122565171Y-77922380D02*
X122603266Y-77998571D01*
X122374695Y-77274761D02*
X122374695Y-76779523D01*
X122374695Y-76779523D02*
X122679457Y-77046189D01*
X122679457Y-77046189D02*
X122679457Y-76931904D01*
X122679457Y-76931904D02*
X122717552Y-76855713D01*
X122717552Y-76855713D02*
X122755647Y-76817618D01*
X122755647Y-76817618D02*
X122831838Y-76779523D01*
X122831838Y-76779523D02*
X123022314Y-76779523D01*
X123022314Y-76779523D02*
X123098504Y-76817618D01*
X123098504Y-76817618D02*
X123136600Y-76855713D01*
X123136600Y-76855713D02*
X123174695Y-76931904D01*
X123174695Y-76931904D02*
X123174695Y-77160475D01*
X123174695Y-77160475D02*
X123136600Y-77236666D01*
X123136600Y-77236666D02*
X123098504Y-77274761D01*
X124298504Y-79065237D02*
X124336600Y-79103333D01*
X124336600Y-79103333D02*
X124374695Y-79217618D01*
X124374695Y-79217618D02*
X124374695Y-79293809D01*
X124374695Y-79293809D02*
X124336600Y-79408095D01*
X124336600Y-79408095D02*
X124260409Y-79484285D01*
X124260409Y-79484285D02*
X124184219Y-79522380D01*
X124184219Y-79522380D02*
X124031838Y-79560476D01*
X124031838Y-79560476D02*
X123917552Y-79560476D01*
X123917552Y-79560476D02*
X123765171Y-79522380D01*
X123765171Y-79522380D02*
X123688980Y-79484285D01*
X123688980Y-79484285D02*
X123612790Y-79408095D01*
X123612790Y-79408095D02*
X123574695Y-79293809D01*
X123574695Y-79293809D02*
X123574695Y-79217618D01*
X123574695Y-79217618D02*
X123612790Y-79103333D01*
X123612790Y-79103333D02*
X123650885Y-79065237D01*
X123574695Y-78798571D02*
X123574695Y-78303333D01*
X123574695Y-78303333D02*
X123879457Y-78569999D01*
X123879457Y-78569999D02*
X123879457Y-78455714D01*
X123879457Y-78455714D02*
X123917552Y-78379523D01*
X123917552Y-78379523D02*
X123955647Y-78341428D01*
X123955647Y-78341428D02*
X124031838Y-78303333D01*
X124031838Y-78303333D02*
X124222314Y-78303333D01*
X124222314Y-78303333D02*
X124298504Y-78341428D01*
X124298504Y-78341428D02*
X124336600Y-78379523D01*
X124336600Y-78379523D02*
X124374695Y-78455714D01*
X124374695Y-78455714D02*
X124374695Y-78684285D01*
X124374695Y-78684285D02*
X124336600Y-78760476D01*
X124336600Y-78760476D02*
X124298504Y-78798571D01*
X124374695Y-77541428D02*
X124374695Y-77998571D01*
X124374695Y-77769999D02*
X123574695Y-77769999D01*
X123574695Y-77769999D02*
X123688980Y-77846190D01*
X123688980Y-77846190D02*
X123765171Y-77922380D01*
X123765171Y-77922380D02*
X123803266Y-77998571D01*
X123650885Y-77236666D02*
X123612790Y-77198570D01*
X123612790Y-77198570D02*
X123574695Y-77122380D01*
X123574695Y-77122380D02*
X123574695Y-76931904D01*
X123574695Y-76931904D02*
X123612790Y-76855713D01*
X123612790Y-76855713D02*
X123650885Y-76817618D01*
X123650885Y-76817618D02*
X123727076Y-76779523D01*
X123727076Y-76779523D02*
X123803266Y-76779523D01*
X123803266Y-76779523D02*
X123917552Y-76817618D01*
X123917552Y-76817618D02*
X124374695Y-77274761D01*
X124374695Y-77274761D02*
X124374695Y-76779523D01*
X85319762Y-62253504D02*
X85281666Y-62291600D01*
X85281666Y-62291600D02*
X85167381Y-62329695D01*
X85167381Y-62329695D02*
X85091190Y-62329695D01*
X85091190Y-62329695D02*
X84976904Y-62291600D01*
X84976904Y-62291600D02*
X84900714Y-62215409D01*
X84900714Y-62215409D02*
X84862619Y-62139219D01*
X84862619Y-62139219D02*
X84824523Y-61986838D01*
X84824523Y-61986838D02*
X84824523Y-61872552D01*
X84824523Y-61872552D02*
X84862619Y-61720171D01*
X84862619Y-61720171D02*
X84900714Y-61643980D01*
X84900714Y-61643980D02*
X84976904Y-61567790D01*
X84976904Y-61567790D02*
X85091190Y-61529695D01*
X85091190Y-61529695D02*
X85167381Y-61529695D01*
X85167381Y-61529695D02*
X85281666Y-61567790D01*
X85281666Y-61567790D02*
X85319762Y-61605885D01*
X85624523Y-61605885D02*
X85662619Y-61567790D01*
X85662619Y-61567790D02*
X85738809Y-61529695D01*
X85738809Y-61529695D02*
X85929285Y-61529695D01*
X85929285Y-61529695D02*
X86005476Y-61567790D01*
X86005476Y-61567790D02*
X86043571Y-61605885D01*
X86043571Y-61605885D02*
X86081666Y-61682076D01*
X86081666Y-61682076D02*
X86081666Y-61758266D01*
X86081666Y-61758266D02*
X86043571Y-61872552D01*
X86043571Y-61872552D02*
X85586428Y-62329695D01*
X85586428Y-62329695D02*
X86081666Y-62329695D01*
X86843571Y-62329695D02*
X86386428Y-62329695D01*
X86615000Y-62329695D02*
X86615000Y-61529695D01*
X86615000Y-61529695D02*
X86538809Y-61643980D01*
X86538809Y-61643980D02*
X86462619Y-61720171D01*
X86462619Y-61720171D02*
X86386428Y-61758266D01*
X87110238Y-61529695D02*
X87605476Y-61529695D01*
X87605476Y-61529695D02*
X87338810Y-61834457D01*
X87338810Y-61834457D02*
X87453095Y-61834457D01*
X87453095Y-61834457D02*
X87529286Y-61872552D01*
X87529286Y-61872552D02*
X87567381Y-61910647D01*
X87567381Y-61910647D02*
X87605476Y-61986838D01*
X87605476Y-61986838D02*
X87605476Y-62177314D01*
X87605476Y-62177314D02*
X87567381Y-62253504D01*
X87567381Y-62253504D02*
X87529286Y-62291600D01*
X87529286Y-62291600D02*
X87453095Y-62329695D01*
X87453095Y-62329695D02*
X87224524Y-62329695D01*
X87224524Y-62329695D02*
X87148333Y-62291600D01*
X87148333Y-62291600D02*
X87110238Y-62253504D01*
X98119762Y-82253504D02*
X98081666Y-82291600D01*
X98081666Y-82291600D02*
X97967381Y-82329695D01*
X97967381Y-82329695D02*
X97891190Y-82329695D01*
X97891190Y-82329695D02*
X97776904Y-82291600D01*
X97776904Y-82291600D02*
X97700714Y-82215409D01*
X97700714Y-82215409D02*
X97662619Y-82139219D01*
X97662619Y-82139219D02*
X97624523Y-81986838D01*
X97624523Y-81986838D02*
X97624523Y-81872552D01*
X97624523Y-81872552D02*
X97662619Y-81720171D01*
X97662619Y-81720171D02*
X97700714Y-81643980D01*
X97700714Y-81643980D02*
X97776904Y-81567790D01*
X97776904Y-81567790D02*
X97891190Y-81529695D01*
X97891190Y-81529695D02*
X97967381Y-81529695D01*
X97967381Y-81529695D02*
X98081666Y-81567790D01*
X98081666Y-81567790D02*
X98119762Y-81605885D01*
X98386428Y-81529695D02*
X98881666Y-81529695D01*
X98881666Y-81529695D02*
X98615000Y-81834457D01*
X98615000Y-81834457D02*
X98729285Y-81834457D01*
X98729285Y-81834457D02*
X98805476Y-81872552D01*
X98805476Y-81872552D02*
X98843571Y-81910647D01*
X98843571Y-81910647D02*
X98881666Y-81986838D01*
X98881666Y-81986838D02*
X98881666Y-82177314D01*
X98881666Y-82177314D02*
X98843571Y-82253504D01*
X98843571Y-82253504D02*
X98805476Y-82291600D01*
X98805476Y-82291600D02*
X98729285Y-82329695D01*
X98729285Y-82329695D02*
X98500714Y-82329695D01*
X98500714Y-82329695D02*
X98424523Y-82291600D01*
X98424523Y-82291600D02*
X98386428Y-82253504D01*
X99643571Y-82329695D02*
X99186428Y-82329695D01*
X99415000Y-82329695D02*
X99415000Y-81529695D01*
X99415000Y-81529695D02*
X99338809Y-81643980D01*
X99338809Y-81643980D02*
X99262619Y-81720171D01*
X99262619Y-81720171D02*
X99186428Y-81758266D01*
X100329286Y-81529695D02*
X100176905Y-81529695D01*
X100176905Y-81529695D02*
X100100714Y-81567790D01*
X100100714Y-81567790D02*
X100062619Y-81605885D01*
X100062619Y-81605885D02*
X99986429Y-81720171D01*
X99986429Y-81720171D02*
X99948333Y-81872552D01*
X99948333Y-81872552D02*
X99948333Y-82177314D01*
X99948333Y-82177314D02*
X99986429Y-82253504D01*
X99986429Y-82253504D02*
X100024524Y-82291600D01*
X100024524Y-82291600D02*
X100100714Y-82329695D01*
X100100714Y-82329695D02*
X100253095Y-82329695D01*
X100253095Y-82329695D02*
X100329286Y-82291600D01*
X100329286Y-82291600D02*
X100367381Y-82253504D01*
X100367381Y-82253504D02*
X100405476Y-82177314D01*
X100405476Y-82177314D02*
X100405476Y-81986838D01*
X100405476Y-81986838D02*
X100367381Y-81910647D01*
X100367381Y-81910647D02*
X100329286Y-81872552D01*
X100329286Y-81872552D02*
X100253095Y-81834457D01*
X100253095Y-81834457D02*
X100100714Y-81834457D01*
X100100714Y-81834457D02*
X100024524Y-81872552D01*
X100024524Y-81872552D02*
X99986429Y-81910647D01*
X99986429Y-81910647D02*
X99948333Y-81986838D01*
X101498504Y-81465237D02*
X101536600Y-81503333D01*
X101536600Y-81503333D02*
X101574695Y-81617618D01*
X101574695Y-81617618D02*
X101574695Y-81693809D01*
X101574695Y-81693809D02*
X101536600Y-81808095D01*
X101536600Y-81808095D02*
X101460409Y-81884285D01*
X101460409Y-81884285D02*
X101384219Y-81922380D01*
X101384219Y-81922380D02*
X101231838Y-81960476D01*
X101231838Y-81960476D02*
X101117552Y-81960476D01*
X101117552Y-81960476D02*
X100965171Y-81922380D01*
X100965171Y-81922380D02*
X100888980Y-81884285D01*
X100888980Y-81884285D02*
X100812790Y-81808095D01*
X100812790Y-81808095D02*
X100774695Y-81693809D01*
X100774695Y-81693809D02*
X100774695Y-81617618D01*
X100774695Y-81617618D02*
X100812790Y-81503333D01*
X100812790Y-81503333D02*
X100850885Y-81465237D01*
X100774695Y-81198571D02*
X100774695Y-80703333D01*
X100774695Y-80703333D02*
X101079457Y-80969999D01*
X101079457Y-80969999D02*
X101079457Y-80855714D01*
X101079457Y-80855714D02*
X101117552Y-80779523D01*
X101117552Y-80779523D02*
X101155647Y-80741428D01*
X101155647Y-80741428D02*
X101231838Y-80703333D01*
X101231838Y-80703333D02*
X101422314Y-80703333D01*
X101422314Y-80703333D02*
X101498504Y-80741428D01*
X101498504Y-80741428D02*
X101536600Y-80779523D01*
X101536600Y-80779523D02*
X101574695Y-80855714D01*
X101574695Y-80855714D02*
X101574695Y-81084285D01*
X101574695Y-81084285D02*
X101536600Y-81160476D01*
X101536600Y-81160476D02*
X101498504Y-81198571D01*
X101574695Y-79941428D02*
X101574695Y-80398571D01*
X101574695Y-80169999D02*
X100774695Y-80169999D01*
X100774695Y-80169999D02*
X100888980Y-80246190D01*
X100888980Y-80246190D02*
X100965171Y-80322380D01*
X100965171Y-80322380D02*
X101003266Y-80398571D01*
X100774695Y-79446189D02*
X100774695Y-79369999D01*
X100774695Y-79369999D02*
X100812790Y-79293808D01*
X100812790Y-79293808D02*
X100850885Y-79255713D01*
X100850885Y-79255713D02*
X100927076Y-79217618D01*
X100927076Y-79217618D02*
X101079457Y-79179523D01*
X101079457Y-79179523D02*
X101269933Y-79179523D01*
X101269933Y-79179523D02*
X101422314Y-79217618D01*
X101422314Y-79217618D02*
X101498504Y-79255713D01*
X101498504Y-79255713D02*
X101536600Y-79293808D01*
X101536600Y-79293808D02*
X101574695Y-79369999D01*
X101574695Y-79369999D02*
X101574695Y-79446189D01*
X101574695Y-79446189D02*
X101536600Y-79522380D01*
X101536600Y-79522380D02*
X101498504Y-79560475D01*
X101498504Y-79560475D02*
X101422314Y-79598570D01*
X101422314Y-79598570D02*
X101269933Y-79636666D01*
X101269933Y-79636666D02*
X101079457Y-79636666D01*
X101079457Y-79636666D02*
X100927076Y-79598570D01*
X100927076Y-79598570D02*
X100850885Y-79560475D01*
X100850885Y-79560475D02*
X100812790Y-79522380D01*
X100812790Y-79522380D02*
X100774695Y-79446189D01*
X95298504Y-75865237D02*
X95336600Y-75903333D01*
X95336600Y-75903333D02*
X95374695Y-76017618D01*
X95374695Y-76017618D02*
X95374695Y-76093809D01*
X95374695Y-76093809D02*
X95336600Y-76208095D01*
X95336600Y-76208095D02*
X95260409Y-76284285D01*
X95260409Y-76284285D02*
X95184219Y-76322380D01*
X95184219Y-76322380D02*
X95031838Y-76360476D01*
X95031838Y-76360476D02*
X94917552Y-76360476D01*
X94917552Y-76360476D02*
X94765171Y-76322380D01*
X94765171Y-76322380D02*
X94688980Y-76284285D01*
X94688980Y-76284285D02*
X94612790Y-76208095D01*
X94612790Y-76208095D02*
X94574695Y-76093809D01*
X94574695Y-76093809D02*
X94574695Y-76017618D01*
X94574695Y-76017618D02*
X94612790Y-75903333D01*
X94612790Y-75903333D02*
X94650885Y-75865237D01*
X94650885Y-75560476D02*
X94612790Y-75522380D01*
X94612790Y-75522380D02*
X94574695Y-75446190D01*
X94574695Y-75446190D02*
X94574695Y-75255714D01*
X94574695Y-75255714D02*
X94612790Y-75179523D01*
X94612790Y-75179523D02*
X94650885Y-75141428D01*
X94650885Y-75141428D02*
X94727076Y-75103333D01*
X94727076Y-75103333D02*
X94803266Y-75103333D01*
X94803266Y-75103333D02*
X94917552Y-75141428D01*
X94917552Y-75141428D02*
X95374695Y-75598571D01*
X95374695Y-75598571D02*
X95374695Y-75103333D01*
X95374695Y-74341428D02*
X95374695Y-74798571D01*
X95374695Y-74569999D02*
X94574695Y-74569999D01*
X94574695Y-74569999D02*
X94688980Y-74646190D01*
X94688980Y-74646190D02*
X94765171Y-74722380D01*
X94765171Y-74722380D02*
X94803266Y-74798571D01*
X94574695Y-73655713D02*
X94574695Y-73808094D01*
X94574695Y-73808094D02*
X94612790Y-73884285D01*
X94612790Y-73884285D02*
X94650885Y-73922380D01*
X94650885Y-73922380D02*
X94765171Y-73998570D01*
X94765171Y-73998570D02*
X94917552Y-74036666D01*
X94917552Y-74036666D02*
X95222314Y-74036666D01*
X95222314Y-74036666D02*
X95298504Y-73998570D01*
X95298504Y-73998570D02*
X95336600Y-73960475D01*
X95336600Y-73960475D02*
X95374695Y-73884285D01*
X95374695Y-73884285D02*
X95374695Y-73731904D01*
X95374695Y-73731904D02*
X95336600Y-73655713D01*
X95336600Y-73655713D02*
X95298504Y-73617618D01*
X95298504Y-73617618D02*
X95222314Y-73579523D01*
X95222314Y-73579523D02*
X95031838Y-73579523D01*
X95031838Y-73579523D02*
X94955647Y-73617618D01*
X94955647Y-73617618D02*
X94917552Y-73655713D01*
X94917552Y-73655713D02*
X94879457Y-73731904D01*
X94879457Y-73731904D02*
X94879457Y-73884285D01*
X94879457Y-73884285D02*
X94917552Y-73960475D01*
X94917552Y-73960475D02*
X94955647Y-73998570D01*
X94955647Y-73998570D02*
X95031838Y-74036666D01*
X88919762Y-62253504D02*
X88881666Y-62291600D01*
X88881666Y-62291600D02*
X88767381Y-62329695D01*
X88767381Y-62329695D02*
X88691190Y-62329695D01*
X88691190Y-62329695D02*
X88576904Y-62291600D01*
X88576904Y-62291600D02*
X88500714Y-62215409D01*
X88500714Y-62215409D02*
X88462619Y-62139219D01*
X88462619Y-62139219D02*
X88424523Y-61986838D01*
X88424523Y-61986838D02*
X88424523Y-61872552D01*
X88424523Y-61872552D02*
X88462619Y-61720171D01*
X88462619Y-61720171D02*
X88500714Y-61643980D01*
X88500714Y-61643980D02*
X88576904Y-61567790D01*
X88576904Y-61567790D02*
X88691190Y-61529695D01*
X88691190Y-61529695D02*
X88767381Y-61529695D01*
X88767381Y-61529695D02*
X88881666Y-61567790D01*
X88881666Y-61567790D02*
X88919762Y-61605885D01*
X89224523Y-61605885D02*
X89262619Y-61567790D01*
X89262619Y-61567790D02*
X89338809Y-61529695D01*
X89338809Y-61529695D02*
X89529285Y-61529695D01*
X89529285Y-61529695D02*
X89605476Y-61567790D01*
X89605476Y-61567790D02*
X89643571Y-61605885D01*
X89643571Y-61605885D02*
X89681666Y-61682076D01*
X89681666Y-61682076D02*
X89681666Y-61758266D01*
X89681666Y-61758266D02*
X89643571Y-61872552D01*
X89643571Y-61872552D02*
X89186428Y-62329695D01*
X89186428Y-62329695D02*
X89681666Y-62329695D01*
X90176905Y-61529695D02*
X90253095Y-61529695D01*
X90253095Y-61529695D02*
X90329286Y-61567790D01*
X90329286Y-61567790D02*
X90367381Y-61605885D01*
X90367381Y-61605885D02*
X90405476Y-61682076D01*
X90405476Y-61682076D02*
X90443571Y-61834457D01*
X90443571Y-61834457D02*
X90443571Y-62024933D01*
X90443571Y-62024933D02*
X90405476Y-62177314D01*
X90405476Y-62177314D02*
X90367381Y-62253504D01*
X90367381Y-62253504D02*
X90329286Y-62291600D01*
X90329286Y-62291600D02*
X90253095Y-62329695D01*
X90253095Y-62329695D02*
X90176905Y-62329695D01*
X90176905Y-62329695D02*
X90100714Y-62291600D01*
X90100714Y-62291600D02*
X90062619Y-62253504D01*
X90062619Y-62253504D02*
X90024524Y-62177314D01*
X90024524Y-62177314D02*
X89986428Y-62024933D01*
X89986428Y-62024933D02*
X89986428Y-61834457D01*
X89986428Y-61834457D02*
X90024524Y-61682076D01*
X90024524Y-61682076D02*
X90062619Y-61605885D01*
X90062619Y-61605885D02*
X90100714Y-61567790D01*
X90100714Y-61567790D02*
X90176905Y-61529695D01*
X90900714Y-61872552D02*
X90824524Y-61834457D01*
X90824524Y-61834457D02*
X90786429Y-61796361D01*
X90786429Y-61796361D02*
X90748333Y-61720171D01*
X90748333Y-61720171D02*
X90748333Y-61682076D01*
X90748333Y-61682076D02*
X90786429Y-61605885D01*
X90786429Y-61605885D02*
X90824524Y-61567790D01*
X90824524Y-61567790D02*
X90900714Y-61529695D01*
X90900714Y-61529695D02*
X91053095Y-61529695D01*
X91053095Y-61529695D02*
X91129286Y-61567790D01*
X91129286Y-61567790D02*
X91167381Y-61605885D01*
X91167381Y-61605885D02*
X91205476Y-61682076D01*
X91205476Y-61682076D02*
X91205476Y-61720171D01*
X91205476Y-61720171D02*
X91167381Y-61796361D01*
X91167381Y-61796361D02*
X91129286Y-61834457D01*
X91129286Y-61834457D02*
X91053095Y-61872552D01*
X91053095Y-61872552D02*
X90900714Y-61872552D01*
X90900714Y-61872552D02*
X90824524Y-61910647D01*
X90824524Y-61910647D02*
X90786429Y-61948742D01*
X90786429Y-61948742D02*
X90748333Y-62024933D01*
X90748333Y-62024933D02*
X90748333Y-62177314D01*
X90748333Y-62177314D02*
X90786429Y-62253504D01*
X90786429Y-62253504D02*
X90824524Y-62291600D01*
X90824524Y-62291600D02*
X90900714Y-62329695D01*
X90900714Y-62329695D02*
X91053095Y-62329695D01*
X91053095Y-62329695D02*
X91129286Y-62291600D01*
X91129286Y-62291600D02*
X91167381Y-62253504D01*
X91167381Y-62253504D02*
X91205476Y-62177314D01*
X91205476Y-62177314D02*
X91205476Y-62024933D01*
X91205476Y-62024933D02*
X91167381Y-61948742D01*
X91167381Y-61948742D02*
X91129286Y-61910647D01*
X91129286Y-61910647D02*
X91053095Y-61872552D01*
X96898504Y-83465237D02*
X96936600Y-83503333D01*
X96936600Y-83503333D02*
X96974695Y-83617618D01*
X96974695Y-83617618D02*
X96974695Y-83693809D01*
X96974695Y-83693809D02*
X96936600Y-83808095D01*
X96936600Y-83808095D02*
X96860409Y-83884285D01*
X96860409Y-83884285D02*
X96784219Y-83922380D01*
X96784219Y-83922380D02*
X96631838Y-83960476D01*
X96631838Y-83960476D02*
X96517552Y-83960476D01*
X96517552Y-83960476D02*
X96365171Y-83922380D01*
X96365171Y-83922380D02*
X96288980Y-83884285D01*
X96288980Y-83884285D02*
X96212790Y-83808095D01*
X96212790Y-83808095D02*
X96174695Y-83693809D01*
X96174695Y-83693809D02*
X96174695Y-83617618D01*
X96174695Y-83617618D02*
X96212790Y-83503333D01*
X96212790Y-83503333D02*
X96250885Y-83465237D01*
X96174695Y-83198571D02*
X96174695Y-82703333D01*
X96174695Y-82703333D02*
X96479457Y-82969999D01*
X96479457Y-82969999D02*
X96479457Y-82855714D01*
X96479457Y-82855714D02*
X96517552Y-82779523D01*
X96517552Y-82779523D02*
X96555647Y-82741428D01*
X96555647Y-82741428D02*
X96631838Y-82703333D01*
X96631838Y-82703333D02*
X96822314Y-82703333D01*
X96822314Y-82703333D02*
X96898504Y-82741428D01*
X96898504Y-82741428D02*
X96936600Y-82779523D01*
X96936600Y-82779523D02*
X96974695Y-82855714D01*
X96974695Y-82855714D02*
X96974695Y-83084285D01*
X96974695Y-83084285D02*
X96936600Y-83160476D01*
X96936600Y-83160476D02*
X96898504Y-83198571D01*
X96974695Y-81941428D02*
X96974695Y-82398571D01*
X96974695Y-82169999D02*
X96174695Y-82169999D01*
X96174695Y-82169999D02*
X96288980Y-82246190D01*
X96288980Y-82246190D02*
X96365171Y-82322380D01*
X96365171Y-82322380D02*
X96403266Y-82398571D01*
X96441361Y-81255713D02*
X96974695Y-81255713D01*
X96136600Y-81446189D02*
X96708028Y-81636666D01*
X96708028Y-81636666D02*
X96708028Y-81141427D01*
X104298504Y-75865237D02*
X104336600Y-75903333D01*
X104336600Y-75903333D02*
X104374695Y-76017618D01*
X104374695Y-76017618D02*
X104374695Y-76093809D01*
X104374695Y-76093809D02*
X104336600Y-76208095D01*
X104336600Y-76208095D02*
X104260409Y-76284285D01*
X104260409Y-76284285D02*
X104184219Y-76322380D01*
X104184219Y-76322380D02*
X104031838Y-76360476D01*
X104031838Y-76360476D02*
X103917552Y-76360476D01*
X103917552Y-76360476D02*
X103765171Y-76322380D01*
X103765171Y-76322380D02*
X103688980Y-76284285D01*
X103688980Y-76284285D02*
X103612790Y-76208095D01*
X103612790Y-76208095D02*
X103574695Y-76093809D01*
X103574695Y-76093809D02*
X103574695Y-76017618D01*
X103574695Y-76017618D02*
X103612790Y-75903333D01*
X103612790Y-75903333D02*
X103650885Y-75865237D01*
X103650885Y-75560476D02*
X103612790Y-75522380D01*
X103612790Y-75522380D02*
X103574695Y-75446190D01*
X103574695Y-75446190D02*
X103574695Y-75255714D01*
X103574695Y-75255714D02*
X103612790Y-75179523D01*
X103612790Y-75179523D02*
X103650885Y-75141428D01*
X103650885Y-75141428D02*
X103727076Y-75103333D01*
X103727076Y-75103333D02*
X103803266Y-75103333D01*
X103803266Y-75103333D02*
X103917552Y-75141428D01*
X103917552Y-75141428D02*
X104374695Y-75598571D01*
X104374695Y-75598571D02*
X104374695Y-75103333D01*
X103574695Y-74608094D02*
X103574695Y-74531904D01*
X103574695Y-74531904D02*
X103612790Y-74455713D01*
X103612790Y-74455713D02*
X103650885Y-74417618D01*
X103650885Y-74417618D02*
X103727076Y-74379523D01*
X103727076Y-74379523D02*
X103879457Y-74341428D01*
X103879457Y-74341428D02*
X104069933Y-74341428D01*
X104069933Y-74341428D02*
X104222314Y-74379523D01*
X104222314Y-74379523D02*
X104298504Y-74417618D01*
X104298504Y-74417618D02*
X104336600Y-74455713D01*
X104336600Y-74455713D02*
X104374695Y-74531904D01*
X104374695Y-74531904D02*
X104374695Y-74608094D01*
X104374695Y-74608094D02*
X104336600Y-74684285D01*
X104336600Y-74684285D02*
X104298504Y-74722380D01*
X104298504Y-74722380D02*
X104222314Y-74760475D01*
X104222314Y-74760475D02*
X104069933Y-74798571D01*
X104069933Y-74798571D02*
X103879457Y-74798571D01*
X103879457Y-74798571D02*
X103727076Y-74760475D01*
X103727076Y-74760475D02*
X103650885Y-74722380D01*
X103650885Y-74722380D02*
X103612790Y-74684285D01*
X103612790Y-74684285D02*
X103574695Y-74608094D01*
X103650885Y-74036666D02*
X103612790Y-73998570D01*
X103612790Y-73998570D02*
X103574695Y-73922380D01*
X103574695Y-73922380D02*
X103574695Y-73731904D01*
X103574695Y-73731904D02*
X103612790Y-73655713D01*
X103612790Y-73655713D02*
X103650885Y-73617618D01*
X103650885Y-73617618D02*
X103727076Y-73579523D01*
X103727076Y-73579523D02*
X103803266Y-73579523D01*
X103803266Y-73579523D02*
X103917552Y-73617618D01*
X103917552Y-73617618D02*
X104374695Y-74074761D01*
X104374695Y-74074761D02*
X104374695Y-73579523D01*
X90498504Y-64865237D02*
X90536600Y-64903333D01*
X90536600Y-64903333D02*
X90574695Y-65017618D01*
X90574695Y-65017618D02*
X90574695Y-65093809D01*
X90574695Y-65093809D02*
X90536600Y-65208095D01*
X90536600Y-65208095D02*
X90460409Y-65284285D01*
X90460409Y-65284285D02*
X90384219Y-65322380D01*
X90384219Y-65322380D02*
X90231838Y-65360476D01*
X90231838Y-65360476D02*
X90117552Y-65360476D01*
X90117552Y-65360476D02*
X89965171Y-65322380D01*
X89965171Y-65322380D02*
X89888980Y-65284285D01*
X89888980Y-65284285D02*
X89812790Y-65208095D01*
X89812790Y-65208095D02*
X89774695Y-65093809D01*
X89774695Y-65093809D02*
X89774695Y-65017618D01*
X89774695Y-65017618D02*
X89812790Y-64903333D01*
X89812790Y-64903333D02*
X89850885Y-64865237D01*
X89850885Y-64560476D02*
X89812790Y-64522380D01*
X89812790Y-64522380D02*
X89774695Y-64446190D01*
X89774695Y-64446190D02*
X89774695Y-64255714D01*
X89774695Y-64255714D02*
X89812790Y-64179523D01*
X89812790Y-64179523D02*
X89850885Y-64141428D01*
X89850885Y-64141428D02*
X89927076Y-64103333D01*
X89927076Y-64103333D02*
X90003266Y-64103333D01*
X90003266Y-64103333D02*
X90117552Y-64141428D01*
X90117552Y-64141428D02*
X90574695Y-64598571D01*
X90574695Y-64598571D02*
X90574695Y-64103333D01*
X89774695Y-63608094D02*
X89774695Y-63531904D01*
X89774695Y-63531904D02*
X89812790Y-63455713D01*
X89812790Y-63455713D02*
X89850885Y-63417618D01*
X89850885Y-63417618D02*
X89927076Y-63379523D01*
X89927076Y-63379523D02*
X90079457Y-63341428D01*
X90079457Y-63341428D02*
X90269933Y-63341428D01*
X90269933Y-63341428D02*
X90422314Y-63379523D01*
X90422314Y-63379523D02*
X90498504Y-63417618D01*
X90498504Y-63417618D02*
X90536600Y-63455713D01*
X90536600Y-63455713D02*
X90574695Y-63531904D01*
X90574695Y-63531904D02*
X90574695Y-63608094D01*
X90574695Y-63608094D02*
X90536600Y-63684285D01*
X90536600Y-63684285D02*
X90498504Y-63722380D01*
X90498504Y-63722380D02*
X90422314Y-63760475D01*
X90422314Y-63760475D02*
X90269933Y-63798571D01*
X90269933Y-63798571D02*
X90079457Y-63798571D01*
X90079457Y-63798571D02*
X89927076Y-63760475D01*
X89927076Y-63760475D02*
X89850885Y-63722380D01*
X89850885Y-63722380D02*
X89812790Y-63684285D01*
X89812790Y-63684285D02*
X89774695Y-63608094D01*
X90574695Y-62960475D02*
X90574695Y-62808094D01*
X90574695Y-62808094D02*
X90536600Y-62731904D01*
X90536600Y-62731904D02*
X90498504Y-62693808D01*
X90498504Y-62693808D02*
X90384219Y-62617618D01*
X90384219Y-62617618D02*
X90231838Y-62579523D01*
X90231838Y-62579523D02*
X89927076Y-62579523D01*
X89927076Y-62579523D02*
X89850885Y-62617618D01*
X89850885Y-62617618D02*
X89812790Y-62655713D01*
X89812790Y-62655713D02*
X89774695Y-62731904D01*
X89774695Y-62731904D02*
X89774695Y-62884285D01*
X89774695Y-62884285D02*
X89812790Y-62960475D01*
X89812790Y-62960475D02*
X89850885Y-62998570D01*
X89850885Y-62998570D02*
X89927076Y-63036666D01*
X89927076Y-63036666D02*
X90117552Y-63036666D01*
X90117552Y-63036666D02*
X90193742Y-62998570D01*
X90193742Y-62998570D02*
X90231838Y-62960475D01*
X90231838Y-62960475D02*
X90269933Y-62884285D01*
X90269933Y-62884285D02*
X90269933Y-62731904D01*
X90269933Y-62731904D02*
X90231838Y-62655713D01*
X90231838Y-62655713D02*
X90193742Y-62617618D01*
X90193742Y-62617618D02*
X90117552Y-62579523D01*
X103119762Y-63329695D02*
X102853095Y-62948742D01*
X102662619Y-63329695D02*
X102662619Y-62529695D01*
X102662619Y-62529695D02*
X102967381Y-62529695D01*
X102967381Y-62529695D02*
X103043571Y-62567790D01*
X103043571Y-62567790D02*
X103081666Y-62605885D01*
X103081666Y-62605885D02*
X103119762Y-62682076D01*
X103119762Y-62682076D02*
X103119762Y-62796361D01*
X103119762Y-62796361D02*
X103081666Y-62872552D01*
X103081666Y-62872552D02*
X103043571Y-62910647D01*
X103043571Y-62910647D02*
X102967381Y-62948742D01*
X102967381Y-62948742D02*
X102662619Y-62948742D01*
X103881666Y-63329695D02*
X103424523Y-63329695D01*
X103653095Y-63329695D02*
X103653095Y-62529695D01*
X103653095Y-62529695D02*
X103576904Y-62643980D01*
X103576904Y-62643980D02*
X103500714Y-62720171D01*
X103500714Y-62720171D02*
X103424523Y-62758266D01*
X104643571Y-63329695D02*
X104186428Y-63329695D01*
X104415000Y-63329695D02*
X104415000Y-62529695D01*
X104415000Y-62529695D02*
X104338809Y-62643980D01*
X104338809Y-62643980D02*
X104262619Y-62720171D01*
X104262619Y-62720171D02*
X104186428Y-62758266D01*
X105329286Y-62529695D02*
X105176905Y-62529695D01*
X105176905Y-62529695D02*
X105100714Y-62567790D01*
X105100714Y-62567790D02*
X105062619Y-62605885D01*
X105062619Y-62605885D02*
X104986429Y-62720171D01*
X104986429Y-62720171D02*
X104948333Y-62872552D01*
X104948333Y-62872552D02*
X104948333Y-63177314D01*
X104948333Y-63177314D02*
X104986429Y-63253504D01*
X104986429Y-63253504D02*
X105024524Y-63291600D01*
X105024524Y-63291600D02*
X105100714Y-63329695D01*
X105100714Y-63329695D02*
X105253095Y-63329695D01*
X105253095Y-63329695D02*
X105329286Y-63291600D01*
X105329286Y-63291600D02*
X105367381Y-63253504D01*
X105367381Y-63253504D02*
X105405476Y-63177314D01*
X105405476Y-63177314D02*
X105405476Y-62986838D01*
X105405476Y-62986838D02*
X105367381Y-62910647D01*
X105367381Y-62910647D02*
X105329286Y-62872552D01*
X105329286Y-62872552D02*
X105253095Y-62834457D01*
X105253095Y-62834457D02*
X105100714Y-62834457D01*
X105100714Y-62834457D02*
X105024524Y-62872552D01*
X105024524Y-62872552D02*
X104986429Y-62910647D01*
X104986429Y-62910647D02*
X104948333Y-62986838D01*
X110919762Y-73253504D02*
X110881666Y-73291600D01*
X110881666Y-73291600D02*
X110767381Y-73329695D01*
X110767381Y-73329695D02*
X110691190Y-73329695D01*
X110691190Y-73329695D02*
X110576904Y-73291600D01*
X110576904Y-73291600D02*
X110500714Y-73215409D01*
X110500714Y-73215409D02*
X110462619Y-73139219D01*
X110462619Y-73139219D02*
X110424523Y-72986838D01*
X110424523Y-72986838D02*
X110424523Y-72872552D01*
X110424523Y-72872552D02*
X110462619Y-72720171D01*
X110462619Y-72720171D02*
X110500714Y-72643980D01*
X110500714Y-72643980D02*
X110576904Y-72567790D01*
X110576904Y-72567790D02*
X110691190Y-72529695D01*
X110691190Y-72529695D02*
X110767381Y-72529695D01*
X110767381Y-72529695D02*
X110881666Y-72567790D01*
X110881666Y-72567790D02*
X110919762Y-72605885D01*
X111224523Y-72605885D02*
X111262619Y-72567790D01*
X111262619Y-72567790D02*
X111338809Y-72529695D01*
X111338809Y-72529695D02*
X111529285Y-72529695D01*
X111529285Y-72529695D02*
X111605476Y-72567790D01*
X111605476Y-72567790D02*
X111643571Y-72605885D01*
X111643571Y-72605885D02*
X111681666Y-72682076D01*
X111681666Y-72682076D02*
X111681666Y-72758266D01*
X111681666Y-72758266D02*
X111643571Y-72872552D01*
X111643571Y-72872552D02*
X111186428Y-73329695D01*
X111186428Y-73329695D02*
X111681666Y-73329695D01*
X112176905Y-72529695D02*
X112253095Y-72529695D01*
X112253095Y-72529695D02*
X112329286Y-72567790D01*
X112329286Y-72567790D02*
X112367381Y-72605885D01*
X112367381Y-72605885D02*
X112405476Y-72682076D01*
X112405476Y-72682076D02*
X112443571Y-72834457D01*
X112443571Y-72834457D02*
X112443571Y-73024933D01*
X112443571Y-73024933D02*
X112405476Y-73177314D01*
X112405476Y-73177314D02*
X112367381Y-73253504D01*
X112367381Y-73253504D02*
X112329286Y-73291600D01*
X112329286Y-73291600D02*
X112253095Y-73329695D01*
X112253095Y-73329695D02*
X112176905Y-73329695D01*
X112176905Y-73329695D02*
X112100714Y-73291600D01*
X112100714Y-73291600D02*
X112062619Y-73253504D01*
X112062619Y-73253504D02*
X112024524Y-73177314D01*
X112024524Y-73177314D02*
X111986428Y-73024933D01*
X111986428Y-73024933D02*
X111986428Y-72834457D01*
X111986428Y-72834457D02*
X112024524Y-72682076D01*
X112024524Y-72682076D02*
X112062619Y-72605885D01*
X112062619Y-72605885D02*
X112100714Y-72567790D01*
X112100714Y-72567790D02*
X112176905Y-72529695D01*
X113167381Y-72529695D02*
X112786429Y-72529695D01*
X112786429Y-72529695D02*
X112748333Y-72910647D01*
X112748333Y-72910647D02*
X112786429Y-72872552D01*
X112786429Y-72872552D02*
X112862619Y-72834457D01*
X112862619Y-72834457D02*
X113053095Y-72834457D01*
X113053095Y-72834457D02*
X113129286Y-72872552D01*
X113129286Y-72872552D02*
X113167381Y-72910647D01*
X113167381Y-72910647D02*
X113205476Y-72986838D01*
X113205476Y-72986838D02*
X113205476Y-73177314D01*
X113205476Y-73177314D02*
X113167381Y-73253504D01*
X113167381Y-73253504D02*
X113129286Y-73291600D01*
X113129286Y-73291600D02*
X113053095Y-73329695D01*
X113053095Y-73329695D02*
X112862619Y-73329695D01*
X112862619Y-73329695D02*
X112786429Y-73291600D01*
X112786429Y-73291600D02*
X112748333Y-73253504D01*
X86719762Y-67929695D02*
X86453095Y-67548742D01*
X86262619Y-67929695D02*
X86262619Y-67129695D01*
X86262619Y-67129695D02*
X86567381Y-67129695D01*
X86567381Y-67129695D02*
X86643571Y-67167790D01*
X86643571Y-67167790D02*
X86681666Y-67205885D01*
X86681666Y-67205885D02*
X86719762Y-67282076D01*
X86719762Y-67282076D02*
X86719762Y-67396361D01*
X86719762Y-67396361D02*
X86681666Y-67472552D01*
X86681666Y-67472552D02*
X86643571Y-67510647D01*
X86643571Y-67510647D02*
X86567381Y-67548742D01*
X86567381Y-67548742D02*
X86262619Y-67548742D01*
X87405476Y-67396361D02*
X87405476Y-67929695D01*
X87215000Y-67091600D02*
X87024523Y-67663028D01*
X87024523Y-67663028D02*
X87519762Y-67663028D01*
X87976905Y-67129695D02*
X88053095Y-67129695D01*
X88053095Y-67129695D02*
X88129286Y-67167790D01*
X88129286Y-67167790D02*
X88167381Y-67205885D01*
X88167381Y-67205885D02*
X88205476Y-67282076D01*
X88205476Y-67282076D02*
X88243571Y-67434457D01*
X88243571Y-67434457D02*
X88243571Y-67624933D01*
X88243571Y-67624933D02*
X88205476Y-67777314D01*
X88205476Y-67777314D02*
X88167381Y-67853504D01*
X88167381Y-67853504D02*
X88129286Y-67891600D01*
X88129286Y-67891600D02*
X88053095Y-67929695D01*
X88053095Y-67929695D02*
X87976905Y-67929695D01*
X87976905Y-67929695D02*
X87900714Y-67891600D01*
X87900714Y-67891600D02*
X87862619Y-67853504D01*
X87862619Y-67853504D02*
X87824524Y-67777314D01*
X87824524Y-67777314D02*
X87786428Y-67624933D01*
X87786428Y-67624933D02*
X87786428Y-67434457D01*
X87786428Y-67434457D02*
X87824524Y-67282076D01*
X87824524Y-67282076D02*
X87862619Y-67205885D01*
X87862619Y-67205885D02*
X87900714Y-67167790D01*
X87900714Y-67167790D02*
X87976905Y-67129695D01*
X88738810Y-67129695D02*
X88815000Y-67129695D01*
X88815000Y-67129695D02*
X88891191Y-67167790D01*
X88891191Y-67167790D02*
X88929286Y-67205885D01*
X88929286Y-67205885D02*
X88967381Y-67282076D01*
X88967381Y-67282076D02*
X89005476Y-67434457D01*
X89005476Y-67434457D02*
X89005476Y-67624933D01*
X89005476Y-67624933D02*
X88967381Y-67777314D01*
X88967381Y-67777314D02*
X88929286Y-67853504D01*
X88929286Y-67853504D02*
X88891191Y-67891600D01*
X88891191Y-67891600D02*
X88815000Y-67929695D01*
X88815000Y-67929695D02*
X88738810Y-67929695D01*
X88738810Y-67929695D02*
X88662619Y-67891600D01*
X88662619Y-67891600D02*
X88624524Y-67853504D01*
X88624524Y-67853504D02*
X88586429Y-67777314D01*
X88586429Y-67777314D02*
X88548333Y-67624933D01*
X88548333Y-67624933D02*
X88548333Y-67434457D01*
X88548333Y-67434457D02*
X88586429Y-67282076D01*
X88586429Y-67282076D02*
X88624524Y-67205885D01*
X88624524Y-67205885D02*
X88662619Y-67167790D01*
X88662619Y-67167790D02*
X88738810Y-67129695D01*
X93698504Y-71265237D02*
X93736600Y-71303333D01*
X93736600Y-71303333D02*
X93774695Y-71417618D01*
X93774695Y-71417618D02*
X93774695Y-71493809D01*
X93774695Y-71493809D02*
X93736600Y-71608095D01*
X93736600Y-71608095D02*
X93660409Y-71684285D01*
X93660409Y-71684285D02*
X93584219Y-71722380D01*
X93584219Y-71722380D02*
X93431838Y-71760476D01*
X93431838Y-71760476D02*
X93317552Y-71760476D01*
X93317552Y-71760476D02*
X93165171Y-71722380D01*
X93165171Y-71722380D02*
X93088980Y-71684285D01*
X93088980Y-71684285D02*
X93012790Y-71608095D01*
X93012790Y-71608095D02*
X92974695Y-71493809D01*
X92974695Y-71493809D02*
X92974695Y-71417618D01*
X92974695Y-71417618D02*
X93012790Y-71303333D01*
X93012790Y-71303333D02*
X93050885Y-71265237D01*
X93050885Y-70960476D02*
X93012790Y-70922380D01*
X93012790Y-70922380D02*
X92974695Y-70846190D01*
X92974695Y-70846190D02*
X92974695Y-70655714D01*
X92974695Y-70655714D02*
X93012790Y-70579523D01*
X93012790Y-70579523D02*
X93050885Y-70541428D01*
X93050885Y-70541428D02*
X93127076Y-70503333D01*
X93127076Y-70503333D02*
X93203266Y-70503333D01*
X93203266Y-70503333D02*
X93317552Y-70541428D01*
X93317552Y-70541428D02*
X93774695Y-70998571D01*
X93774695Y-70998571D02*
X93774695Y-70503333D01*
X93774695Y-69741428D02*
X93774695Y-70198571D01*
X93774695Y-69969999D02*
X92974695Y-69969999D01*
X92974695Y-69969999D02*
X93088980Y-70046190D01*
X93088980Y-70046190D02*
X93165171Y-70122380D01*
X93165171Y-70122380D02*
X93203266Y-70198571D01*
X93774695Y-68979523D02*
X93774695Y-69436666D01*
X93774695Y-69208094D02*
X92974695Y-69208094D01*
X92974695Y-69208094D02*
X93088980Y-69284285D01*
X93088980Y-69284285D02*
X93165171Y-69360475D01*
X93165171Y-69360475D02*
X93203266Y-69436666D01*
X89774695Y-60265238D02*
X89774695Y-60646190D01*
X89774695Y-60646190D02*
X88974695Y-60646190D01*
X89241361Y-59655714D02*
X89774695Y-59655714D01*
X88936600Y-59846190D02*
X89508028Y-60036667D01*
X89508028Y-60036667D02*
X89508028Y-59541428D01*
X88974695Y-59084285D02*
X88974695Y-59008095D01*
X88974695Y-59008095D02*
X89012790Y-58931904D01*
X89012790Y-58931904D02*
X89050885Y-58893809D01*
X89050885Y-58893809D02*
X89127076Y-58855714D01*
X89127076Y-58855714D02*
X89279457Y-58817619D01*
X89279457Y-58817619D02*
X89469933Y-58817619D01*
X89469933Y-58817619D02*
X89622314Y-58855714D01*
X89622314Y-58855714D02*
X89698504Y-58893809D01*
X89698504Y-58893809D02*
X89736600Y-58931904D01*
X89736600Y-58931904D02*
X89774695Y-59008095D01*
X89774695Y-59008095D02*
X89774695Y-59084285D01*
X89774695Y-59084285D02*
X89736600Y-59160476D01*
X89736600Y-59160476D02*
X89698504Y-59198571D01*
X89698504Y-59198571D02*
X89622314Y-59236666D01*
X89622314Y-59236666D02*
X89469933Y-59274762D01*
X89469933Y-59274762D02*
X89279457Y-59274762D01*
X89279457Y-59274762D02*
X89127076Y-59236666D01*
X89127076Y-59236666D02*
X89050885Y-59198571D01*
X89050885Y-59198571D02*
X89012790Y-59160476D01*
X89012790Y-59160476D02*
X88974695Y-59084285D01*
X88974695Y-58322380D02*
X88974695Y-58246190D01*
X88974695Y-58246190D02*
X89012790Y-58169999D01*
X89012790Y-58169999D02*
X89050885Y-58131904D01*
X89050885Y-58131904D02*
X89127076Y-58093809D01*
X89127076Y-58093809D02*
X89279457Y-58055714D01*
X89279457Y-58055714D02*
X89469933Y-58055714D01*
X89469933Y-58055714D02*
X89622314Y-58093809D01*
X89622314Y-58093809D02*
X89698504Y-58131904D01*
X89698504Y-58131904D02*
X89736600Y-58169999D01*
X89736600Y-58169999D02*
X89774695Y-58246190D01*
X89774695Y-58246190D02*
X89774695Y-58322380D01*
X89774695Y-58322380D02*
X89736600Y-58398571D01*
X89736600Y-58398571D02*
X89698504Y-58436666D01*
X89698504Y-58436666D02*
X89622314Y-58474761D01*
X89622314Y-58474761D02*
X89469933Y-58512857D01*
X89469933Y-58512857D02*
X89279457Y-58512857D01*
X89279457Y-58512857D02*
X89127076Y-58474761D01*
X89127076Y-58474761D02*
X89050885Y-58436666D01*
X89050885Y-58436666D02*
X89012790Y-58398571D01*
X89012790Y-58398571D02*
X88974695Y-58322380D01*
X92919762Y-79453504D02*
X92881666Y-79491600D01*
X92881666Y-79491600D02*
X92767381Y-79529695D01*
X92767381Y-79529695D02*
X92691190Y-79529695D01*
X92691190Y-79529695D02*
X92576904Y-79491600D01*
X92576904Y-79491600D02*
X92500714Y-79415409D01*
X92500714Y-79415409D02*
X92462619Y-79339219D01*
X92462619Y-79339219D02*
X92424523Y-79186838D01*
X92424523Y-79186838D02*
X92424523Y-79072552D01*
X92424523Y-79072552D02*
X92462619Y-78920171D01*
X92462619Y-78920171D02*
X92500714Y-78843980D01*
X92500714Y-78843980D02*
X92576904Y-78767790D01*
X92576904Y-78767790D02*
X92691190Y-78729695D01*
X92691190Y-78729695D02*
X92767381Y-78729695D01*
X92767381Y-78729695D02*
X92881666Y-78767790D01*
X92881666Y-78767790D02*
X92919762Y-78805885D01*
X93186428Y-78729695D02*
X93681666Y-78729695D01*
X93681666Y-78729695D02*
X93415000Y-79034457D01*
X93415000Y-79034457D02*
X93529285Y-79034457D01*
X93529285Y-79034457D02*
X93605476Y-79072552D01*
X93605476Y-79072552D02*
X93643571Y-79110647D01*
X93643571Y-79110647D02*
X93681666Y-79186838D01*
X93681666Y-79186838D02*
X93681666Y-79377314D01*
X93681666Y-79377314D02*
X93643571Y-79453504D01*
X93643571Y-79453504D02*
X93605476Y-79491600D01*
X93605476Y-79491600D02*
X93529285Y-79529695D01*
X93529285Y-79529695D02*
X93300714Y-79529695D01*
X93300714Y-79529695D02*
X93224523Y-79491600D01*
X93224523Y-79491600D02*
X93186428Y-79453504D01*
X94176905Y-78729695D02*
X94253095Y-78729695D01*
X94253095Y-78729695D02*
X94329286Y-78767790D01*
X94329286Y-78767790D02*
X94367381Y-78805885D01*
X94367381Y-78805885D02*
X94405476Y-78882076D01*
X94405476Y-78882076D02*
X94443571Y-79034457D01*
X94443571Y-79034457D02*
X94443571Y-79224933D01*
X94443571Y-79224933D02*
X94405476Y-79377314D01*
X94405476Y-79377314D02*
X94367381Y-79453504D01*
X94367381Y-79453504D02*
X94329286Y-79491600D01*
X94329286Y-79491600D02*
X94253095Y-79529695D01*
X94253095Y-79529695D02*
X94176905Y-79529695D01*
X94176905Y-79529695D02*
X94100714Y-79491600D01*
X94100714Y-79491600D02*
X94062619Y-79453504D01*
X94062619Y-79453504D02*
X94024524Y-79377314D01*
X94024524Y-79377314D02*
X93986428Y-79224933D01*
X93986428Y-79224933D02*
X93986428Y-79034457D01*
X93986428Y-79034457D02*
X94024524Y-78882076D01*
X94024524Y-78882076D02*
X94062619Y-78805885D01*
X94062619Y-78805885D02*
X94100714Y-78767790D01*
X94100714Y-78767790D02*
X94176905Y-78729695D01*
X95167381Y-78729695D02*
X94786429Y-78729695D01*
X94786429Y-78729695D02*
X94748333Y-79110647D01*
X94748333Y-79110647D02*
X94786429Y-79072552D01*
X94786429Y-79072552D02*
X94862619Y-79034457D01*
X94862619Y-79034457D02*
X95053095Y-79034457D01*
X95053095Y-79034457D02*
X95129286Y-79072552D01*
X95129286Y-79072552D02*
X95167381Y-79110647D01*
X95167381Y-79110647D02*
X95205476Y-79186838D01*
X95205476Y-79186838D02*
X95205476Y-79377314D01*
X95205476Y-79377314D02*
X95167381Y-79453504D01*
X95167381Y-79453504D02*
X95129286Y-79491600D01*
X95129286Y-79491600D02*
X95053095Y-79529695D01*
X95053095Y-79529695D02*
X94862619Y-79529695D01*
X94862619Y-79529695D02*
X94786429Y-79491600D01*
X94786429Y-79491600D02*
X94748333Y-79453504D01*
X99458504Y-75865237D02*
X99496600Y-75903333D01*
X99496600Y-75903333D02*
X99534695Y-76017618D01*
X99534695Y-76017618D02*
X99534695Y-76093809D01*
X99534695Y-76093809D02*
X99496600Y-76208095D01*
X99496600Y-76208095D02*
X99420409Y-76284285D01*
X99420409Y-76284285D02*
X99344219Y-76322380D01*
X99344219Y-76322380D02*
X99191838Y-76360476D01*
X99191838Y-76360476D02*
X99077552Y-76360476D01*
X99077552Y-76360476D02*
X98925171Y-76322380D01*
X98925171Y-76322380D02*
X98848980Y-76284285D01*
X98848980Y-76284285D02*
X98772790Y-76208095D01*
X98772790Y-76208095D02*
X98734695Y-76093809D01*
X98734695Y-76093809D02*
X98734695Y-76017618D01*
X98734695Y-76017618D02*
X98772790Y-75903333D01*
X98772790Y-75903333D02*
X98810885Y-75865237D01*
X98810885Y-75560476D02*
X98772790Y-75522380D01*
X98772790Y-75522380D02*
X98734695Y-75446190D01*
X98734695Y-75446190D02*
X98734695Y-75255714D01*
X98734695Y-75255714D02*
X98772790Y-75179523D01*
X98772790Y-75179523D02*
X98810885Y-75141428D01*
X98810885Y-75141428D02*
X98887076Y-75103333D01*
X98887076Y-75103333D02*
X98963266Y-75103333D01*
X98963266Y-75103333D02*
X99077552Y-75141428D01*
X99077552Y-75141428D02*
X99534695Y-75598571D01*
X99534695Y-75598571D02*
X99534695Y-75103333D01*
X99534695Y-74341428D02*
X99534695Y-74798571D01*
X99534695Y-74569999D02*
X98734695Y-74569999D01*
X98734695Y-74569999D02*
X98848980Y-74646190D01*
X98848980Y-74646190D02*
X98925171Y-74722380D01*
X98925171Y-74722380D02*
X98963266Y-74798571D01*
X98734695Y-74074761D02*
X98734695Y-73541427D01*
X98734695Y-73541427D02*
X99534695Y-73884285D01*
X96698504Y-75865237D02*
X96736600Y-75903333D01*
X96736600Y-75903333D02*
X96774695Y-76017618D01*
X96774695Y-76017618D02*
X96774695Y-76093809D01*
X96774695Y-76093809D02*
X96736600Y-76208095D01*
X96736600Y-76208095D02*
X96660409Y-76284285D01*
X96660409Y-76284285D02*
X96584219Y-76322380D01*
X96584219Y-76322380D02*
X96431838Y-76360476D01*
X96431838Y-76360476D02*
X96317552Y-76360476D01*
X96317552Y-76360476D02*
X96165171Y-76322380D01*
X96165171Y-76322380D02*
X96088980Y-76284285D01*
X96088980Y-76284285D02*
X96012790Y-76208095D01*
X96012790Y-76208095D02*
X95974695Y-76093809D01*
X95974695Y-76093809D02*
X95974695Y-76017618D01*
X95974695Y-76017618D02*
X96012790Y-75903333D01*
X96012790Y-75903333D02*
X96050885Y-75865237D01*
X96050885Y-75560476D02*
X96012790Y-75522380D01*
X96012790Y-75522380D02*
X95974695Y-75446190D01*
X95974695Y-75446190D02*
X95974695Y-75255714D01*
X95974695Y-75255714D02*
X96012790Y-75179523D01*
X96012790Y-75179523D02*
X96050885Y-75141428D01*
X96050885Y-75141428D02*
X96127076Y-75103333D01*
X96127076Y-75103333D02*
X96203266Y-75103333D01*
X96203266Y-75103333D02*
X96317552Y-75141428D01*
X96317552Y-75141428D02*
X96774695Y-75598571D01*
X96774695Y-75598571D02*
X96774695Y-75103333D01*
X96774695Y-74341428D02*
X96774695Y-74798571D01*
X96774695Y-74569999D02*
X95974695Y-74569999D01*
X95974695Y-74569999D02*
X96088980Y-74646190D01*
X96088980Y-74646190D02*
X96165171Y-74722380D01*
X96165171Y-74722380D02*
X96203266Y-74798571D01*
X95974695Y-73617618D02*
X95974695Y-73998570D01*
X95974695Y-73998570D02*
X96355647Y-74036666D01*
X96355647Y-74036666D02*
X96317552Y-73998570D01*
X96317552Y-73998570D02*
X96279457Y-73922380D01*
X96279457Y-73922380D02*
X96279457Y-73731904D01*
X96279457Y-73731904D02*
X96317552Y-73655713D01*
X96317552Y-73655713D02*
X96355647Y-73617618D01*
X96355647Y-73617618D02*
X96431838Y-73579523D01*
X96431838Y-73579523D02*
X96622314Y-73579523D01*
X96622314Y-73579523D02*
X96698504Y-73617618D01*
X96698504Y-73617618D02*
X96736600Y-73655713D01*
X96736600Y-73655713D02*
X96774695Y-73731904D01*
X96774695Y-73731904D02*
X96774695Y-73922380D01*
X96774695Y-73922380D02*
X96736600Y-73998570D01*
X96736600Y-73998570D02*
X96698504Y-74036666D01*
X88719762Y-69653504D02*
X88681666Y-69691600D01*
X88681666Y-69691600D02*
X88567381Y-69729695D01*
X88567381Y-69729695D02*
X88491190Y-69729695D01*
X88491190Y-69729695D02*
X88376904Y-69691600D01*
X88376904Y-69691600D02*
X88300714Y-69615409D01*
X88300714Y-69615409D02*
X88262619Y-69539219D01*
X88262619Y-69539219D02*
X88224523Y-69386838D01*
X88224523Y-69386838D02*
X88224523Y-69272552D01*
X88224523Y-69272552D02*
X88262619Y-69120171D01*
X88262619Y-69120171D02*
X88300714Y-69043980D01*
X88300714Y-69043980D02*
X88376904Y-68967790D01*
X88376904Y-68967790D02*
X88491190Y-68929695D01*
X88491190Y-68929695D02*
X88567381Y-68929695D01*
X88567381Y-68929695D02*
X88681666Y-68967790D01*
X88681666Y-68967790D02*
X88719762Y-69005885D01*
X89024523Y-69005885D02*
X89062619Y-68967790D01*
X89062619Y-68967790D02*
X89138809Y-68929695D01*
X89138809Y-68929695D02*
X89329285Y-68929695D01*
X89329285Y-68929695D02*
X89405476Y-68967790D01*
X89405476Y-68967790D02*
X89443571Y-69005885D01*
X89443571Y-69005885D02*
X89481666Y-69082076D01*
X89481666Y-69082076D02*
X89481666Y-69158266D01*
X89481666Y-69158266D02*
X89443571Y-69272552D01*
X89443571Y-69272552D02*
X88986428Y-69729695D01*
X88986428Y-69729695D02*
X89481666Y-69729695D01*
X90243571Y-69729695D02*
X89786428Y-69729695D01*
X90015000Y-69729695D02*
X90015000Y-68929695D01*
X90015000Y-68929695D02*
X89938809Y-69043980D01*
X89938809Y-69043980D02*
X89862619Y-69120171D01*
X89862619Y-69120171D02*
X89786428Y-69158266D01*
X90929286Y-69196361D02*
X90929286Y-69729695D01*
X90738810Y-68891600D02*
X90548333Y-69463028D01*
X90548333Y-69463028D02*
X91043572Y-69463028D01*
X125574695Y-79065237D02*
X125193742Y-79331904D01*
X125574695Y-79522380D02*
X124774695Y-79522380D01*
X124774695Y-79522380D02*
X124774695Y-79217618D01*
X124774695Y-79217618D02*
X124812790Y-79141428D01*
X124812790Y-79141428D02*
X124850885Y-79103333D01*
X124850885Y-79103333D02*
X124927076Y-79065237D01*
X124927076Y-79065237D02*
X125041361Y-79065237D01*
X125041361Y-79065237D02*
X125117552Y-79103333D01*
X125117552Y-79103333D02*
X125155647Y-79141428D01*
X125155647Y-79141428D02*
X125193742Y-79217618D01*
X125193742Y-79217618D02*
X125193742Y-79522380D01*
X124774695Y-78798571D02*
X124774695Y-78303333D01*
X124774695Y-78303333D02*
X125079457Y-78569999D01*
X125079457Y-78569999D02*
X125079457Y-78455714D01*
X125079457Y-78455714D02*
X125117552Y-78379523D01*
X125117552Y-78379523D02*
X125155647Y-78341428D01*
X125155647Y-78341428D02*
X125231838Y-78303333D01*
X125231838Y-78303333D02*
X125422314Y-78303333D01*
X125422314Y-78303333D02*
X125498504Y-78341428D01*
X125498504Y-78341428D02*
X125536600Y-78379523D01*
X125536600Y-78379523D02*
X125574695Y-78455714D01*
X125574695Y-78455714D02*
X125574695Y-78684285D01*
X125574695Y-78684285D02*
X125536600Y-78760476D01*
X125536600Y-78760476D02*
X125498504Y-78798571D01*
X124774695Y-77808094D02*
X124774695Y-77731904D01*
X124774695Y-77731904D02*
X124812790Y-77655713D01*
X124812790Y-77655713D02*
X124850885Y-77617618D01*
X124850885Y-77617618D02*
X124927076Y-77579523D01*
X124927076Y-77579523D02*
X125079457Y-77541428D01*
X125079457Y-77541428D02*
X125269933Y-77541428D01*
X125269933Y-77541428D02*
X125422314Y-77579523D01*
X125422314Y-77579523D02*
X125498504Y-77617618D01*
X125498504Y-77617618D02*
X125536600Y-77655713D01*
X125536600Y-77655713D02*
X125574695Y-77731904D01*
X125574695Y-77731904D02*
X125574695Y-77808094D01*
X125574695Y-77808094D02*
X125536600Y-77884285D01*
X125536600Y-77884285D02*
X125498504Y-77922380D01*
X125498504Y-77922380D02*
X125422314Y-77960475D01*
X125422314Y-77960475D02*
X125269933Y-77998571D01*
X125269933Y-77998571D02*
X125079457Y-77998571D01*
X125079457Y-77998571D02*
X124927076Y-77960475D01*
X124927076Y-77960475D02*
X124850885Y-77922380D01*
X124850885Y-77922380D02*
X124812790Y-77884285D01*
X124812790Y-77884285D02*
X124774695Y-77808094D01*
X124774695Y-77274761D02*
X124774695Y-76779523D01*
X124774695Y-76779523D02*
X125079457Y-77046189D01*
X125079457Y-77046189D02*
X125079457Y-76931904D01*
X125079457Y-76931904D02*
X125117552Y-76855713D01*
X125117552Y-76855713D02*
X125155647Y-76817618D01*
X125155647Y-76817618D02*
X125231838Y-76779523D01*
X125231838Y-76779523D02*
X125422314Y-76779523D01*
X125422314Y-76779523D02*
X125498504Y-76817618D01*
X125498504Y-76817618D02*
X125536600Y-76855713D01*
X125536600Y-76855713D02*
X125574695Y-76931904D01*
X125574695Y-76931904D02*
X125574695Y-77160475D01*
X125574695Y-77160475D02*
X125536600Y-77236666D01*
X125536600Y-77236666D02*
X125498504Y-77274761D01*
X100748504Y-75865237D02*
X100786600Y-75903333D01*
X100786600Y-75903333D02*
X100824695Y-76017618D01*
X100824695Y-76017618D02*
X100824695Y-76093809D01*
X100824695Y-76093809D02*
X100786600Y-76208095D01*
X100786600Y-76208095D02*
X100710409Y-76284285D01*
X100710409Y-76284285D02*
X100634219Y-76322380D01*
X100634219Y-76322380D02*
X100481838Y-76360476D01*
X100481838Y-76360476D02*
X100367552Y-76360476D01*
X100367552Y-76360476D02*
X100215171Y-76322380D01*
X100215171Y-76322380D02*
X100138980Y-76284285D01*
X100138980Y-76284285D02*
X100062790Y-76208095D01*
X100062790Y-76208095D02*
X100024695Y-76093809D01*
X100024695Y-76093809D02*
X100024695Y-76017618D01*
X100024695Y-76017618D02*
X100062790Y-75903333D01*
X100062790Y-75903333D02*
X100100885Y-75865237D01*
X100100885Y-75560476D02*
X100062790Y-75522380D01*
X100062790Y-75522380D02*
X100024695Y-75446190D01*
X100024695Y-75446190D02*
X100024695Y-75255714D01*
X100024695Y-75255714D02*
X100062790Y-75179523D01*
X100062790Y-75179523D02*
X100100885Y-75141428D01*
X100100885Y-75141428D02*
X100177076Y-75103333D01*
X100177076Y-75103333D02*
X100253266Y-75103333D01*
X100253266Y-75103333D02*
X100367552Y-75141428D01*
X100367552Y-75141428D02*
X100824695Y-75598571D01*
X100824695Y-75598571D02*
X100824695Y-75103333D01*
X100024695Y-74608094D02*
X100024695Y-74531904D01*
X100024695Y-74531904D02*
X100062790Y-74455713D01*
X100062790Y-74455713D02*
X100100885Y-74417618D01*
X100100885Y-74417618D02*
X100177076Y-74379523D01*
X100177076Y-74379523D02*
X100329457Y-74341428D01*
X100329457Y-74341428D02*
X100519933Y-74341428D01*
X100519933Y-74341428D02*
X100672314Y-74379523D01*
X100672314Y-74379523D02*
X100748504Y-74417618D01*
X100748504Y-74417618D02*
X100786600Y-74455713D01*
X100786600Y-74455713D02*
X100824695Y-74531904D01*
X100824695Y-74531904D02*
X100824695Y-74608094D01*
X100824695Y-74608094D02*
X100786600Y-74684285D01*
X100786600Y-74684285D02*
X100748504Y-74722380D01*
X100748504Y-74722380D02*
X100672314Y-74760475D01*
X100672314Y-74760475D02*
X100519933Y-74798571D01*
X100519933Y-74798571D02*
X100329457Y-74798571D01*
X100329457Y-74798571D02*
X100177076Y-74760475D01*
X100177076Y-74760475D02*
X100100885Y-74722380D01*
X100100885Y-74722380D02*
X100062790Y-74684285D01*
X100062790Y-74684285D02*
X100024695Y-74608094D01*
X100024695Y-73655713D02*
X100024695Y-73808094D01*
X100024695Y-73808094D02*
X100062790Y-73884285D01*
X100062790Y-73884285D02*
X100100885Y-73922380D01*
X100100885Y-73922380D02*
X100215171Y-73998570D01*
X100215171Y-73998570D02*
X100367552Y-74036666D01*
X100367552Y-74036666D02*
X100672314Y-74036666D01*
X100672314Y-74036666D02*
X100748504Y-73998570D01*
X100748504Y-73998570D02*
X100786600Y-73960475D01*
X100786600Y-73960475D02*
X100824695Y-73884285D01*
X100824695Y-73884285D02*
X100824695Y-73731904D01*
X100824695Y-73731904D02*
X100786600Y-73655713D01*
X100786600Y-73655713D02*
X100748504Y-73617618D01*
X100748504Y-73617618D02*
X100672314Y-73579523D01*
X100672314Y-73579523D02*
X100481838Y-73579523D01*
X100481838Y-73579523D02*
X100405647Y-73617618D01*
X100405647Y-73617618D02*
X100367552Y-73655713D01*
X100367552Y-73655713D02*
X100329457Y-73731904D01*
X100329457Y-73731904D02*
X100329457Y-73884285D01*
X100329457Y-73884285D02*
X100367552Y-73960475D01*
X100367552Y-73960475D02*
X100405647Y-73998570D01*
X100405647Y-73998570D02*
X100481838Y-74036666D01*
X97719762Y-80853504D02*
X97681666Y-80891600D01*
X97681666Y-80891600D02*
X97567381Y-80929695D01*
X97567381Y-80929695D02*
X97491190Y-80929695D01*
X97491190Y-80929695D02*
X97376904Y-80891600D01*
X97376904Y-80891600D02*
X97300714Y-80815409D01*
X97300714Y-80815409D02*
X97262619Y-80739219D01*
X97262619Y-80739219D02*
X97224523Y-80586838D01*
X97224523Y-80586838D02*
X97224523Y-80472552D01*
X97224523Y-80472552D02*
X97262619Y-80320171D01*
X97262619Y-80320171D02*
X97300714Y-80243980D01*
X97300714Y-80243980D02*
X97376904Y-80167790D01*
X97376904Y-80167790D02*
X97491190Y-80129695D01*
X97491190Y-80129695D02*
X97567381Y-80129695D01*
X97567381Y-80129695D02*
X97681666Y-80167790D01*
X97681666Y-80167790D02*
X97719762Y-80205885D01*
X97986428Y-80129695D02*
X98481666Y-80129695D01*
X98481666Y-80129695D02*
X98215000Y-80434457D01*
X98215000Y-80434457D02*
X98329285Y-80434457D01*
X98329285Y-80434457D02*
X98405476Y-80472552D01*
X98405476Y-80472552D02*
X98443571Y-80510647D01*
X98443571Y-80510647D02*
X98481666Y-80586838D01*
X98481666Y-80586838D02*
X98481666Y-80777314D01*
X98481666Y-80777314D02*
X98443571Y-80853504D01*
X98443571Y-80853504D02*
X98405476Y-80891600D01*
X98405476Y-80891600D02*
X98329285Y-80929695D01*
X98329285Y-80929695D02*
X98100714Y-80929695D01*
X98100714Y-80929695D02*
X98024523Y-80891600D01*
X98024523Y-80891600D02*
X97986428Y-80853504D01*
X99243571Y-80929695D02*
X98786428Y-80929695D01*
X99015000Y-80929695D02*
X99015000Y-80129695D01*
X99015000Y-80129695D02*
X98938809Y-80243980D01*
X98938809Y-80243980D02*
X98862619Y-80320171D01*
X98862619Y-80320171D02*
X98786428Y-80358266D01*
X100005476Y-80929695D02*
X99548333Y-80929695D01*
X99776905Y-80929695D02*
X99776905Y-80129695D01*
X99776905Y-80129695D02*
X99700714Y-80243980D01*
X99700714Y-80243980D02*
X99624524Y-80320171D01*
X99624524Y-80320171D02*
X99548333Y-80358266D01*
X86719762Y-66729695D02*
X86453095Y-66348742D01*
X86262619Y-66729695D02*
X86262619Y-65929695D01*
X86262619Y-65929695D02*
X86567381Y-65929695D01*
X86567381Y-65929695D02*
X86643571Y-65967790D01*
X86643571Y-65967790D02*
X86681666Y-66005885D01*
X86681666Y-66005885D02*
X86719762Y-66082076D01*
X86719762Y-66082076D02*
X86719762Y-66196361D01*
X86719762Y-66196361D02*
X86681666Y-66272552D01*
X86681666Y-66272552D02*
X86643571Y-66310647D01*
X86643571Y-66310647D02*
X86567381Y-66348742D01*
X86567381Y-66348742D02*
X86262619Y-66348742D01*
X87481666Y-66729695D02*
X87024523Y-66729695D01*
X87253095Y-66729695D02*
X87253095Y-65929695D01*
X87253095Y-65929695D02*
X87176904Y-66043980D01*
X87176904Y-66043980D02*
X87100714Y-66120171D01*
X87100714Y-66120171D02*
X87024523Y-66158266D01*
X87976905Y-65929695D02*
X88053095Y-65929695D01*
X88053095Y-65929695D02*
X88129286Y-65967790D01*
X88129286Y-65967790D02*
X88167381Y-66005885D01*
X88167381Y-66005885D02*
X88205476Y-66082076D01*
X88205476Y-66082076D02*
X88243571Y-66234457D01*
X88243571Y-66234457D02*
X88243571Y-66424933D01*
X88243571Y-66424933D02*
X88205476Y-66577314D01*
X88205476Y-66577314D02*
X88167381Y-66653504D01*
X88167381Y-66653504D02*
X88129286Y-66691600D01*
X88129286Y-66691600D02*
X88053095Y-66729695D01*
X88053095Y-66729695D02*
X87976905Y-66729695D01*
X87976905Y-66729695D02*
X87900714Y-66691600D01*
X87900714Y-66691600D02*
X87862619Y-66653504D01*
X87862619Y-66653504D02*
X87824524Y-66577314D01*
X87824524Y-66577314D02*
X87786428Y-66424933D01*
X87786428Y-66424933D02*
X87786428Y-66234457D01*
X87786428Y-66234457D02*
X87824524Y-66082076D01*
X87824524Y-66082076D02*
X87862619Y-66005885D01*
X87862619Y-66005885D02*
X87900714Y-65967790D01*
X87900714Y-65967790D02*
X87976905Y-65929695D01*
X88738810Y-65929695D02*
X88815000Y-65929695D01*
X88815000Y-65929695D02*
X88891191Y-65967790D01*
X88891191Y-65967790D02*
X88929286Y-66005885D01*
X88929286Y-66005885D02*
X88967381Y-66082076D01*
X88967381Y-66082076D02*
X89005476Y-66234457D01*
X89005476Y-66234457D02*
X89005476Y-66424933D01*
X89005476Y-66424933D02*
X88967381Y-66577314D01*
X88967381Y-66577314D02*
X88929286Y-66653504D01*
X88929286Y-66653504D02*
X88891191Y-66691600D01*
X88891191Y-66691600D02*
X88815000Y-66729695D01*
X88815000Y-66729695D02*
X88738810Y-66729695D01*
X88738810Y-66729695D02*
X88662619Y-66691600D01*
X88662619Y-66691600D02*
X88624524Y-66653504D01*
X88624524Y-66653504D02*
X88586429Y-66577314D01*
X88586429Y-66577314D02*
X88548333Y-66424933D01*
X88548333Y-66424933D02*
X88548333Y-66234457D01*
X88548333Y-66234457D02*
X88586429Y-66082076D01*
X88586429Y-66082076D02*
X88624524Y-66005885D01*
X88624524Y-66005885D02*
X88662619Y-65967790D01*
X88662619Y-65967790D02*
X88738810Y-65929695D01*
X109519762Y-66329695D02*
X109253095Y-65948742D01*
X109062619Y-66329695D02*
X109062619Y-65529695D01*
X109062619Y-65529695D02*
X109367381Y-65529695D01*
X109367381Y-65529695D02*
X109443571Y-65567790D01*
X109443571Y-65567790D02*
X109481666Y-65605885D01*
X109481666Y-65605885D02*
X109519762Y-65682076D01*
X109519762Y-65682076D02*
X109519762Y-65796361D01*
X109519762Y-65796361D02*
X109481666Y-65872552D01*
X109481666Y-65872552D02*
X109443571Y-65910647D01*
X109443571Y-65910647D02*
X109367381Y-65948742D01*
X109367381Y-65948742D02*
X109062619Y-65948742D01*
X110281666Y-66329695D02*
X109824523Y-66329695D01*
X110053095Y-66329695D02*
X110053095Y-65529695D01*
X110053095Y-65529695D02*
X109976904Y-65643980D01*
X109976904Y-65643980D02*
X109900714Y-65720171D01*
X109900714Y-65720171D02*
X109824523Y-65758266D01*
X111043571Y-66329695D02*
X110586428Y-66329695D01*
X110815000Y-66329695D02*
X110815000Y-65529695D01*
X110815000Y-65529695D02*
X110738809Y-65643980D01*
X110738809Y-65643980D02*
X110662619Y-65720171D01*
X110662619Y-65720171D02*
X110586428Y-65758266D01*
X111310238Y-65529695D02*
X111843572Y-65529695D01*
X111843572Y-65529695D02*
X111500714Y-66329695D01*
X102098504Y-75865237D02*
X102136600Y-75903333D01*
X102136600Y-75903333D02*
X102174695Y-76017618D01*
X102174695Y-76017618D02*
X102174695Y-76093809D01*
X102174695Y-76093809D02*
X102136600Y-76208095D01*
X102136600Y-76208095D02*
X102060409Y-76284285D01*
X102060409Y-76284285D02*
X101984219Y-76322380D01*
X101984219Y-76322380D02*
X101831838Y-76360476D01*
X101831838Y-76360476D02*
X101717552Y-76360476D01*
X101717552Y-76360476D02*
X101565171Y-76322380D01*
X101565171Y-76322380D02*
X101488980Y-76284285D01*
X101488980Y-76284285D02*
X101412790Y-76208095D01*
X101412790Y-76208095D02*
X101374695Y-76093809D01*
X101374695Y-76093809D02*
X101374695Y-76017618D01*
X101374695Y-76017618D02*
X101412790Y-75903333D01*
X101412790Y-75903333D02*
X101450885Y-75865237D01*
X101450885Y-75560476D02*
X101412790Y-75522380D01*
X101412790Y-75522380D02*
X101374695Y-75446190D01*
X101374695Y-75446190D02*
X101374695Y-75255714D01*
X101374695Y-75255714D02*
X101412790Y-75179523D01*
X101412790Y-75179523D02*
X101450885Y-75141428D01*
X101450885Y-75141428D02*
X101527076Y-75103333D01*
X101527076Y-75103333D02*
X101603266Y-75103333D01*
X101603266Y-75103333D02*
X101717552Y-75141428D01*
X101717552Y-75141428D02*
X102174695Y-75598571D01*
X102174695Y-75598571D02*
X102174695Y-75103333D01*
X101374695Y-74608094D02*
X101374695Y-74531904D01*
X101374695Y-74531904D02*
X101412790Y-74455713D01*
X101412790Y-74455713D02*
X101450885Y-74417618D01*
X101450885Y-74417618D02*
X101527076Y-74379523D01*
X101527076Y-74379523D02*
X101679457Y-74341428D01*
X101679457Y-74341428D02*
X101869933Y-74341428D01*
X101869933Y-74341428D02*
X102022314Y-74379523D01*
X102022314Y-74379523D02*
X102098504Y-74417618D01*
X102098504Y-74417618D02*
X102136600Y-74455713D01*
X102136600Y-74455713D02*
X102174695Y-74531904D01*
X102174695Y-74531904D02*
X102174695Y-74608094D01*
X102174695Y-74608094D02*
X102136600Y-74684285D01*
X102136600Y-74684285D02*
X102098504Y-74722380D01*
X102098504Y-74722380D02*
X102022314Y-74760475D01*
X102022314Y-74760475D02*
X101869933Y-74798571D01*
X101869933Y-74798571D02*
X101679457Y-74798571D01*
X101679457Y-74798571D02*
X101527076Y-74760475D01*
X101527076Y-74760475D02*
X101450885Y-74722380D01*
X101450885Y-74722380D02*
X101412790Y-74684285D01*
X101412790Y-74684285D02*
X101374695Y-74608094D01*
X101374695Y-74074761D02*
X101374695Y-73541427D01*
X101374695Y-73541427D02*
X102174695Y-73884285D01*
X89298504Y-64865237D02*
X89336600Y-64903333D01*
X89336600Y-64903333D02*
X89374695Y-65017618D01*
X89374695Y-65017618D02*
X89374695Y-65093809D01*
X89374695Y-65093809D02*
X89336600Y-65208095D01*
X89336600Y-65208095D02*
X89260409Y-65284285D01*
X89260409Y-65284285D02*
X89184219Y-65322380D01*
X89184219Y-65322380D02*
X89031838Y-65360476D01*
X89031838Y-65360476D02*
X88917552Y-65360476D01*
X88917552Y-65360476D02*
X88765171Y-65322380D01*
X88765171Y-65322380D02*
X88688980Y-65284285D01*
X88688980Y-65284285D02*
X88612790Y-65208095D01*
X88612790Y-65208095D02*
X88574695Y-65093809D01*
X88574695Y-65093809D02*
X88574695Y-65017618D01*
X88574695Y-65017618D02*
X88612790Y-64903333D01*
X88612790Y-64903333D02*
X88650885Y-64865237D01*
X88650885Y-64560476D02*
X88612790Y-64522380D01*
X88612790Y-64522380D02*
X88574695Y-64446190D01*
X88574695Y-64446190D02*
X88574695Y-64255714D01*
X88574695Y-64255714D02*
X88612790Y-64179523D01*
X88612790Y-64179523D02*
X88650885Y-64141428D01*
X88650885Y-64141428D02*
X88727076Y-64103333D01*
X88727076Y-64103333D02*
X88803266Y-64103333D01*
X88803266Y-64103333D02*
X88917552Y-64141428D01*
X88917552Y-64141428D02*
X89374695Y-64598571D01*
X89374695Y-64598571D02*
X89374695Y-64103333D01*
X89374695Y-63341428D02*
X89374695Y-63798571D01*
X89374695Y-63569999D02*
X88574695Y-63569999D01*
X88574695Y-63569999D02*
X88688980Y-63646190D01*
X88688980Y-63646190D02*
X88765171Y-63722380D01*
X88765171Y-63722380D02*
X88803266Y-63798571D01*
X88574695Y-62846189D02*
X88574695Y-62769999D01*
X88574695Y-62769999D02*
X88612790Y-62693808D01*
X88612790Y-62693808D02*
X88650885Y-62655713D01*
X88650885Y-62655713D02*
X88727076Y-62617618D01*
X88727076Y-62617618D02*
X88879457Y-62579523D01*
X88879457Y-62579523D02*
X89069933Y-62579523D01*
X89069933Y-62579523D02*
X89222314Y-62617618D01*
X89222314Y-62617618D02*
X89298504Y-62655713D01*
X89298504Y-62655713D02*
X89336600Y-62693808D01*
X89336600Y-62693808D02*
X89374695Y-62769999D01*
X89374695Y-62769999D02*
X89374695Y-62846189D01*
X89374695Y-62846189D02*
X89336600Y-62922380D01*
X89336600Y-62922380D02*
X89298504Y-62960475D01*
X89298504Y-62960475D02*
X89222314Y-62998570D01*
X89222314Y-62998570D02*
X89069933Y-63036666D01*
X89069933Y-63036666D02*
X88879457Y-63036666D01*
X88879457Y-63036666D02*
X88727076Y-62998570D01*
X88727076Y-62998570D02*
X88650885Y-62960475D01*
X88650885Y-62960475D02*
X88612790Y-62922380D01*
X88612790Y-62922380D02*
X88574695Y-62846189D01*
X98098504Y-75865237D02*
X98136600Y-75903333D01*
X98136600Y-75903333D02*
X98174695Y-76017618D01*
X98174695Y-76017618D02*
X98174695Y-76093809D01*
X98174695Y-76093809D02*
X98136600Y-76208095D01*
X98136600Y-76208095D02*
X98060409Y-76284285D01*
X98060409Y-76284285D02*
X97984219Y-76322380D01*
X97984219Y-76322380D02*
X97831838Y-76360476D01*
X97831838Y-76360476D02*
X97717552Y-76360476D01*
X97717552Y-76360476D02*
X97565171Y-76322380D01*
X97565171Y-76322380D02*
X97488980Y-76284285D01*
X97488980Y-76284285D02*
X97412790Y-76208095D01*
X97412790Y-76208095D02*
X97374695Y-76093809D01*
X97374695Y-76093809D02*
X97374695Y-76017618D01*
X97374695Y-76017618D02*
X97412790Y-75903333D01*
X97412790Y-75903333D02*
X97450885Y-75865237D01*
X97450885Y-75560476D02*
X97412790Y-75522380D01*
X97412790Y-75522380D02*
X97374695Y-75446190D01*
X97374695Y-75446190D02*
X97374695Y-75255714D01*
X97374695Y-75255714D02*
X97412790Y-75179523D01*
X97412790Y-75179523D02*
X97450885Y-75141428D01*
X97450885Y-75141428D02*
X97527076Y-75103333D01*
X97527076Y-75103333D02*
X97603266Y-75103333D01*
X97603266Y-75103333D02*
X97717552Y-75141428D01*
X97717552Y-75141428D02*
X98174695Y-75598571D01*
X98174695Y-75598571D02*
X98174695Y-75103333D01*
X98174695Y-74341428D02*
X98174695Y-74798571D01*
X98174695Y-74569999D02*
X97374695Y-74569999D01*
X97374695Y-74569999D02*
X97488980Y-74646190D01*
X97488980Y-74646190D02*
X97565171Y-74722380D01*
X97565171Y-74722380D02*
X97603266Y-74798571D01*
X97717552Y-73884285D02*
X97679457Y-73960475D01*
X97679457Y-73960475D02*
X97641361Y-73998570D01*
X97641361Y-73998570D02*
X97565171Y-74036666D01*
X97565171Y-74036666D02*
X97527076Y-74036666D01*
X97527076Y-74036666D02*
X97450885Y-73998570D01*
X97450885Y-73998570D02*
X97412790Y-73960475D01*
X97412790Y-73960475D02*
X97374695Y-73884285D01*
X97374695Y-73884285D02*
X97374695Y-73731904D01*
X97374695Y-73731904D02*
X97412790Y-73655713D01*
X97412790Y-73655713D02*
X97450885Y-73617618D01*
X97450885Y-73617618D02*
X97527076Y-73579523D01*
X97527076Y-73579523D02*
X97565171Y-73579523D01*
X97565171Y-73579523D02*
X97641361Y-73617618D01*
X97641361Y-73617618D02*
X97679457Y-73655713D01*
X97679457Y-73655713D02*
X97717552Y-73731904D01*
X97717552Y-73731904D02*
X97717552Y-73884285D01*
X97717552Y-73884285D02*
X97755647Y-73960475D01*
X97755647Y-73960475D02*
X97793742Y-73998570D01*
X97793742Y-73998570D02*
X97869933Y-74036666D01*
X97869933Y-74036666D02*
X98022314Y-74036666D01*
X98022314Y-74036666D02*
X98098504Y-73998570D01*
X98098504Y-73998570D02*
X98136600Y-73960475D01*
X98136600Y-73960475D02*
X98174695Y-73884285D01*
X98174695Y-73884285D02*
X98174695Y-73731904D01*
X98174695Y-73731904D02*
X98136600Y-73655713D01*
X98136600Y-73655713D02*
X98098504Y-73617618D01*
X98098504Y-73617618D02*
X98022314Y-73579523D01*
X98022314Y-73579523D02*
X97869933Y-73579523D01*
X97869933Y-73579523D02*
X97793742Y-73617618D01*
X97793742Y-73617618D02*
X97755647Y-73655713D01*
X97755647Y-73655713D02*
X97717552Y-73731904D01*
X98119762Y-79453504D02*
X98081666Y-79491600D01*
X98081666Y-79491600D02*
X97967381Y-79529695D01*
X97967381Y-79529695D02*
X97891190Y-79529695D01*
X97891190Y-79529695D02*
X97776904Y-79491600D01*
X97776904Y-79491600D02*
X97700714Y-79415409D01*
X97700714Y-79415409D02*
X97662619Y-79339219D01*
X97662619Y-79339219D02*
X97624523Y-79186838D01*
X97624523Y-79186838D02*
X97624523Y-79072552D01*
X97624523Y-79072552D02*
X97662619Y-78920171D01*
X97662619Y-78920171D02*
X97700714Y-78843980D01*
X97700714Y-78843980D02*
X97776904Y-78767790D01*
X97776904Y-78767790D02*
X97891190Y-78729695D01*
X97891190Y-78729695D02*
X97967381Y-78729695D01*
X97967381Y-78729695D02*
X98081666Y-78767790D01*
X98081666Y-78767790D02*
X98119762Y-78805885D01*
X98386428Y-78729695D02*
X98881666Y-78729695D01*
X98881666Y-78729695D02*
X98615000Y-79034457D01*
X98615000Y-79034457D02*
X98729285Y-79034457D01*
X98729285Y-79034457D02*
X98805476Y-79072552D01*
X98805476Y-79072552D02*
X98843571Y-79110647D01*
X98843571Y-79110647D02*
X98881666Y-79186838D01*
X98881666Y-79186838D02*
X98881666Y-79377314D01*
X98881666Y-79377314D02*
X98843571Y-79453504D01*
X98843571Y-79453504D02*
X98805476Y-79491600D01*
X98805476Y-79491600D02*
X98729285Y-79529695D01*
X98729285Y-79529695D02*
X98500714Y-79529695D01*
X98500714Y-79529695D02*
X98424523Y-79491600D01*
X98424523Y-79491600D02*
X98386428Y-79453504D01*
X99376905Y-78729695D02*
X99453095Y-78729695D01*
X99453095Y-78729695D02*
X99529286Y-78767790D01*
X99529286Y-78767790D02*
X99567381Y-78805885D01*
X99567381Y-78805885D02*
X99605476Y-78882076D01*
X99605476Y-78882076D02*
X99643571Y-79034457D01*
X99643571Y-79034457D02*
X99643571Y-79224933D01*
X99643571Y-79224933D02*
X99605476Y-79377314D01*
X99605476Y-79377314D02*
X99567381Y-79453504D01*
X99567381Y-79453504D02*
X99529286Y-79491600D01*
X99529286Y-79491600D02*
X99453095Y-79529695D01*
X99453095Y-79529695D02*
X99376905Y-79529695D01*
X99376905Y-79529695D02*
X99300714Y-79491600D01*
X99300714Y-79491600D02*
X99262619Y-79453504D01*
X99262619Y-79453504D02*
X99224524Y-79377314D01*
X99224524Y-79377314D02*
X99186428Y-79224933D01*
X99186428Y-79224933D02*
X99186428Y-79034457D01*
X99186428Y-79034457D02*
X99224524Y-78882076D01*
X99224524Y-78882076D02*
X99262619Y-78805885D01*
X99262619Y-78805885D02*
X99300714Y-78767790D01*
X99300714Y-78767790D02*
X99376905Y-78729695D01*
X100100714Y-79072552D02*
X100024524Y-79034457D01*
X100024524Y-79034457D02*
X99986429Y-78996361D01*
X99986429Y-78996361D02*
X99948333Y-78920171D01*
X99948333Y-78920171D02*
X99948333Y-78882076D01*
X99948333Y-78882076D02*
X99986429Y-78805885D01*
X99986429Y-78805885D02*
X100024524Y-78767790D01*
X100024524Y-78767790D02*
X100100714Y-78729695D01*
X100100714Y-78729695D02*
X100253095Y-78729695D01*
X100253095Y-78729695D02*
X100329286Y-78767790D01*
X100329286Y-78767790D02*
X100367381Y-78805885D01*
X100367381Y-78805885D02*
X100405476Y-78882076D01*
X100405476Y-78882076D02*
X100405476Y-78920171D01*
X100405476Y-78920171D02*
X100367381Y-78996361D01*
X100367381Y-78996361D02*
X100329286Y-79034457D01*
X100329286Y-79034457D02*
X100253095Y-79072552D01*
X100253095Y-79072552D02*
X100100714Y-79072552D01*
X100100714Y-79072552D02*
X100024524Y-79110647D01*
X100024524Y-79110647D02*
X99986429Y-79148742D01*
X99986429Y-79148742D02*
X99948333Y-79224933D01*
X99948333Y-79224933D02*
X99948333Y-79377314D01*
X99948333Y-79377314D02*
X99986429Y-79453504D01*
X99986429Y-79453504D02*
X100024524Y-79491600D01*
X100024524Y-79491600D02*
X100100714Y-79529695D01*
X100100714Y-79529695D02*
X100253095Y-79529695D01*
X100253095Y-79529695D02*
X100329286Y-79491600D01*
X100329286Y-79491600D02*
X100367381Y-79453504D01*
X100367381Y-79453504D02*
X100405476Y-79377314D01*
X100405476Y-79377314D02*
X100405476Y-79224933D01*
X100405476Y-79224933D02*
X100367381Y-79148742D01*
X100367381Y-79148742D02*
X100329286Y-79110647D01*
X100329286Y-79110647D02*
X100253095Y-79072552D01*
X110919762Y-72253504D02*
X110881666Y-72291600D01*
X110881666Y-72291600D02*
X110767381Y-72329695D01*
X110767381Y-72329695D02*
X110691190Y-72329695D01*
X110691190Y-72329695D02*
X110576904Y-72291600D01*
X110576904Y-72291600D02*
X110500714Y-72215409D01*
X110500714Y-72215409D02*
X110462619Y-72139219D01*
X110462619Y-72139219D02*
X110424523Y-71986838D01*
X110424523Y-71986838D02*
X110424523Y-71872552D01*
X110424523Y-71872552D02*
X110462619Y-71720171D01*
X110462619Y-71720171D02*
X110500714Y-71643980D01*
X110500714Y-71643980D02*
X110576904Y-71567790D01*
X110576904Y-71567790D02*
X110691190Y-71529695D01*
X110691190Y-71529695D02*
X110767381Y-71529695D01*
X110767381Y-71529695D02*
X110881666Y-71567790D01*
X110881666Y-71567790D02*
X110919762Y-71605885D01*
X111224523Y-71605885D02*
X111262619Y-71567790D01*
X111262619Y-71567790D02*
X111338809Y-71529695D01*
X111338809Y-71529695D02*
X111529285Y-71529695D01*
X111529285Y-71529695D02*
X111605476Y-71567790D01*
X111605476Y-71567790D02*
X111643571Y-71605885D01*
X111643571Y-71605885D02*
X111681666Y-71682076D01*
X111681666Y-71682076D02*
X111681666Y-71758266D01*
X111681666Y-71758266D02*
X111643571Y-71872552D01*
X111643571Y-71872552D02*
X111186428Y-72329695D01*
X111186428Y-72329695D02*
X111681666Y-72329695D01*
X112176905Y-71529695D02*
X112253095Y-71529695D01*
X112253095Y-71529695D02*
X112329286Y-71567790D01*
X112329286Y-71567790D02*
X112367381Y-71605885D01*
X112367381Y-71605885D02*
X112405476Y-71682076D01*
X112405476Y-71682076D02*
X112443571Y-71834457D01*
X112443571Y-71834457D02*
X112443571Y-72024933D01*
X112443571Y-72024933D02*
X112405476Y-72177314D01*
X112405476Y-72177314D02*
X112367381Y-72253504D01*
X112367381Y-72253504D02*
X112329286Y-72291600D01*
X112329286Y-72291600D02*
X112253095Y-72329695D01*
X112253095Y-72329695D02*
X112176905Y-72329695D01*
X112176905Y-72329695D02*
X112100714Y-72291600D01*
X112100714Y-72291600D02*
X112062619Y-72253504D01*
X112062619Y-72253504D02*
X112024524Y-72177314D01*
X112024524Y-72177314D02*
X111986428Y-72024933D01*
X111986428Y-72024933D02*
X111986428Y-71834457D01*
X111986428Y-71834457D02*
X112024524Y-71682076D01*
X112024524Y-71682076D02*
X112062619Y-71605885D01*
X112062619Y-71605885D02*
X112100714Y-71567790D01*
X112100714Y-71567790D02*
X112176905Y-71529695D01*
X113129286Y-71796361D02*
X113129286Y-72329695D01*
X112938810Y-71491600D02*
X112748333Y-72063028D01*
X112748333Y-72063028D02*
X113243572Y-72063028D01*
X111298504Y-69065237D02*
X111336600Y-69103333D01*
X111336600Y-69103333D02*
X111374695Y-69217618D01*
X111374695Y-69217618D02*
X111374695Y-69293809D01*
X111374695Y-69293809D02*
X111336600Y-69408095D01*
X111336600Y-69408095D02*
X111260409Y-69484285D01*
X111260409Y-69484285D02*
X111184219Y-69522380D01*
X111184219Y-69522380D02*
X111031838Y-69560476D01*
X111031838Y-69560476D02*
X110917552Y-69560476D01*
X110917552Y-69560476D02*
X110765171Y-69522380D01*
X110765171Y-69522380D02*
X110688980Y-69484285D01*
X110688980Y-69484285D02*
X110612790Y-69408095D01*
X110612790Y-69408095D02*
X110574695Y-69293809D01*
X110574695Y-69293809D02*
X110574695Y-69217618D01*
X110574695Y-69217618D02*
X110612790Y-69103333D01*
X110612790Y-69103333D02*
X110650885Y-69065237D01*
X110650885Y-68760476D02*
X110612790Y-68722380D01*
X110612790Y-68722380D02*
X110574695Y-68646190D01*
X110574695Y-68646190D02*
X110574695Y-68455714D01*
X110574695Y-68455714D02*
X110612790Y-68379523D01*
X110612790Y-68379523D02*
X110650885Y-68341428D01*
X110650885Y-68341428D02*
X110727076Y-68303333D01*
X110727076Y-68303333D02*
X110803266Y-68303333D01*
X110803266Y-68303333D02*
X110917552Y-68341428D01*
X110917552Y-68341428D02*
X111374695Y-68798571D01*
X111374695Y-68798571D02*
X111374695Y-68303333D01*
X110574695Y-67808094D02*
X110574695Y-67731904D01*
X110574695Y-67731904D02*
X110612790Y-67655713D01*
X110612790Y-67655713D02*
X110650885Y-67617618D01*
X110650885Y-67617618D02*
X110727076Y-67579523D01*
X110727076Y-67579523D02*
X110879457Y-67541428D01*
X110879457Y-67541428D02*
X111069933Y-67541428D01*
X111069933Y-67541428D02*
X111222314Y-67579523D01*
X111222314Y-67579523D02*
X111298504Y-67617618D01*
X111298504Y-67617618D02*
X111336600Y-67655713D01*
X111336600Y-67655713D02*
X111374695Y-67731904D01*
X111374695Y-67731904D02*
X111374695Y-67808094D01*
X111374695Y-67808094D02*
X111336600Y-67884285D01*
X111336600Y-67884285D02*
X111298504Y-67922380D01*
X111298504Y-67922380D02*
X111222314Y-67960475D01*
X111222314Y-67960475D02*
X111069933Y-67998571D01*
X111069933Y-67998571D02*
X110879457Y-67998571D01*
X110879457Y-67998571D02*
X110727076Y-67960475D01*
X110727076Y-67960475D02*
X110650885Y-67922380D01*
X110650885Y-67922380D02*
X110612790Y-67884285D01*
X110612790Y-67884285D02*
X110574695Y-67808094D01*
X110574695Y-67046189D02*
X110574695Y-66969999D01*
X110574695Y-66969999D02*
X110612790Y-66893808D01*
X110612790Y-66893808D02*
X110650885Y-66855713D01*
X110650885Y-66855713D02*
X110727076Y-66817618D01*
X110727076Y-66817618D02*
X110879457Y-66779523D01*
X110879457Y-66779523D02*
X111069933Y-66779523D01*
X111069933Y-66779523D02*
X111222314Y-66817618D01*
X111222314Y-66817618D02*
X111298504Y-66855713D01*
X111298504Y-66855713D02*
X111336600Y-66893808D01*
X111336600Y-66893808D02*
X111374695Y-66969999D01*
X111374695Y-66969999D02*
X111374695Y-67046189D01*
X111374695Y-67046189D02*
X111336600Y-67122380D01*
X111336600Y-67122380D02*
X111298504Y-67160475D01*
X111298504Y-67160475D02*
X111222314Y-67198570D01*
X111222314Y-67198570D02*
X111069933Y-67236666D01*
X111069933Y-67236666D02*
X110879457Y-67236666D01*
X110879457Y-67236666D02*
X110727076Y-67198570D01*
X110727076Y-67198570D02*
X110650885Y-67160475D01*
X110650885Y-67160475D02*
X110612790Y-67122380D01*
X110612790Y-67122380D02*
X110574695Y-67046189D01*
X120898504Y-78865237D02*
X120936600Y-78903333D01*
X120936600Y-78903333D02*
X120974695Y-79017618D01*
X120974695Y-79017618D02*
X120974695Y-79093809D01*
X120974695Y-79093809D02*
X120936600Y-79208095D01*
X120936600Y-79208095D02*
X120860409Y-79284285D01*
X120860409Y-79284285D02*
X120784219Y-79322380D01*
X120784219Y-79322380D02*
X120631838Y-79360476D01*
X120631838Y-79360476D02*
X120517552Y-79360476D01*
X120517552Y-79360476D02*
X120365171Y-79322380D01*
X120365171Y-79322380D02*
X120288980Y-79284285D01*
X120288980Y-79284285D02*
X120212790Y-79208095D01*
X120212790Y-79208095D02*
X120174695Y-79093809D01*
X120174695Y-79093809D02*
X120174695Y-79017618D01*
X120174695Y-79017618D02*
X120212790Y-78903333D01*
X120212790Y-78903333D02*
X120250885Y-78865237D01*
X120174695Y-78598571D02*
X120174695Y-78103333D01*
X120174695Y-78103333D02*
X120479457Y-78369999D01*
X120479457Y-78369999D02*
X120479457Y-78255714D01*
X120479457Y-78255714D02*
X120517552Y-78179523D01*
X120517552Y-78179523D02*
X120555647Y-78141428D01*
X120555647Y-78141428D02*
X120631838Y-78103333D01*
X120631838Y-78103333D02*
X120822314Y-78103333D01*
X120822314Y-78103333D02*
X120898504Y-78141428D01*
X120898504Y-78141428D02*
X120936600Y-78179523D01*
X120936600Y-78179523D02*
X120974695Y-78255714D01*
X120974695Y-78255714D02*
X120974695Y-78484285D01*
X120974695Y-78484285D02*
X120936600Y-78560476D01*
X120936600Y-78560476D02*
X120898504Y-78598571D01*
X120174695Y-77608094D02*
X120174695Y-77531904D01*
X120174695Y-77531904D02*
X120212790Y-77455713D01*
X120212790Y-77455713D02*
X120250885Y-77417618D01*
X120250885Y-77417618D02*
X120327076Y-77379523D01*
X120327076Y-77379523D02*
X120479457Y-77341428D01*
X120479457Y-77341428D02*
X120669933Y-77341428D01*
X120669933Y-77341428D02*
X120822314Y-77379523D01*
X120822314Y-77379523D02*
X120898504Y-77417618D01*
X120898504Y-77417618D02*
X120936600Y-77455713D01*
X120936600Y-77455713D02*
X120974695Y-77531904D01*
X120974695Y-77531904D02*
X120974695Y-77608094D01*
X120974695Y-77608094D02*
X120936600Y-77684285D01*
X120936600Y-77684285D02*
X120898504Y-77722380D01*
X120898504Y-77722380D02*
X120822314Y-77760475D01*
X120822314Y-77760475D02*
X120669933Y-77798571D01*
X120669933Y-77798571D02*
X120479457Y-77798571D01*
X120479457Y-77798571D02*
X120327076Y-77760475D01*
X120327076Y-77760475D02*
X120250885Y-77722380D01*
X120250885Y-77722380D02*
X120212790Y-77684285D01*
X120212790Y-77684285D02*
X120174695Y-77608094D01*
X120974695Y-76579523D02*
X120974695Y-77036666D01*
X120974695Y-76808094D02*
X120174695Y-76808094D01*
X120174695Y-76808094D02*
X120288980Y-76884285D01*
X120288980Y-76884285D02*
X120365171Y-76960475D01*
X120365171Y-76960475D02*
X120403266Y-77036666D01*
D11*
X91692500Y-59724724D02*
X91692500Y-59215276D01*
X92737500Y-59724724D02*
X92737500Y-59215276D01*
D12*
X107365000Y-75570000D02*
G75*
G03*
X107465000Y-75570000I50000J0D01*
G01*
X107465000Y-75570000D02*
G75*
G03*
X107365000Y-75570000I-50000J0D01*
G01*
D11*
X112237500Y-75615276D02*
X112237500Y-76124724D01*
X111192500Y-75615276D02*
X111192500Y-76124724D01*
X105045276Y-78847500D02*
X105554724Y-78847500D01*
X105045276Y-79892500D02*
X105554724Y-79892500D01*
D10*
X112365000Y-84170000D02*
X112365000Y-83170000D01*
X112515000Y-82820000D02*
X112515000Y-82520000D01*
X114515000Y-82820000D02*
X112515000Y-82820000D01*
X112515000Y-82520000D02*
X114515000Y-82520000D01*
X114515000Y-82520000D02*
X114515000Y-82820000D01*
D11*
X109645276Y-80247500D02*
X110154724Y-80247500D01*
X109645276Y-81292500D02*
X110154724Y-81292500D01*
D10*
X94225000Y-64090000D02*
X94225000Y-64090000D01*
X94225000Y-64290000D02*
X94225000Y-64290000D01*
X94225000Y-64290000D02*
G75*
G03*
X94225000Y-64090000I0J100000D01*
G01*
X94225000Y-64090000D02*
G75*
G03*
X94225000Y-64290000I0J-100000D01*
G01*
D11*
X109192500Y-64174724D02*
X109192500Y-63665276D01*
X110237500Y-64174724D02*
X110237500Y-63665276D01*
X98602500Y-68244724D02*
X98602500Y-67735276D01*
X99647500Y-68244724D02*
X99647500Y-67735276D01*
X114992500Y-63424724D02*
X114992500Y-62915276D01*
X116037500Y-63424724D02*
X116037500Y-62915276D01*
X104577500Y-77124724D02*
X104577500Y-76615276D01*
X105622500Y-77124724D02*
X105622500Y-76615276D01*
X103897500Y-71685276D02*
X103897500Y-72194724D01*
X102852500Y-71685276D02*
X102852500Y-72194724D01*
X118415000Y-69900000D02*
X118415000Y-71300000D01*
X117015000Y-69900000D02*
X118415000Y-69900000D01*
X118415000Y-71300000D02*
X117015000Y-71300000D01*
X117015000Y-71300000D02*
X117015000Y-69900000D01*
X105045276Y-80247500D02*
X105554724Y-80247500D01*
X105045276Y-81292500D02*
X105554724Y-81292500D01*
X115392500Y-76124724D02*
X115392500Y-75615276D01*
X116437500Y-76124724D02*
X116437500Y-75615276D01*
X115037500Y-75615276D02*
X115037500Y-76124724D01*
X113992500Y-75615276D02*
X113992500Y-76124724D01*
X113392500Y-62724724D02*
X113392500Y-62215276D01*
X114437500Y-62724724D02*
X114437500Y-62215276D01*
X95860276Y-61247500D02*
X96369724Y-61247500D01*
X95860276Y-62292500D02*
X96369724Y-62292500D01*
X105777500Y-72524724D02*
X105777500Y-72015276D01*
X106822500Y-72524724D02*
X106822500Y-72015276D01*
X109645276Y-78847500D02*
X110154724Y-78847500D01*
X109645276Y-79892500D02*
X110154724Y-79892500D01*
X110622500Y-76615276D02*
X110622500Y-77124724D01*
X109577500Y-76615276D02*
X109577500Y-77124724D01*
X95497500Y-71685276D02*
X95497500Y-72194724D01*
X94452500Y-71685276D02*
X94452500Y-72194724D01*
D12*
X117815000Y-61470000D02*
X117815000Y-61470000D01*
X117815000Y-61570000D02*
X117815000Y-61570000D01*
X117815000Y-61570000D02*
G75*
G03*
X117815000Y-61470000I0J50000D01*
G01*
X117815000Y-61470000D02*
G75*
G03*
X117815000Y-61570000I0J-50000D01*
G01*
D11*
X99369724Y-62292500D02*
X98860276Y-62292500D01*
X99369724Y-61247500D02*
X98860276Y-61247500D01*
X110892500Y-83224724D02*
X110892500Y-82715276D01*
X111937500Y-83224724D02*
X111937500Y-82715276D01*
D12*
X106800000Y-78120000D02*
G75*
G03*
X106800000Y-78020000I0J50000D01*
G01*
X106800000Y-78020000D02*
G75*
G03*
X106800000Y-78120000I0J-50000D01*
G01*
D11*
X105297500Y-71685276D02*
X105297500Y-72194724D01*
X104252500Y-71685276D02*
X104252500Y-72194724D01*
X100002500Y-64544724D02*
X100002500Y-64035276D01*
X101047500Y-64544724D02*
X101047500Y-64035276D01*
X113392500Y-65724724D02*
X113392500Y-65215276D01*
X114437500Y-65724724D02*
X114437500Y-65215276D01*
X103069724Y-62192500D02*
X102560276Y-62192500D01*
X103069724Y-61147500D02*
X102560276Y-61147500D01*
X108245276Y-71347500D02*
X108754724Y-71347500D01*
X108245276Y-72392500D02*
X108754724Y-72392500D01*
X92369724Y-67992500D02*
X91860276Y-67992500D01*
X92369724Y-66947500D02*
X91860276Y-66947500D01*
X100002500Y-68244724D02*
X100002500Y-67735276D01*
X101047500Y-68244724D02*
X101047500Y-67735276D01*
X93092500Y-59724724D02*
X93092500Y-59215276D01*
X94137500Y-59724724D02*
X94137500Y-59215276D01*
X105645276Y-74147500D02*
X106154724Y-74147500D01*
X105645276Y-75192500D02*
X106154724Y-75192500D01*
X99697500Y-71685276D02*
X99697500Y-72194724D01*
X98652500Y-71685276D02*
X98652500Y-72194724D01*
X96897500Y-71685276D02*
X96897500Y-72194724D01*
X95852500Y-71685276D02*
X95852500Y-72194724D01*
X97179724Y-69312500D02*
X96670276Y-69312500D01*
X97179724Y-68267500D02*
X96670276Y-68267500D01*
X103292500Y-83224724D02*
X103292500Y-82715276D01*
X104337500Y-83224724D02*
X104337500Y-82715276D01*
X116792500Y-76124724D02*
X116792500Y-75615276D01*
X117837500Y-76124724D02*
X117837500Y-75615276D01*
X101097500Y-71685276D02*
X101097500Y-72194724D01*
X100052500Y-71685276D02*
X100052500Y-72194724D01*
D12*
X107800000Y-77770000D02*
G75*
G03*
X107700000Y-77770000I-50000J0D01*
G01*
X107700000Y-77770000D02*
G75*
G03*
X107800000Y-77770000I50000J0D01*
G01*
D11*
X102700000Y-63970000D02*
X102700000Y-65370000D01*
X101300000Y-63970000D02*
X102700000Y-63970000D01*
X102700000Y-65370000D02*
X101300000Y-65370000D01*
X101300000Y-65370000D02*
X101300000Y-63970000D01*
X91860276Y-65547500D02*
X92369724Y-65547500D01*
X91860276Y-66592500D02*
X92369724Y-66592500D01*
X108700000Y-61570000D02*
X108700000Y-62970000D01*
X107300000Y-61570000D02*
X108700000Y-61570000D01*
X108700000Y-62970000D02*
X107300000Y-62970000D01*
X107300000Y-62970000D02*
X107300000Y-61570000D01*
X113215000Y-62470000D02*
X113215000Y-63870000D01*
X111815000Y-62470000D02*
X113215000Y-62470000D01*
X113215000Y-63870000D02*
X111815000Y-63870000D01*
X111815000Y-63870000D02*
X111815000Y-62470000D01*
X110260276Y-61147500D02*
X110769724Y-61147500D01*
X110260276Y-62192500D02*
X110769724Y-62192500D01*
X102497500Y-71685276D02*
X102497500Y-72194724D01*
X101452500Y-71685276D02*
X101452500Y-72194724D01*
X98602500Y-64544724D02*
X98602500Y-64035276D01*
X99647500Y-64544724D02*
X99647500Y-64035276D01*
X98297500Y-71685276D02*
X98297500Y-72194724D01*
X97252500Y-71685276D02*
X97252500Y-72194724D01*
D10*
X118765000Y-80420000D02*
X118765000Y-79370000D01*
D12*
X118265000Y-78070000D02*
X118265000Y-78070000D01*
X118265000Y-77970000D02*
X118265000Y-77970000D01*
D10*
X117915000Y-80420000D02*
X118765000Y-80420000D01*
X116715000Y-80420000D02*
X115865000Y-80420000D01*
X115865000Y-80420000D02*
X115865000Y-79370000D01*
D12*
X118265000Y-77970000D02*
G75*
G03*
X118265000Y-78070000I0J-50000D01*
G01*
X118265000Y-78070000D02*
G75*
G03*
X118265000Y-77970000I0J50000D01*
G01*
D11*
X108754724Y-73792500D02*
X108245276Y-73792500D01*
X108754724Y-72747500D02*
X108245276Y-72747500D01*
X90615000Y-66770000D02*
X90615000Y-68170000D01*
X89215000Y-66770000D02*
X90615000Y-66770000D01*
X90615000Y-68170000D02*
X89215000Y-68170000D01*
X89215000Y-68170000D02*
X89215000Y-66770000D01*
X113569724Y-80692500D02*
X113060276Y-80692500D01*
X113569724Y-79647500D02*
X113060276Y-79647500D01*
X109045276Y-74147500D02*
X109554724Y-74147500D01*
X109045276Y-75192500D02*
X109554724Y-75192500D01*
X108245276Y-69947500D02*
X108754724Y-69947500D01*
X108245276Y-70992500D02*
X108754724Y-70992500D01*
X113335000Y-69900000D02*
X113335000Y-71300000D01*
X111935000Y-69900000D02*
X113335000Y-69900000D01*
X113335000Y-71300000D02*
X111935000Y-71300000D01*
X111935000Y-71300000D02*
X111935000Y-69900000D01*
X115875000Y-69900000D02*
X115875000Y-71300000D01*
X114475000Y-69900000D02*
X115875000Y-69900000D01*
X115875000Y-71300000D02*
X114475000Y-71300000D01*
X114475000Y-71300000D02*
X114475000Y-69900000D01*
D12*
X92215000Y-61470000D02*
X92215000Y-61470000D01*
X92215000Y-61570000D02*
X92215000Y-61570000D01*
X92215000Y-61570000D02*
G75*
G03*
X92215000Y-61470000I0J50000D01*
G01*
X92215000Y-61470000D02*
G75*
G03*
X92215000Y-61570000I0J-50000D01*
G01*
D11*
X110592500Y-64174724D02*
X110592500Y-63665276D01*
X111637500Y-64174724D02*
X111637500Y-63665276D01*
X112592500Y-76124724D02*
X112592500Y-75615276D01*
X113637500Y-76124724D02*
X113637500Y-75615276D01*
X105010000Y-84600000D02*
X105010000Y-83270000D01*
X106340000Y-84600000D02*
X105010000Y-84600000D01*
X107610000Y-84600000D02*
X110210000Y-84600000D01*
X107610000Y-84600000D02*
X107610000Y-81940000D01*
X110210000Y-84600000D02*
X110210000Y-81940000D01*
X107610000Y-81940000D02*
X110210000Y-81940000D01*
D13*
X103125000Y-64040000D02*
G75*
G03*
X103125000Y-64040000I-125000J0D01*
G01*
%LPC*%
D14*
X92215000Y-60320000D03*
X92215000Y-58620000D03*
D15*
X107015000Y-75970000D03*
X107015000Y-76770000D03*
X106215000Y-76770000D03*
X106215000Y-75970000D03*
D16*
X111715000Y-75020000D03*
X111715000Y-76720000D03*
D17*
X104450000Y-79370000D03*
X106150000Y-79370000D03*
D18*
X112865000Y-83670000D03*
X114165000Y-83670000D03*
X113515000Y-81670000D03*
D17*
X109050000Y-80770000D03*
X110750000Y-80770000D03*
D19*
X95225000Y-64190000D03*
X96825000Y-64190000D03*
X95225000Y-66390000D03*
X96825000Y-66390000D03*
D14*
X109715000Y-64770000D03*
X109715000Y-63070000D03*
X99125000Y-68840000D03*
X99125000Y-67140000D03*
X115515000Y-64020000D03*
X115515000Y-62320000D03*
X105100000Y-77720000D03*
X105100000Y-76020000D03*
D16*
X103375000Y-71090000D03*
X103375000Y-72790000D03*
D20*
X117715000Y-70600000D03*
D17*
X104450000Y-80770000D03*
X106150000Y-80770000D03*
D14*
X115915000Y-76720000D03*
X115915000Y-75020000D03*
D16*
X114515000Y-75020000D03*
X114515000Y-76720000D03*
D14*
X113915000Y-63320000D03*
X113915000Y-61620000D03*
D17*
X95265000Y-61770000D03*
X96965000Y-61770000D03*
D14*
X106300000Y-73120000D03*
X106300000Y-71420000D03*
D17*
X109050000Y-79370000D03*
X110750000Y-79370000D03*
D16*
X110100000Y-76020000D03*
X110100000Y-77720000D03*
X94975000Y-71090000D03*
X94975000Y-72790000D03*
D21*
X117815000Y-62420000D03*
X117815000Y-63920000D03*
D22*
X99965000Y-61770000D03*
X98265000Y-61770000D03*
D14*
X111415000Y-83820000D03*
X111415000Y-82120000D03*
D23*
X117515000Y-109170000D03*
D15*
X107200000Y-78470000D03*
X108000000Y-78470000D03*
X108000000Y-79270000D03*
X107200000Y-79270000D03*
D16*
X104775000Y-71090000D03*
X104775000Y-72790000D03*
D14*
X100525000Y-65140000D03*
X100525000Y-63440000D03*
X113915000Y-66320000D03*
X113915000Y-64620000D03*
D22*
X103665000Y-61670000D03*
X101965000Y-61670000D03*
D17*
X107650000Y-71870000D03*
X109350000Y-71870000D03*
D22*
X92965000Y-67470000D03*
X91265000Y-67470000D03*
D14*
X100525000Y-68840000D03*
X100525000Y-67140000D03*
X93615000Y-60320000D03*
X93615000Y-58620000D03*
D17*
X105050000Y-74670000D03*
X106750000Y-74670000D03*
D16*
X99175000Y-71090000D03*
X99175000Y-72790000D03*
X96375000Y-71090000D03*
X96375000Y-72790000D03*
D22*
X97775000Y-68790000D03*
X96075000Y-68790000D03*
D14*
X103815000Y-83820000D03*
X103815000Y-82120000D03*
X117315000Y-76720000D03*
X117315000Y-75020000D03*
D16*
X100575000Y-71090000D03*
X100575000Y-72790000D03*
D15*
X108150000Y-77370000D03*
X108150000Y-76570000D03*
X108950000Y-76570000D03*
X108950000Y-77370000D03*
D20*
X102000000Y-64670000D03*
D17*
X91265000Y-66070000D03*
X92965000Y-66070000D03*
D20*
X108000000Y-62270000D03*
X112515000Y-63170000D03*
D17*
X109665000Y-61670000D03*
X111365000Y-61670000D03*
D16*
X101975000Y-71090000D03*
X101975000Y-72790000D03*
D14*
X99125000Y-65140000D03*
X99125000Y-63440000D03*
D16*
X97775000Y-71090000D03*
X97775000Y-72790000D03*
D24*
X118265000Y-78770000D03*
X116365000Y-78770000D03*
X117315000Y-80770000D03*
D25*
X122015000Y-73170000D03*
D22*
X109350000Y-73270000D03*
X107650000Y-73270000D03*
D20*
X89915000Y-67470000D03*
D22*
X114165000Y-80170000D03*
X112465000Y-80170000D03*
D17*
X108450000Y-74670000D03*
X110150000Y-74670000D03*
D25*
X88015000Y-73170000D03*
D17*
X107650000Y-70470000D03*
X109350000Y-70470000D03*
D23*
X92515000Y-109170000D03*
D20*
X112635000Y-70600000D03*
X115175000Y-70600000D03*
D21*
X92215000Y-62420000D03*
X92215000Y-63920000D03*
D14*
X111115000Y-64770000D03*
X111115000Y-63070000D03*
X113115000Y-76720000D03*
X113115000Y-75020000D03*
D26*
X106340000Y-83270000D03*
D27*
X108880000Y-83270000D03*
D28*
X103425000Y-64790000D03*
X103425000Y-65290000D03*
X103425000Y-65790000D03*
X103425000Y-66290000D03*
X103425000Y-66790000D03*
X103425000Y-67290000D03*
X103425000Y-67790000D03*
X103425000Y-68290000D03*
D29*
X104125000Y-68990000D03*
X104625000Y-68990000D03*
X105125000Y-68990000D03*
X105625000Y-68990000D03*
X106125000Y-68990000D03*
X106625000Y-68990000D03*
X107125000Y-68990000D03*
X107625000Y-68990000D03*
D28*
X108325000Y-68290000D03*
X108325000Y-67790000D03*
X108325000Y-67290000D03*
X108325000Y-66790000D03*
X108325000Y-66290000D03*
X108325000Y-65790000D03*
X108325000Y-65290000D03*
X108325000Y-64790000D03*
D29*
X107625000Y-64090000D03*
X107125000Y-64090000D03*
X106625000Y-64090000D03*
X106125000Y-64090000D03*
X105625000Y-64090000D03*
X105125000Y-64090000D03*
X104625000Y-64090000D03*
X104125000Y-64090000D03*
D30*
X105875000Y-66540000D03*
D26*
X96125000Y-59170000D03*
D27*
X98665000Y-59170000D03*
X101205000Y-59170000D03*
X103745000Y-59170000D03*
X106285000Y-59170000D03*
X108825000Y-59170000D03*
X111365000Y-59170000D03*
X113905000Y-59170000D03*
%LPD*%
M02*
