G04 #@! TF.GenerationSoftware,KiCad,Pcbnew,7.0.7*
G04 #@! TF.CreationDate,2024-01-15T15:13:53+00:00*
G04 #@! TF.ProjectId,cardboard,63617264-626f-4617-9264-2e6b69636164,rev?*
G04 #@! TF.SameCoordinates,Original*
G04 #@! TF.FileFunction,Copper,L1,Top*
G04 #@! TF.FilePolarity,Positive*
%FSLAX46Y46*%
G04 Gerber Fmt 4.6, Leading zero omitted, Abs format (unit mm)*
G04 Created by KiCad (PCBNEW 7.0.7) date 2024-01-15 15:13:53*
%MOMM*%
%LPD*%
G01*
G04 APERTURE LIST*
G04 Aperture macros list*
%AMRoundRect*
0 Rectangle with rounded corners*
0 $1 Rounding radius*
0 $2 $3 $4 $5 $6 $7 $8 $9 X,Y pos of 4 corners*
0 Add a 4 corners polygon primitive as box body*
4,1,4,$2,$3,$4,$5,$6,$7,$8,$9,$2,$3,0*
0 Add four circle primitives for the rounded corners*
1,1,$1+$1,$2,$3*
1,1,$1+$1,$4,$5*
1,1,$1+$1,$6,$7*
1,1,$1+$1,$8,$9*
0 Add four rect primitives between the rounded corners*
20,1,$1+$1,$2,$3,$4,$5,0*
20,1,$1+$1,$4,$5,$6,$7,0*
20,1,$1+$1,$6,$7,$8,$9,0*
20,1,$1+$1,$8,$9,$2,$3,0*%
G04 Aperture macros list end*
G04 #@! TA.AperFunction,SMDPad,CuDef*
%ADD10RoundRect,0.225000X0.225000X-0.225000X0.225000X0.225000X-0.225000X0.225000X-0.225000X-0.225000X0*%
G04 #@! TD*
G04 #@! TA.AperFunction,SMDPad,CuDef*
%ADD11R,0.600000X0.600000*%
G04 #@! TD*
G04 #@! TA.AperFunction,SMDPad,CuDef*
%ADD12RoundRect,0.225000X-0.225000X0.225000X-0.225000X-0.225000X0.225000X-0.225000X0.225000X0.225000X0*%
G04 #@! TD*
G04 #@! TA.AperFunction,SMDPad,CuDef*
%ADD13RoundRect,0.225000X-0.225000X-0.225000X0.225000X-0.225000X0.225000X0.225000X-0.225000X0.225000X0*%
G04 #@! TD*
G04 #@! TA.AperFunction,SMDPad,CuDef*
%ADD14R,0.500000X1.000000*%
G04 #@! TD*
G04 #@! TA.AperFunction,SMDPad,CuDef*
%ADD15R,1.200000X1.400000*%
G04 #@! TD*
G04 #@! TA.AperFunction,ComponentPad*
%ADD16R,1.000000X1.000000*%
G04 #@! TD*
G04 #@! TA.AperFunction,SMDPad,CuDef*
%ADD17R,0.800000X0.800000*%
G04 #@! TD*
G04 #@! TA.AperFunction,SMDPad,CuDef*
%ADD18RoundRect,0.225000X0.225000X0.225000X-0.225000X0.225000X-0.225000X-0.225000X0.225000X-0.225000X0*%
G04 #@! TD*
G04 #@! TA.AperFunction,SMDPad,CuDef*
%ADD19R,0.600000X0.700000*%
G04 #@! TD*
G04 #@! TA.AperFunction,ComponentPad*
%ADD20C,6.400000*%
G04 #@! TD*
G04 #@! TA.AperFunction,ComponentPad*
%ADD21R,1.700000X1.700000*%
G04 #@! TD*
G04 #@! TA.AperFunction,ComponentPad*
%ADD22O,1.700000X1.700000*%
G04 #@! TD*
G04 #@! TA.AperFunction,SMDPad,CuDef*
%ADD23R,0.850000X0.300000*%
G04 #@! TD*
G04 #@! TA.AperFunction,SMDPad,CuDef*
%ADD24R,0.300000X0.850000*%
G04 #@! TD*
G04 #@! TA.AperFunction,SMDPad,CuDef*
%ADD25R,3.600000X3.600000*%
G04 #@! TD*
G04 #@! TA.AperFunction,ViaPad*
%ADD26C,0.800000*%
G04 #@! TD*
G04 #@! TA.AperFunction,Conductor*
%ADD27C,0.250000*%
G04 #@! TD*
G04 #@! TA.AperFunction,Conductor*
%ADD28C,0.200000*%
G04 #@! TD*
G04 #@! TA.AperFunction,Conductor*
%ADD29C,0.500000*%
G04 #@! TD*
G04 #@! TA.AperFunction,Conductor*
%ADD30C,0.400000*%
G04 #@! TD*
G04 #@! TA.AperFunction,Conductor*
%ADD31C,0.300000*%
G04 #@! TD*
G04 APERTURE END LIST*
G36*
X113815000Y-65895000D02*
G01*
X114015000Y-65895000D01*
X114015000Y-65045000D01*
X113815000Y-65045000D01*
X113815000Y-65895000D01*
G37*
G36*
X92540000Y-67570000D02*
G01*
X91690000Y-67570000D01*
X91690000Y-67370000D01*
X92540000Y-67370000D01*
X92540000Y-67570000D01*
G37*
D10*
X92215000Y-60320000D03*
X92215000Y-58620000D03*
D11*
X107015000Y-75970000D03*
X107015000Y-76770000D03*
X106215000Y-76770000D03*
X106215000Y-75970000D03*
D12*
X111715000Y-75020000D03*
X111715000Y-76720000D03*
D13*
X104450000Y-79370000D03*
X106150000Y-79370000D03*
D14*
X112865000Y-83670000D03*
X114165000Y-83670000D03*
X113515000Y-81670000D03*
D13*
X109050000Y-80770000D03*
X110750000Y-80770000D03*
D15*
X95225000Y-64190000D03*
X96825000Y-64190000D03*
X95225000Y-66390000D03*
X96825000Y-66390000D03*
D10*
X109715000Y-64770000D03*
X109715000Y-63070000D03*
X99125000Y-68840000D03*
X99125000Y-67140000D03*
X115515000Y-64020000D03*
X115515000Y-62320000D03*
X105100000Y-77720000D03*
X105100000Y-76020000D03*
D12*
X103375000Y-71090000D03*
X103375000Y-72790000D03*
D16*
X117715000Y-70600000D03*
D13*
X104450000Y-80770000D03*
X106150000Y-80770000D03*
D10*
X115915000Y-76720000D03*
X115915000Y-75020000D03*
D12*
X114515000Y-75020000D03*
X114515000Y-76720000D03*
D10*
X113915000Y-63320000D03*
X113915000Y-61620000D03*
D13*
X95265000Y-61770000D03*
X96965000Y-61770000D03*
D10*
X106300000Y-73120000D03*
X106300000Y-71420000D03*
D13*
X109050000Y-79370000D03*
X110750000Y-79370000D03*
D12*
X110100000Y-76020000D03*
X110100000Y-77720000D03*
X94975000Y-71090000D03*
X94975000Y-72790000D03*
D17*
X117815000Y-62420000D03*
X117815000Y-63920000D03*
D18*
X99965000Y-61770000D03*
X98265000Y-61770000D03*
D10*
X111415000Y-83820000D03*
X111415000Y-82120000D03*
D11*
X107200000Y-78470000D03*
X108000000Y-78470000D03*
X108000000Y-79270000D03*
X107200000Y-79270000D03*
D12*
X104775000Y-71090000D03*
X104775000Y-72790000D03*
D10*
X100525000Y-65140000D03*
X100525000Y-63440000D03*
X113915000Y-66320000D03*
X113915000Y-64620000D03*
D18*
X103665000Y-61670000D03*
X101965000Y-61670000D03*
D13*
X107650000Y-71870000D03*
X109350000Y-71870000D03*
D18*
X92965000Y-67470000D03*
X91265000Y-67470000D03*
D10*
X100525000Y-68840000D03*
X100525000Y-67140000D03*
X93615000Y-60320000D03*
X93615000Y-58620000D03*
D13*
X105050000Y-74670000D03*
X106750000Y-74670000D03*
D12*
X99175000Y-71090000D03*
X99175000Y-72790000D03*
X96375000Y-71090000D03*
X96375000Y-72790000D03*
D18*
X97775000Y-68790000D03*
X96075000Y-68790000D03*
D10*
X103815000Y-83820000D03*
X103815000Y-82120000D03*
X117315000Y-76720000D03*
X117315000Y-75020000D03*
D12*
X100575000Y-71090000D03*
X100575000Y-72790000D03*
D11*
X108150000Y-77370000D03*
X108150000Y-76570000D03*
X108950000Y-76570000D03*
X108950000Y-77370000D03*
D16*
X102000000Y-64670000D03*
D13*
X91265000Y-66070000D03*
X92965000Y-66070000D03*
D16*
X108000000Y-62270000D03*
X112515000Y-63170000D03*
D13*
X109665000Y-61670000D03*
X111365000Y-61670000D03*
D12*
X101975000Y-71090000D03*
X101975000Y-72790000D03*
D10*
X99125000Y-65140000D03*
X99125000Y-63440000D03*
D12*
X97775000Y-71090000D03*
X97775000Y-72790000D03*
D19*
X118265000Y-78770000D03*
X116365000Y-78770000D03*
X117315000Y-80770000D03*
D20*
X122015000Y-73170000D03*
D18*
X109350000Y-73270000D03*
X107650000Y-73270000D03*
D16*
X89915000Y-67470000D03*
D18*
X114165000Y-80170000D03*
X112465000Y-80170000D03*
D13*
X108450000Y-74670000D03*
X110150000Y-74670000D03*
D20*
X88015000Y-73170000D03*
D13*
X107650000Y-70470000D03*
X109350000Y-70470000D03*
D16*
X112635000Y-70600000D03*
X115175000Y-70600000D03*
D17*
X92215000Y-62420000D03*
X92215000Y-63920000D03*
D10*
X111115000Y-64770000D03*
X111115000Y-63070000D03*
X113115000Y-76720000D03*
X113115000Y-75020000D03*
D21*
X106340000Y-83270000D03*
D22*
X108880000Y-83270000D03*
D23*
X103425000Y-64790000D03*
X103425000Y-65290000D03*
X103425000Y-65790000D03*
X103425000Y-66290000D03*
X103425000Y-66790000D03*
X103425000Y-67290000D03*
X103425000Y-67790000D03*
X103425000Y-68290000D03*
D24*
X104125000Y-68990000D03*
X104625000Y-68990000D03*
X105125000Y-68990000D03*
X105625000Y-68990000D03*
X106125000Y-68990000D03*
X106625000Y-68990000D03*
X107125000Y-68990000D03*
X107625000Y-68990000D03*
D23*
X108325000Y-68290000D03*
X108325000Y-67790000D03*
X108325000Y-67290000D03*
X108325000Y-66790000D03*
X108325000Y-66290000D03*
X108325000Y-65790000D03*
X108325000Y-65290000D03*
X108325000Y-64790000D03*
D24*
X107625000Y-64090000D03*
X107125000Y-64090000D03*
X106625000Y-64090000D03*
X106125000Y-64090000D03*
X105625000Y-64090000D03*
X105125000Y-64090000D03*
X104625000Y-64090000D03*
X104125000Y-64090000D03*
D25*
X105875000Y-66540000D03*
D21*
X96125000Y-59170000D03*
D22*
X98665000Y-59170000D03*
X101205000Y-59170000D03*
X103745000Y-59170000D03*
X106285000Y-59170000D03*
X108825000Y-59170000D03*
X111365000Y-59170000D03*
X113905000Y-59170000D03*
D26*
X113122343Y-77725789D03*
X106115000Y-77770000D03*
X107145000Y-67810000D03*
X107145000Y-65270000D03*
X92015000Y-83170000D03*
X105875000Y-67810000D03*
X124015000Y-83170000D03*
X115015000Y-78470000D03*
X108319999Y-63389999D03*
X92370143Y-72683450D03*
X117015000Y-67170000D03*
X124015000Y-59170000D03*
X102015000Y-83170000D03*
X104605000Y-67810000D03*
X91015000Y-59170000D03*
X124015000Y-78170000D03*
X117015000Y-59170000D03*
X98025000Y-64290000D03*
X103015000Y-78170000D03*
X86015000Y-78170000D03*
X121415000Y-62870000D03*
X107600000Y-80170000D03*
X105423190Y-70196204D03*
X98015000Y-78170000D03*
X92015000Y-78170000D03*
X115600000Y-83170000D03*
X102300000Y-69270000D03*
X94515000Y-62870000D03*
X103015000Y-74170000D03*
X101300000Y-72070000D03*
X109749370Y-66620000D03*
X120015000Y-79170000D03*
X105875000Y-65270000D03*
X107814392Y-75621454D03*
X107145000Y-66540000D03*
X111400000Y-67970000D03*
X105875000Y-66540000D03*
X112915000Y-65570000D03*
X86015000Y-83170000D03*
X111149500Y-77570000D03*
X92115000Y-68270000D03*
X104050000Y-72020000D03*
X98015000Y-83170000D03*
X107215000Y-77669996D03*
X94115000Y-67570000D03*
X104605000Y-66540000D03*
X98015000Y-74170000D03*
X116015000Y-73170000D03*
X124015000Y-67170000D03*
X98025000Y-67690000D03*
X86015000Y-67170000D03*
X107815000Y-60370000D03*
X86015000Y-59170000D03*
X108415000Y-69039502D03*
X104605000Y-65270000D03*
X103500000Y-69070000D03*
X106773190Y-70305664D03*
X112415004Y-61670000D03*
X102315000Y-62770000D03*
X109019994Y-75643728D03*
X111621626Y-74016338D03*
X109050500Y-78269502D03*
X111600000Y-72870000D03*
X111408733Y-66625768D03*
X112464750Y-64619750D03*
X103399994Y-62920000D03*
X106831860Y-62854438D03*
X106515000Y-87170000D03*
D27*
X105100000Y-77720000D02*
X105100000Y-79370000D01*
X104450000Y-80770000D02*
X105100000Y-80770000D01*
X105100000Y-77720000D02*
X106065000Y-77720000D01*
X113122343Y-77725789D02*
X113122343Y-76727343D01*
X106065000Y-77720000D02*
X106115000Y-77770000D01*
X105115000Y-81670000D02*
X105100000Y-81655000D01*
X106215000Y-77670000D02*
X106115000Y-77770000D01*
X106215000Y-76595000D02*
X106215000Y-77670000D01*
X104450000Y-79370000D02*
X105100000Y-79370000D01*
X105100000Y-81655000D02*
X105100000Y-80770000D01*
X104665000Y-82120000D02*
X105115000Y-81670000D01*
X105100000Y-79370000D02*
X105100000Y-80770000D01*
X103815000Y-82120000D02*
X104665000Y-82120000D01*
D28*
X105725000Y-75487500D02*
X105725000Y-75395000D01*
D27*
X105900000Y-73520000D02*
X106300000Y-73120000D01*
X105725000Y-75395000D02*
X105100000Y-76020000D01*
D28*
X106207500Y-75970000D02*
X105725000Y-75487500D01*
D27*
X105900000Y-74670000D02*
X105900000Y-73520000D01*
X105900000Y-74670000D02*
X105900000Y-75220000D01*
X105050000Y-74670000D02*
X105900000Y-74670000D01*
X105900000Y-75220000D02*
X105725000Y-75395000D01*
D29*
X91315000Y-69195000D02*
X91265000Y-69145000D01*
X93815000Y-69740000D02*
X101029594Y-69740000D01*
D27*
X101975000Y-71090000D02*
X100575000Y-71090000D01*
D28*
X94975000Y-71090000D02*
X94975000Y-71900000D01*
D29*
X101425000Y-68745000D02*
X101800000Y-68370000D01*
X91860000Y-69740000D02*
X91315000Y-69195000D01*
D27*
X102595000Y-68290000D02*
X102515000Y-68370000D01*
D30*
X94115000Y-69740000D02*
X93815000Y-69740000D01*
D28*
X94975000Y-71900000D02*
X95015000Y-71940000D01*
D27*
X103784113Y-70315000D02*
X102922183Y-70315000D01*
D30*
X96415000Y-71940000D02*
X95015000Y-71940000D01*
D29*
X101029594Y-69740000D02*
X101425000Y-69344594D01*
D30*
X95015000Y-71940000D02*
X94385000Y-71940000D01*
D27*
X103425000Y-68290000D02*
X102595000Y-68290000D01*
D28*
X96375000Y-71900000D02*
X96415000Y-71940000D01*
D29*
X90640000Y-69195000D02*
X89915000Y-68470000D01*
X101425000Y-69344594D02*
X101425000Y-68745000D01*
X91315000Y-69195000D02*
X90640000Y-69195000D01*
D27*
X104625000Y-68990000D02*
X104625000Y-69474113D01*
D30*
X94115000Y-71670000D02*
X94115000Y-69740000D01*
D29*
X91265000Y-69145000D02*
X91265000Y-67470000D01*
D27*
X102922183Y-70315000D02*
X102147183Y-71090000D01*
D28*
X96375000Y-71090000D02*
X96375000Y-71900000D01*
D29*
X93815000Y-69740000D02*
X91860000Y-69740000D01*
D27*
X104625000Y-69474113D02*
X103784113Y-70315000D01*
D29*
X101800000Y-68370000D02*
X102515000Y-68370000D01*
D30*
X94385000Y-71940000D02*
X94115000Y-71670000D01*
X99725000Y-71940000D02*
X96415000Y-71940000D01*
D29*
X89915000Y-68470000D02*
X89915000Y-67470000D01*
D30*
X100575000Y-71090000D02*
X99725000Y-71940000D01*
D27*
X107215000Y-77579183D02*
X107215000Y-77669996D01*
D28*
X108325000Y-66290000D02*
X108950000Y-66290000D01*
D27*
X107424183Y-77370000D02*
X107215000Y-77579183D01*
X101300000Y-72070000D02*
X101295000Y-72070000D01*
D28*
X109569370Y-66440000D02*
X109749370Y-66620000D01*
X109100000Y-66440000D02*
X109569370Y-66440000D01*
D27*
X105500000Y-70273014D02*
X105423190Y-70196204D01*
D28*
X108950000Y-66290000D02*
X109100000Y-66440000D01*
D27*
X108415000Y-69039502D02*
X108669502Y-69039502D01*
X107814392Y-75621454D02*
X107725498Y-75710348D01*
X105625000Y-68990000D02*
X105625000Y-69994394D01*
X105625000Y-69994394D02*
X105423190Y-70196204D01*
X101350000Y-72020000D02*
X101300000Y-72070000D01*
X107725498Y-75710348D02*
X107725498Y-75795000D01*
D28*
X109715000Y-64770000D02*
X111115000Y-64770000D01*
X108325000Y-64790000D02*
X109695000Y-64790000D01*
D27*
X104775000Y-71090000D02*
X104775000Y-70502609D01*
X104775000Y-70502609D02*
X104748190Y-70475799D01*
X105125000Y-69539799D02*
X105125000Y-68990000D01*
X104748190Y-69916609D02*
X105125000Y-69539799D01*
X104748190Y-70475799D02*
X104748190Y-69916609D01*
X103375000Y-71090000D02*
X104775000Y-71090000D01*
X102830787Y-69770000D02*
X103500000Y-69770000D01*
X99175000Y-70315000D02*
X98400000Y-70315000D01*
X106625000Y-70157474D02*
X106773190Y-70305664D01*
X103500000Y-69070000D02*
X103500000Y-69770000D01*
X104125000Y-69265000D02*
X103620000Y-69770000D01*
X107485664Y-70305664D02*
X106773190Y-70305664D01*
X103620000Y-69770000D02*
X103500000Y-69770000D01*
X106625000Y-68990000D02*
X106625000Y-70157474D01*
X99175000Y-70315000D02*
X102285787Y-70315000D01*
X99175000Y-71090000D02*
X99175000Y-70315000D01*
X102285787Y-70315000D02*
X102830787Y-69770000D01*
X98400000Y-70315000D02*
X97775000Y-70940000D01*
X107650000Y-70470000D02*
X107650000Y-71870000D01*
D28*
X93615000Y-60320000D02*
X93615000Y-60970000D01*
X92965000Y-66070000D02*
X93715000Y-66070000D01*
D27*
X103425000Y-64790000D02*
X103120000Y-64790000D01*
D30*
X102315000Y-62770000D02*
X101215000Y-62770000D01*
X93715000Y-61070000D02*
X93715000Y-66070000D01*
X100815000Y-61341752D02*
X100043248Y-60570000D01*
X93715000Y-66720000D02*
X92965000Y-67470000D01*
X102900000Y-63855000D02*
X102315000Y-63270000D01*
D28*
X92215000Y-60320000D02*
X92215000Y-61070000D01*
X99965000Y-61770000D02*
X101965000Y-61770000D01*
D30*
X100043248Y-60570000D02*
X94715000Y-60570000D01*
X93715000Y-66070000D02*
X93715000Y-66720000D01*
X100815000Y-62370000D02*
X100815000Y-61341752D01*
D28*
X112465004Y-61620000D02*
X112415004Y-61670000D01*
D30*
X102315000Y-63270000D02*
X102315000Y-62770000D01*
D27*
X103120000Y-64790000D02*
X102900000Y-64570000D01*
D30*
X94215000Y-61070000D02*
X92315000Y-61070000D01*
X102900000Y-64570000D02*
X102900000Y-63855000D01*
D28*
X111365000Y-61670000D02*
X112415004Y-61670000D01*
D30*
X94715000Y-60570000D02*
X94215000Y-61070000D01*
D28*
X113915000Y-61620000D02*
X112465004Y-61620000D01*
D30*
X101215000Y-62770000D02*
X100815000Y-62370000D01*
D28*
X100850000Y-65465000D02*
X100700000Y-65315000D01*
X103425000Y-65790000D02*
X101675609Y-65790000D01*
D27*
X99125000Y-65140000D02*
X100525000Y-65140000D01*
D28*
X101350609Y-65465000D02*
X100850000Y-65465000D01*
X101675609Y-65790000D02*
X101350609Y-65465000D01*
X101366827Y-67990000D02*
X100725000Y-67990000D01*
X101561827Y-67795000D02*
X101366827Y-67990000D01*
X99925000Y-67990000D02*
X99225000Y-68690000D01*
X100725000Y-67990000D02*
X99925000Y-67990000D01*
X103420000Y-67795000D02*
X101561827Y-67795000D01*
X100725000Y-68840000D02*
X100725000Y-67990000D01*
X95225000Y-61795000D02*
X95225000Y-64190000D01*
X98300000Y-65915000D02*
X97600000Y-65215000D01*
X95225000Y-65140000D02*
X95225000Y-64190000D01*
X101539213Y-66290000D02*
X101164213Y-65915000D01*
X103425000Y-66290000D02*
X101539213Y-66290000D01*
X95300000Y-65215000D02*
X95225000Y-65140000D01*
X101164213Y-65915000D02*
X98300000Y-65915000D01*
X97600000Y-65215000D02*
X95300000Y-65215000D01*
X96825000Y-67940000D02*
X96825000Y-66390000D01*
X97775000Y-68890000D02*
X96825000Y-67940000D01*
X101402817Y-66790000D02*
X103425000Y-66790000D01*
X96850000Y-66365000D02*
X100977817Y-66365000D01*
X100977817Y-66365000D02*
X101402817Y-66790000D01*
X111715000Y-75020000D02*
X112415000Y-75020000D01*
X113615000Y-71870000D02*
X113615000Y-70600000D01*
X112415000Y-75020000D02*
X113115000Y-75020000D01*
X109098275Y-65770000D02*
X108345000Y-65770000D01*
X112415000Y-74570000D02*
X113615000Y-73370000D01*
X113615000Y-73370000D02*
X113615000Y-71870000D01*
X113615000Y-67913503D02*
X111521497Y-65820000D01*
X112415000Y-75020000D02*
X112415000Y-74570000D01*
X111521497Y-65820000D02*
X109148275Y-65820000D01*
X109148275Y-65820000D02*
X109098275Y-65770000D01*
X113615000Y-70600000D02*
X112635000Y-70600000D01*
X113615000Y-71870000D02*
X113615000Y-67913503D01*
X109019994Y-75643728D02*
X108816717Y-75643728D01*
X108816717Y-75643728D02*
X108150000Y-76310445D01*
X108325000Y-67790000D02*
X108780600Y-67790000D01*
X108780600Y-67790000D02*
X110650000Y-69659400D01*
X108150000Y-76310445D02*
X108150000Y-76570000D01*
X110650000Y-73044712D02*
X111621626Y-74016338D01*
X110650000Y-69659400D02*
X110650000Y-73044712D01*
X107015000Y-76595000D02*
X108125000Y-76595000D01*
D27*
X108850002Y-78470000D02*
X109050500Y-78269502D01*
D28*
X111015000Y-72285000D02*
X111600000Y-72870000D01*
X111015000Y-69484213D02*
X111015000Y-72285000D01*
X109005405Y-67519831D02*
X109050618Y-67519831D01*
X109050618Y-67519831D02*
X111015000Y-69484213D01*
X108775574Y-67290000D02*
X109005405Y-67519831D01*
X108325000Y-67290000D02*
X108775574Y-67290000D01*
D27*
X108000000Y-78470000D02*
X108850002Y-78470000D01*
D28*
X114015000Y-71870000D02*
X114015000Y-73370000D01*
X114015000Y-73370000D02*
X115215000Y-74570000D01*
X114015000Y-71870000D02*
X114015000Y-70600000D01*
X114515000Y-75020000D02*
X115215000Y-75020000D01*
X109113249Y-65290000D02*
X109293249Y-65470000D01*
X115215000Y-74570000D02*
X115215000Y-75020000D01*
X111666471Y-65470000D02*
X114015000Y-67818529D01*
X115215000Y-75020000D02*
X115915000Y-75020000D01*
X114015000Y-67818529D02*
X114015000Y-71870000D01*
X114015000Y-70600000D02*
X115175000Y-70600000D01*
X109293249Y-65470000D02*
X111666471Y-65470000D01*
X108325000Y-65290000D02*
X109113249Y-65290000D01*
D27*
X113515000Y-81220000D02*
X113515000Y-81670000D01*
X112465000Y-80170000D02*
X113515000Y-81220000D01*
X106098190Y-69016810D02*
X106098190Y-71218190D01*
X107125000Y-69665000D02*
X107205000Y-69745000D01*
X108500000Y-72420000D02*
X107650000Y-73270000D01*
X107205000Y-69745000D02*
X108275000Y-69745000D01*
X108500000Y-69970000D02*
X108500000Y-72420000D01*
X107125000Y-68990000D02*
X107125000Y-69665000D01*
X108275000Y-69745000D02*
X108500000Y-69970000D01*
D28*
X112515000Y-63170000D02*
X111615000Y-64070000D01*
X111615000Y-64070000D02*
X107645000Y-64070000D01*
D27*
X102620000Y-65290000D02*
X102000000Y-64670000D01*
X103425000Y-65290000D02*
X102620000Y-65290000D01*
D28*
X106561702Y-62170000D02*
X107900000Y-62170000D01*
X106125000Y-64090000D02*
X106125000Y-62606702D01*
X106125000Y-62606702D02*
X106561702Y-62170000D01*
X109665000Y-61020000D02*
X109715000Y-60970000D01*
X106480330Y-61120000D02*
X109565000Y-61120000D01*
X109565000Y-61120000D02*
X109715000Y-60970000D01*
X110384239Y-61020000D02*
X111365000Y-60039239D01*
X111365000Y-60039239D02*
X111365000Y-59420000D01*
X105125000Y-64090000D02*
X105125000Y-62475330D01*
X109715000Y-60970000D02*
X109765000Y-61020000D01*
X109665000Y-61670000D02*
X109665000Y-61020000D01*
X105125000Y-62475330D02*
X106480330Y-61120000D01*
X109765000Y-61020000D02*
X110384239Y-61020000D01*
X104210013Y-62365013D02*
X104125000Y-62450026D01*
X106285000Y-59170000D02*
X106285000Y-60290026D01*
X104125000Y-62450026D02*
X104125000Y-64090000D01*
X103715000Y-61770000D02*
X104210013Y-62265013D01*
X104210013Y-62265013D02*
X104210013Y-62365013D01*
X106285000Y-60290026D02*
X104210013Y-62365013D01*
X111337183Y-75870000D02*
X117315000Y-75870000D01*
X118215000Y-75370000D02*
X118215000Y-78720000D01*
X110925000Y-75457817D02*
X111337183Y-75870000D01*
X110200000Y-73492183D02*
X110925000Y-74217183D01*
X117315000Y-75870000D02*
X118215000Y-75870000D01*
X108325000Y-68290000D02*
X108747208Y-68290000D01*
X108747208Y-68290000D02*
X110200000Y-69742792D01*
X110925000Y-74217183D02*
X110925000Y-75457817D01*
X118215000Y-75870000D02*
X118215000Y-75370000D01*
X117715000Y-74170000D02*
X118215000Y-74670000D01*
X117315000Y-75020000D02*
X117315000Y-75870000D01*
X118215000Y-74670000D02*
X118215000Y-75370000D01*
X117715000Y-70600000D02*
X117715000Y-74170000D01*
X110200000Y-69742792D02*
X110200000Y-73492183D01*
X92215000Y-63920000D02*
X92215000Y-65120000D01*
X92215000Y-65120000D02*
X91265000Y-66070000D01*
X115615000Y-63920000D02*
X117815000Y-63920000D01*
D27*
X114765000Y-80770000D02*
X117315000Y-80770000D01*
X114165000Y-80170000D02*
X114765000Y-80770000D01*
D28*
X115065000Y-61870000D02*
X115065000Y-58774365D01*
X114360635Y-58070000D02*
X104845000Y-58070000D01*
X115065000Y-58774365D02*
X114360635Y-58070000D01*
X115515000Y-62320000D02*
X115065000Y-61870000D01*
X104845000Y-58070000D02*
X103745000Y-59170000D01*
X110764501Y-67270000D02*
X109480131Y-67270000D01*
X109000131Y-66790000D02*
X108325000Y-66790000D01*
X113915000Y-63970000D02*
X113114500Y-63970000D01*
X113114500Y-63970000D02*
X112464750Y-64619750D01*
X113915000Y-63320000D02*
X113915000Y-64620000D01*
X111408733Y-66625768D02*
X110764501Y-67270000D01*
X109480131Y-67270000D02*
X109000131Y-66790000D01*
X106625000Y-63061298D02*
X106831860Y-62854438D01*
D27*
X99315000Y-59170000D02*
X101015000Y-60870000D01*
X102890000Y-61437893D02*
X102890000Y-62410006D01*
X102890000Y-62410006D02*
X103399994Y-62920000D01*
X101015000Y-60870000D02*
X102322107Y-60870000D01*
D28*
X106625000Y-64090000D02*
X106625000Y-63061298D01*
D27*
X102322107Y-60870000D02*
X102890000Y-61437893D01*
D28*
X106671016Y-61495000D02*
X108625787Y-61495000D01*
X110665000Y-61234214D02*
X111527133Y-60372081D01*
X110115000Y-62370000D02*
X110665000Y-61820000D01*
X108965000Y-62170000D02*
X109165000Y-62370000D01*
X105625000Y-62541016D02*
X106671016Y-61495000D01*
X105625000Y-64090000D02*
X105625000Y-62541016D01*
X109165000Y-62370000D02*
X110115000Y-62370000D01*
X108965000Y-61834213D02*
X108965000Y-62170000D01*
X108625787Y-61495000D02*
X108965000Y-61834213D01*
X111527133Y-60372081D02*
X112702919Y-60372081D01*
X112702919Y-60372081D02*
X113905000Y-59170000D01*
X110665000Y-61820000D02*
X110665000Y-61234214D01*
X108425000Y-59570000D02*
X107500000Y-59570000D01*
X108825000Y-59170000D02*
X108425000Y-59570000D01*
X107500000Y-59570000D02*
X104625000Y-62445000D01*
X104625000Y-62445000D02*
X104625000Y-64090000D01*
D27*
X114515000Y-77358437D02*
X114515000Y-76720000D01*
X110100000Y-79370000D02*
X110100000Y-78470000D01*
X110100000Y-78470000D02*
X113403437Y-78470000D01*
X110750000Y-79370000D02*
X110100000Y-79370000D01*
X110100000Y-78470000D02*
X110100000Y-77720000D01*
X110750000Y-80770000D02*
X110100000Y-80770000D01*
X110100000Y-80770000D02*
X110100000Y-79370000D01*
X110465000Y-82120000D02*
X110100000Y-81755000D01*
X109750000Y-77370000D02*
X110100000Y-77720000D01*
X110100000Y-81755000D02*
X110100000Y-80770000D01*
X108950000Y-77370000D02*
X109750000Y-77370000D01*
X113403437Y-78470000D02*
X114515000Y-77358437D01*
X111415000Y-82120000D02*
X110465000Y-82120000D01*
X108000000Y-79270000D02*
X108950000Y-79270000D01*
X107200000Y-79270000D02*
X106250000Y-79270000D01*
X109626396Y-82095000D02*
X107515000Y-82095000D01*
D31*
X85515000Y-86170000D02*
X86015000Y-85670000D01*
X109015000Y-85670000D02*
X124015000Y-85670000D01*
X123515000Y-124170000D02*
X86515000Y-124170000D01*
X85515000Y-124170000D02*
X85515000Y-86170000D01*
X124515000Y-85170000D02*
X125015000Y-85670000D01*
X124015000Y-123670000D02*
X123515000Y-124170000D01*
X87015000Y-123670000D02*
X86515000Y-123170000D01*
X85515000Y-125170000D02*
X85015000Y-124670000D01*
D27*
X104365000Y-83270000D02*
X106340000Y-83270000D01*
D31*
X108515000Y-86170000D02*
X123515000Y-86170000D01*
X108880000Y-83270000D02*
X108880000Y-84535000D01*
X106015000Y-86670000D02*
X106515000Y-87170000D01*
X108515000Y-85170000D02*
X109015000Y-85670000D01*
D27*
X110401396Y-82870000D02*
X109626396Y-82095000D01*
D31*
X108880000Y-84535000D02*
X109515000Y-85170000D01*
X124015000Y-85670000D02*
X124515000Y-86170000D01*
X108015000Y-85670000D02*
X108515000Y-86170000D01*
X85015000Y-124670000D02*
X85015000Y-85670000D01*
X86015000Y-123670000D02*
X86015000Y-86670000D01*
X123515000Y-87170000D02*
X123515000Y-123170000D01*
X85515000Y-85170000D02*
X108515000Y-85170000D01*
X87015000Y-86670000D02*
X106015000Y-86670000D01*
D27*
X111415000Y-83820000D02*
X112715000Y-83820000D01*
D31*
X86515000Y-124170000D02*
X86015000Y-123670000D01*
X124015000Y-86670000D02*
X124015000Y-123670000D01*
X86515000Y-87170000D02*
X87015000Y-86670000D01*
D27*
X110165000Y-83820000D02*
X109615000Y-83270000D01*
D31*
X108015000Y-86670000D02*
X123015000Y-86670000D01*
X123015000Y-86670000D02*
X123515000Y-87170000D01*
X125015000Y-85670000D02*
X125015000Y-124670000D01*
X124015000Y-124670000D02*
X86015000Y-124670000D01*
X123015000Y-123670000D02*
X87015000Y-123670000D01*
X124515000Y-86170000D02*
X124515000Y-124170000D01*
X124515000Y-125170000D02*
X85515000Y-125170000D01*
X109515000Y-85170000D02*
X124515000Y-85170000D01*
D27*
X113715000Y-82870000D02*
X114165000Y-83320000D01*
D31*
X124515000Y-124170000D02*
X124015000Y-124670000D01*
X123515000Y-86170000D02*
X124015000Y-86670000D01*
X86515000Y-86170000D02*
X107515000Y-86170000D01*
X125015000Y-124670000D02*
X124515000Y-125170000D01*
D27*
X107515000Y-82095000D02*
X106340000Y-83270000D01*
X110401396Y-82870000D02*
X113715000Y-82870000D01*
D31*
X86015000Y-86670000D02*
X86515000Y-86170000D01*
X86015000Y-85670000D02*
X108015000Y-85670000D01*
X86515000Y-123170000D02*
X86515000Y-87170000D01*
X86015000Y-124670000D02*
X85515000Y-124170000D01*
X107515000Y-86170000D02*
X108015000Y-86670000D01*
D27*
X103815000Y-83820000D02*
X104365000Y-83270000D01*
D31*
X85015000Y-85670000D02*
X85515000Y-85170000D01*
D27*
X111415000Y-83820000D02*
X110165000Y-83820000D01*
X109615000Y-83270000D02*
X108880000Y-83270000D01*
D31*
X123515000Y-123170000D02*
X123015000Y-123670000D01*
D27*
X112715000Y-83820000D02*
X112865000Y-83670000D01*
X108950000Y-76570000D02*
X109550000Y-76570000D01*
X109550000Y-76570000D02*
X110100000Y-76020000D01*
X110100000Y-74695000D02*
X110100000Y-75995000D01*
X110150000Y-74670000D02*
X109350000Y-73870000D01*
X109350000Y-73870000D02*
X109350000Y-73270000D01*
D28*
X93615000Y-58620000D02*
X94165000Y-59170000D01*
D30*
X94165000Y-59170000D02*
X96125000Y-59170000D01*
G04 #@! TA.AperFunction,Conductor*
G36*
X125688066Y-57487813D02*
G01*
X125713376Y-57531650D01*
X125714500Y-57544500D01*
X125714500Y-84096000D01*
X125697187Y-84143566D01*
X125653350Y-84168876D01*
X125640500Y-84170000D01*
X114639500Y-84170000D01*
X114591934Y-84152687D01*
X114566624Y-84108850D01*
X114565500Y-84096000D01*
X114565500Y-83155180D01*
X114563574Y-83145500D01*
X114556767Y-83111278D01*
X114523504Y-83061496D01*
X114508816Y-83051682D01*
X114473722Y-83028233D01*
X114473721Y-83028232D01*
X114429820Y-83019500D01*
X114429819Y-83019500D01*
X114284768Y-83019500D01*
X114237202Y-83002187D01*
X114232442Y-82997826D01*
X113934145Y-82699529D01*
X113924942Y-82688314D01*
X113913626Y-82671378D01*
X113913624Y-82671376D01*
X113893644Y-82658026D01*
X113893639Y-82658021D01*
X113864465Y-82638528D01*
X113822495Y-82610485D01*
X113742133Y-82594500D01*
X113742132Y-82594500D01*
X113742130Y-82594499D01*
X113715001Y-82589103D01*
X113715000Y-82589103D01*
X113695017Y-82593078D01*
X113680580Y-82594500D01*
X112054542Y-82594500D01*
X112006976Y-82577187D01*
X111981666Y-82533350D01*
X111988060Y-82488000D01*
X112004866Y-82453625D01*
X112015500Y-82380636D01*
X112015500Y-81859364D01*
X112004866Y-81786375D01*
X111949826Y-81673789D01*
X111861211Y-81585174D01*
X111861210Y-81585174D01*
X111861210Y-81585173D01*
X111748626Y-81530134D01*
X111675640Y-81519500D01*
X111675636Y-81519500D01*
X111154364Y-81519500D01*
X111154359Y-81519500D01*
X111081374Y-81530134D01*
X111081373Y-81530134D01*
X110968789Y-81585173D01*
X110880173Y-81673789D01*
X110825133Y-81786375D01*
X110823438Y-81791864D01*
X110820609Y-81790989D01*
X110801896Y-81825749D01*
X110754865Y-81844467D01*
X110752666Y-81844500D01*
X110609768Y-81844500D01*
X110562202Y-81827187D01*
X110557442Y-81822826D01*
X110397174Y-81662558D01*
X110375782Y-81616682D01*
X110375500Y-81610232D01*
X110375500Y-81530134D01*
X110375500Y-81439470D01*
X110392811Y-81391907D01*
X110436649Y-81366597D01*
X110460165Y-81366246D01*
X110489364Y-81370500D01*
X110489370Y-81370500D01*
X111010630Y-81370500D01*
X111010636Y-81370500D01*
X111083625Y-81359866D01*
X111196211Y-81304826D01*
X111284826Y-81216211D01*
X111339866Y-81103625D01*
X111350500Y-81030636D01*
X111350500Y-80509364D01*
X111339866Y-80436375D01*
X111337062Y-80430640D01*
X111864500Y-80430640D01*
X111875134Y-80503625D01*
X111875134Y-80503626D01*
X111930173Y-80616210D01*
X111930174Y-80616211D01*
X112018789Y-80704826D01*
X112131375Y-80759866D01*
X112204364Y-80770500D01*
X112645232Y-80770500D01*
X112692798Y-80787813D01*
X112697558Y-80792174D01*
X113092826Y-81187442D01*
X113114218Y-81233318D01*
X113114500Y-81239768D01*
X113114500Y-82184819D01*
X113123233Y-82228722D01*
X113150479Y-82269500D01*
X113156496Y-82278504D01*
X113206278Y-82311767D01*
X113250180Y-82320500D01*
X113250181Y-82320500D01*
X113779819Y-82320500D01*
X113779820Y-82320500D01*
X113823722Y-82311767D01*
X113873504Y-82278504D01*
X113906767Y-82228722D01*
X113915500Y-82184820D01*
X113915500Y-81155180D01*
X113906767Y-81111278D01*
X113873504Y-81061496D01*
X113857641Y-81050897D01*
X113823722Y-81028233D01*
X113823721Y-81028232D01*
X113779820Y-81019500D01*
X113779819Y-81019500D01*
X113734768Y-81019500D01*
X113687202Y-81002187D01*
X113682442Y-80997826D01*
X113115256Y-80430640D01*
X113564500Y-80430640D01*
X113575134Y-80503625D01*
X113575134Y-80503626D01*
X113630173Y-80616210D01*
X113630174Y-80616211D01*
X113718789Y-80704826D01*
X113831375Y-80759866D01*
X113904364Y-80770500D01*
X114345232Y-80770500D01*
X114392798Y-80787813D01*
X114397558Y-80792174D01*
X114545854Y-80940470D01*
X114555056Y-80951683D01*
X114566375Y-80968623D01*
X114566376Y-80968624D01*
X114586355Y-80981974D01*
X114586356Y-80981974D01*
X114589376Y-80983992D01*
X114589378Y-80983994D01*
X114615534Y-81001471D01*
X114657505Y-81029515D01*
X114737867Y-81045500D01*
X114737868Y-81045500D01*
X114764999Y-81050897D01*
X114765000Y-81050897D01*
X114784983Y-81046921D01*
X114799420Y-81045500D01*
X116790500Y-81045500D01*
X116838066Y-81062813D01*
X116863376Y-81106650D01*
X116864500Y-81119500D01*
X116864500Y-81134819D01*
X116873233Y-81178722D01*
X116898085Y-81215917D01*
X116906496Y-81228504D01*
X116956278Y-81261767D01*
X117000180Y-81270500D01*
X117000181Y-81270500D01*
X117629819Y-81270500D01*
X117629820Y-81270500D01*
X117673722Y-81261767D01*
X117723504Y-81228504D01*
X117756767Y-81178722D01*
X117765500Y-81134820D01*
X117765500Y-80405180D01*
X117756767Y-80361278D01*
X117723504Y-80311496D01*
X117673722Y-80278233D01*
X117629820Y-80269500D01*
X117000180Y-80269500D01*
X116978228Y-80273866D01*
X116956277Y-80278233D01*
X116906496Y-80311495D01*
X116906495Y-80311496D01*
X116873233Y-80361277D01*
X116864500Y-80405180D01*
X116864500Y-80420500D01*
X116847187Y-80468066D01*
X116803350Y-80493376D01*
X116790500Y-80494500D01*
X114909768Y-80494500D01*
X114862202Y-80477187D01*
X114857442Y-80472826D01*
X114787174Y-80402558D01*
X114765782Y-80356682D01*
X114765500Y-80350232D01*
X114765500Y-79909370D01*
X114765500Y-79909364D01*
X114754866Y-79836375D01*
X114699826Y-79723789D01*
X114611211Y-79635174D01*
X114611210Y-79635174D01*
X114611210Y-79635173D01*
X114498626Y-79580134D01*
X114425640Y-79569500D01*
X114425636Y-79569500D01*
X113904364Y-79569500D01*
X113904359Y-79569500D01*
X113831374Y-79580134D01*
X113831373Y-79580134D01*
X113718789Y-79635173D01*
X113630173Y-79723789D01*
X113575134Y-79836373D01*
X113575134Y-79836374D01*
X113564500Y-79909359D01*
X113564500Y-80430640D01*
X113115256Y-80430640D01*
X113087174Y-80402558D01*
X113065782Y-80356682D01*
X113065500Y-80350232D01*
X113065500Y-79909370D01*
X113065500Y-79909364D01*
X113054866Y-79836375D01*
X112999826Y-79723789D01*
X112911211Y-79635174D01*
X112911210Y-79635174D01*
X112911210Y-79635173D01*
X112798626Y-79580134D01*
X112725640Y-79569500D01*
X112725636Y-79569500D01*
X112204364Y-79569500D01*
X112204359Y-79569500D01*
X112131374Y-79580134D01*
X112131373Y-79580134D01*
X112018789Y-79635173D01*
X111930173Y-79723789D01*
X111875134Y-79836373D01*
X111875134Y-79836374D01*
X111864500Y-79909359D01*
X111864500Y-80430640D01*
X111337062Y-80430640D01*
X111284826Y-80323789D01*
X111196211Y-80235174D01*
X111196210Y-80235174D01*
X111196210Y-80235173D01*
X111083626Y-80180134D01*
X111010640Y-80169500D01*
X111010636Y-80169500D01*
X110489364Y-80169500D01*
X110489359Y-80169500D01*
X110489354Y-80169501D01*
X110460167Y-80173753D01*
X110410602Y-80163478D01*
X110379238Y-80123747D01*
X110375500Y-80100527D01*
X110375500Y-80100526D01*
X110375500Y-80039471D01*
X110392811Y-79991908D01*
X110436648Y-79966597D01*
X110460165Y-79966246D01*
X110489364Y-79970500D01*
X110489370Y-79970500D01*
X111010630Y-79970500D01*
X111010636Y-79970500D01*
X111083625Y-79959866D01*
X111196211Y-79904826D01*
X111284826Y-79816211D01*
X111339866Y-79703625D01*
X111350500Y-79630636D01*
X111350500Y-79109364D01*
X111339866Y-79036375D01*
X111284826Y-78923789D01*
X111281037Y-78920000D01*
X115915001Y-78920000D01*
X115915001Y-79134778D01*
X115923701Y-79178524D01*
X115956855Y-79228143D01*
X115956856Y-79228144D01*
X116006472Y-79261296D01*
X116050226Y-79269999D01*
X116215000Y-79269999D01*
X116215000Y-78920000D01*
X116515000Y-78920000D01*
X116515000Y-79269999D01*
X116679779Y-79269999D01*
X116723524Y-79261298D01*
X116773143Y-79228144D01*
X116773144Y-79228143D01*
X116806296Y-79178527D01*
X116814999Y-79134773D01*
X116815000Y-78920000D01*
X116515000Y-78920000D01*
X116215000Y-78920000D01*
X115915001Y-78920000D01*
X111281037Y-78920000D01*
X111232863Y-78871826D01*
X111211471Y-78825950D01*
X111224572Y-78777055D01*
X111266036Y-78748021D01*
X111285189Y-78745500D01*
X113369017Y-78745500D01*
X113383453Y-78746921D01*
X113403437Y-78750897D01*
X113403438Y-78750897D01*
X113408059Y-78749977D01*
X113430569Y-78745500D01*
X113430570Y-78745500D01*
X113510932Y-78729515D01*
X113552902Y-78701471D01*
X113579059Y-78683994D01*
X113579059Y-78683993D01*
X113587073Y-78678639D01*
X113587076Y-78678636D01*
X113602061Y-78668624D01*
X113613385Y-78651674D01*
X113622578Y-78640473D01*
X113857825Y-78405226D01*
X115914999Y-78405226D01*
X115915000Y-78620000D01*
X116215000Y-78620000D01*
X116214999Y-78270000D01*
X116515000Y-78270000D01*
X116515000Y-78620000D01*
X116814999Y-78620000D01*
X116814999Y-78405221D01*
X116806298Y-78361475D01*
X116773144Y-78311856D01*
X116773143Y-78311855D01*
X116723527Y-78278703D01*
X116679773Y-78270000D01*
X116515000Y-78270000D01*
X116214999Y-78270000D01*
X116050230Y-78270000D01*
X116006473Y-78278703D01*
X115956856Y-78311855D01*
X115956855Y-78311856D01*
X115923703Y-78361472D01*
X115914999Y-78405226D01*
X113857825Y-78405226D01*
X114685472Y-77577579D01*
X114696676Y-77568384D01*
X114713624Y-77557061D01*
X114737469Y-77521376D01*
X114774515Y-77465932D01*
X114776489Y-77456006D01*
X114790500Y-77385570D01*
X114790500Y-77385565D01*
X114794135Y-77367287D01*
X114820394Y-77324016D01*
X114844874Y-77311024D01*
X114848616Y-77309867D01*
X114848625Y-77309866D01*
X114961211Y-77254826D01*
X115049826Y-77166211D01*
X115104866Y-77053625D01*
X115115500Y-76980636D01*
X115115500Y-76870000D01*
X115315000Y-76870000D01*
X115315000Y-76980592D01*
X115325620Y-77053482D01*
X115380587Y-77165917D01*
X115469082Y-77254412D01*
X115581517Y-77309379D01*
X115654407Y-77319999D01*
X115654418Y-77320000D01*
X115764999Y-77320000D01*
X115764999Y-77319999D01*
X116064999Y-77319999D01*
X116065000Y-77320000D01*
X116175582Y-77320000D01*
X116175592Y-77319999D01*
X116248482Y-77309379D01*
X116360917Y-77254412D01*
X116449412Y-77165917D01*
X116504379Y-77053482D01*
X116514999Y-76980592D01*
X116515000Y-76980581D01*
X116515000Y-76870000D01*
X116715000Y-76870000D01*
X116715000Y-76980592D01*
X116725620Y-77053482D01*
X116780587Y-77165917D01*
X116869082Y-77254412D01*
X116981517Y-77309379D01*
X117054407Y-77319999D01*
X117054418Y-77320000D01*
X117164999Y-77320000D01*
X117165000Y-76870000D01*
X116715000Y-76870000D01*
X116515000Y-76870000D01*
X116065000Y-76870000D01*
X116064999Y-77319999D01*
X115764999Y-77319999D01*
X115765000Y-76870000D01*
X115315000Y-76870000D01*
X115115500Y-76870000D01*
X115115500Y-76459364D01*
X115104866Y-76386375D01*
X115049826Y-76273789D01*
X115022863Y-76246826D01*
X115001471Y-76200950D01*
X115014572Y-76152055D01*
X115056036Y-76123021D01*
X115075189Y-76120500D01*
X115355518Y-76120500D01*
X115403084Y-76137813D01*
X115428394Y-76181650D01*
X115419604Y-76231500D01*
X115407844Y-76246826D01*
X115380587Y-76274082D01*
X115325620Y-76386517D01*
X115315000Y-76459407D01*
X115315000Y-76459418D01*
X115314999Y-76569999D01*
X115315000Y-76570000D01*
X116514999Y-76570000D01*
X116515000Y-76459418D01*
X116514999Y-76459407D01*
X116504379Y-76386517D01*
X116449412Y-76274082D01*
X116422156Y-76246826D01*
X116400764Y-76200950D01*
X116413865Y-76152055D01*
X116455329Y-76123021D01*
X116474482Y-76120500D01*
X116755518Y-76120500D01*
X116803084Y-76137813D01*
X116828394Y-76181650D01*
X116819604Y-76231500D01*
X116807844Y-76246826D01*
X116780587Y-76274082D01*
X116725620Y-76386517D01*
X116715000Y-76459407D01*
X116715000Y-76459418D01*
X116714999Y-76569999D01*
X116715000Y-76570000D01*
X117391000Y-76570000D01*
X117438566Y-76587313D01*
X117463876Y-76631150D01*
X117465000Y-76644000D01*
X117465000Y-77320000D01*
X117575582Y-77320000D01*
X117575592Y-77319999D01*
X117648482Y-77309379D01*
X117760917Y-77254412D01*
X117838174Y-77177155D01*
X117884050Y-77155763D01*
X117932944Y-77168863D01*
X117961978Y-77210328D01*
X117964500Y-77229481D01*
X117964500Y-78205921D01*
X117947187Y-78253487D01*
X117912438Y-78274061D01*
X117913011Y-78275444D01*
X117906279Y-78278232D01*
X117856496Y-78311495D01*
X117856495Y-78311496D01*
X117823233Y-78361277D01*
X117814500Y-78405180D01*
X117814500Y-79134819D01*
X117823233Y-79178722D01*
X117856254Y-79228143D01*
X117856496Y-79228504D01*
X117906278Y-79261767D01*
X117950180Y-79270500D01*
X117950181Y-79270500D01*
X118579819Y-79270500D01*
X118579820Y-79270500D01*
X118623722Y-79261767D01*
X118673504Y-79228504D01*
X118706767Y-79178722D01*
X118715500Y-79134820D01*
X118715500Y-78405180D01*
X118706767Y-78361278D01*
X118673504Y-78311496D01*
X118665772Y-78306330D01*
X118623722Y-78278233D01*
X118609701Y-78275444D01*
X118579820Y-78269500D01*
X118579819Y-78269500D01*
X118539500Y-78269500D01*
X118491934Y-78252187D01*
X118466624Y-78208350D01*
X118465500Y-78195500D01*
X118465500Y-75901961D01*
X118466922Y-75887523D01*
X118470408Y-75869999D01*
X118470408Y-75869998D01*
X118466922Y-75852473D01*
X118465500Y-75838037D01*
X118465500Y-74701966D01*
X118466922Y-74687528D01*
X118470409Y-74670000D01*
X118450966Y-74572260D01*
X118409578Y-74510317D01*
X118409577Y-74510316D01*
X118395848Y-74489768D01*
X118395603Y-74489401D01*
X118395601Y-74489400D01*
X118395601Y-74489399D01*
X118380738Y-74479468D01*
X118369530Y-74470269D01*
X117987174Y-74087913D01*
X117965782Y-74042037D01*
X117965500Y-74035587D01*
X117965500Y-73170009D01*
X118660080Y-73170009D01*
X118679745Y-73532721D01*
X118679746Y-73532725D01*
X118738514Y-73891204D01*
X118738515Y-73891206D01*
X118835698Y-74241226D01*
X118835704Y-74241246D01*
X118970156Y-74578692D01*
X119140313Y-74899643D01*
X119344175Y-75200317D01*
X119540921Y-75431944D01*
X119540921Y-75431945D01*
X120725805Y-74247061D01*
X120771681Y-74225669D01*
X120820576Y-74238770D01*
X120834401Y-74251328D01*
X120870814Y-74293963D01*
X120880130Y-74304870D01*
X120921668Y-74340347D01*
X120933670Y-74350597D01*
X120958596Y-74394653D01*
X120949372Y-74444424D01*
X120937937Y-74459193D01*
X119754261Y-75642868D01*
X119754262Y-75642869D01*
X119843073Y-75726995D01*
X120132267Y-75946834D01*
X120443521Y-76134109D01*
X120773221Y-76286645D01*
X121117451Y-76402628D01*
X121117473Y-76402635D01*
X121472227Y-76480722D01*
X121472236Y-76480723D01*
X121833354Y-76519998D01*
X121833377Y-76520000D01*
X122196623Y-76520000D01*
X122196645Y-76519998D01*
X122557763Y-76480723D01*
X122557772Y-76480722D01*
X122912526Y-76402635D01*
X122912548Y-76402628D01*
X123256778Y-76286645D01*
X123586478Y-76134109D01*
X123897732Y-75946834D01*
X124186929Y-75726992D01*
X124186933Y-75726989D01*
X124275736Y-75642868D01*
X123092062Y-74459194D01*
X123070670Y-74413318D01*
X123083771Y-74364423D01*
X123096329Y-74350598D01*
X123096330Y-74350597D01*
X123149870Y-74304870D01*
X123195598Y-74251328D01*
X123239654Y-74226403D01*
X123289425Y-74235627D01*
X123304194Y-74247062D01*
X124489077Y-75431945D01*
X124685827Y-75200312D01*
X124889686Y-74899643D01*
X125059843Y-74578692D01*
X125194295Y-74241246D01*
X125194301Y-74241226D01*
X125291484Y-73891206D01*
X125291485Y-73891204D01*
X125350253Y-73532725D01*
X125350254Y-73532721D01*
X125369920Y-73170009D01*
X125369920Y-73169990D01*
X125350254Y-72807278D01*
X125350253Y-72807274D01*
X125291485Y-72448795D01*
X125291484Y-72448793D01*
X125194301Y-72098773D01*
X125194295Y-72098753D01*
X125059843Y-71761307D01*
X124889686Y-71440356D01*
X124685827Y-71139687D01*
X124489077Y-70908053D01*
X123304193Y-72092937D01*
X123258316Y-72114329D01*
X123209422Y-72101228D01*
X123195597Y-72088670D01*
X123149872Y-72035132D01*
X123149867Y-72035127D01*
X123096328Y-71989401D01*
X123071402Y-71945345D01*
X123080626Y-71895574D01*
X123092061Y-71880805D01*
X124275736Y-70697129D01*
X124186926Y-70613004D01*
X123897732Y-70393165D01*
X123586478Y-70205890D01*
X123256778Y-70053354D01*
X122912548Y-69937371D01*
X122912526Y-69937364D01*
X122557772Y-69859277D01*
X122557763Y-69859276D01*
X122196645Y-69820001D01*
X122196623Y-69820000D01*
X121833377Y-69820000D01*
X121833354Y-69820001D01*
X121472236Y-69859276D01*
X121472227Y-69859277D01*
X121117473Y-69937364D01*
X121117451Y-69937371D01*
X120773221Y-70053354D01*
X120443521Y-70205890D01*
X120132267Y-70393165D01*
X119843068Y-70613008D01*
X119754262Y-70697129D01*
X120937937Y-71880805D01*
X120959329Y-71926682D01*
X120946228Y-71975576D01*
X120933671Y-71989400D01*
X120880133Y-72035126D01*
X120880126Y-72035133D01*
X120834400Y-72088671D01*
X120790344Y-72113596D01*
X120740572Y-72104371D01*
X120725805Y-72092937D01*
X119540921Y-70908053D01*
X119540921Y-70908054D01*
X119344175Y-71139682D01*
X119140313Y-71440356D01*
X118970156Y-71761307D01*
X118835704Y-72098753D01*
X118835698Y-72098773D01*
X118738515Y-72448793D01*
X118738514Y-72448795D01*
X118679746Y-72807274D01*
X118679745Y-72807278D01*
X118660080Y-73169990D01*
X118660080Y-73170009D01*
X117965500Y-73170009D01*
X117965500Y-71324500D01*
X117982813Y-71276934D01*
X118026650Y-71251624D01*
X118039500Y-71250500D01*
X118229819Y-71250500D01*
X118229820Y-71250500D01*
X118273722Y-71241767D01*
X118323504Y-71208504D01*
X118356767Y-71158722D01*
X118365500Y-71114820D01*
X118365500Y-70085180D01*
X118356767Y-70041278D01*
X118323504Y-69991496D01*
X118311378Y-69983394D01*
X118273722Y-69958233D01*
X118254649Y-69954439D01*
X118229820Y-69949500D01*
X117200180Y-69949500D01*
X117178228Y-69953866D01*
X117156277Y-69958233D01*
X117106496Y-69991495D01*
X117106495Y-69991496D01*
X117073233Y-70041277D01*
X117064500Y-70085180D01*
X117064500Y-71114819D01*
X117073233Y-71158722D01*
X117103868Y-71204572D01*
X117106496Y-71208504D01*
X117156278Y-71241767D01*
X117200180Y-71250500D01*
X117390500Y-71250500D01*
X117438066Y-71267813D01*
X117463376Y-71311650D01*
X117464500Y-71324500D01*
X117464500Y-74138037D01*
X117463078Y-74152473D01*
X117459592Y-74169998D01*
X117459592Y-74170000D01*
X117479033Y-74267740D01*
X117481711Y-74271747D01*
X117503520Y-74304387D01*
X117515552Y-74353556D01*
X117493164Y-74398955D01*
X117446832Y-74419342D01*
X117441992Y-74419500D01*
X117054359Y-74419500D01*
X116981374Y-74430134D01*
X116981373Y-74430134D01*
X116868789Y-74485173D01*
X116780173Y-74573789D01*
X116725134Y-74686373D01*
X116725134Y-74686374D01*
X116714500Y-74759359D01*
X116714500Y-75280640D01*
X116725134Y-75353625D01*
X116725134Y-75353626D01*
X116780173Y-75466210D01*
X116807137Y-75493174D01*
X116828529Y-75539050D01*
X116815428Y-75587945D01*
X116773964Y-75616979D01*
X116754811Y-75619500D01*
X116475189Y-75619500D01*
X116427623Y-75602187D01*
X116402313Y-75558350D01*
X116411103Y-75508500D01*
X116422863Y-75493174D01*
X116435279Y-75480758D01*
X116449826Y-75466211D01*
X116504866Y-75353625D01*
X116515500Y-75280636D01*
X116515500Y-74759364D01*
X116504866Y-74686375D01*
X116449826Y-74573789D01*
X116361211Y-74485174D01*
X116361210Y-74485174D01*
X116361210Y-74485173D01*
X116248626Y-74430134D01*
X116175640Y-74419500D01*
X116175636Y-74419500D01*
X115654364Y-74419500D01*
X115654359Y-74419500D01*
X115581374Y-74430134D01*
X115581372Y-74430135D01*
X115519958Y-74460158D01*
X115469621Y-74465495D01*
X115427630Y-74437227D01*
X115425929Y-74434789D01*
X115395602Y-74389400D01*
X115395598Y-74389397D01*
X115380735Y-74379466D01*
X115369527Y-74370267D01*
X114287174Y-73287914D01*
X114265782Y-73242038D01*
X114265500Y-73235588D01*
X114265500Y-70924500D01*
X114282813Y-70876934D01*
X114326650Y-70851624D01*
X114339500Y-70850500D01*
X114450500Y-70850500D01*
X114498066Y-70867813D01*
X114523376Y-70911650D01*
X114524500Y-70924500D01*
X114524500Y-71114819D01*
X114533233Y-71158722D01*
X114563868Y-71204572D01*
X114566496Y-71208504D01*
X114616278Y-71241767D01*
X114660180Y-71250500D01*
X114660181Y-71250500D01*
X115689819Y-71250500D01*
X115689820Y-71250500D01*
X115733722Y-71241767D01*
X115783504Y-71208504D01*
X115816767Y-71158722D01*
X115825500Y-71114820D01*
X115825500Y-70085180D01*
X115816767Y-70041278D01*
X115783504Y-69991496D01*
X115771378Y-69983394D01*
X115733722Y-69958233D01*
X115714649Y-69954439D01*
X115689820Y-69949500D01*
X114660180Y-69949500D01*
X114638228Y-69953866D01*
X114616277Y-69958233D01*
X114566496Y-69991495D01*
X114566495Y-69991496D01*
X114533233Y-70041277D01*
X114524500Y-70085180D01*
X114524500Y-70275500D01*
X114507187Y-70323066D01*
X114463350Y-70348376D01*
X114450500Y-70349500D01*
X114339500Y-70349500D01*
X114291934Y-70332187D01*
X114266624Y-70288350D01*
X114265500Y-70275500D01*
X114265500Y-67850495D01*
X114266922Y-67836057D01*
X114270409Y-67818529D01*
X114250966Y-67720789D01*
X114209578Y-67658846D01*
X114209577Y-67658845D01*
X114195601Y-67637928D01*
X114180738Y-67627997D01*
X114169530Y-67618798D01*
X113596874Y-67046142D01*
X113575482Y-67000266D01*
X113588583Y-66951371D01*
X113630047Y-66922337D01*
X113651734Y-66920278D01*
X113651734Y-66920000D01*
X113764999Y-66920000D01*
X113764999Y-66919999D01*
X114064999Y-66919999D01*
X114065000Y-66920000D01*
X114175582Y-66920000D01*
X114175592Y-66919999D01*
X114248482Y-66909379D01*
X114360917Y-66854412D01*
X114449412Y-66765917D01*
X114504379Y-66653482D01*
X114514999Y-66580592D01*
X114515000Y-66580581D01*
X114515000Y-66470000D01*
X114065000Y-66470000D01*
X114064999Y-66919999D01*
X113764999Y-66919999D01*
X113765000Y-66470000D01*
X113315000Y-66470000D01*
X113315000Y-66583266D01*
X113314196Y-66583266D01*
X113301149Y-66629160D01*
X113259249Y-66657561D01*
X113208895Y-66652385D01*
X113188858Y-66638127D01*
X111866202Y-65315471D01*
X111857002Y-65304260D01*
X111847072Y-65289399D01*
X111838641Y-65283766D01*
X111784357Y-65247495D01*
X111764212Y-65234034D01*
X111746270Y-65230465D01*
X111702996Y-65204204D01*
X111686726Y-65156271D01*
X111694226Y-65125388D01*
X111704866Y-65103625D01*
X111715500Y-65030636D01*
X111715500Y-64509364D01*
X111704866Y-64436375D01*
X111687151Y-64400140D01*
X111681815Y-64349805D01*
X111710082Y-64307814D01*
X111712521Y-64306112D01*
X111712738Y-64305966D01*
X111712741Y-64305966D01*
X111742536Y-64286057D01*
X111795601Y-64250601D01*
X111805533Y-64235734D01*
X111814727Y-64224531D01*
X112197085Y-63842174D01*
X112242963Y-63820782D01*
X112249412Y-63820500D01*
X112731088Y-63820500D01*
X112778654Y-63837813D01*
X112803964Y-63881650D01*
X112795174Y-63931500D01*
X112783413Y-63946826D01*
X112668159Y-64062078D01*
X112622283Y-64083470D01*
X112606175Y-64083119D01*
X112464750Y-64064500D01*
X112321041Y-64083419D01*
X112187126Y-64138888D01*
X112072129Y-64227129D01*
X111983888Y-64342126D01*
X111928419Y-64476041D01*
X111909500Y-64619749D01*
X111928419Y-64763458D01*
X111976957Y-64880640D01*
X111983889Y-64897375D01*
X112072129Y-65012371D01*
X112187125Y-65100611D01*
X112321041Y-65156080D01*
X112464750Y-65175000D01*
X112608459Y-65156080D01*
X112742375Y-65100611D01*
X112857371Y-65012371D01*
X112945611Y-64897375D01*
X113001080Y-64763459D01*
X113020000Y-64619750D01*
X113001380Y-64478321D01*
X113012336Y-64428903D01*
X113022416Y-64416342D01*
X113196585Y-64242174D01*
X113242463Y-64220782D01*
X113248912Y-64220500D01*
X113249169Y-64220500D01*
X113296735Y-64237813D01*
X113322045Y-64281650D01*
X113322395Y-64305168D01*
X113321188Y-64313452D01*
X113314500Y-64359358D01*
X113314500Y-64880640D01*
X113325134Y-64953625D01*
X113325134Y-64953626D01*
X113380173Y-65066210D01*
X113380174Y-65066211D01*
X113468789Y-65154826D01*
X113581375Y-65209866D01*
X113601169Y-65212749D01*
X113645741Y-65236738D01*
X113664467Y-65283766D01*
X113664500Y-65285976D01*
X113664500Y-65654530D01*
X113647187Y-65702096D01*
X113603350Y-65727406D01*
X113601170Y-65727757D01*
X113581517Y-65730620D01*
X113469082Y-65785587D01*
X113380587Y-65874082D01*
X113325620Y-65986517D01*
X113315000Y-66059407D01*
X113315000Y-66059418D01*
X113314999Y-66169999D01*
X113315000Y-66170000D01*
X114514999Y-66170000D01*
X114515000Y-66059418D01*
X114514999Y-66059407D01*
X114504379Y-65986517D01*
X114449412Y-65874082D01*
X114360917Y-65785587D01*
X114248482Y-65730620D01*
X114228830Y-65727757D01*
X114184257Y-65703766D01*
X114165533Y-65656738D01*
X114165500Y-65654530D01*
X114165500Y-65285976D01*
X114182813Y-65238410D01*
X114226650Y-65213100D01*
X114228785Y-65212756D01*
X114248625Y-65209866D01*
X114361211Y-65154826D01*
X114449826Y-65066211D01*
X114504866Y-64953625D01*
X114515500Y-64880636D01*
X114515500Y-64359364D01*
X114504866Y-64286375D01*
X114502062Y-64280640D01*
X114914500Y-64280640D01*
X114925134Y-64353625D01*
X114925134Y-64353626D01*
X114980173Y-64466210D01*
X114980174Y-64466211D01*
X115068789Y-64554826D01*
X115181375Y-64609866D01*
X115254364Y-64620500D01*
X115254370Y-64620500D01*
X115775630Y-64620500D01*
X115775636Y-64620500D01*
X115848625Y-64609866D01*
X115961211Y-64554826D01*
X116049826Y-64466211D01*
X116104866Y-64353625D01*
X116115500Y-64280636D01*
X116115500Y-64244499D01*
X116132813Y-64196934D01*
X116176650Y-64171624D01*
X116189500Y-64170500D01*
X117190500Y-64170500D01*
X117238066Y-64187813D01*
X117263376Y-64231650D01*
X117264500Y-64244500D01*
X117264500Y-64334820D01*
X117273233Y-64378722D01*
X117306496Y-64428504D01*
X117356278Y-64461767D01*
X117400180Y-64470500D01*
X117400181Y-64470500D01*
X118229819Y-64470500D01*
X118229820Y-64470500D01*
X118273722Y-64461767D01*
X118323504Y-64428504D01*
X118356767Y-64378722D01*
X118365500Y-64334820D01*
X118365500Y-63505180D01*
X118356767Y-63461278D01*
X118323504Y-63411496D01*
X118307587Y-63400861D01*
X118273722Y-63378233D01*
X118239336Y-63371393D01*
X118229820Y-63369500D01*
X117400180Y-63369500D01*
X117390694Y-63371387D01*
X117356277Y-63378233D01*
X117306496Y-63411495D01*
X117306495Y-63411496D01*
X117273233Y-63461277D01*
X117264500Y-63505180D01*
X117264500Y-63595500D01*
X117247187Y-63643066D01*
X117203350Y-63668376D01*
X117190500Y-63669500D01*
X116142809Y-63669500D01*
X116095243Y-63652187D01*
X116076328Y-63628000D01*
X116049826Y-63573789D01*
X115961210Y-63485173D01*
X115848626Y-63430134D01*
X115775640Y-63419500D01*
X115775636Y-63419500D01*
X115254364Y-63419500D01*
X115254359Y-63419500D01*
X115181374Y-63430134D01*
X115181373Y-63430134D01*
X115068789Y-63485173D01*
X114980173Y-63573789D01*
X114925134Y-63686373D01*
X114925134Y-63686374D01*
X114914500Y-63759359D01*
X114914500Y-64280640D01*
X114502062Y-64280640D01*
X114449826Y-64173789D01*
X114361211Y-64085174D01*
X114361210Y-64085174D01*
X114361210Y-64085173D01*
X114309853Y-64060067D01*
X114261606Y-64036480D01*
X114226477Y-64000037D01*
X114222992Y-63949538D01*
X114252783Y-63908613D01*
X114261601Y-63903522D01*
X114361211Y-63854826D01*
X114449826Y-63766211D01*
X114504866Y-63653625D01*
X114515500Y-63580636D01*
X114515500Y-63059364D01*
X114504866Y-62986375D01*
X114449826Y-62873789D01*
X114361211Y-62785174D01*
X114361210Y-62785174D01*
X114361210Y-62785173D01*
X114248626Y-62730134D01*
X114175640Y-62719500D01*
X114175636Y-62719500D01*
X113654364Y-62719500D01*
X113654359Y-62719500D01*
X113581374Y-62730134D01*
X113581373Y-62730134D01*
X113468789Y-62785173D01*
X113380173Y-62873789D01*
X113325134Y-62986373D01*
X113325134Y-62986374D01*
X113314500Y-63059359D01*
X113314500Y-63580641D01*
X113322396Y-63634831D01*
X113312122Y-63684397D01*
X113272391Y-63715762D01*
X113249169Y-63719500D01*
X113239500Y-63719500D01*
X113191934Y-63702187D01*
X113166624Y-63658350D01*
X113165500Y-63645500D01*
X113165500Y-62655180D01*
X113164481Y-62650057D01*
X113156767Y-62611278D01*
X113123504Y-62561496D01*
X113117866Y-62557729D01*
X113073722Y-62528233D01*
X113055086Y-62524526D01*
X113029820Y-62519500D01*
X112000180Y-62519500D01*
X111978228Y-62523866D01*
X111956277Y-62528233D01*
X111906496Y-62561495D01*
X111906495Y-62561496D01*
X111873233Y-62611277D01*
X111864499Y-62655180D01*
X111864500Y-63435587D01*
X111847187Y-63483153D01*
X111842826Y-63487913D01*
X111804779Y-63525960D01*
X111758903Y-63547352D01*
X111710008Y-63534251D01*
X111680974Y-63492787D01*
X111685386Y-63442360D01*
X111685973Y-63441132D01*
X111704379Y-63403483D01*
X111714999Y-63330592D01*
X111715000Y-63330581D01*
X111715000Y-63220000D01*
X111265000Y-63220000D01*
X111264999Y-63669999D01*
X111265000Y-63670000D01*
X111375582Y-63670000D01*
X111375592Y-63669999D01*
X111448483Y-63659379D01*
X111486132Y-63640973D01*
X111536469Y-63635634D01*
X111578460Y-63663901D01*
X111592459Y-63712546D01*
X111571913Y-63758808D01*
X111570961Y-63759778D01*
X111532915Y-63797825D01*
X111487038Y-63819218D01*
X111480588Y-63819500D01*
X107999500Y-63819500D01*
X107951934Y-63802187D01*
X107926624Y-63758350D01*
X107925500Y-63745500D01*
X107925500Y-63650180D01*
X107924569Y-63645500D01*
X107916767Y-63606278D01*
X107883504Y-63556496D01*
X107838599Y-63526492D01*
X107833722Y-63523233D01*
X107833721Y-63523232D01*
X107789820Y-63514500D01*
X107460180Y-63514500D01*
X107453057Y-63515917D01*
X107416276Y-63523233D01*
X107416275Y-63523233D01*
X107415657Y-63523647D01*
X107414731Y-63523873D01*
X107409544Y-63526022D01*
X107409213Y-63525223D01*
X107366488Y-63535675D01*
X107340392Y-63526174D01*
X107340261Y-63526492D01*
X107333528Y-63523703D01*
X107289773Y-63515000D01*
X107275000Y-63515000D01*
X107275000Y-64166000D01*
X107257687Y-64213566D01*
X107213850Y-64238876D01*
X107201000Y-64240000D01*
X107049000Y-64240000D01*
X107001434Y-64222687D01*
X106976124Y-64178850D01*
X106975000Y-64166000D01*
X106975000Y-63515000D01*
X106965633Y-63505634D01*
X106944239Y-63459758D01*
X106957338Y-63410863D01*
X106989636Y-63384941D01*
X107109485Y-63335299D01*
X107224481Y-63247059D01*
X107245244Y-63220000D01*
X109115000Y-63220000D01*
X109115000Y-63330592D01*
X109125620Y-63403482D01*
X109180587Y-63515917D01*
X109269082Y-63604412D01*
X109381517Y-63659379D01*
X109454407Y-63669999D01*
X109454418Y-63670000D01*
X109564999Y-63670000D01*
X109564999Y-63669999D01*
X109864999Y-63669999D01*
X109865000Y-63670000D01*
X109975582Y-63670000D01*
X109975592Y-63669999D01*
X110048482Y-63659379D01*
X110160917Y-63604412D01*
X110249412Y-63515917D01*
X110304379Y-63403482D01*
X110314999Y-63330592D01*
X110315000Y-63330581D01*
X110315000Y-63220000D01*
X110515000Y-63220000D01*
X110515000Y-63330592D01*
X110525620Y-63403482D01*
X110580587Y-63515917D01*
X110669082Y-63604412D01*
X110781517Y-63659379D01*
X110854407Y-63669999D01*
X110854418Y-63670000D01*
X110964999Y-63670000D01*
X110965000Y-63220000D01*
X110515000Y-63220000D01*
X110315000Y-63220000D01*
X109865000Y-63220000D01*
X109864999Y-63669999D01*
X109564999Y-63669999D01*
X109565000Y-63220000D01*
X109115000Y-63220000D01*
X107245244Y-63220000D01*
X107312721Y-63132063D01*
X107368190Y-62998147D01*
X107370824Y-62978137D01*
X107394196Y-62933238D01*
X107440962Y-62913866D01*
X107458625Y-62915217D01*
X107485180Y-62920500D01*
X107485182Y-62920500D01*
X108514819Y-62920500D01*
X108514820Y-62920500D01*
X108558722Y-62911767D01*
X108608504Y-62878504D01*
X108641767Y-62828722D01*
X108650500Y-62784820D01*
X108650499Y-62394152D01*
X108667813Y-62346586D01*
X108711650Y-62321276D01*
X108761500Y-62330066D01*
X108778601Y-62346085D01*
X108779242Y-62345445D01*
X108784396Y-62350598D01*
X108784397Y-62350599D01*
X108784399Y-62350601D01*
X108797537Y-62359379D01*
X108799258Y-62360529D01*
X108810471Y-62369731D01*
X108965273Y-62524534D01*
X108974467Y-62535737D01*
X108984399Y-62550601D01*
X108984400Y-62550601D01*
X108984401Y-62550603D01*
X109005279Y-62564553D01*
X109005294Y-62564562D01*
X109005316Y-62564577D01*
X109005317Y-62564578D01*
X109067260Y-62605966D01*
X109067259Y-62605966D01*
X109072707Y-62607049D01*
X109084365Y-62609368D01*
X109127640Y-62635627D01*
X109143911Y-62683559D01*
X109136410Y-62714446D01*
X109125620Y-62736516D01*
X109115000Y-62809407D01*
X109115000Y-62809418D01*
X109114999Y-62919999D01*
X109115000Y-62920000D01*
X110314999Y-62920000D01*
X110314999Y-62919999D01*
X110514999Y-62919999D01*
X110515000Y-62920000D01*
X110964999Y-62920000D01*
X110964999Y-62919999D01*
X111264999Y-62919999D01*
X111265000Y-62920000D01*
X111714999Y-62920000D01*
X111715000Y-62809418D01*
X111714999Y-62809407D01*
X111704379Y-62736517D01*
X111649412Y-62624082D01*
X111560917Y-62535587D01*
X111448482Y-62480620D01*
X111375592Y-62470000D01*
X111265000Y-62470000D01*
X111264999Y-62919999D01*
X110964999Y-62919999D01*
X110965000Y-62470000D01*
X110854407Y-62470000D01*
X110781517Y-62480620D01*
X110669082Y-62535587D01*
X110580587Y-62624082D01*
X110525620Y-62736517D01*
X110515000Y-62809407D01*
X110515000Y-62809418D01*
X110514999Y-62919999D01*
X110314999Y-62919999D01*
X110315000Y-62809418D01*
X110314999Y-62809407D01*
X110304379Y-62736518D01*
X110262110Y-62650057D01*
X110256773Y-62599721D01*
X110285039Y-62557729D01*
X110287454Y-62556044D01*
X110295601Y-62550601D01*
X110305533Y-62535734D01*
X110314730Y-62524529D01*
X110724284Y-62114974D01*
X110770162Y-62093582D01*
X110819056Y-62106683D01*
X110828937Y-62114974D01*
X110830174Y-62116210D01*
X110830174Y-62116211D01*
X110918789Y-62204826D01*
X111031375Y-62259866D01*
X111104364Y-62270500D01*
X111104370Y-62270500D01*
X111625630Y-62270500D01*
X111625636Y-62270500D01*
X111698625Y-62259866D01*
X111811211Y-62204826D01*
X111899826Y-62116211D01*
X111912569Y-62090143D01*
X111949013Y-62055014D01*
X111999511Y-62051529D01*
X112024092Y-62063932D01*
X112137379Y-62150861D01*
X112271295Y-62206330D01*
X112415004Y-62225250D01*
X112558713Y-62206330D01*
X112692629Y-62150861D01*
X112807625Y-62062621D01*
X112895865Y-61947625D01*
X112908889Y-61916179D01*
X112943086Y-61878862D01*
X112977256Y-61870500D01*
X113249023Y-61870500D01*
X113296589Y-61887813D01*
X113321899Y-61931650D01*
X113322250Y-61933830D01*
X113325134Y-61953625D01*
X113325134Y-61953626D01*
X113380173Y-62066210D01*
X113380174Y-62066211D01*
X113468789Y-62154826D01*
X113581375Y-62209866D01*
X113654364Y-62220500D01*
X113654370Y-62220500D01*
X114175630Y-62220500D01*
X114175636Y-62220500D01*
X114248625Y-62209866D01*
X114361211Y-62154826D01*
X114449826Y-62066211D01*
X114504866Y-61953625D01*
X114515500Y-61880636D01*
X114515500Y-61359364D01*
X114504866Y-61286375D01*
X114449826Y-61173789D01*
X114361211Y-61085174D01*
X114361210Y-61085174D01*
X114361210Y-61085173D01*
X114248626Y-61030134D01*
X114175640Y-61019500D01*
X114175636Y-61019500D01*
X113654364Y-61019500D01*
X113654359Y-61019500D01*
X113581374Y-61030134D01*
X113581373Y-61030134D01*
X113468789Y-61085173D01*
X113380173Y-61173789D01*
X113325134Y-61286373D01*
X113325134Y-61286374D01*
X113322250Y-61306170D01*
X113298259Y-61350743D01*
X113251230Y-61369467D01*
X113249023Y-61369500D01*
X112914805Y-61369500D01*
X112867239Y-61352187D01*
X112856097Y-61340548D01*
X112807629Y-61277384D01*
X112807627Y-61277381D01*
X112807625Y-61277380D01*
X112807625Y-61277379D01*
X112692629Y-61189139D01*
X112673721Y-61181307D01*
X112558712Y-61133669D01*
X112415004Y-61114750D01*
X112271295Y-61133669D01*
X112137380Y-61189138D01*
X112137376Y-61189140D01*
X112024097Y-61276062D01*
X111975821Y-61291284D01*
X111929055Y-61271912D01*
X111912568Y-61249854D01*
X111907926Y-61240359D01*
X111899826Y-61223789D01*
X111811211Y-61135174D01*
X111811210Y-61135174D01*
X111811210Y-61135173D01*
X111698626Y-61080134D01*
X111625640Y-61069500D01*
X111625636Y-61069500D01*
X111362626Y-61069500D01*
X111315060Y-61052187D01*
X111289750Y-61008350D01*
X111298540Y-60958500D01*
X111310300Y-60943174D01*
X111609219Y-60644255D01*
X111655095Y-60622863D01*
X111661545Y-60622581D01*
X112670957Y-60622581D01*
X112685393Y-60624002D01*
X112702919Y-60627489D01*
X112800660Y-60608047D01*
X112841683Y-60580636D01*
X112883520Y-60552682D01*
X112893452Y-60537815D01*
X112902646Y-60526612D01*
X113357760Y-60071498D01*
X113403635Y-60050107D01*
X113444968Y-60058563D01*
X113520268Y-60098812D01*
X113520270Y-60098812D01*
X113520273Y-60098814D01*
X113708868Y-60156024D01*
X113905000Y-60175341D01*
X114101132Y-60156024D01*
X114289727Y-60098814D01*
X114463538Y-60005910D01*
X114615883Y-59880883D01*
X114683299Y-59798736D01*
X114726856Y-59772952D01*
X114776799Y-59781197D01*
X114809757Y-59819617D01*
X114814500Y-59845683D01*
X114814500Y-61838037D01*
X114813078Y-61852473D01*
X114809592Y-61869998D01*
X114809592Y-61870000D01*
X114829033Y-61967740D01*
X114837014Y-61979683D01*
X114884396Y-62050598D01*
X114889553Y-62055755D01*
X114887937Y-62057370D01*
X114911540Y-62089545D01*
X114914500Y-62110267D01*
X114914500Y-62580640D01*
X114925134Y-62653625D01*
X114925134Y-62653626D01*
X114980173Y-62766210D01*
X114980174Y-62766211D01*
X115068789Y-62854826D01*
X115181375Y-62909866D01*
X115254364Y-62920500D01*
X115254370Y-62920500D01*
X115775630Y-62920500D01*
X115775636Y-62920500D01*
X115848625Y-62909866D01*
X115961211Y-62854826D01*
X116049826Y-62766211D01*
X116104866Y-62653625D01*
X116115500Y-62580636D01*
X116115500Y-62570000D01*
X117265001Y-62570000D01*
X117265001Y-62834778D01*
X117273701Y-62878524D01*
X117306855Y-62928143D01*
X117306856Y-62928144D01*
X117356472Y-62961296D01*
X117400226Y-62969999D01*
X117664999Y-62969999D01*
X117665000Y-62570000D01*
X117965000Y-62570000D01*
X117965000Y-62969999D01*
X118229779Y-62969999D01*
X118273524Y-62961298D01*
X118323143Y-62928144D01*
X118323144Y-62928143D01*
X118356296Y-62878527D01*
X118365000Y-62834773D01*
X118365000Y-62570000D01*
X117965000Y-62570000D01*
X117665000Y-62570000D01*
X117265001Y-62570000D01*
X116115500Y-62570000D01*
X116115500Y-62270000D01*
X117265000Y-62270000D01*
X117665000Y-62270000D01*
X117665000Y-61870000D01*
X117965000Y-61870000D01*
X117965000Y-62270000D01*
X118364999Y-62270000D01*
X118364999Y-62005221D01*
X118356298Y-61961475D01*
X118323144Y-61911856D01*
X118323143Y-61911855D01*
X118273527Y-61878703D01*
X118229773Y-61870000D01*
X117965000Y-61870000D01*
X117665000Y-61870000D01*
X117400229Y-61870000D01*
X117356473Y-61878703D01*
X117306856Y-61911855D01*
X117306855Y-61911856D01*
X117273703Y-61961472D01*
X117265000Y-62005226D01*
X117265000Y-62270000D01*
X116115500Y-62270000D01*
X116115500Y-62059364D01*
X116104866Y-61986375D01*
X116049826Y-61873789D01*
X115961211Y-61785174D01*
X115961210Y-61785174D01*
X115961210Y-61785173D01*
X115848626Y-61730134D01*
X115775640Y-61719500D01*
X115775636Y-61719500D01*
X115389500Y-61719500D01*
X115341934Y-61702187D01*
X115316624Y-61658350D01*
X115315500Y-61645500D01*
X115315500Y-58806331D01*
X115316922Y-58791893D01*
X115320409Y-58774365D01*
X115300966Y-58676625D01*
X115259578Y-58614682D01*
X115259577Y-58614681D01*
X115245601Y-58593764D01*
X115230738Y-58583833D01*
X115219530Y-58574634D01*
X114560367Y-57915472D01*
X114551166Y-57904260D01*
X114541236Y-57889399D01*
X114488171Y-57853942D01*
X114458376Y-57834034D01*
X114360635Y-57814592D01*
X114343110Y-57818078D01*
X114328673Y-57819500D01*
X104876962Y-57819500D01*
X104862525Y-57818078D01*
X104845000Y-57814592D01*
X104820326Y-57819500D01*
X104747259Y-57834034D01*
X104664399Y-57889398D01*
X104664397Y-57889400D01*
X104654466Y-57904262D01*
X104645266Y-57915472D01*
X104292239Y-58268499D01*
X104246363Y-58289891D01*
X104205030Y-58281435D01*
X104129731Y-58241188D01*
X104129730Y-58241187D01*
X104129727Y-58241186D01*
X103993622Y-58199898D01*
X103941133Y-58183976D01*
X103745000Y-58164659D01*
X103548866Y-58183976D01*
X103360268Y-58241187D01*
X103186463Y-58334089D01*
X103034117Y-58459117D01*
X102909089Y-58611463D01*
X102816187Y-58785268D01*
X102758976Y-58973866D01*
X102739659Y-59170000D01*
X102758976Y-59366133D01*
X102816187Y-59554731D01*
X102883221Y-59680141D01*
X102909090Y-59728538D01*
X103034117Y-59880883D01*
X103186462Y-60005910D01*
X103236568Y-60032692D01*
X103360268Y-60098812D01*
X103360270Y-60098812D01*
X103360273Y-60098814D01*
X103548868Y-60156024D01*
X103745000Y-60175341D01*
X103941132Y-60156024D01*
X104129727Y-60098814D01*
X104303538Y-60005910D01*
X104455883Y-59880883D01*
X104580910Y-59728538D01*
X104673814Y-59554727D01*
X104731024Y-59366132D01*
X104750341Y-59170000D01*
X104731024Y-58973868D01*
X104673814Y-58785273D01*
X104673812Y-58785270D01*
X104673812Y-58785268D01*
X104633563Y-58709968D01*
X104626409Y-58659857D01*
X104646497Y-58622761D01*
X104927085Y-58342174D01*
X104972963Y-58320782D01*
X104979412Y-58320500D01*
X105536207Y-58320500D01*
X105583773Y-58337813D01*
X105609083Y-58381650D01*
X105600293Y-58431500D01*
X105583154Y-58451700D01*
X105574116Y-58459117D01*
X105574117Y-58459117D01*
X105449089Y-58611463D01*
X105356187Y-58785268D01*
X105298976Y-58973866D01*
X105279659Y-59170000D01*
X105298976Y-59366133D01*
X105356187Y-59554731D01*
X105423221Y-59680141D01*
X105449090Y-59728538D01*
X105574117Y-59880883D01*
X105726462Y-60005910D01*
X105900273Y-60098814D01*
X105952211Y-60114569D01*
X105992703Y-60144943D01*
X106004198Y-60194239D01*
X105983056Y-60237708D01*
X104391826Y-61828939D01*
X104345950Y-61850331D01*
X104297055Y-61837230D01*
X104268021Y-61795766D01*
X104265500Y-61776613D01*
X104265500Y-61409370D01*
X104265500Y-61409364D01*
X104254866Y-61336375D01*
X104199826Y-61223789D01*
X104111211Y-61135174D01*
X104111210Y-61135174D01*
X104111210Y-61135173D01*
X103998626Y-61080134D01*
X103925640Y-61069500D01*
X103925636Y-61069500D01*
X103404364Y-61069500D01*
X103404359Y-61069500D01*
X103331374Y-61080134D01*
X103331373Y-61080134D01*
X103218789Y-61135173D01*
X103150169Y-61203794D01*
X103104293Y-61225186D01*
X103055398Y-61212085D01*
X103045517Y-61203794D01*
X102541252Y-60699529D01*
X102532049Y-60688314D01*
X102520733Y-60671378D01*
X102520731Y-60671376D01*
X102500751Y-60658025D01*
X102500748Y-60658023D01*
X102455050Y-60627489D01*
X102429602Y-60610485D01*
X102417340Y-60608046D01*
X102349240Y-60594500D01*
X102349239Y-60594500D01*
X102349237Y-60594499D01*
X102322108Y-60589103D01*
X102322107Y-60589103D01*
X102302124Y-60593078D01*
X102287687Y-60594500D01*
X101159768Y-60594500D01*
X101112202Y-60577187D01*
X101107442Y-60572826D01*
X100760219Y-60225603D01*
X100738827Y-60179727D01*
X100751928Y-60130832D01*
X100793392Y-60101798D01*
X100834026Y-60102463D01*
X101008964Y-60155530D01*
X101055000Y-60160064D01*
X101055000Y-59738975D01*
X101072313Y-59691409D01*
X101116150Y-59666099D01*
X101139525Y-59665728D01*
X101169237Y-59670000D01*
X101169243Y-59670000D01*
X101240757Y-59670000D01*
X101240763Y-59670000D01*
X101270470Y-59665728D01*
X101320013Y-59676094D01*
X101351305Y-59715883D01*
X101355000Y-59738975D01*
X101355000Y-60160064D01*
X101401035Y-60155530D01*
X101589539Y-60098348D01*
X101763252Y-60005495D01*
X101763266Y-60005486D01*
X101915526Y-59880528D01*
X101915528Y-59880526D01*
X102040486Y-59728266D01*
X102040495Y-59728252D01*
X102133348Y-59554539D01*
X102190530Y-59366035D01*
X102195065Y-59320000D01*
X101779000Y-59320000D01*
X101731434Y-59302687D01*
X101706124Y-59258850D01*
X101705000Y-59246000D01*
X101705000Y-59094000D01*
X101722313Y-59046434D01*
X101766150Y-59021124D01*
X101779000Y-59020000D01*
X102195064Y-59020000D01*
X102190530Y-58973964D01*
X102133348Y-58785460D01*
X102040495Y-58611747D01*
X102040486Y-58611733D01*
X101915528Y-58459473D01*
X101915526Y-58459471D01*
X101763266Y-58334513D01*
X101763252Y-58334504D01*
X101589539Y-58241651D01*
X101401037Y-58184469D01*
X101355000Y-58179934D01*
X101355000Y-58601024D01*
X101337687Y-58648590D01*
X101293850Y-58673900D01*
X101270469Y-58674271D01*
X101240767Y-58670000D01*
X101240763Y-58670000D01*
X101169237Y-58670000D01*
X101169232Y-58670000D01*
X101139530Y-58674271D01*
X101089984Y-58663903D01*
X101058693Y-58624114D01*
X101054999Y-58601024D01*
X101054999Y-58179934D01*
X101008962Y-58184469D01*
X100820460Y-58241651D01*
X100646747Y-58334504D01*
X100646733Y-58334513D01*
X100494473Y-58459471D01*
X100494471Y-58459473D01*
X100369513Y-58611733D01*
X100369504Y-58611747D01*
X100276651Y-58785460D01*
X100219469Y-58973964D01*
X100214935Y-59020000D01*
X100631000Y-59020000D01*
X100678566Y-59037313D01*
X100703876Y-59081150D01*
X100705000Y-59094000D01*
X100705000Y-59246000D01*
X100687687Y-59293566D01*
X100643850Y-59318876D01*
X100631000Y-59320000D01*
X100214935Y-59320000D01*
X100219469Y-59366035D01*
X100272536Y-59540973D01*
X100269776Y-59591517D01*
X100235173Y-59628462D01*
X100184918Y-59634521D01*
X100149396Y-59614780D01*
X99685318Y-59150702D01*
X99664000Y-59105631D01*
X99651024Y-58973868D01*
X99593814Y-58785273D01*
X99593812Y-58785270D01*
X99593812Y-58785268D01*
X99527692Y-58661567D01*
X99500910Y-58611462D01*
X99375883Y-58459117D01*
X99223538Y-58334090D01*
X99213597Y-58328776D01*
X99049731Y-58241187D01*
X98861133Y-58183976D01*
X98665000Y-58164659D01*
X98468866Y-58183976D01*
X98280268Y-58241187D01*
X98106463Y-58334089D01*
X97954117Y-58459117D01*
X97829089Y-58611463D01*
X97736187Y-58785268D01*
X97678976Y-58973866D01*
X97659659Y-59170000D01*
X97678976Y-59366133D01*
X97736187Y-59554731D01*
X97803221Y-59680141D01*
X97829090Y-59728538D01*
X97954117Y-59880883D01*
X98106462Y-60005910D01*
X98156568Y-60032692D01*
X98245519Y-60080238D01*
X98279308Y-60117929D01*
X98280964Y-60168521D01*
X98249713Y-60208341D01*
X98210636Y-60219500D01*
X97161147Y-60219500D01*
X97113581Y-60202187D01*
X97088271Y-60158350D01*
X97097061Y-60108500D01*
X97099618Y-60104389D01*
X97115754Y-60080238D01*
X97116767Y-60078722D01*
X97125500Y-60034820D01*
X97125500Y-58305180D01*
X97116767Y-58261278D01*
X97083504Y-58211496D01*
X97033722Y-58178233D01*
X96989820Y-58169500D01*
X95260180Y-58169500D01*
X95238619Y-58173789D01*
X95216277Y-58178233D01*
X95166496Y-58211495D01*
X95166495Y-58211496D01*
X95133233Y-58261277D01*
X95124500Y-58305180D01*
X95124500Y-58745500D01*
X95107187Y-58793066D01*
X95063350Y-58818376D01*
X95050500Y-58819500D01*
X94289500Y-58819500D01*
X94241934Y-58802187D01*
X94216624Y-58758350D01*
X94215500Y-58745500D01*
X94215500Y-58359370D01*
X94215500Y-58359364D01*
X94204866Y-58286375D01*
X94149826Y-58173789D01*
X94061211Y-58085174D01*
X94061210Y-58085174D01*
X94061210Y-58085173D01*
X93948626Y-58030134D01*
X93875640Y-58019500D01*
X93875636Y-58019500D01*
X93354364Y-58019500D01*
X93354359Y-58019500D01*
X93281374Y-58030134D01*
X93281373Y-58030134D01*
X93168789Y-58085173D01*
X93080173Y-58173789D01*
X93025134Y-58286373D01*
X93025134Y-58286374D01*
X93014500Y-58359359D01*
X93014500Y-58880640D01*
X93025134Y-58953625D01*
X93025134Y-58953626D01*
X93080173Y-59066210D01*
X93080174Y-59066211D01*
X93168789Y-59154826D01*
X93281375Y-59209866D01*
X93354364Y-59220500D01*
X93758629Y-59220500D01*
X93806195Y-59237813D01*
X93830363Y-59276332D01*
X93837038Y-59302687D01*
X93839585Y-59312743D01*
X93839586Y-59312744D01*
X93903562Y-59410668D01*
X93995872Y-59482516D01*
X93995873Y-59482516D01*
X93995874Y-59482517D01*
X94106512Y-59520500D01*
X95050500Y-59520500D01*
X95098066Y-59537813D01*
X95123376Y-59581650D01*
X95124500Y-59594500D01*
X95124500Y-60034820D01*
X95127541Y-60050107D01*
X95133233Y-60078723D01*
X95150382Y-60104389D01*
X95162413Y-60153557D01*
X95140024Y-60198956D01*
X95093692Y-60219342D01*
X95088853Y-60219500D01*
X94759025Y-60219500D01*
X94743840Y-60217925D01*
X94729685Y-60214957D01*
X94695518Y-60219216D01*
X94690939Y-60219500D01*
X94685960Y-60219500D01*
X94685957Y-60219500D01*
X94685950Y-60219501D01*
X94664459Y-60223087D01*
X94613607Y-60229426D01*
X94607730Y-60231176D01*
X94607629Y-60230837D01*
X94605300Y-60231583D01*
X94605415Y-60231918D01*
X94599619Y-60233907D01*
X94554554Y-60258295D01*
X94508516Y-60280801D01*
X94503529Y-60284362D01*
X94503324Y-60284075D01*
X94501365Y-60285535D01*
X94501582Y-60285814D01*
X94496742Y-60289581D01*
X94462042Y-60327275D01*
X94341826Y-60447491D01*
X94295950Y-60468883D01*
X94247055Y-60455782D01*
X94218021Y-60414318D01*
X94215500Y-60395165D01*
X94215500Y-60059370D01*
X94215500Y-60059364D01*
X94204866Y-59986375D01*
X94149826Y-59873789D01*
X94061211Y-59785174D01*
X94061210Y-59785174D01*
X94061210Y-59785173D01*
X93948626Y-59730134D01*
X93875640Y-59719500D01*
X93875636Y-59719500D01*
X93354364Y-59719500D01*
X93354359Y-59719500D01*
X93281374Y-59730134D01*
X93281373Y-59730134D01*
X93168789Y-59785173D01*
X93080173Y-59873789D01*
X93025134Y-59986373D01*
X93025134Y-59986374D01*
X93014500Y-60059359D01*
X93014500Y-60059364D01*
X93014500Y-60580636D01*
X93018493Y-60608046D01*
X93022396Y-60634831D01*
X93012122Y-60684397D01*
X92972391Y-60715762D01*
X92949169Y-60719500D01*
X92880831Y-60719500D01*
X92833265Y-60702187D01*
X92807955Y-60658350D01*
X92807604Y-60634831D01*
X92811507Y-60608046D01*
X92815500Y-60580636D01*
X92815500Y-60059364D01*
X92804866Y-59986375D01*
X92749826Y-59873789D01*
X92661211Y-59785174D01*
X92661210Y-59785174D01*
X92661210Y-59785173D01*
X92548626Y-59730134D01*
X92475640Y-59719500D01*
X92475636Y-59719500D01*
X91954364Y-59719500D01*
X91954359Y-59719500D01*
X91881374Y-59730134D01*
X91881373Y-59730134D01*
X91768789Y-59785173D01*
X91680173Y-59873789D01*
X91625134Y-59986373D01*
X91625134Y-59986374D01*
X91614500Y-60059359D01*
X91614500Y-60580636D01*
X91625134Y-60653625D01*
X91625134Y-60653626D01*
X91680173Y-60766210D01*
X91680174Y-60766211D01*
X91768789Y-60854826D01*
X91881375Y-60909866D01*
X91901169Y-60912749D01*
X91945741Y-60936738D01*
X91964467Y-60983766D01*
X91964500Y-60985976D01*
X91964500Y-61053980D01*
X91964374Y-61057020D01*
X91963341Y-61069500D01*
X91960867Y-61099341D01*
X91969941Y-61135173D01*
X91987318Y-61203794D01*
X91989585Y-61212743D01*
X91989586Y-61212744D01*
X92050623Y-61306170D01*
X92053563Y-61310669D01*
X92070801Y-61324086D01*
X92145872Y-61382516D01*
X92145873Y-61382516D01*
X92145874Y-61382517D01*
X92256512Y-61420500D01*
X93290500Y-61420500D01*
X93338066Y-61437813D01*
X93363376Y-61481650D01*
X93364500Y-61494500D01*
X93364500Y-65404169D01*
X93347187Y-65451735D01*
X93303350Y-65477045D01*
X93279831Y-65477395D01*
X93270184Y-65475990D01*
X93225641Y-65469500D01*
X93225636Y-65469500D01*
X92704364Y-65469500D01*
X92704359Y-65469500D01*
X92631374Y-65480134D01*
X92631373Y-65480134D01*
X92518789Y-65535173D01*
X92430173Y-65623789D01*
X92375134Y-65736373D01*
X92375134Y-65736374D01*
X92364500Y-65809359D01*
X92364500Y-66330640D01*
X92375134Y-66403625D01*
X92375134Y-66403626D01*
X92430173Y-66516210D01*
X92430174Y-66516211D01*
X92518789Y-66604826D01*
X92631375Y-66659866D01*
X92704364Y-66670500D01*
X92704370Y-66670500D01*
X93090166Y-66670500D01*
X93137732Y-66687813D01*
X93163042Y-66731650D01*
X93154252Y-66781500D01*
X93142492Y-66796826D01*
X93091492Y-66847826D01*
X93045616Y-66869218D01*
X93039166Y-66869500D01*
X92704359Y-66869500D01*
X92631374Y-66880134D01*
X92631373Y-66880134D01*
X92518789Y-66935173D01*
X92430173Y-67023789D01*
X92375134Y-67136373D01*
X92375134Y-67136374D01*
X92372250Y-67156170D01*
X92348259Y-67200743D01*
X92301230Y-67219467D01*
X92299023Y-67219500D01*
X91930977Y-67219500D01*
X91883411Y-67202187D01*
X91858101Y-67158350D01*
X91857750Y-67156170D01*
X91857318Y-67153205D01*
X91854866Y-67136375D01*
X91799826Y-67023789D01*
X91711211Y-66935174D01*
X91711210Y-66935174D01*
X91711210Y-66935173D01*
X91598626Y-66880134D01*
X91525640Y-66869500D01*
X91525636Y-66869500D01*
X91004364Y-66869500D01*
X91004359Y-66869500D01*
X90931374Y-66880134D01*
X90931373Y-66880134D01*
X90818789Y-66935173D01*
X90730174Y-67023788D01*
X90705981Y-67073277D01*
X90669536Y-67108406D01*
X90619037Y-67111891D01*
X90578113Y-67082100D01*
X90565500Y-67040776D01*
X90565500Y-66955180D01*
X90564634Y-66950827D01*
X90556767Y-66911278D01*
X90523504Y-66861496D01*
X90503045Y-66847826D01*
X90473722Y-66828233D01*
X90473721Y-66828232D01*
X90429820Y-66819500D01*
X89400180Y-66819500D01*
X89378228Y-66823866D01*
X89356277Y-66828233D01*
X89306496Y-66861495D01*
X89306495Y-66861496D01*
X89273233Y-66911277D01*
X89273232Y-66911278D01*
X89273233Y-66911278D01*
X89264500Y-66955180D01*
X89264500Y-67984820D01*
X89268480Y-68004826D01*
X89273233Y-68028722D01*
X89294042Y-68059866D01*
X89306496Y-68078504D01*
X89356278Y-68111767D01*
X89400180Y-68120500D01*
X89440500Y-68120500D01*
X89488066Y-68137813D01*
X89513376Y-68181650D01*
X89514500Y-68194500D01*
X89514500Y-68533432D01*
X89522562Y-68558249D01*
X89525270Y-68569533D01*
X89529351Y-68595296D01*
X89529353Y-68595302D01*
X89541198Y-68618549D01*
X89545641Y-68629277D01*
X89553702Y-68654088D01*
X89553703Y-68654089D01*
X89569038Y-68675197D01*
X89575103Y-68685094D01*
X89586949Y-68708341D01*
X89608523Y-68729915D01*
X89608537Y-68729930D01*
X90380222Y-69501615D01*
X90380232Y-69501624D01*
X90401658Y-69523050D01*
X90421231Y-69533023D01*
X90424903Y-69534894D01*
X90434797Y-69540956D01*
X90455911Y-69556296D01*
X90480725Y-69564358D01*
X90491443Y-69568798D01*
X90514696Y-69580646D01*
X90540467Y-69584727D01*
X90551751Y-69587436D01*
X90566111Y-69592102D01*
X90576566Y-69595500D01*
X90576567Y-69595500D01*
X90608481Y-69595500D01*
X91118455Y-69595500D01*
X91166021Y-69612813D01*
X91170781Y-69617174D01*
X91352921Y-69799313D01*
X91531950Y-69978342D01*
X91621658Y-70068050D01*
X91644899Y-70079891D01*
X91654803Y-70085960D01*
X91675909Y-70101296D01*
X91687135Y-70104943D01*
X91700721Y-70109357D01*
X91711449Y-70113801D01*
X91734691Y-70125644D01*
X91734693Y-70125644D01*
X91734696Y-70125646D01*
X91760464Y-70129726D01*
X91771754Y-70132436D01*
X91796567Y-70140499D01*
X91826950Y-70140499D01*
X91826974Y-70140500D01*
X91828481Y-70140500D01*
X93690500Y-70140500D01*
X93738066Y-70157813D01*
X93763376Y-70201650D01*
X93764500Y-70214500D01*
X93764500Y-71625974D01*
X93762925Y-71641159D01*
X93759957Y-71655311D01*
X93759957Y-71655315D01*
X93764216Y-71689479D01*
X93764500Y-71694060D01*
X93764500Y-71699047D01*
X93768087Y-71720540D01*
X93773169Y-71761307D01*
X93774427Y-71771393D01*
X93774429Y-71771397D01*
X93776176Y-71777265D01*
X93775834Y-71777366D01*
X93776580Y-71779695D01*
X93776916Y-71779580D01*
X93778907Y-71785380D01*
X93803295Y-71830445D01*
X93825801Y-71876483D01*
X93829366Y-71881476D01*
X93829075Y-71881683D01*
X93830533Y-71883639D01*
X93830816Y-71883420D01*
X93834581Y-71888258D01*
X93842529Y-71895574D01*
X93872275Y-71922957D01*
X94037988Y-72088670D01*
X94106030Y-72156712D01*
X94115652Y-72168561D01*
X94123563Y-72180669D01*
X94150731Y-72201814D01*
X94154166Y-72204848D01*
X94157694Y-72208376D01*
X94175441Y-72221047D01*
X94215874Y-72252517D01*
X94215876Y-72252517D01*
X94221266Y-72255434D01*
X94221095Y-72255750D01*
X94223265Y-72256867D01*
X94223423Y-72256546D01*
X94228932Y-72259239D01*
X94228933Y-72259239D01*
X94228934Y-72259240D01*
X94278045Y-72273861D01*
X94326512Y-72290500D01*
X94326517Y-72290500D01*
X94332563Y-72291510D01*
X94332504Y-72291861D01*
X94334917Y-72292213D01*
X94334962Y-72291858D01*
X94341043Y-72292616D01*
X94341046Y-72292617D01*
X94344236Y-72292485D01*
X94346976Y-72293355D01*
X94347131Y-72293375D01*
X94347127Y-72293403D01*
X94392476Y-72307814D01*
X94419578Y-72350566D01*
X94413777Y-72398921D01*
X94385620Y-72456516D01*
X94375000Y-72529407D01*
X94375000Y-72529418D01*
X94374999Y-72639999D01*
X94375000Y-72640000D01*
X95574999Y-72640000D01*
X95575000Y-72529418D01*
X95574999Y-72529407D01*
X95564379Y-72456517D01*
X95535283Y-72397001D01*
X95529946Y-72346664D01*
X95558213Y-72304673D01*
X95601764Y-72290500D01*
X95748236Y-72290500D01*
X95795802Y-72307813D01*
X95821112Y-72351650D01*
X95814717Y-72397001D01*
X95785620Y-72456517D01*
X95775000Y-72529407D01*
X95775000Y-72529418D01*
X95774999Y-72639999D01*
X95775000Y-72640000D01*
X96974999Y-72640000D01*
X96975000Y-72529418D01*
X96974999Y-72529407D01*
X96964379Y-72456517D01*
X96935283Y-72397001D01*
X96929946Y-72346664D01*
X96958213Y-72304673D01*
X97001764Y-72290500D01*
X97148236Y-72290500D01*
X97195802Y-72307813D01*
X97221112Y-72351650D01*
X97214717Y-72397001D01*
X97185620Y-72456517D01*
X97175000Y-72529407D01*
X97175000Y-72529418D01*
X97174999Y-72639999D01*
X97175000Y-72640000D01*
X98374999Y-72640000D01*
X98375000Y-72529418D01*
X98374999Y-72529407D01*
X98364379Y-72456517D01*
X98335283Y-72397001D01*
X98329946Y-72346664D01*
X98358213Y-72304673D01*
X98401764Y-72290500D01*
X98548236Y-72290500D01*
X98595802Y-72307813D01*
X98621112Y-72351650D01*
X98614717Y-72397001D01*
X98585620Y-72456517D01*
X98575000Y-72529407D01*
X98575000Y-72529418D01*
X98574999Y-72639999D01*
X98575000Y-72640000D01*
X99774999Y-72640000D01*
X99774999Y-72639999D01*
X99974999Y-72639999D01*
X99975000Y-72640000D01*
X100425000Y-72640000D01*
X100425000Y-72190000D01*
X100725000Y-72190000D01*
X100725000Y-72640000D01*
X101174999Y-72640000D01*
X101174999Y-72639999D01*
X101374999Y-72639999D01*
X101375000Y-72640000D01*
X101825000Y-72640000D01*
X101825000Y-72190000D01*
X102125000Y-72190000D01*
X102125000Y-72640000D01*
X102574999Y-72640000D01*
X102574999Y-72639999D01*
X102774999Y-72639999D01*
X102775000Y-72640000D01*
X103225000Y-72640000D01*
X103225000Y-72190000D01*
X103525000Y-72190000D01*
X103525000Y-72640000D01*
X103974999Y-72640000D01*
X103974999Y-72639999D01*
X104174999Y-72639999D01*
X104175000Y-72640000D01*
X104624999Y-72640000D01*
X104624999Y-72639999D01*
X104924999Y-72639999D01*
X104925000Y-72640000D01*
X105374999Y-72640000D01*
X105375000Y-72529418D01*
X105374999Y-72529407D01*
X105364379Y-72456517D01*
X105309412Y-72344082D01*
X105220917Y-72255587D01*
X105108482Y-72200620D01*
X105035592Y-72190000D01*
X104925000Y-72190000D01*
X104924999Y-72639999D01*
X104624999Y-72639999D01*
X104625000Y-72190000D01*
X104514407Y-72190000D01*
X104441517Y-72200620D01*
X104329082Y-72255587D01*
X104240587Y-72344082D01*
X104185620Y-72456517D01*
X104175000Y-72529407D01*
X104175000Y-72529418D01*
X104174999Y-72639999D01*
X103974999Y-72639999D01*
X103975000Y-72529418D01*
X103974999Y-72529407D01*
X103964379Y-72456517D01*
X103909412Y-72344082D01*
X103820917Y-72255587D01*
X103708482Y-72200620D01*
X103635592Y-72190000D01*
X103525000Y-72190000D01*
X103225000Y-72190000D01*
X103114407Y-72190000D01*
X103041517Y-72200620D01*
X102929082Y-72255587D01*
X102840587Y-72344082D01*
X102785620Y-72456517D01*
X102775000Y-72529407D01*
X102775000Y-72529418D01*
X102774999Y-72639999D01*
X102574999Y-72639999D01*
X102575000Y-72529418D01*
X102574999Y-72529407D01*
X102564379Y-72456517D01*
X102509412Y-72344082D01*
X102420917Y-72255587D01*
X102308482Y-72200620D01*
X102235592Y-72190000D01*
X102125000Y-72190000D01*
X101825000Y-72190000D01*
X101714407Y-72190000D01*
X101641517Y-72200620D01*
X101529082Y-72255587D01*
X101440587Y-72344082D01*
X101385620Y-72456517D01*
X101375000Y-72529407D01*
X101375000Y-72529418D01*
X101374999Y-72639999D01*
X101174999Y-72639999D01*
X101175000Y-72529418D01*
X101174999Y-72529407D01*
X101164379Y-72456517D01*
X101109412Y-72344082D01*
X101020917Y-72255587D01*
X100908482Y-72200620D01*
X100835592Y-72190000D01*
X100725000Y-72190000D01*
X100425000Y-72190000D01*
X100314407Y-72190000D01*
X100241517Y-72200620D01*
X100129082Y-72255587D01*
X100040587Y-72344082D01*
X99985620Y-72456517D01*
X99975000Y-72529407D01*
X99975000Y-72529418D01*
X99974999Y-72639999D01*
X99774999Y-72639999D01*
X99775000Y-72529418D01*
X99774999Y-72529407D01*
X99764379Y-72456517D01*
X99732387Y-72391077D01*
X99727050Y-72340740D01*
X99755317Y-72298749D01*
X99789712Y-72285145D01*
X99826393Y-72280573D01*
X99826399Y-72280569D01*
X99832268Y-72278823D01*
X99832371Y-72279170D01*
X99834696Y-72278425D01*
X99834579Y-72278084D01*
X99840379Y-72276092D01*
X99840381Y-72276092D01*
X99862912Y-72263898D01*
X99885445Y-72251704D01*
X99931484Y-72229198D01*
X99936476Y-72225634D01*
X99936684Y-72225926D01*
X99938640Y-72224468D01*
X99938419Y-72224184D01*
X99943253Y-72220420D01*
X99943258Y-72220418D01*
X99977957Y-72182724D01*
X100205855Y-71954826D01*
X100448508Y-71712174D01*
X100494385Y-71690782D01*
X100500834Y-71690500D01*
X100835630Y-71690500D01*
X100835636Y-71690500D01*
X100908625Y-71679866D01*
X101021211Y-71624826D01*
X101109826Y-71536211D01*
X101164866Y-71423625D01*
X101164866Y-71423623D01*
X101166562Y-71418136D01*
X101169390Y-71419010D01*
X101188104Y-71384251D01*
X101235135Y-71365533D01*
X101237334Y-71365500D01*
X101312666Y-71365500D01*
X101360232Y-71382813D01*
X101381051Y-71418873D01*
X101383438Y-71418136D01*
X101385133Y-71423624D01*
X101440173Y-71536210D01*
X101440174Y-71536211D01*
X101528789Y-71624826D01*
X101641375Y-71679866D01*
X101714364Y-71690500D01*
X101714370Y-71690500D01*
X102235630Y-71690500D01*
X102235636Y-71690500D01*
X102308625Y-71679866D01*
X102421211Y-71624826D01*
X102509826Y-71536211D01*
X102564866Y-71423625D01*
X102575500Y-71350636D01*
X102575499Y-71081950D01*
X102592812Y-71034385D01*
X102597173Y-71029625D01*
X102648174Y-70978624D01*
X102694050Y-70957232D01*
X102742945Y-70970333D01*
X102771979Y-71011797D01*
X102774500Y-71030950D01*
X102774500Y-71350640D01*
X102785134Y-71423625D01*
X102785134Y-71423626D01*
X102840173Y-71536210D01*
X102840174Y-71536211D01*
X102928789Y-71624826D01*
X103041375Y-71679866D01*
X103114364Y-71690500D01*
X103114370Y-71690500D01*
X103635630Y-71690500D01*
X103635636Y-71690500D01*
X103708625Y-71679866D01*
X103821211Y-71624826D01*
X103909826Y-71536211D01*
X103964866Y-71423625D01*
X103964866Y-71423623D01*
X103966562Y-71418136D01*
X103969390Y-71419010D01*
X103988104Y-71384251D01*
X104035135Y-71365533D01*
X104037334Y-71365500D01*
X104112666Y-71365500D01*
X104160232Y-71382813D01*
X104181051Y-71418873D01*
X104183438Y-71418136D01*
X104185133Y-71423624D01*
X104240173Y-71536210D01*
X104240174Y-71536211D01*
X104328789Y-71624826D01*
X104441375Y-71679866D01*
X104514364Y-71690500D01*
X104514370Y-71690500D01*
X105035630Y-71690500D01*
X105035636Y-71690500D01*
X105108625Y-71679866D01*
X105221211Y-71624826D01*
X105309826Y-71536211D01*
X105364866Y-71423625D01*
X105375500Y-71350636D01*
X105375500Y-70829364D01*
X105364866Y-70756375D01*
X105309826Y-70643789D01*
X105221211Y-70555174D01*
X105108625Y-70500134D01*
X105108623Y-70500133D01*
X105105526Y-70499682D01*
X105103319Y-70498494D01*
X105103137Y-70498438D01*
X105103148Y-70498402D01*
X105060954Y-70475691D01*
X105043620Y-70440893D01*
X105039961Y-70422494D01*
X105034515Y-70395114D01*
X105034513Y-70395111D01*
X105031725Y-70388378D01*
X105033185Y-70387772D01*
X105023690Y-70356465D01*
X105023690Y-70214500D01*
X105023690Y-70061373D01*
X105041002Y-70013810D01*
X105045352Y-70009061D01*
X105295472Y-69758941D01*
X105306676Y-69749746D01*
X105323624Y-69738423D01*
X105341975Y-69710960D01*
X105367514Y-69672737D01*
X105384515Y-69647294D01*
X105389036Y-69624561D01*
X105415295Y-69581288D01*
X105461611Y-69564999D01*
X105475000Y-69564998D01*
X105475000Y-68914000D01*
X105492313Y-68866434D01*
X105536150Y-68841124D01*
X105549000Y-68840000D01*
X105701000Y-68840000D01*
X105748566Y-68857313D01*
X105773876Y-68901150D01*
X105775000Y-68914000D01*
X105775000Y-69564999D01*
X105790056Y-69580055D01*
X105796256Y-69582312D01*
X105821566Y-69626149D01*
X105822690Y-69638999D01*
X105822690Y-70885620D01*
X105805377Y-70933186D01*
X105801017Y-70937945D01*
X105765173Y-70973789D01*
X105710134Y-71086373D01*
X105710134Y-71086374D01*
X105699500Y-71159359D01*
X105699500Y-71680640D01*
X105710134Y-71753625D01*
X105710134Y-71753626D01*
X105765173Y-71866210D01*
X105765174Y-71866211D01*
X105853789Y-71954826D01*
X105966375Y-72009866D01*
X106039364Y-72020500D01*
X106039370Y-72020500D01*
X106560630Y-72020500D01*
X106560636Y-72020500D01*
X106633625Y-72009866D01*
X106746211Y-71954826D01*
X106834826Y-71866211D01*
X106889866Y-71753625D01*
X106900500Y-71680636D01*
X106900500Y-71159364D01*
X106889866Y-71086375D01*
X106834826Y-70973789D01*
X106834018Y-70972981D01*
X106833582Y-70972047D01*
X106831262Y-70968797D01*
X106831865Y-70968365D01*
X106812626Y-70927105D01*
X106825727Y-70878210D01*
X106867191Y-70849176D01*
X106876682Y-70847288D01*
X106916899Y-70841994D01*
X106987358Y-70812809D01*
X107037930Y-70810601D01*
X107078088Y-70841416D01*
X107082155Y-70848669D01*
X107100001Y-70885174D01*
X107115174Y-70916211D01*
X107203789Y-71004826D01*
X107316375Y-71059866D01*
X107321864Y-71061562D01*
X107320981Y-71064418D01*
X107355648Y-71082991D01*
X107374463Y-71129983D01*
X107374500Y-71132333D01*
X107374500Y-71207665D01*
X107357187Y-71255231D01*
X107321125Y-71276051D01*
X107321863Y-71278438D01*
X107316377Y-71280132D01*
X107203788Y-71335174D01*
X107115173Y-71423789D01*
X107060134Y-71536373D01*
X107060134Y-71536374D01*
X107049500Y-71609359D01*
X107049500Y-72130640D01*
X107060134Y-72203625D01*
X107060134Y-72203626D01*
X107115173Y-72316210D01*
X107115174Y-72316211D01*
X107203789Y-72404826D01*
X107316375Y-72459866D01*
X107389364Y-72470500D01*
X107389370Y-72470500D01*
X107881232Y-72470500D01*
X107928798Y-72487813D01*
X107954108Y-72531650D01*
X107945318Y-72581500D01*
X107933558Y-72596826D01*
X107882558Y-72647826D01*
X107836682Y-72669218D01*
X107830232Y-72669500D01*
X107389359Y-72669500D01*
X107316374Y-72680134D01*
X107316373Y-72680134D01*
X107203789Y-72735173D01*
X107115173Y-72823789D01*
X107060134Y-72936373D01*
X107060134Y-72936374D01*
X107049500Y-73009359D01*
X107049500Y-73530640D01*
X107060134Y-73603625D01*
X107060134Y-73603626D01*
X107115173Y-73716210D01*
X107115174Y-73716211D01*
X107203789Y-73804826D01*
X107316375Y-73859866D01*
X107389364Y-73870500D01*
X107389370Y-73870500D01*
X107910630Y-73870500D01*
X107910636Y-73870500D01*
X107983625Y-73859866D01*
X108096211Y-73804826D01*
X108184826Y-73716211D01*
X108239866Y-73603625D01*
X108250500Y-73530636D01*
X108250500Y-73089766D01*
X108267813Y-73042201D01*
X108272174Y-73037441D01*
X108463290Y-72846325D01*
X108670472Y-72639142D01*
X108681676Y-72629947D01*
X108698624Y-72618624D01*
X108716164Y-72592375D01*
X108759516Y-72527494D01*
X108776912Y-72440034D01*
X108803170Y-72396760D01*
X108851102Y-72380489D01*
X108898280Y-72398834D01*
X108901815Y-72402145D01*
X108904082Y-72404412D01*
X109016517Y-72459379D01*
X109089407Y-72469999D01*
X109089418Y-72470000D01*
X109200000Y-72470000D01*
X109200000Y-71270000D01*
X109089407Y-71270000D01*
X109016517Y-71280620D01*
X108904082Y-71335587D01*
X108901825Y-71337845D01*
X108899216Y-71339061D01*
X108899091Y-71339151D01*
X108899074Y-71339127D01*
X108855949Y-71359237D01*
X108807054Y-71346136D01*
X108778020Y-71304672D01*
X108775499Y-71285519D01*
X108775499Y-71204572D01*
X108775499Y-71054479D01*
X108792812Y-71006915D01*
X108836649Y-70981605D01*
X108886499Y-70990395D01*
X108901825Y-71002155D01*
X108904082Y-71004412D01*
X109016517Y-71059379D01*
X109089407Y-71069999D01*
X109089418Y-71070000D01*
X109200000Y-71070000D01*
X109200000Y-69870000D01*
X109089407Y-69870000D01*
X109016517Y-69880620D01*
X108904081Y-69935587D01*
X108893518Y-69946151D01*
X108847641Y-69967542D01*
X108798747Y-69954439D01*
X108769715Y-69912973D01*
X108768616Y-69908260D01*
X108763118Y-69880620D01*
X108759515Y-69862505D01*
X108745503Y-69841536D01*
X108717292Y-69799313D01*
X108713072Y-69792998D01*
X108713062Y-69792985D01*
X108698624Y-69771376D01*
X108681683Y-69760056D01*
X108670470Y-69750854D01*
X108494145Y-69574529D01*
X108484942Y-69563314D01*
X108473626Y-69546378D01*
X108473624Y-69546376D01*
X108453644Y-69533025D01*
X108453641Y-69533023D01*
X108406698Y-69501657D01*
X108382496Y-69485485D01*
X108382497Y-69485485D01*
X108342313Y-69477492D01*
X108302133Y-69469500D01*
X108302132Y-69469500D01*
X108302130Y-69469499D01*
X108275001Y-69464103D01*
X108275000Y-69464103D01*
X108255017Y-69468078D01*
X108240580Y-69469500D01*
X107999000Y-69469500D01*
X107951434Y-69452187D01*
X107926124Y-69408350D01*
X107925000Y-69395500D01*
X107925000Y-69140000D01*
X107549000Y-69140000D01*
X107501434Y-69122687D01*
X107476124Y-69078850D01*
X107475000Y-69066000D01*
X107475000Y-68914000D01*
X107492313Y-68866434D01*
X107536150Y-68841124D01*
X107549000Y-68840000D01*
X107924999Y-68840000D01*
X107924999Y-68664500D01*
X107942312Y-68616934D01*
X107986149Y-68591624D01*
X107998999Y-68590500D01*
X108662796Y-68590500D01*
X108710362Y-68607813D01*
X108715122Y-68612174D01*
X109927826Y-69824878D01*
X109949218Y-69870754D01*
X109949500Y-69877204D01*
X109949500Y-69910518D01*
X109932187Y-69958084D01*
X109888350Y-69983394D01*
X109838500Y-69974604D01*
X109823174Y-69962844D01*
X109795917Y-69935587D01*
X109683482Y-69880620D01*
X109610592Y-69870000D01*
X109500000Y-69870000D01*
X109500000Y-71070000D01*
X109610582Y-71070000D01*
X109610592Y-71069999D01*
X109683482Y-71059379D01*
X109795917Y-71004412D01*
X109823174Y-70977156D01*
X109869050Y-70955764D01*
X109917945Y-70968865D01*
X109946979Y-71010329D01*
X109949500Y-71029482D01*
X109949500Y-71310518D01*
X109932187Y-71358084D01*
X109888350Y-71383394D01*
X109838500Y-71374604D01*
X109823174Y-71362844D01*
X109795917Y-71335587D01*
X109683482Y-71280620D01*
X109610592Y-71270000D01*
X109500000Y-71270000D01*
X109500000Y-72470000D01*
X109610582Y-72470000D01*
X109610592Y-72469999D01*
X109683482Y-72459379D01*
X109795917Y-72404412D01*
X109823173Y-72377156D01*
X109869049Y-72355763D01*
X109917944Y-72368863D01*
X109946978Y-72410327D01*
X109949500Y-72429481D01*
X109949500Y-72709811D01*
X109932187Y-72757377D01*
X109888350Y-72782687D01*
X109838500Y-72773897D01*
X109823174Y-72762137D01*
X109796210Y-72735173D01*
X109683626Y-72680134D01*
X109610640Y-72669500D01*
X109610636Y-72669500D01*
X109089364Y-72669500D01*
X109089359Y-72669500D01*
X109016374Y-72680134D01*
X109016373Y-72680134D01*
X108903789Y-72735173D01*
X108815173Y-72823789D01*
X108760134Y-72936373D01*
X108760134Y-72936374D01*
X108749500Y-73009359D01*
X108749500Y-73530640D01*
X108760134Y-73603625D01*
X108760134Y-73603626D01*
X108815173Y-73716210D01*
X108815174Y-73716211D01*
X108903789Y-73804826D01*
X109016375Y-73859866D01*
X109016887Y-73859940D01*
X109017250Y-73860136D01*
X109021865Y-73861562D01*
X109021584Y-73862468D01*
X109061459Y-73883930D01*
X109078795Y-73918729D01*
X109083658Y-73943174D01*
X109090485Y-73977495D01*
X109149782Y-74066239D01*
X109151377Y-74068625D01*
X109168314Y-74079942D01*
X109179529Y-74089145D01*
X109527826Y-74437442D01*
X109549218Y-74483318D01*
X109549500Y-74489768D01*
X109549500Y-74930640D01*
X109560134Y-75003625D01*
X109560134Y-75003626D01*
X109615173Y-75116210D01*
X109703789Y-75204826D01*
X109783000Y-75243550D01*
X109818130Y-75279995D01*
X109824500Y-75310031D01*
X109824500Y-75357665D01*
X109807187Y-75405231D01*
X109771125Y-75426051D01*
X109771863Y-75428438D01*
X109766377Y-75430132D01*
X109653785Y-75485176D01*
X109649566Y-75488188D01*
X109600793Y-75501733D01*
X109554724Y-75480758D01*
X109538206Y-75456279D01*
X109500855Y-75366103D01*
X109412615Y-75251107D01*
X109297619Y-75162867D01*
X109297617Y-75162866D01*
X109163702Y-75107397D01*
X109100312Y-75099052D01*
X109055412Y-75075678D01*
X109036041Y-75028913D01*
X109038582Y-75009172D01*
X109038551Y-75009168D01*
X109038825Y-75007283D01*
X109039269Y-75003839D01*
X109039379Y-75003481D01*
X109049999Y-74930592D01*
X109050000Y-74930581D01*
X109050000Y-74820000D01*
X108600000Y-74820000D01*
X108600000Y-75261659D01*
X108584708Y-75306707D01*
X108539136Y-75366096D01*
X108539132Y-75366104D01*
X108483663Y-75500019D01*
X108468368Y-75616190D01*
X108447327Y-75658856D01*
X108008358Y-76097826D01*
X107962482Y-76119218D01*
X107956032Y-76119500D01*
X107835180Y-76119500D01*
X107813229Y-76123866D01*
X107791277Y-76128233D01*
X107741496Y-76161495D01*
X107741495Y-76161496D01*
X107708233Y-76211277D01*
X107699500Y-76255180D01*
X107699500Y-76270500D01*
X107682187Y-76318066D01*
X107638350Y-76343376D01*
X107625500Y-76344500D01*
X107539000Y-76344500D01*
X107491434Y-76327187D01*
X107466124Y-76283350D01*
X107465000Y-76270500D01*
X107465000Y-76120000D01*
X106939000Y-76120000D01*
X106891434Y-76102687D01*
X106866124Y-76058850D01*
X106865000Y-76046000D01*
X106865000Y-75520000D01*
X107165000Y-75520000D01*
X107165000Y-75820000D01*
X107464999Y-75820000D01*
X107464999Y-75655221D01*
X107456298Y-75611475D01*
X107423144Y-75561856D01*
X107423143Y-75561855D01*
X107373527Y-75528703D01*
X107329773Y-75520000D01*
X107165000Y-75520000D01*
X106865000Y-75520000D01*
X106700230Y-75520000D01*
X106656474Y-75528702D01*
X106649744Y-75531491D01*
X106649301Y-75530422D01*
X106607384Y-75540674D01*
X106580510Y-75530891D01*
X106580456Y-75531022D01*
X106577455Y-75529779D01*
X106574337Y-75528644D01*
X106573722Y-75528233D01*
X106573721Y-75528232D01*
X106529820Y-75519500D01*
X106529819Y-75519500D01*
X106169665Y-75519500D01*
X106122099Y-75502187D01*
X106096789Y-75458350D01*
X106105579Y-75408500D01*
X106108139Y-75404384D01*
X106114410Y-75395000D01*
X106159515Y-75327495D01*
X106165529Y-75297260D01*
X106175500Y-75247133D01*
X106175500Y-75247128D01*
X106176911Y-75240033D01*
X106203167Y-75196761D01*
X106251099Y-75180488D01*
X106298277Y-75198832D01*
X106301814Y-75202144D01*
X106304082Y-75204412D01*
X106416517Y-75259379D01*
X106489407Y-75269999D01*
X106489418Y-75270000D01*
X106600000Y-75270000D01*
X106600000Y-74820000D01*
X106900000Y-74820000D01*
X106900000Y-75270000D01*
X107010582Y-75270000D01*
X107010592Y-75269999D01*
X107083482Y-75259379D01*
X107195917Y-75204412D01*
X107284412Y-75115917D01*
X107339379Y-75003482D01*
X107349999Y-74930592D01*
X107350000Y-74930581D01*
X107350000Y-74820000D01*
X107850000Y-74820000D01*
X107850000Y-74930592D01*
X107860620Y-75003482D01*
X107915587Y-75115917D01*
X108004082Y-75204412D01*
X108116517Y-75259379D01*
X108189407Y-75269999D01*
X108189418Y-75270000D01*
X108300000Y-75270000D01*
X108300000Y-74820000D01*
X107850000Y-74820000D01*
X107350000Y-74820000D01*
X106900000Y-74820000D01*
X106600000Y-74820000D01*
X106600000Y-74070000D01*
X106900000Y-74070000D01*
X106900000Y-74520000D01*
X107350000Y-74520000D01*
X107850000Y-74520000D01*
X108300000Y-74520000D01*
X108300000Y-74070000D01*
X108600000Y-74070000D01*
X108600000Y-74520000D01*
X109050000Y-74520000D01*
X109050000Y-74409418D01*
X109049999Y-74409407D01*
X109039379Y-74336517D01*
X108984412Y-74224082D01*
X108895917Y-74135587D01*
X108783482Y-74080620D01*
X108710592Y-74070000D01*
X108600000Y-74070000D01*
X108300000Y-74070000D01*
X108189407Y-74070000D01*
X108116517Y-74080620D01*
X108004082Y-74135587D01*
X107915587Y-74224082D01*
X107860620Y-74336517D01*
X107850000Y-74409407D01*
X107850000Y-74520000D01*
X107350000Y-74520000D01*
X107350000Y-74409418D01*
X107349999Y-74409407D01*
X107339379Y-74336517D01*
X107284412Y-74224082D01*
X107195917Y-74135587D01*
X107083482Y-74080620D01*
X107010592Y-74070000D01*
X106900000Y-74070000D01*
X106600000Y-74070000D01*
X106489407Y-74070000D01*
X106416517Y-74080620D01*
X106304082Y-74135587D01*
X106301826Y-74137844D01*
X106299218Y-74139059D01*
X106299091Y-74139151D01*
X106299074Y-74139127D01*
X106255950Y-74159236D01*
X106207055Y-74146135D01*
X106178021Y-74104671D01*
X106175500Y-74085518D01*
X106175500Y-73794500D01*
X106192813Y-73746934D01*
X106236650Y-73721624D01*
X106249500Y-73720500D01*
X106560630Y-73720500D01*
X106560636Y-73720500D01*
X106633625Y-73709866D01*
X106746211Y-73654826D01*
X106834826Y-73566211D01*
X106889866Y-73453625D01*
X106900500Y-73380636D01*
X106900500Y-72859364D01*
X106889866Y-72786375D01*
X106834826Y-72673789D01*
X106746211Y-72585174D01*
X106746210Y-72585174D01*
X106746210Y-72585173D01*
X106633626Y-72530134D01*
X106560640Y-72519500D01*
X106560636Y-72519500D01*
X106039364Y-72519500D01*
X106039359Y-72519500D01*
X105966374Y-72530134D01*
X105966373Y-72530134D01*
X105853789Y-72585173D01*
X105765173Y-72673789D01*
X105710134Y-72786373D01*
X105710134Y-72786374D01*
X105699500Y-72859359D01*
X105699500Y-73301734D01*
X105687041Y-73342828D01*
X105686012Y-73344369D01*
X105668885Y-73370001D01*
X105644533Y-73406445D01*
X105635332Y-73417657D01*
X105634523Y-73418465D01*
X105636105Y-73434523D01*
X105619103Y-73519999D01*
X105619103Y-73520000D01*
X105623078Y-73539983D01*
X105624500Y-73554420D01*
X105624500Y-74084811D01*
X105607187Y-74132377D01*
X105563350Y-74157687D01*
X105513500Y-74148897D01*
X105498174Y-74137137D01*
X105496210Y-74135173D01*
X105383626Y-74080134D01*
X105310640Y-74069500D01*
X105310636Y-74069500D01*
X104789364Y-74069500D01*
X104789359Y-74069500D01*
X104716374Y-74080134D01*
X104716373Y-74080134D01*
X104603789Y-74135173D01*
X104515173Y-74223789D01*
X104460134Y-74336373D01*
X104460134Y-74336374D01*
X104449500Y-74409359D01*
X104449500Y-74930640D01*
X104460134Y-75003625D01*
X104460134Y-75003626D01*
X104515173Y-75116210D01*
X104515174Y-75116211D01*
X104603789Y-75204826D01*
X104716375Y-75259866D01*
X104789364Y-75270500D01*
X104789370Y-75270500D01*
X105281232Y-75270500D01*
X105328798Y-75287813D01*
X105354108Y-75331650D01*
X105345318Y-75381500D01*
X105333558Y-75396826D01*
X105332558Y-75397826D01*
X105286682Y-75419218D01*
X105280232Y-75419500D01*
X104839359Y-75419500D01*
X104766374Y-75430134D01*
X104766373Y-75430134D01*
X104653789Y-75485173D01*
X104565173Y-75573789D01*
X104510134Y-75686373D01*
X104510134Y-75686374D01*
X104499500Y-75759359D01*
X104499500Y-76280640D01*
X104510134Y-76353625D01*
X104510134Y-76353626D01*
X104565173Y-76466210D01*
X104565174Y-76466211D01*
X104653789Y-76554826D01*
X104766375Y-76609866D01*
X104839364Y-76620500D01*
X104839370Y-76620500D01*
X105360630Y-76620500D01*
X105360636Y-76620500D01*
X105433625Y-76609866D01*
X105546211Y-76554826D01*
X105634826Y-76466211D01*
X105634826Y-76466209D01*
X105638174Y-76462862D01*
X105684050Y-76441470D01*
X105732944Y-76454571D01*
X105761978Y-76496035D01*
X105764500Y-76515188D01*
X105764500Y-77084820D01*
X105766426Y-77094500D01*
X105773233Y-77128722D01*
X105806495Y-77178503D01*
X105806496Y-77178504D01*
X105814208Y-77183657D01*
X105844140Y-77224478D01*
X105840829Y-77274989D01*
X105818145Y-77303894D01*
X105767325Y-77342890D01*
X105719049Y-77358112D01*
X105672283Y-77338741D01*
X105655795Y-77316682D01*
X105655535Y-77316151D01*
X105634826Y-77273789D01*
X105546211Y-77185174D01*
X105546210Y-77185174D01*
X105546210Y-77185173D01*
X105433626Y-77130134D01*
X105360640Y-77119500D01*
X105360636Y-77119500D01*
X104839364Y-77119500D01*
X104839359Y-77119500D01*
X104766374Y-77130134D01*
X104766373Y-77130134D01*
X104653789Y-77185173D01*
X104565173Y-77273789D01*
X104510134Y-77386373D01*
X104510134Y-77386374D01*
X104499500Y-77459359D01*
X104499500Y-77980640D01*
X104510134Y-78053625D01*
X104510134Y-78053626D01*
X104565173Y-78166210D01*
X104653789Y-78254826D01*
X104766375Y-78309866D01*
X104771864Y-78311562D01*
X104770982Y-78314414D01*
X104805662Y-78333007D01*
X104824462Y-78380005D01*
X104824499Y-78382333D01*
X104824499Y-78700526D01*
X104807186Y-78748092D01*
X104763349Y-78773402D01*
X104739831Y-78773753D01*
X104710643Y-78769501D01*
X104710642Y-78769500D01*
X104710636Y-78769500D01*
X104189364Y-78769500D01*
X104189359Y-78769500D01*
X104116374Y-78780134D01*
X104116373Y-78780134D01*
X104003789Y-78835173D01*
X103915173Y-78923789D01*
X103860134Y-79036373D01*
X103860134Y-79036374D01*
X103849500Y-79109359D01*
X103849500Y-79630640D01*
X103860134Y-79703625D01*
X103860134Y-79703626D01*
X103915173Y-79816210D01*
X103915174Y-79816211D01*
X104003789Y-79904826D01*
X104116375Y-79959866D01*
X104189364Y-79970500D01*
X104189370Y-79970500D01*
X104710630Y-79970500D01*
X104710636Y-79970500D01*
X104739831Y-79966246D01*
X104789396Y-79976520D01*
X104820762Y-80016250D01*
X104824500Y-80039473D01*
X104824500Y-80100526D01*
X104807187Y-80148092D01*
X104763350Y-80173402D01*
X104739833Y-80173753D01*
X104710645Y-80169501D01*
X104710641Y-80169500D01*
X104710636Y-80169500D01*
X104189364Y-80169500D01*
X104189359Y-80169500D01*
X104116374Y-80180134D01*
X104116373Y-80180134D01*
X104003789Y-80235173D01*
X103915173Y-80323789D01*
X103860134Y-80436373D01*
X103860134Y-80436374D01*
X103849500Y-80509359D01*
X103849500Y-81030640D01*
X103860134Y-81103625D01*
X103860134Y-81103626D01*
X103915173Y-81216210D01*
X103915174Y-81216211D01*
X104003789Y-81304826D01*
X104116375Y-81359866D01*
X104189364Y-81370500D01*
X104189370Y-81370500D01*
X104710630Y-81370500D01*
X104710636Y-81370500D01*
X104739831Y-81366246D01*
X104789396Y-81376520D01*
X104820762Y-81416250D01*
X104824500Y-81439473D01*
X104824500Y-81540231D01*
X104807187Y-81587797D01*
X104802826Y-81592557D01*
X104572558Y-81822826D01*
X104526682Y-81844218D01*
X104520232Y-81844500D01*
X104477334Y-81844500D01*
X104429768Y-81827187D01*
X104408948Y-81791126D01*
X104406562Y-81791864D01*
X104404866Y-81786375D01*
X104349826Y-81673789D01*
X104261210Y-81585173D01*
X104148626Y-81530134D01*
X104075640Y-81519500D01*
X104075636Y-81519500D01*
X103554364Y-81519500D01*
X103554359Y-81519500D01*
X103481374Y-81530134D01*
X103481373Y-81530134D01*
X103368789Y-81585173D01*
X103280173Y-81673789D01*
X103225134Y-81786373D01*
X103225134Y-81786374D01*
X103214500Y-81859359D01*
X103214500Y-82380640D01*
X103225134Y-82453625D01*
X103225134Y-82453626D01*
X103280173Y-82566210D01*
X103280174Y-82566211D01*
X103368789Y-82654826D01*
X103481375Y-82709866D01*
X103554364Y-82720500D01*
X103554370Y-82720500D01*
X104075630Y-82720500D01*
X104075636Y-82720500D01*
X104148625Y-82709866D01*
X104261211Y-82654826D01*
X104349826Y-82566211D01*
X104404866Y-82453625D01*
X104404867Y-82453621D01*
X104406562Y-82448136D01*
X104409390Y-82449010D01*
X104428104Y-82414251D01*
X104475135Y-82395533D01*
X104477334Y-82395500D01*
X104630580Y-82395500D01*
X104645016Y-82396921D01*
X104665000Y-82400897D01*
X104665001Y-82400897D01*
X104669622Y-82399977D01*
X104692132Y-82395500D01*
X104692133Y-82395500D01*
X104772495Y-82379515D01*
X104829858Y-82341186D01*
X104840622Y-82333994D01*
X104840622Y-82333993D01*
X104848636Y-82328639D01*
X104848639Y-82328636D01*
X104860816Y-82320500D01*
X104863624Y-82318624D01*
X104874948Y-82301674D01*
X104884141Y-82290473D01*
X105285473Y-81889141D01*
X105296674Y-81879948D01*
X105313624Y-81868624D01*
X105328992Y-81845623D01*
X105328994Y-81845622D01*
X105374515Y-81777494D01*
X105395897Y-81670000D01*
X105376922Y-81574605D01*
X105375500Y-81560168D01*
X105375500Y-80920000D01*
X105550000Y-80920000D01*
X105550000Y-81030592D01*
X105560620Y-81103482D01*
X105615587Y-81215917D01*
X105704082Y-81304412D01*
X105816517Y-81359379D01*
X105889407Y-81369999D01*
X105889418Y-81370000D01*
X106000000Y-81370000D01*
X106000000Y-80920000D01*
X106300000Y-80920000D01*
X106300000Y-81370000D01*
X106410582Y-81370000D01*
X106410592Y-81369999D01*
X106483482Y-81359379D01*
X106595917Y-81304412D01*
X106684412Y-81215917D01*
X106739379Y-81103482D01*
X106749999Y-81030592D01*
X106750000Y-81030581D01*
X106750000Y-80920000D01*
X108450000Y-80920000D01*
X108450000Y-81030592D01*
X108460620Y-81103482D01*
X108515587Y-81215917D01*
X108604082Y-81304412D01*
X108716517Y-81359379D01*
X108789407Y-81369999D01*
X108789418Y-81370000D01*
X108900000Y-81370000D01*
X108900000Y-80920000D01*
X109200000Y-80920000D01*
X109200000Y-81370000D01*
X109310582Y-81370000D01*
X109310592Y-81369999D01*
X109383482Y-81359379D01*
X109495917Y-81304412D01*
X109584412Y-81215917D01*
X109639379Y-81103482D01*
X109649999Y-81030592D01*
X109650000Y-81030581D01*
X109650000Y-80920000D01*
X109200000Y-80920000D01*
X108900000Y-80920000D01*
X108450000Y-80920000D01*
X106750000Y-80920000D01*
X106300000Y-80920000D01*
X106000000Y-80920000D01*
X105550000Y-80920000D01*
X105375500Y-80920000D01*
X105375500Y-80804420D01*
X105376922Y-80789983D01*
X105380897Y-80770000D01*
X105380897Y-80769999D01*
X105376922Y-80750015D01*
X105375500Y-80735579D01*
X105375500Y-80620000D01*
X105550000Y-80620000D01*
X106000000Y-80620000D01*
X106000000Y-80170000D01*
X106300000Y-80170000D01*
X106300000Y-80620000D01*
X106750000Y-80620000D01*
X108450000Y-80620000D01*
X108900000Y-80620000D01*
X108900000Y-80170000D01*
X109200000Y-80170000D01*
X109200000Y-80620000D01*
X109650000Y-80620000D01*
X109650000Y-80509418D01*
X109649999Y-80509407D01*
X109639379Y-80436517D01*
X109584412Y-80324082D01*
X109495917Y-80235587D01*
X109383482Y-80180620D01*
X109310592Y-80170000D01*
X109200000Y-80170000D01*
X108900000Y-80170000D01*
X108789407Y-80170000D01*
X108716517Y-80180620D01*
X108604082Y-80235587D01*
X108515587Y-80324082D01*
X108460620Y-80436517D01*
X108450000Y-80509407D01*
X108450000Y-80620000D01*
X106750000Y-80620000D01*
X106750000Y-80509418D01*
X106749999Y-80509407D01*
X106739379Y-80436517D01*
X106684412Y-80324082D01*
X106595917Y-80235587D01*
X106483482Y-80180620D01*
X106410592Y-80170000D01*
X106300000Y-80170000D01*
X106000000Y-80170000D01*
X105889407Y-80170000D01*
X105816517Y-80180620D01*
X105704082Y-80235587D01*
X105615587Y-80324082D01*
X105560620Y-80436517D01*
X105550000Y-80509407D01*
X105550000Y-80620000D01*
X105375500Y-80620000D01*
X105375500Y-79404420D01*
X105376922Y-79389983D01*
X105380897Y-79370000D01*
X105380897Y-79369999D01*
X105376922Y-79350015D01*
X105375500Y-79335579D01*
X105375500Y-78382333D01*
X105392813Y-78334767D01*
X105428872Y-78313947D01*
X105428136Y-78311562D01*
X105433623Y-78309866D01*
X105433625Y-78309866D01*
X105546211Y-78254826D01*
X105628983Y-78172053D01*
X105674858Y-78150662D01*
X105723752Y-78163763D01*
X105726315Y-78165641D01*
X105837375Y-78250861D01*
X105971291Y-78306330D01*
X106115000Y-78325250D01*
X106154877Y-78320000D01*
X106750000Y-78320000D01*
X107050000Y-78320000D01*
X107050000Y-78020000D01*
X106885230Y-78020000D01*
X106841473Y-78028703D01*
X106791856Y-78061855D01*
X106791855Y-78061856D01*
X106758703Y-78111472D01*
X106750000Y-78155226D01*
X106750000Y-78320000D01*
X106154877Y-78320000D01*
X106258709Y-78306330D01*
X106392625Y-78250861D01*
X106507621Y-78162621D01*
X106595861Y-78047625D01*
X106651330Y-77913709D01*
X106670250Y-77770000D01*
X106651330Y-77626291D01*
X106607303Y-77520000D01*
X107700001Y-77520000D01*
X107700001Y-77684778D01*
X107708701Y-77728524D01*
X107741855Y-77778143D01*
X107741856Y-77778144D01*
X107791472Y-77811296D01*
X107835226Y-77819999D01*
X107999999Y-77819999D01*
X108000000Y-77819998D01*
X108000000Y-77520000D01*
X107700001Y-77520000D01*
X106607303Y-77520000D01*
X106595861Y-77492375D01*
X106595859Y-77492372D01*
X106505792Y-77374994D01*
X106490500Y-77329946D01*
X106490500Y-77289051D01*
X106507813Y-77241485D01*
X106550062Y-77216473D01*
X106573722Y-77211767D01*
X106573884Y-77211658D01*
X106574129Y-77211598D01*
X106580456Y-77208978D01*
X106580859Y-77209951D01*
X106623049Y-77199623D01*
X106649440Y-77209228D01*
X106649544Y-77208978D01*
X106655283Y-77211355D01*
X106656114Y-77211657D01*
X106656278Y-77211767D01*
X106700180Y-77220500D01*
X106700181Y-77220500D01*
X107329819Y-77220500D01*
X107329820Y-77220500D01*
X107373722Y-77211767D01*
X107423504Y-77178504D01*
X107456767Y-77128722D01*
X107465500Y-77084820D01*
X107465499Y-76919499D01*
X107482813Y-76871934D01*
X107526650Y-76846624D01*
X107539500Y-76845500D01*
X107630949Y-76845500D01*
X107678515Y-76862813D01*
X107703527Y-76905063D01*
X107708233Y-76928722D01*
X107708644Y-76929337D01*
X107708869Y-76930260D01*
X107711022Y-76935456D01*
X107710222Y-76935787D01*
X107720675Y-76978506D01*
X107711175Y-77004607D01*
X107711492Y-77004739D01*
X107708703Y-77011471D01*
X107700000Y-77055226D01*
X107700000Y-77220000D01*
X108226000Y-77220000D01*
X108273566Y-77237313D01*
X108298876Y-77281150D01*
X108300000Y-77294000D01*
X108300000Y-77819999D01*
X108464779Y-77819999D01*
X108508526Y-77811298D01*
X108515262Y-77808508D01*
X108515705Y-77809579D01*
X108557605Y-77799325D01*
X108584487Y-77809108D01*
X108584542Y-77808977D01*
X108587555Y-77810225D01*
X108590663Y-77811356D01*
X108597338Y-77815816D01*
X108596579Y-77816950D01*
X108627950Y-77845694D01*
X108634560Y-77895879D01*
X108621021Y-77924914D01*
X108569640Y-77991874D01*
X108569639Y-77991875D01*
X108543154Y-78055818D01*
X108508956Y-78093138D01*
X108458770Y-78099745D01*
X108416079Y-78072547D01*
X108413258Y-78068610D01*
X108408506Y-78061498D01*
X108408503Y-78061495D01*
X108358722Y-78028233D01*
X108358721Y-78028232D01*
X108314820Y-78019500D01*
X107685180Y-78019500D01*
X107670546Y-78022411D01*
X107641276Y-78028233D01*
X107641275Y-78028233D01*
X107640657Y-78028647D01*
X107639731Y-78028873D01*
X107634544Y-78031022D01*
X107634213Y-78030223D01*
X107591488Y-78040675D01*
X107565392Y-78031174D01*
X107565261Y-78031492D01*
X107558528Y-78028703D01*
X107514773Y-78020000D01*
X107350000Y-78020000D01*
X107350000Y-78546000D01*
X107332687Y-78593566D01*
X107288850Y-78618876D01*
X107276000Y-78620000D01*
X106750001Y-78620000D01*
X106750001Y-78784775D01*
X106753110Y-78800408D01*
X106745407Y-78850438D01*
X106707349Y-78883812D01*
X106656742Y-78884914D01*
X106628205Y-78867168D01*
X106596210Y-78835173D01*
X106483626Y-78780134D01*
X106410640Y-78769500D01*
X106410636Y-78769500D01*
X105889364Y-78769500D01*
X105889359Y-78769500D01*
X105816374Y-78780134D01*
X105816373Y-78780134D01*
X105703789Y-78835173D01*
X105615173Y-78923789D01*
X105560134Y-79036373D01*
X105560134Y-79036374D01*
X105549500Y-79109359D01*
X105549500Y-79630640D01*
X105560134Y-79703625D01*
X105560134Y-79703626D01*
X105615173Y-79816210D01*
X105615174Y-79816211D01*
X105703789Y-79904826D01*
X105816375Y-79959866D01*
X105889364Y-79970500D01*
X105889370Y-79970500D01*
X106410630Y-79970500D01*
X106410636Y-79970500D01*
X106483625Y-79959866D01*
X106596211Y-79904826D01*
X106684826Y-79816211D01*
X106724647Y-79734754D01*
X106761090Y-79699626D01*
X106811589Y-79696141D01*
X106832239Y-79705727D01*
X106841278Y-79711767D01*
X106885180Y-79720500D01*
X106885181Y-79720500D01*
X107514819Y-79720500D01*
X107514820Y-79720500D01*
X107558722Y-79711767D01*
X107558884Y-79711658D01*
X107559129Y-79711598D01*
X107565456Y-79708978D01*
X107565859Y-79709951D01*
X107608049Y-79699623D01*
X107634440Y-79709228D01*
X107634544Y-79708978D01*
X107640283Y-79711355D01*
X107641114Y-79711657D01*
X107641278Y-79711767D01*
X107685180Y-79720500D01*
X107685181Y-79720500D01*
X108314819Y-79720500D01*
X108314820Y-79720500D01*
X108358722Y-79711767D01*
X108367759Y-79705728D01*
X108416925Y-79693696D01*
X108462325Y-79716082D01*
X108475353Y-79734756D01*
X108515173Y-79816210D01*
X108515174Y-79816211D01*
X108603789Y-79904826D01*
X108716375Y-79959866D01*
X108789364Y-79970500D01*
X108789370Y-79970500D01*
X109310630Y-79970500D01*
X109310636Y-79970500D01*
X109383625Y-79959866D01*
X109496211Y-79904826D01*
X109584826Y-79816211D01*
X109639866Y-79703625D01*
X109650500Y-79630636D01*
X109650500Y-79109364D01*
X109639866Y-79036375D01*
X109584826Y-78923789D01*
X109496211Y-78835174D01*
X109433344Y-78804440D01*
X109398216Y-78767996D01*
X109394731Y-78717498D01*
X109420795Y-78679253D01*
X109443121Y-78662123D01*
X109531361Y-78547127D01*
X109586830Y-78413211D01*
X109597040Y-78335658D01*
X109620412Y-78290761D01*
X109667177Y-78271389D01*
X109702906Y-78278838D01*
X109766375Y-78309866D01*
X109771864Y-78311562D01*
X109770981Y-78314418D01*
X109805648Y-78332991D01*
X109824463Y-78379983D01*
X109824500Y-78382333D01*
X109824500Y-78435579D01*
X109823078Y-78450015D01*
X109819103Y-78469999D01*
X109819103Y-78470003D01*
X109823077Y-78489985D01*
X109824499Y-78504420D01*
X109824499Y-79335579D01*
X109823078Y-79350013D01*
X109819103Y-79370000D01*
X109823078Y-79389983D01*
X109824500Y-79404420D01*
X109824500Y-80735579D01*
X109823078Y-80750015D01*
X109819103Y-80769999D01*
X109819103Y-80770000D01*
X109823078Y-80789983D01*
X109824500Y-80804420D01*
X109824500Y-81720579D01*
X109823078Y-81735015D01*
X109819103Y-81754999D01*
X109819103Y-81762265D01*
X109801790Y-81809831D01*
X109757953Y-81835141D01*
X109730667Y-81834843D01*
X109670250Y-81822826D01*
X109653529Y-81819500D01*
X109653528Y-81819500D01*
X109626397Y-81814103D01*
X109626396Y-81814103D01*
X109606413Y-81818078D01*
X109591976Y-81819500D01*
X107549420Y-81819500D01*
X107534983Y-81818078D01*
X107515000Y-81814103D01*
X107514999Y-81814103D01*
X107487868Y-81819500D01*
X107487867Y-81819500D01*
X107449222Y-81827187D01*
X107407505Y-81835485D01*
X107371768Y-81859364D01*
X107341309Y-81879714D01*
X107341305Y-81879718D01*
X107316376Y-81896375D01*
X107316374Y-81896377D01*
X107305053Y-81913319D01*
X107295853Y-81924529D01*
X106972558Y-82247826D01*
X106926682Y-82269218D01*
X106920232Y-82269500D01*
X105475180Y-82269500D01*
X105453229Y-82273866D01*
X105431277Y-82278233D01*
X105381496Y-82311495D01*
X105381495Y-82311496D01*
X105348233Y-82361277D01*
X105339500Y-82405180D01*
X105339500Y-82920500D01*
X105322187Y-82968066D01*
X105278350Y-82993376D01*
X105265500Y-82994500D01*
X104399416Y-82994500D01*
X104384980Y-82993078D01*
X104365001Y-82989104D01*
X104364997Y-82989104D01*
X104340306Y-82994015D01*
X104340300Y-82994016D01*
X104257504Y-83010485D01*
X104191305Y-83054718D01*
X104166376Y-83071375D01*
X104166374Y-83071377D01*
X104155053Y-83088319D01*
X104145853Y-83099528D01*
X104047558Y-83197825D01*
X104001682Y-83219218D01*
X103995232Y-83219500D01*
X103554359Y-83219500D01*
X103481374Y-83230134D01*
X103481373Y-83230134D01*
X103368789Y-83285173D01*
X103280173Y-83373789D01*
X103225134Y-83486373D01*
X103225134Y-83486374D01*
X103214500Y-83559359D01*
X103214500Y-83559363D01*
X103214500Y-83559364D01*
X103214500Y-84080636D01*
X103214500Y-84080642D01*
X103214501Y-84080643D01*
X103215184Y-84085332D01*
X103204909Y-84134898D01*
X103165178Y-84166262D01*
X103141957Y-84170000D01*
X84389500Y-84170000D01*
X84341934Y-84152687D01*
X84316624Y-84108850D01*
X84315500Y-84096000D01*
X84315500Y-73170009D01*
X84660080Y-73170009D01*
X84679745Y-73532721D01*
X84679746Y-73532725D01*
X84738514Y-73891204D01*
X84738515Y-73891206D01*
X84835698Y-74241226D01*
X84835704Y-74241246D01*
X84970156Y-74578692D01*
X85140313Y-74899643D01*
X85344175Y-75200317D01*
X85540921Y-75431944D01*
X85540921Y-75431945D01*
X86725805Y-74247061D01*
X86771681Y-74225669D01*
X86820576Y-74238770D01*
X86834401Y-74251328D01*
X86870814Y-74293963D01*
X86880130Y-74304870D01*
X86921668Y-74340347D01*
X86933670Y-74350597D01*
X86958596Y-74394653D01*
X86949372Y-74444424D01*
X86937937Y-74459193D01*
X85754261Y-75642868D01*
X85754262Y-75642869D01*
X85843073Y-75726995D01*
X86132267Y-75946834D01*
X86443521Y-76134109D01*
X86773221Y-76286645D01*
X87117451Y-76402628D01*
X87117473Y-76402635D01*
X87472227Y-76480722D01*
X87472236Y-76480723D01*
X87833354Y-76519998D01*
X87833377Y-76520000D01*
X88196623Y-76520000D01*
X88196645Y-76519998D01*
X88557763Y-76480723D01*
X88557772Y-76480722D01*
X88912526Y-76402635D01*
X88912548Y-76402628D01*
X89256778Y-76286645D01*
X89586478Y-76134109D01*
X89897732Y-75946834D01*
X90186929Y-75726992D01*
X90186933Y-75726989D01*
X90275736Y-75642868D01*
X89092062Y-74459194D01*
X89070670Y-74413318D01*
X89083771Y-74364423D01*
X89096329Y-74350598D01*
X89096330Y-74350597D01*
X89149870Y-74304870D01*
X89195598Y-74251328D01*
X89239654Y-74226403D01*
X89289425Y-74235627D01*
X89304194Y-74247062D01*
X90489077Y-75431945D01*
X90685827Y-75200312D01*
X90889686Y-74899643D01*
X91059843Y-74578692D01*
X91194295Y-74241246D01*
X91194301Y-74241226D01*
X91291484Y-73891206D01*
X91291485Y-73891204D01*
X91350253Y-73532725D01*
X91350254Y-73532721D01*
X91369920Y-73170009D01*
X91369920Y-73169990D01*
X91357450Y-72940000D01*
X94375000Y-72940000D01*
X94375000Y-73050592D01*
X94385620Y-73123482D01*
X94440587Y-73235917D01*
X94529082Y-73324412D01*
X94641517Y-73379379D01*
X94714407Y-73389999D01*
X94714418Y-73390000D01*
X94825000Y-73390000D01*
X94825000Y-72940000D01*
X95125000Y-72940000D01*
X95125000Y-73390000D01*
X95235582Y-73390000D01*
X95235592Y-73389999D01*
X95308482Y-73379379D01*
X95420917Y-73324412D01*
X95509412Y-73235917D01*
X95564379Y-73123482D01*
X95574999Y-73050592D01*
X95575000Y-73050581D01*
X95575000Y-72940000D01*
X95775000Y-72940000D01*
X95775000Y-73050592D01*
X95785620Y-73123482D01*
X95840587Y-73235917D01*
X95929082Y-73324412D01*
X96041517Y-73379379D01*
X96114407Y-73389999D01*
X96114418Y-73390000D01*
X96225000Y-73390000D01*
X96225000Y-72940000D01*
X96525000Y-72940000D01*
X96525000Y-73390000D01*
X96635582Y-73390000D01*
X96635592Y-73389999D01*
X96708482Y-73379379D01*
X96820917Y-73324412D01*
X96909412Y-73235917D01*
X96964379Y-73123482D01*
X96974999Y-73050592D01*
X96975000Y-73050581D01*
X96975000Y-72940000D01*
X97175000Y-72940000D01*
X97175000Y-73050592D01*
X97185620Y-73123482D01*
X97240587Y-73235917D01*
X97329082Y-73324412D01*
X97441517Y-73379379D01*
X97514407Y-73389999D01*
X97514418Y-73390000D01*
X97625000Y-73390000D01*
X97625000Y-72940000D01*
X97925000Y-72940000D01*
X97925000Y-73390000D01*
X98035582Y-73390000D01*
X98035592Y-73389999D01*
X98108482Y-73379379D01*
X98220917Y-73324412D01*
X98309412Y-73235917D01*
X98364379Y-73123482D01*
X98374999Y-73050592D01*
X98375000Y-73050581D01*
X98375000Y-72940000D01*
X98575000Y-72940000D01*
X98575000Y-73050592D01*
X98585620Y-73123482D01*
X98640587Y-73235917D01*
X98729082Y-73324412D01*
X98841517Y-73379379D01*
X98914407Y-73389999D01*
X98914418Y-73390000D01*
X99025000Y-73390000D01*
X99025000Y-72940000D01*
X99325000Y-72940000D01*
X99325000Y-73390000D01*
X99435582Y-73390000D01*
X99435592Y-73389999D01*
X99508482Y-73379379D01*
X99620917Y-73324412D01*
X99709412Y-73235917D01*
X99764379Y-73123482D01*
X99774999Y-73050592D01*
X99775000Y-73050581D01*
X99775000Y-72940000D01*
X99975000Y-72940000D01*
X99975000Y-73050592D01*
X99985620Y-73123482D01*
X100040587Y-73235917D01*
X100129082Y-73324412D01*
X100241517Y-73379379D01*
X100314407Y-73389999D01*
X100314418Y-73390000D01*
X100425000Y-73390000D01*
X100425000Y-72940000D01*
X100725000Y-72940000D01*
X100725000Y-73390000D01*
X100835582Y-73390000D01*
X100835592Y-73389999D01*
X100908482Y-73379379D01*
X101020917Y-73324412D01*
X101109412Y-73235917D01*
X101164379Y-73123482D01*
X101174999Y-73050592D01*
X101175000Y-73050581D01*
X101175000Y-72940000D01*
X101375000Y-72940000D01*
X101375000Y-73050592D01*
X101385620Y-73123482D01*
X101440587Y-73235917D01*
X101529082Y-73324412D01*
X101641517Y-73379379D01*
X101714407Y-73389999D01*
X101714418Y-73390000D01*
X101825000Y-73390000D01*
X101825000Y-72940000D01*
X102125000Y-72940000D01*
X102125000Y-73390000D01*
X102235582Y-73390000D01*
X102235592Y-73389999D01*
X102308482Y-73379379D01*
X102420917Y-73324412D01*
X102509412Y-73235917D01*
X102564379Y-73123482D01*
X102574999Y-73050592D01*
X102575000Y-73050581D01*
X102575000Y-72940000D01*
X102775000Y-72940000D01*
X102775000Y-73050592D01*
X102785620Y-73123482D01*
X102840587Y-73235917D01*
X102929082Y-73324412D01*
X103041517Y-73379379D01*
X103114407Y-73389999D01*
X103114418Y-73390000D01*
X103225000Y-73390000D01*
X103225000Y-72940000D01*
X103525000Y-72940000D01*
X103525000Y-73390000D01*
X103635582Y-73390000D01*
X103635592Y-73389999D01*
X103708482Y-73379379D01*
X103820917Y-73324412D01*
X103909412Y-73235917D01*
X103964379Y-73123482D01*
X103974999Y-73050592D01*
X103975000Y-73050581D01*
X103975000Y-72940000D01*
X104175000Y-72940000D01*
X104175000Y-73050592D01*
X104185620Y-73123482D01*
X104240587Y-73235917D01*
X104329082Y-73324412D01*
X104441517Y-73379379D01*
X104514407Y-73389999D01*
X104514418Y-73390000D01*
X104624999Y-73390000D01*
X104624999Y-73389999D01*
X104924999Y-73389999D01*
X104925000Y-73390000D01*
X105035582Y-73390000D01*
X105035592Y-73389999D01*
X105108482Y-73379379D01*
X105220917Y-73324412D01*
X105309412Y-73235917D01*
X105364379Y-73123482D01*
X105374999Y-73050592D01*
X105375000Y-73050581D01*
X105375000Y-72940000D01*
X104925000Y-72940000D01*
X104924999Y-73389999D01*
X104624999Y-73389999D01*
X104625000Y-72940000D01*
X104175000Y-72940000D01*
X103975000Y-72940000D01*
X103525000Y-72940000D01*
X103225000Y-72940000D01*
X102775000Y-72940000D01*
X102575000Y-72940000D01*
X102125000Y-72940000D01*
X101825000Y-72940000D01*
X101375000Y-72940000D01*
X101175000Y-72940000D01*
X100725000Y-72940000D01*
X100425000Y-72940000D01*
X99975000Y-72940000D01*
X99775000Y-72940000D01*
X99325000Y-72940000D01*
X99025000Y-72940000D01*
X98575000Y-72940000D01*
X98375000Y-72940000D01*
X97925000Y-72940000D01*
X97625000Y-72940000D01*
X97175000Y-72940000D01*
X96975000Y-72940000D01*
X96525000Y-72940000D01*
X96225000Y-72940000D01*
X95775000Y-72940000D01*
X95575000Y-72940000D01*
X95125000Y-72940000D01*
X94825000Y-72940000D01*
X94375000Y-72940000D01*
X91357450Y-72940000D01*
X91350254Y-72807278D01*
X91350253Y-72807274D01*
X91291485Y-72448795D01*
X91291484Y-72448793D01*
X91194301Y-72098773D01*
X91194295Y-72098753D01*
X91059843Y-71761307D01*
X90889686Y-71440356D01*
X90685827Y-71139687D01*
X90489077Y-70908053D01*
X89304193Y-72092937D01*
X89258316Y-72114329D01*
X89209422Y-72101228D01*
X89195597Y-72088670D01*
X89149872Y-72035132D01*
X89149867Y-72035127D01*
X89096328Y-71989401D01*
X89071402Y-71945345D01*
X89080626Y-71895574D01*
X89092061Y-71880805D01*
X90275736Y-70697129D01*
X90186926Y-70613004D01*
X89897732Y-70393165D01*
X89586478Y-70205890D01*
X89256778Y-70053354D01*
X88912548Y-69937371D01*
X88912526Y-69937364D01*
X88557772Y-69859277D01*
X88557763Y-69859276D01*
X88196645Y-69820001D01*
X88196623Y-69820000D01*
X87833377Y-69820000D01*
X87833354Y-69820001D01*
X87472236Y-69859276D01*
X87472227Y-69859277D01*
X87117473Y-69937364D01*
X87117451Y-69937371D01*
X86773221Y-70053354D01*
X86443521Y-70205890D01*
X86132267Y-70393165D01*
X85843068Y-70613008D01*
X85754262Y-70697129D01*
X86937937Y-71880805D01*
X86959329Y-71926682D01*
X86946228Y-71975576D01*
X86933671Y-71989400D01*
X86880133Y-72035126D01*
X86880126Y-72035133D01*
X86834400Y-72088671D01*
X86790344Y-72113596D01*
X86740572Y-72104371D01*
X86725805Y-72092937D01*
X85540921Y-70908053D01*
X85540921Y-70908054D01*
X85344175Y-71139682D01*
X85140313Y-71440356D01*
X84970156Y-71761307D01*
X84835704Y-72098753D01*
X84835698Y-72098773D01*
X84738515Y-72448793D01*
X84738514Y-72448795D01*
X84679746Y-72807274D01*
X84679745Y-72807278D01*
X84660080Y-73169990D01*
X84660080Y-73170009D01*
X84315500Y-73170009D01*
X84315500Y-66330640D01*
X90664500Y-66330640D01*
X90675134Y-66403625D01*
X90675134Y-66403626D01*
X90730173Y-66516210D01*
X90730174Y-66516211D01*
X90818789Y-66604826D01*
X90931375Y-66659866D01*
X91004364Y-66670500D01*
X91004370Y-66670500D01*
X91525630Y-66670500D01*
X91525636Y-66670500D01*
X91598625Y-66659866D01*
X91711211Y-66604826D01*
X91799826Y-66516211D01*
X91854866Y-66403625D01*
X91865500Y-66330636D01*
X91865500Y-65854411D01*
X91882813Y-65806845D01*
X91887163Y-65802096D01*
X92369531Y-65319727D01*
X92380734Y-65310533D01*
X92395601Y-65300601D01*
X92450966Y-65217740D01*
X92465500Y-65144674D01*
X92465500Y-65144673D01*
X92470408Y-65120000D01*
X92467151Y-65103627D01*
X92466922Y-65102473D01*
X92465500Y-65088037D01*
X92465500Y-64544500D01*
X92482813Y-64496934D01*
X92526650Y-64471624D01*
X92539500Y-64470500D01*
X92629819Y-64470500D01*
X92629820Y-64470500D01*
X92673722Y-64461767D01*
X92723504Y-64428504D01*
X92756767Y-64378722D01*
X92765500Y-64334820D01*
X92765500Y-63505180D01*
X92756767Y-63461278D01*
X92723504Y-63411496D01*
X92707587Y-63400861D01*
X92673722Y-63378233D01*
X92639336Y-63371393D01*
X92629820Y-63369500D01*
X91800180Y-63369500D01*
X91790694Y-63371387D01*
X91756277Y-63378233D01*
X91706496Y-63411495D01*
X91706495Y-63411496D01*
X91673233Y-63461277D01*
X91668785Y-63483639D01*
X91664500Y-63505180D01*
X91664500Y-64334820D01*
X91673233Y-64378722D01*
X91706496Y-64428504D01*
X91756278Y-64461767D01*
X91800180Y-64470500D01*
X91890500Y-64470500D01*
X91938066Y-64487813D01*
X91963376Y-64531650D01*
X91964500Y-64544500D01*
X91964500Y-64985588D01*
X91947187Y-65033154D01*
X91942826Y-65037914D01*
X91532914Y-65447826D01*
X91487038Y-65469218D01*
X91480588Y-65469500D01*
X91004359Y-65469500D01*
X90931374Y-65480134D01*
X90931373Y-65480134D01*
X90818789Y-65535173D01*
X90730173Y-65623789D01*
X90675134Y-65736373D01*
X90675134Y-65736374D01*
X90664500Y-65809359D01*
X90664500Y-66330640D01*
X84315500Y-66330640D01*
X84315500Y-62570000D01*
X91665001Y-62570000D01*
X91665001Y-62834778D01*
X91673701Y-62878524D01*
X91706855Y-62928143D01*
X91706856Y-62928144D01*
X91756472Y-62961296D01*
X91800226Y-62969999D01*
X92065000Y-62969999D01*
X92065000Y-62570000D01*
X92365000Y-62570000D01*
X92365000Y-62969999D01*
X92629779Y-62969999D01*
X92673524Y-62961298D01*
X92723143Y-62928144D01*
X92723144Y-62928143D01*
X92756296Y-62878527D01*
X92765000Y-62834773D01*
X92765000Y-62570000D01*
X92365000Y-62570000D01*
X92065000Y-62570000D01*
X91665001Y-62570000D01*
X84315500Y-62570000D01*
X84315500Y-62270000D01*
X91665000Y-62270000D01*
X92065000Y-62270000D01*
X92065000Y-61870000D01*
X92365000Y-61870000D01*
X92365000Y-62270000D01*
X92764999Y-62270000D01*
X92764999Y-62005221D01*
X92756298Y-61961475D01*
X92723144Y-61911856D01*
X92723143Y-61911855D01*
X92673527Y-61878703D01*
X92629773Y-61870000D01*
X92365000Y-61870000D01*
X92065000Y-61870000D01*
X91800229Y-61870000D01*
X91756473Y-61878703D01*
X91706856Y-61911855D01*
X91706855Y-61911856D01*
X91673703Y-61961472D01*
X91665000Y-62005226D01*
X91665000Y-62270000D01*
X84315500Y-62270000D01*
X84315500Y-58770000D01*
X91615000Y-58770000D01*
X91615000Y-58880592D01*
X91625620Y-58953482D01*
X91680587Y-59065917D01*
X91769082Y-59154412D01*
X91881517Y-59209379D01*
X91954407Y-59219999D01*
X91954418Y-59220000D01*
X92065000Y-59220000D01*
X92065000Y-58770000D01*
X92365000Y-58770000D01*
X92365000Y-59220000D01*
X92475582Y-59220000D01*
X92475592Y-59219999D01*
X92548482Y-59209379D01*
X92660917Y-59154412D01*
X92749412Y-59065917D01*
X92804379Y-58953482D01*
X92814999Y-58880592D01*
X92815000Y-58880581D01*
X92815000Y-58770000D01*
X92365000Y-58770000D01*
X92065000Y-58770000D01*
X91615000Y-58770000D01*
X84315500Y-58770000D01*
X84315500Y-58470000D01*
X91615000Y-58470000D01*
X92065000Y-58470000D01*
X92065000Y-58020000D01*
X92365000Y-58020000D01*
X92365000Y-58470000D01*
X92814999Y-58470000D01*
X92815000Y-58359418D01*
X92814999Y-58359407D01*
X92804379Y-58286517D01*
X92749412Y-58174082D01*
X92660917Y-58085587D01*
X92548482Y-58030620D01*
X92475592Y-58020000D01*
X92365000Y-58020000D01*
X92065000Y-58020000D01*
X91954407Y-58020000D01*
X91881517Y-58030620D01*
X91769082Y-58085587D01*
X91680587Y-58174082D01*
X91625620Y-58286517D01*
X91615000Y-58359407D01*
X91615000Y-58470000D01*
X84315500Y-58470000D01*
X84315500Y-57544500D01*
X84332813Y-57496934D01*
X84376650Y-57471624D01*
X84389500Y-57470500D01*
X125640500Y-57470500D01*
X125688066Y-57487813D01*
G37*
G04 #@! TD.AperFunction*
G04 #@! TA.AperFunction,Conductor*
G36*
X110811500Y-75702144D02*
G01*
X110826826Y-75713904D01*
X111137452Y-76024530D01*
X111146651Y-76035738D01*
X111156582Y-76050601D01*
X111156583Y-76050601D01*
X111156584Y-76050603D01*
X111177471Y-76064559D01*
X111177485Y-76064568D01*
X111177499Y-76064577D01*
X111177500Y-76064578D01*
X111212259Y-76087803D01*
X111229967Y-76099635D01*
X111259898Y-76140456D01*
X111256587Y-76190967D01*
X111241180Y-76213488D01*
X111180589Y-76274079D01*
X111180588Y-76274081D01*
X111125620Y-76386517D01*
X111115000Y-76459407D01*
X111115000Y-76459418D01*
X111114999Y-76569999D01*
X111115000Y-76570000D01*
X112314999Y-76570000D01*
X112315000Y-76459418D01*
X112314999Y-76459407D01*
X112304379Y-76386517D01*
X112249412Y-76274082D01*
X112222156Y-76246826D01*
X112200764Y-76200950D01*
X112213865Y-76152055D01*
X112255329Y-76123021D01*
X112274482Y-76120500D01*
X112554811Y-76120500D01*
X112602377Y-76137813D01*
X112627687Y-76181650D01*
X112618897Y-76231500D01*
X112607137Y-76246826D01*
X112580173Y-76273789D01*
X112525134Y-76386373D01*
X112525134Y-76386374D01*
X112514500Y-76459359D01*
X112514500Y-76980640D01*
X112525134Y-77053625D01*
X112525134Y-77053626D01*
X112580173Y-77166210D01*
X112580174Y-77166211D01*
X112668789Y-77254826D01*
X112675520Y-77258116D01*
X112710651Y-77294558D01*
X112714138Y-77345057D01*
X112701730Y-77369646D01*
X112641483Y-77448161D01*
X112641481Y-77448165D01*
X112586012Y-77582080D01*
X112567093Y-77725789D01*
X112586012Y-77869497D01*
X112632044Y-77980629D01*
X112641482Y-78003414D01*
X112696759Y-78075452D01*
X112711981Y-78123727D01*
X112692610Y-78170493D01*
X112647710Y-78193867D01*
X112638051Y-78194500D01*
X110739542Y-78194500D01*
X110691976Y-78177187D01*
X110666666Y-78133350D01*
X110673060Y-78088000D01*
X110689866Y-78053625D01*
X110700500Y-77980636D01*
X110700500Y-77459364D01*
X110689866Y-77386375D01*
X110634826Y-77273789D01*
X110546211Y-77185174D01*
X110546210Y-77185174D01*
X110546210Y-77185173D01*
X110433626Y-77130134D01*
X110360640Y-77119500D01*
X110360636Y-77119500D01*
X109893435Y-77119500D01*
X109865196Y-77110938D01*
X109864229Y-77113274D01*
X109857496Y-77110485D01*
X109830707Y-77105156D01*
X109777133Y-77094500D01*
X109777132Y-77094500D01*
X109777130Y-77094499D01*
X109750001Y-77089103D01*
X109750000Y-77089103D01*
X109730017Y-77093078D01*
X109715580Y-77094500D01*
X109469051Y-77094500D01*
X109421485Y-77077187D01*
X109396473Y-77034937D01*
X109391767Y-77011279D01*
X109391767Y-77011278D01*
X109391658Y-77011115D01*
X109391598Y-77010870D01*
X109388978Y-77004544D01*
X109389951Y-77004140D01*
X109379623Y-76961951D01*
X109389228Y-76935559D01*
X109388978Y-76935456D01*
X109391355Y-76929716D01*
X109391657Y-76928885D01*
X109391767Y-76928722D01*
X109396473Y-76905062D01*
X109417750Y-76870000D01*
X111115000Y-76870000D01*
X111115000Y-76980592D01*
X111125620Y-77053482D01*
X111180587Y-77165917D01*
X111269082Y-77254412D01*
X111381517Y-77309379D01*
X111454407Y-77319999D01*
X111454418Y-77320000D01*
X111564999Y-77320000D01*
X111564999Y-77319999D01*
X111864999Y-77319999D01*
X111865000Y-77320000D01*
X111975582Y-77320000D01*
X111975592Y-77319999D01*
X112048482Y-77309379D01*
X112160917Y-77254412D01*
X112249412Y-77165917D01*
X112304379Y-77053482D01*
X112314999Y-76980592D01*
X112315000Y-76980581D01*
X112315000Y-76870000D01*
X111865000Y-76870000D01*
X111864999Y-77319999D01*
X111564999Y-77319999D01*
X111565000Y-76870000D01*
X111115000Y-76870000D01*
X109417750Y-76870000D01*
X109422733Y-76861788D01*
X109469051Y-76845500D01*
X109515580Y-76845500D01*
X109530016Y-76846921D01*
X109550000Y-76850897D01*
X109550001Y-76850897D01*
X109554622Y-76849977D01*
X109577132Y-76845500D01*
X109577133Y-76845500D01*
X109657495Y-76829515D01*
X109699465Y-76801471D01*
X109725622Y-76783994D01*
X109725622Y-76783993D01*
X109733636Y-76778639D01*
X109733639Y-76778636D01*
X109748624Y-76768624D01*
X109759948Y-76751674D01*
X109769147Y-76740468D01*
X109867443Y-76642174D01*
X109913319Y-76620782D01*
X109919768Y-76620500D01*
X110360630Y-76620500D01*
X110360636Y-76620500D01*
X110433625Y-76609866D01*
X110546211Y-76554826D01*
X110634826Y-76466211D01*
X110689866Y-76353625D01*
X110700500Y-76280636D01*
X110700500Y-75766229D01*
X110717813Y-75718664D01*
X110761650Y-75693354D01*
X110811500Y-75702144D01*
G37*
G04 #@! TD.AperFunction*
G04 #@! TA.AperFunction,Conductor*
G36*
X112063852Y-66717513D02*
G01*
X112071138Y-66723901D01*
X113342825Y-67995589D01*
X113364217Y-68041466D01*
X113364499Y-68047915D01*
X113364500Y-69933898D01*
X113347187Y-69981464D01*
X113303350Y-70006774D01*
X113253500Y-69997984D01*
X113249388Y-69995427D01*
X113193722Y-69958233D01*
X113174649Y-69954439D01*
X113149820Y-69949500D01*
X112120180Y-69949500D01*
X112098228Y-69953866D01*
X112076277Y-69958233D01*
X112026496Y-69991495D01*
X112026495Y-69991496D01*
X111993233Y-70041277D01*
X111984500Y-70085180D01*
X111984500Y-71114819D01*
X111993233Y-71158722D01*
X112023868Y-71204572D01*
X112026496Y-71208504D01*
X112076278Y-71241767D01*
X112120180Y-71250500D01*
X112120181Y-71250500D01*
X113149819Y-71250500D01*
X113149820Y-71250500D01*
X113193722Y-71241767D01*
X113243504Y-71208504D01*
X113243504Y-71208502D01*
X113249388Y-71204572D01*
X113298556Y-71192541D01*
X113343955Y-71214929D01*
X113364342Y-71261261D01*
X113364500Y-71266101D01*
X113364500Y-73235587D01*
X113347187Y-73283153D01*
X113342826Y-73287913D01*
X112260472Y-74370266D01*
X112249262Y-74379466D01*
X112234399Y-74389397D01*
X112204069Y-74434790D01*
X112163248Y-74464721D01*
X112112737Y-74461410D01*
X112110040Y-74460158D01*
X112093101Y-74451877D01*
X112057972Y-74415432D01*
X112054487Y-74364933D01*
X112066891Y-74340351D01*
X112102487Y-74293963D01*
X112157956Y-74160047D01*
X112176876Y-74016338D01*
X112157956Y-73872629D01*
X112102487Y-73738713D01*
X112014247Y-73623717D01*
X111899251Y-73535477D01*
X111892597Y-73532721D01*
X111830638Y-73507057D01*
X111793317Y-73472860D01*
X111786710Y-73422674D01*
X111813907Y-73379982D01*
X111830635Y-73370324D01*
X111877625Y-73350861D01*
X111992621Y-73262621D01*
X112080861Y-73147625D01*
X112136330Y-73013709D01*
X112155250Y-72870000D01*
X112136330Y-72726291D01*
X112080861Y-72592375D01*
X111992621Y-72477379D01*
X111877625Y-72389139D01*
X111856742Y-72380489D01*
X111743708Y-72333669D01*
X111611097Y-72316211D01*
X111600000Y-72314750D01*
X111599999Y-72314750D01*
X111458573Y-72333369D01*
X111409154Y-72322413D01*
X111396588Y-72312328D01*
X111287174Y-72202914D01*
X111265782Y-72157038D01*
X111265500Y-72150588D01*
X111265500Y-69516179D01*
X111266922Y-69501741D01*
X111267653Y-69498067D01*
X111270409Y-69484213D01*
X111250966Y-69386473D01*
X111209578Y-69324530D01*
X111209577Y-69324529D01*
X111208012Y-69322187D01*
X111195603Y-69303614D01*
X111195601Y-69303613D01*
X111195601Y-69303612D01*
X111180738Y-69293681D01*
X111169530Y-69284482D01*
X110369139Y-68484091D01*
X109531872Y-67646825D01*
X109510481Y-67600950D01*
X109523582Y-67552055D01*
X109565046Y-67523021D01*
X109584199Y-67520500D01*
X110732539Y-67520500D01*
X110746975Y-67521921D01*
X110764501Y-67525408D01*
X110862242Y-67505966D01*
X110915169Y-67470601D01*
X110945102Y-67450601D01*
X110955034Y-67435734D01*
X110964228Y-67424531D01*
X111205321Y-67183438D01*
X111251196Y-67162047D01*
X111267302Y-67162397D01*
X111408733Y-67181018D01*
X111552442Y-67162098D01*
X111686358Y-67106629D01*
X111801354Y-67018389D01*
X111889594Y-66903393D01*
X111945063Y-66769477D01*
X111945444Y-66766576D01*
X111946261Y-66765007D01*
X111946320Y-66764788D01*
X111946368Y-66764801D01*
X111968811Y-66721675D01*
X112015574Y-66702298D01*
X112063852Y-66717513D01*
G37*
G04 #@! TD.AperFunction*
G04 #@! TA.AperFunction,Conductor*
G36*
X102933985Y-68580323D02*
G01*
X102934543Y-68578978D01*
X102941275Y-68581766D01*
X102941277Y-68581766D01*
X102941278Y-68581767D01*
X102985180Y-68590500D01*
X103023987Y-68590500D01*
X103071553Y-68607813D01*
X103096863Y-68651650D01*
X103088073Y-68701500D01*
X103082702Y-68709538D01*
X103035924Y-68770500D01*
X103019138Y-68792376D01*
X102963669Y-68926291D01*
X102944750Y-69070000D01*
X102963669Y-69213708D01*
X103019138Y-69347623D01*
X103019140Y-69347627D01*
X103040491Y-69375452D01*
X103055713Y-69423728D01*
X103036341Y-69470494D01*
X102991442Y-69493867D01*
X102981783Y-69494500D01*
X102865203Y-69494500D01*
X102850767Y-69493078D01*
X102830788Y-69489104D01*
X102830784Y-69489104D01*
X102808134Y-69493608D01*
X102808102Y-69493616D01*
X102803657Y-69494500D01*
X102803654Y-69494500D01*
X102775849Y-69500030D01*
X102720219Y-69511094D01*
X102714163Y-69516584D01*
X102657092Y-69554718D01*
X102632163Y-69571375D01*
X102632161Y-69571377D01*
X102620840Y-69588319D01*
X102611640Y-69599529D01*
X102193345Y-70017826D01*
X102147469Y-70039218D01*
X102141019Y-70039500D01*
X101475139Y-70039500D01*
X101427573Y-70022187D01*
X101402263Y-69978350D01*
X101411053Y-69928500D01*
X101422813Y-69913174D01*
X101577041Y-69758946D01*
X101730484Y-69605503D01*
X101730484Y-69605501D01*
X101734698Y-69601288D01*
X101734702Y-69601283D01*
X101753050Y-69582936D01*
X101764894Y-69559689D01*
X101770960Y-69549791D01*
X101773440Y-69546378D01*
X101786297Y-69528683D01*
X101794359Y-69503868D01*
X101798801Y-69493143D01*
X101810646Y-69469898D01*
X101814727Y-69444128D01*
X101817435Y-69432848D01*
X101825500Y-69408027D01*
X101825500Y-69281161D01*
X101825500Y-68941544D01*
X101842813Y-68893979D01*
X101847174Y-68889219D01*
X101944219Y-68792174D01*
X101990095Y-68770782D01*
X101996545Y-68770500D01*
X102546520Y-68770500D01*
X102569965Y-68766786D01*
X102640304Y-68755646D01*
X102753342Y-68698050D01*
X102843050Y-68608342D01*
X102843051Y-68608338D01*
X102846324Y-68603835D01*
X102888286Y-68575525D01*
X102933985Y-68580323D01*
G37*
G04 #@! TD.AperFunction*
G04 #@! TA.AperFunction,Conductor*
G36*
X99914980Y-60937813D02*
G01*
X99919740Y-60942174D01*
X100020740Y-61043174D01*
X100042132Y-61089050D01*
X100029031Y-61137945D01*
X99987567Y-61166979D01*
X99968414Y-61169500D01*
X99704359Y-61169500D01*
X99631374Y-61180134D01*
X99631373Y-61180134D01*
X99518789Y-61235173D01*
X99430173Y-61323789D01*
X99375134Y-61436373D01*
X99375134Y-61436374D01*
X99364500Y-61509359D01*
X99364500Y-62030640D01*
X99375134Y-62103625D01*
X99375134Y-62103626D01*
X99430173Y-62216210D01*
X99430174Y-62216211D01*
X99518789Y-62304826D01*
X99631375Y-62359866D01*
X99704364Y-62370500D01*
X99704370Y-62370500D01*
X100225630Y-62370500D01*
X100225636Y-62370500D01*
X100298625Y-62359866D01*
X100358001Y-62330838D01*
X100408336Y-62325502D01*
X100450327Y-62353769D01*
X100464073Y-62396008D01*
X100464248Y-62395994D01*
X100464309Y-62396733D01*
X100464500Y-62397320D01*
X100464500Y-62399047D01*
X100468087Y-62420540D01*
X100471967Y-62451666D01*
X100474427Y-62471393D01*
X100474429Y-62471397D01*
X100476176Y-62477265D01*
X100475834Y-62477366D01*
X100476580Y-62479695D01*
X100476916Y-62479580D01*
X100478907Y-62485380D01*
X100503295Y-62530445D01*
X100525801Y-62576483D01*
X100529366Y-62581476D01*
X100529075Y-62581683D01*
X100530533Y-62583639D01*
X100530816Y-62583420D01*
X100534581Y-62588258D01*
X100547034Y-62599721D01*
X100572275Y-62622957D01*
X100679833Y-62730515D01*
X100701225Y-62776390D01*
X100688124Y-62825285D01*
X100679834Y-62835165D01*
X100675000Y-62839999D01*
X100675000Y-63290000D01*
X101125000Y-63290000D01*
X101125000Y-63195524D01*
X101142313Y-63147958D01*
X101186150Y-63122648D01*
X101195937Y-63121587D01*
X101219111Y-63120629D01*
X101222232Y-63120500D01*
X101853565Y-63120500D01*
X101901131Y-63137813D01*
X101912272Y-63149450D01*
X101922379Y-63162621D01*
X101934561Y-63171968D01*
X101961759Y-63214660D01*
X101961939Y-63245858D01*
X101959957Y-63255310D01*
X101959957Y-63255315D01*
X101964216Y-63289479D01*
X101964500Y-63294060D01*
X101964500Y-63299047D01*
X101968087Y-63320540D01*
X101971539Y-63348233D01*
X101974427Y-63371393D01*
X101974429Y-63371397D01*
X101976176Y-63377265D01*
X101975834Y-63377366D01*
X101976580Y-63379695D01*
X101976916Y-63379580D01*
X101978907Y-63385380D01*
X102003295Y-63430445D01*
X102025801Y-63476483D01*
X102029366Y-63481476D01*
X102029075Y-63481683D01*
X102030533Y-63483639D01*
X102030816Y-63483420D01*
X102034582Y-63488258D01*
X102072275Y-63522957D01*
X102309096Y-63759778D01*
X102442493Y-63893174D01*
X102463885Y-63939050D01*
X102450784Y-63987945D01*
X102409320Y-64016978D01*
X102390167Y-64019500D01*
X101485180Y-64019500D01*
X101463229Y-64023866D01*
X101441277Y-64028233D01*
X101391496Y-64061495D01*
X101391495Y-64061496D01*
X101358233Y-64111277D01*
X101349500Y-64155180D01*
X101349500Y-65140500D01*
X101332187Y-65188066D01*
X101288350Y-65213376D01*
X101275500Y-65214500D01*
X101199500Y-65214500D01*
X101151934Y-65197187D01*
X101126624Y-65153350D01*
X101125500Y-65140500D01*
X101125500Y-64879370D01*
X101125500Y-64879364D01*
X101114866Y-64806375D01*
X101059826Y-64693789D01*
X100971211Y-64605174D01*
X100971210Y-64605174D01*
X100971210Y-64605173D01*
X100858626Y-64550134D01*
X100785640Y-64539500D01*
X100785636Y-64539500D01*
X100264364Y-64539500D01*
X100264359Y-64539500D01*
X100191374Y-64550134D01*
X100191373Y-64550134D01*
X100078789Y-64605173D01*
X99990173Y-64693789D01*
X99935133Y-64806375D01*
X99933438Y-64811864D01*
X99930609Y-64810989D01*
X99911896Y-64845749D01*
X99864865Y-64864467D01*
X99862666Y-64864500D01*
X99787334Y-64864500D01*
X99739768Y-64847187D01*
X99718948Y-64811126D01*
X99716562Y-64811864D01*
X99714866Y-64806375D01*
X99659826Y-64693789D01*
X99571210Y-64605173D01*
X99458626Y-64550134D01*
X99385640Y-64539500D01*
X99385636Y-64539500D01*
X98864364Y-64539500D01*
X98864359Y-64539500D01*
X98791374Y-64550134D01*
X98791373Y-64550134D01*
X98678789Y-64605173D01*
X98590173Y-64693789D01*
X98535134Y-64806373D01*
X98535134Y-64806374D01*
X98524500Y-64879359D01*
X98524500Y-65400640D01*
X98535134Y-65473625D01*
X98535134Y-65473626D01*
X98576382Y-65558000D01*
X98581719Y-65608337D01*
X98553452Y-65650327D01*
X98509901Y-65664500D01*
X98434412Y-65664500D01*
X98386846Y-65647187D01*
X98382086Y-65642826D01*
X97799732Y-65060472D01*
X97790531Y-65049260D01*
X97780601Y-65034399D01*
X97776661Y-65031766D01*
X97712092Y-64988623D01*
X97697741Y-64979034D01*
X97634563Y-64966467D01*
X97591288Y-64940207D01*
X97575000Y-64893889D01*
X97575000Y-64340000D01*
X96749000Y-64340000D01*
X96701434Y-64322687D01*
X96676124Y-64278850D01*
X96675000Y-64266000D01*
X96675000Y-64039999D01*
X96974999Y-64039999D01*
X96975000Y-64040000D01*
X97574999Y-64040000D01*
X97574999Y-63590000D01*
X98525000Y-63590000D01*
X98525000Y-63700592D01*
X98535620Y-63773482D01*
X98590587Y-63885917D01*
X98679082Y-63974412D01*
X98791517Y-64029379D01*
X98864407Y-64039999D01*
X98864418Y-64040000D01*
X98975000Y-64040000D01*
X98975000Y-63590000D01*
X99275000Y-63590000D01*
X99275000Y-64040000D01*
X99385582Y-64040000D01*
X99385592Y-64039999D01*
X99458482Y-64029379D01*
X99570917Y-63974412D01*
X99659412Y-63885917D01*
X99714379Y-63773482D01*
X99724999Y-63700592D01*
X99725000Y-63700581D01*
X99725000Y-63590000D01*
X99925000Y-63590000D01*
X99925000Y-63700592D01*
X99935620Y-63773482D01*
X99990587Y-63885917D01*
X100079082Y-63974412D01*
X100191517Y-64029379D01*
X100264407Y-64039999D01*
X100264418Y-64040000D01*
X100375000Y-64040000D01*
X100375000Y-63590000D01*
X100675000Y-63590000D01*
X100675000Y-64040000D01*
X100785582Y-64040000D01*
X100785592Y-64039999D01*
X100858482Y-64029379D01*
X100970917Y-63974412D01*
X101059412Y-63885917D01*
X101114379Y-63773482D01*
X101124999Y-63700592D01*
X101125000Y-63700581D01*
X101125000Y-63590000D01*
X100675000Y-63590000D01*
X100375000Y-63590000D01*
X99925000Y-63590000D01*
X99725000Y-63590000D01*
X99275000Y-63590000D01*
X98975000Y-63590000D01*
X98525000Y-63590000D01*
X97574999Y-63590000D01*
X97574999Y-63475221D01*
X97566298Y-63431475D01*
X97533144Y-63381856D01*
X97533143Y-63381855D01*
X97483527Y-63348703D01*
X97439773Y-63340000D01*
X96975000Y-63340000D01*
X96974999Y-64039999D01*
X96675000Y-64039999D01*
X96675000Y-63340000D01*
X96210229Y-63340000D01*
X96166473Y-63348703D01*
X96116856Y-63381855D01*
X96116855Y-63381856D01*
X96086829Y-63426794D01*
X96046007Y-63456726D01*
X95995497Y-63453415D01*
X95963771Y-63426794D01*
X95933504Y-63381496D01*
X95933503Y-63381495D01*
X95883722Y-63348233D01*
X95848049Y-63341137D01*
X95839820Y-63339500D01*
X95839819Y-63339500D01*
X95549500Y-63339500D01*
X95501934Y-63322187D01*
X95483350Y-63290000D01*
X98525000Y-63290000D01*
X98975000Y-63290000D01*
X98975000Y-62840000D01*
X99275000Y-62840000D01*
X99275000Y-63290000D01*
X99725000Y-63290000D01*
X99925000Y-63290000D01*
X100375000Y-63290000D01*
X100375000Y-62840000D01*
X100264407Y-62840000D01*
X100191517Y-62850620D01*
X100079082Y-62905587D01*
X99990587Y-62994082D01*
X99935620Y-63106517D01*
X99925000Y-63179407D01*
X99925000Y-63290000D01*
X99725000Y-63290000D01*
X99725000Y-63179418D01*
X99724999Y-63179407D01*
X99714379Y-63106517D01*
X99659412Y-62994082D01*
X99570917Y-62905587D01*
X99458482Y-62850620D01*
X99385592Y-62840000D01*
X99275000Y-62840000D01*
X98975000Y-62840000D01*
X98864407Y-62840000D01*
X98791517Y-62850620D01*
X98679082Y-62905587D01*
X98590587Y-62994082D01*
X98535620Y-63106517D01*
X98525000Y-63179407D01*
X98525000Y-63290000D01*
X95483350Y-63290000D01*
X95476624Y-63278350D01*
X95475500Y-63265500D01*
X95475500Y-62441804D01*
X95492813Y-62394238D01*
X95536650Y-62368928D01*
X95538793Y-62368583D01*
X95598625Y-62359866D01*
X95711211Y-62304826D01*
X95799826Y-62216211D01*
X95854866Y-62103625D01*
X95865500Y-62030636D01*
X95865500Y-61920000D01*
X96365000Y-61920000D01*
X96365000Y-62030592D01*
X96375620Y-62103482D01*
X96430587Y-62215917D01*
X96519082Y-62304412D01*
X96631517Y-62359379D01*
X96704407Y-62369999D01*
X96704418Y-62370000D01*
X96815000Y-62370000D01*
X96815000Y-61920000D01*
X96365000Y-61920000D01*
X95865500Y-61920000D01*
X95865500Y-61620000D01*
X96365000Y-61620000D01*
X96815000Y-61620000D01*
X96815000Y-61170000D01*
X97115000Y-61170000D01*
X97115000Y-62370000D01*
X97225582Y-62370000D01*
X97225592Y-62369999D01*
X97298482Y-62359379D01*
X97410917Y-62304412D01*
X97499412Y-62215917D01*
X97548519Y-62115469D01*
X97584964Y-62080340D01*
X97635463Y-62076855D01*
X97676387Y-62106646D01*
X97681481Y-62115469D01*
X97730587Y-62215917D01*
X97819082Y-62304412D01*
X97931517Y-62359379D01*
X98004407Y-62369999D01*
X98004418Y-62370000D01*
X98115000Y-62370000D01*
X98115000Y-61920000D01*
X98415000Y-61920000D01*
X98415000Y-62370000D01*
X98525582Y-62370000D01*
X98525592Y-62369999D01*
X98598482Y-62359379D01*
X98710917Y-62304412D01*
X98799412Y-62215917D01*
X98854379Y-62103482D01*
X98864999Y-62030592D01*
X98865000Y-62030581D01*
X98865000Y-61920000D01*
X98415000Y-61920000D01*
X98115000Y-61920000D01*
X98115000Y-61170000D01*
X98415000Y-61170000D01*
X98415000Y-61620000D01*
X98865000Y-61620000D01*
X98865000Y-61509418D01*
X98864999Y-61509407D01*
X98854379Y-61436517D01*
X98799412Y-61324082D01*
X98710917Y-61235587D01*
X98598482Y-61180620D01*
X98525592Y-61170000D01*
X98415000Y-61170000D01*
X98115000Y-61170000D01*
X98004407Y-61170000D01*
X97931517Y-61180620D01*
X97819082Y-61235587D01*
X97730586Y-61324083D01*
X97730584Y-61324086D01*
X97681479Y-61424530D01*
X97645034Y-61459659D01*
X97594536Y-61463143D01*
X97553612Y-61433352D01*
X97548518Y-61424529D01*
X97499413Y-61324083D01*
X97410917Y-61235587D01*
X97298482Y-61180620D01*
X97225592Y-61170000D01*
X97115000Y-61170000D01*
X96815000Y-61170000D01*
X96704407Y-61170000D01*
X96631517Y-61180620D01*
X96519082Y-61235587D01*
X96430587Y-61324082D01*
X96375620Y-61436517D01*
X96365000Y-61509407D01*
X96365000Y-61620000D01*
X95865500Y-61620000D01*
X95865500Y-61509364D01*
X95854866Y-61436375D01*
X95799826Y-61323789D01*
X95711211Y-61235174D01*
X95711210Y-61235174D01*
X95711210Y-61235173D01*
X95598626Y-61180134D01*
X95525640Y-61169500D01*
X95525636Y-61169500D01*
X95004364Y-61169500D01*
X95004359Y-61169500D01*
X94931374Y-61180134D01*
X94931373Y-61180134D01*
X94818789Y-61235173D01*
X94730173Y-61323789D01*
X94675134Y-61436373D01*
X94675134Y-61436374D01*
X94664500Y-61509359D01*
X94664500Y-62030640D01*
X94675134Y-62103625D01*
X94675134Y-62103626D01*
X94730173Y-62216210D01*
X94730174Y-62216211D01*
X94818789Y-62304826D01*
X94931375Y-62359866D01*
X94931376Y-62359866D01*
X94933000Y-62360660D01*
X94968130Y-62397104D01*
X94974500Y-62427141D01*
X94974500Y-63265500D01*
X94957187Y-63313066D01*
X94913350Y-63338376D01*
X94900500Y-63339500D01*
X94610180Y-63339500D01*
X94601951Y-63341137D01*
X94566277Y-63348233D01*
X94516496Y-63381495D01*
X94516495Y-63381496D01*
X94483233Y-63431277D01*
X94478250Y-63456330D01*
X94474500Y-63475180D01*
X94474500Y-64904820D01*
X94479685Y-64930884D01*
X94483233Y-64948722D01*
X94503486Y-64979034D01*
X94516496Y-64998504D01*
X94566278Y-65031767D01*
X94610180Y-65040500D01*
X94899215Y-65040500D01*
X94946781Y-65057813D01*
X94972091Y-65101650D01*
X94971793Y-65128934D01*
X94969592Y-65140000D01*
X94969592Y-65140001D01*
X94989033Y-65237740D01*
X94995552Y-65247495D01*
X95044396Y-65320598D01*
X95044397Y-65320599D01*
X95044398Y-65320599D01*
X95044399Y-65320601D01*
X95059260Y-65330531D01*
X95070472Y-65339732D01*
X95100267Y-65369527D01*
X95109469Y-65380739D01*
X95119400Y-65395602D01*
X95132674Y-65404471D01*
X95162606Y-65445292D01*
X95159295Y-65495803D01*
X95124292Y-65532368D01*
X95091562Y-65540000D01*
X94610229Y-65540000D01*
X94566473Y-65548703D01*
X94516856Y-65581855D01*
X94516855Y-65581856D01*
X94483703Y-65631472D01*
X94475000Y-65675226D01*
X94475000Y-66240000D01*
X95301000Y-66240000D01*
X95348566Y-66257313D01*
X95373876Y-66301150D01*
X95375000Y-66314000D01*
X95375000Y-67239999D01*
X95839779Y-67239999D01*
X95883524Y-67231298D01*
X95933143Y-67198144D01*
X95963169Y-67153206D01*
X96003990Y-67123274D01*
X96054501Y-67126583D01*
X96086228Y-67153205D01*
X96116255Y-67198144D01*
X96116496Y-67198504D01*
X96166278Y-67231767D01*
X96210180Y-67240500D01*
X96500500Y-67240500D01*
X96548066Y-67257813D01*
X96573376Y-67301650D01*
X96574500Y-67314500D01*
X96574500Y-67908037D01*
X96573078Y-67922473D01*
X96569592Y-67939998D01*
X96569592Y-67940000D01*
X96586931Y-68027172D01*
X96589034Y-68037741D01*
X96596226Y-68048504D01*
X96610923Y-68070500D01*
X96644331Y-68120500D01*
X96644399Y-68120601D01*
X96659260Y-68130531D01*
X96670472Y-68139732D01*
X97152826Y-68622086D01*
X97174218Y-68667962D01*
X97174500Y-68674412D01*
X97174500Y-69050640D01*
X97185134Y-69123625D01*
X97185134Y-69123626D01*
X97238604Y-69233000D01*
X97243941Y-69283336D01*
X97215674Y-69325327D01*
X97172123Y-69339500D01*
X96677320Y-69339500D01*
X96629754Y-69322187D01*
X96604444Y-69278350D01*
X96610839Y-69232999D01*
X96664379Y-69123481D01*
X96674999Y-69050592D01*
X96675000Y-69050581D01*
X96675000Y-68940000D01*
X95475000Y-68940000D01*
X95475000Y-69050592D01*
X95485620Y-69123481D01*
X95539161Y-69232999D01*
X95544498Y-69283336D01*
X95516231Y-69325327D01*
X95472680Y-69339500D01*
X92056544Y-69339500D01*
X92008978Y-69322187D01*
X92004218Y-69317826D01*
X91687174Y-69000781D01*
X91665782Y-68954904D01*
X91665500Y-68948455D01*
X91665500Y-68639999D01*
X95474999Y-68639999D01*
X95475000Y-68640000D01*
X95925000Y-68640000D01*
X95925000Y-68190000D01*
X96225000Y-68190000D01*
X96225000Y-68640000D01*
X96674999Y-68640000D01*
X96675000Y-68529418D01*
X96674999Y-68529407D01*
X96664379Y-68456517D01*
X96609412Y-68344082D01*
X96520917Y-68255587D01*
X96408482Y-68200620D01*
X96335592Y-68190000D01*
X96225000Y-68190000D01*
X95925000Y-68190000D01*
X95814407Y-68190000D01*
X95741517Y-68200620D01*
X95629082Y-68255587D01*
X95540587Y-68344082D01*
X95485620Y-68456517D01*
X95475000Y-68529407D01*
X95475000Y-68529418D01*
X95474999Y-68639999D01*
X91665500Y-68639999D01*
X91665500Y-68073365D01*
X91682813Y-68025799D01*
X91707001Y-68006883D01*
X91711211Y-68004826D01*
X91799826Y-67916211D01*
X91854866Y-67803625D01*
X91857749Y-67783830D01*
X91881741Y-67739257D01*
X91928770Y-67720533D01*
X91930977Y-67720500D01*
X92299023Y-67720500D01*
X92346589Y-67737813D01*
X92371899Y-67781650D01*
X92372250Y-67783830D01*
X92375134Y-67803625D01*
X92375134Y-67803626D01*
X92430173Y-67916210D01*
X92430174Y-67916211D01*
X92518789Y-68004826D01*
X92631375Y-68059866D01*
X92704364Y-68070500D01*
X92704370Y-68070500D01*
X93225630Y-68070500D01*
X93225636Y-68070500D01*
X93298625Y-68059866D01*
X93411211Y-68004826D01*
X93499826Y-67916211D01*
X93554866Y-67803625D01*
X93565500Y-67730636D01*
X93565500Y-67395833D01*
X93582813Y-67348267D01*
X93587163Y-67343518D01*
X93931715Y-66998965D01*
X93943561Y-66989346D01*
X93955669Y-66981437D01*
X93976817Y-66954263D01*
X93979843Y-66950838D01*
X93983375Y-66947307D01*
X93996041Y-66929565D01*
X94027517Y-66889126D01*
X94027519Y-66889118D01*
X94030435Y-66883732D01*
X94030753Y-66883904D01*
X94031871Y-66881732D01*
X94031546Y-66881574D01*
X94034239Y-66876065D01*
X94036194Y-66869500D01*
X94048856Y-66826966D01*
X94065500Y-66778488D01*
X94065500Y-66778483D01*
X94066509Y-66772439D01*
X94066862Y-66772498D01*
X94067214Y-66770085D01*
X94066858Y-66770041D01*
X94067615Y-66763959D01*
X94067617Y-66763954D01*
X94065500Y-66712769D01*
X94065500Y-66540000D01*
X94475001Y-66540000D01*
X94475001Y-67104778D01*
X94483701Y-67148524D01*
X94516855Y-67198143D01*
X94516856Y-67198144D01*
X94566472Y-67231296D01*
X94610226Y-67239999D01*
X95075000Y-67239999D01*
X95075000Y-66540000D01*
X94475001Y-66540000D01*
X94065500Y-66540000D01*
X94065500Y-66040960D01*
X94065500Y-61494500D01*
X94082813Y-61446934D01*
X94126650Y-61421624D01*
X94139500Y-61420500D01*
X94170975Y-61420500D01*
X94186159Y-61422074D01*
X94200315Y-61425043D01*
X94234481Y-61420783D01*
X94239061Y-61420500D01*
X94244035Y-61420500D01*
X94244040Y-61420500D01*
X94265540Y-61416912D01*
X94316393Y-61410573D01*
X94316401Y-61410568D01*
X94322268Y-61408823D01*
X94322371Y-61409170D01*
X94324696Y-61408425D01*
X94324579Y-61408084D01*
X94330379Y-61406092D01*
X94330381Y-61406092D01*
X94352912Y-61393898D01*
X94375445Y-61381704D01*
X94421484Y-61359198D01*
X94426476Y-61355634D01*
X94426685Y-61355926D01*
X94428637Y-61354471D01*
X94428416Y-61354187D01*
X94433254Y-61350420D01*
X94433253Y-61350420D01*
X94433258Y-61350418D01*
X94467957Y-61312723D01*
X94838506Y-60942174D01*
X94884384Y-60920782D01*
X94890833Y-60920500D01*
X99867414Y-60920500D01*
X99914980Y-60937813D01*
G37*
G04 #@! TD.AperFunction*
G04 #@! TA.AperFunction,Conductor*
G36*
X98558024Y-66632813D02*
G01*
X98583334Y-66676650D01*
X98576939Y-66722001D01*
X98535620Y-66806517D01*
X98525000Y-66879407D01*
X98525000Y-66990000D01*
X99725000Y-66990000D01*
X99725000Y-66879418D01*
X99724999Y-66879407D01*
X99714379Y-66806517D01*
X99673061Y-66722001D01*
X99667724Y-66671664D01*
X99695991Y-66629673D01*
X99739542Y-66615500D01*
X99910458Y-66615500D01*
X99958024Y-66632813D01*
X99983334Y-66676650D01*
X99976939Y-66722001D01*
X99935620Y-66806517D01*
X99925000Y-66879407D01*
X99925000Y-66990000D01*
X101124999Y-66990000D01*
X101132624Y-66982375D01*
X101178500Y-66960982D01*
X101226064Y-66973172D01*
X101243104Y-66984558D01*
X101243111Y-66984562D01*
X101243133Y-66984577D01*
X101243134Y-66984578D01*
X101305077Y-67025966D01*
X101402817Y-67045409D01*
X101418685Y-67042252D01*
X101420347Y-67041922D01*
X101434784Y-67040500D01*
X102776699Y-67040500D01*
X102824265Y-67057813D01*
X102849575Y-67101650D01*
X102850342Y-67121760D01*
X102850000Y-67125228D01*
X102850000Y-67140000D01*
X103501000Y-67140000D01*
X103548566Y-67157313D01*
X103573876Y-67201150D01*
X103575000Y-67214000D01*
X103575000Y-67366000D01*
X103557687Y-67413566D01*
X103513850Y-67438876D01*
X103501000Y-67440000D01*
X102850001Y-67440000D01*
X102850001Y-67454775D01*
X102850257Y-67456062D01*
X102850177Y-67456576D01*
X102850357Y-67458397D01*
X102849890Y-67458442D01*
X102842557Y-67506092D01*
X102804501Y-67539468D01*
X102777679Y-67544500D01*
X101593794Y-67544500D01*
X101579357Y-67543078D01*
X101561828Y-67539591D01*
X101561827Y-67539591D01*
X101464087Y-67559033D01*
X101464087Y-67559034D01*
X101418021Y-67589814D01*
X101381223Y-67614400D01*
X101371294Y-67629261D01*
X101362098Y-67640466D01*
X101284740Y-67717826D01*
X101238866Y-67739218D01*
X101232416Y-67739500D01*
X101084482Y-67739500D01*
X101036916Y-67722187D01*
X101011606Y-67678350D01*
X101020396Y-67628500D01*
X101032156Y-67613174D01*
X101059412Y-67585917D01*
X101114379Y-67473482D01*
X101124999Y-67400592D01*
X101125000Y-67400581D01*
X101125000Y-67290000D01*
X99925000Y-67290000D01*
X99925000Y-67400592D01*
X99935620Y-67473482D01*
X99990587Y-67585917D01*
X100017844Y-67613174D01*
X100039236Y-67659050D01*
X100026135Y-67707945D01*
X99984671Y-67736979D01*
X99965518Y-67739500D01*
X99956962Y-67739500D01*
X99942525Y-67738078D01*
X99925001Y-67734592D01*
X99925000Y-67734592D01*
X99900327Y-67739500D01*
X99900326Y-67739500D01*
X99863792Y-67746767D01*
X99827259Y-67754034D01*
X99744399Y-67809398D01*
X99744397Y-67809400D01*
X99734466Y-67824262D01*
X99725266Y-67835472D01*
X99342914Y-68217826D01*
X99297038Y-68239218D01*
X99290588Y-68239500D01*
X98864359Y-68239500D01*
X98791374Y-68250134D01*
X98791373Y-68250134D01*
X98678789Y-68305173D01*
X98590173Y-68393789D01*
X98535134Y-68506373D01*
X98535134Y-68506374D01*
X98524500Y-68579359D01*
X98524500Y-69100640D01*
X98527828Y-69123481D01*
X98535134Y-69173625D01*
X98564161Y-69233000D01*
X98569498Y-69283336D01*
X98541231Y-69325327D01*
X98497680Y-69339500D01*
X98377877Y-69339500D01*
X98330311Y-69322187D01*
X98305001Y-69278350D01*
X98311396Y-69233000D01*
X98340423Y-69173624D01*
X98364866Y-69123625D01*
X98375500Y-69050636D01*
X98375500Y-68529364D01*
X98364866Y-68456375D01*
X98309826Y-68343789D01*
X98221211Y-68255174D01*
X98221210Y-68255174D01*
X98221210Y-68255173D01*
X98108626Y-68200134D01*
X98035640Y-68189500D01*
X98035636Y-68189500D01*
X97514364Y-68189500D01*
X97514358Y-68189500D01*
X97476387Y-68195033D01*
X97426821Y-68184759D01*
X97413392Y-68174132D01*
X97097174Y-67857914D01*
X97075782Y-67812038D01*
X97075500Y-67805588D01*
X97075500Y-67314500D01*
X97084417Y-67290000D01*
X98525000Y-67290000D01*
X98525000Y-67400592D01*
X98535620Y-67473482D01*
X98590587Y-67585917D01*
X98679082Y-67674412D01*
X98791517Y-67729379D01*
X98864407Y-67739999D01*
X98864418Y-67740000D01*
X98975000Y-67740000D01*
X98975000Y-67290000D01*
X99275000Y-67290000D01*
X99275000Y-67740000D01*
X99385582Y-67740000D01*
X99385592Y-67739999D01*
X99458482Y-67729379D01*
X99570917Y-67674412D01*
X99659412Y-67585917D01*
X99714379Y-67473482D01*
X99724999Y-67400592D01*
X99725000Y-67400581D01*
X99725000Y-67290000D01*
X99275000Y-67290000D01*
X98975000Y-67290000D01*
X98525000Y-67290000D01*
X97084417Y-67290000D01*
X97092813Y-67266934D01*
X97136650Y-67241624D01*
X97149500Y-67240500D01*
X97439819Y-67240500D01*
X97439820Y-67240500D01*
X97483722Y-67231767D01*
X97533504Y-67198504D01*
X97566767Y-67148722D01*
X97575500Y-67104820D01*
X97575500Y-66689500D01*
X97592813Y-66641934D01*
X97636650Y-66616624D01*
X97649500Y-66615500D01*
X98510458Y-66615500D01*
X98558024Y-66632813D01*
G37*
G04 #@! TD.AperFunction*
G04 #@! TA.AperFunction,Conductor*
G36*
X109016119Y-66032970D02*
G01*
X109050535Y-66055966D01*
X109148275Y-66075409D01*
X109164143Y-66072252D01*
X109165805Y-66071922D01*
X109180242Y-66070500D01*
X111010081Y-66070500D01*
X111057647Y-66087813D01*
X111082957Y-66131650D01*
X111074167Y-66181500D01*
X111055131Y-66203205D01*
X111041065Y-66214000D01*
X111016112Y-66233147D01*
X110927871Y-66348144D01*
X110872402Y-66482059D01*
X110853483Y-66625768D01*
X110872102Y-66767193D01*
X110861146Y-66816612D01*
X110851061Y-66829178D01*
X110682415Y-66997826D01*
X110636539Y-67019218D01*
X110630089Y-67019500D01*
X109614544Y-67019500D01*
X109566978Y-67002187D01*
X109562218Y-66997826D01*
X109199862Y-66635470D01*
X109190659Y-66624256D01*
X109185559Y-66616624D01*
X109180732Y-66609399D01*
X109127667Y-66573942D01*
X109097872Y-66554034D01*
X109000131Y-66534592D01*
X108987837Y-66537037D01*
X108937807Y-66529334D01*
X108904433Y-66491275D01*
X108899761Y-66457189D01*
X108900000Y-66454767D01*
X108900000Y-66440000D01*
X108249000Y-66440000D01*
X108201434Y-66422687D01*
X108176124Y-66378850D01*
X108175000Y-66366000D01*
X108175000Y-66214000D01*
X108192313Y-66166434D01*
X108236150Y-66141124D01*
X108249000Y-66140000D01*
X108899999Y-66140000D01*
X108899999Y-66125226D01*
X108896759Y-66108935D01*
X108904461Y-66058905D01*
X108942520Y-66025531D01*
X108969338Y-66020500D01*
X108975008Y-66020500D01*
X109016119Y-66032970D01*
G37*
G04 #@! TD.AperFunction*
G04 #@! TA.AperFunction,Conductor*
G36*
X110663773Y-58337813D02*
G01*
X110689083Y-58381650D01*
X110680293Y-58431500D01*
X110663154Y-58451700D01*
X110654116Y-58459117D01*
X110654117Y-58459117D01*
X110529089Y-58611463D01*
X110436187Y-58785268D01*
X110378976Y-58973866D01*
X110359659Y-59170000D01*
X110378976Y-59366133D01*
X110436187Y-59554731D01*
X110503221Y-59680141D01*
X110529090Y-59728538D01*
X110654117Y-59880883D01*
X110806462Y-60005910D01*
X110873307Y-60041639D01*
X110907096Y-60079330D01*
X110908752Y-60129922D01*
X110890750Y-60159227D01*
X110302153Y-60747826D01*
X110256277Y-60769218D01*
X110249827Y-60769500D01*
X109888268Y-60769500D01*
X109847156Y-60757029D01*
X109812740Y-60734033D01*
X109715000Y-60714591D01*
X109633476Y-60730808D01*
X109617259Y-60734034D01*
X109534399Y-60789398D01*
X109524471Y-60804256D01*
X109515270Y-60815467D01*
X109510468Y-60820269D01*
X109499257Y-60829470D01*
X109484399Y-60839398D01*
X109479246Y-60844552D01*
X109477633Y-60842939D01*
X109445434Y-60866545D01*
X109424732Y-60869500D01*
X106733412Y-60869500D01*
X106685846Y-60852187D01*
X106660536Y-60808350D01*
X106669326Y-60758500D01*
X106681086Y-60743174D01*
X107582086Y-59842174D01*
X107627962Y-59820782D01*
X107634412Y-59820500D01*
X108029562Y-59820500D01*
X108077128Y-59837813D01*
X108086765Y-59847555D01*
X108114113Y-59880879D01*
X108114114Y-59880880D01*
X108114115Y-59880881D01*
X108114117Y-59880883D01*
X108266462Y-60005910D01*
X108316568Y-60032692D01*
X108440268Y-60098812D01*
X108440270Y-60098812D01*
X108440273Y-60098814D01*
X108628868Y-60156024D01*
X108825000Y-60175341D01*
X109021132Y-60156024D01*
X109209727Y-60098814D01*
X109383538Y-60005910D01*
X109535883Y-59880883D01*
X109660910Y-59728538D01*
X109753814Y-59554727D01*
X109811024Y-59366132D01*
X109830341Y-59170000D01*
X109811024Y-58973868D01*
X109753814Y-58785273D01*
X109753812Y-58785270D01*
X109753812Y-58785268D01*
X109687692Y-58661567D01*
X109660910Y-58611462D01*
X109535883Y-58459117D01*
X109526846Y-58451701D01*
X109501062Y-58408144D01*
X109509307Y-58358201D01*
X109547727Y-58325243D01*
X109573793Y-58320500D01*
X110616207Y-58320500D01*
X110663773Y-58337813D01*
G37*
G04 #@! TD.AperFunction*
M02*
