M48
; DRILL file {KiCad 7.0.7} date Mon Jan 15 15:14:17 2024
; FORMAT={-:-/ absolute / metric / decimal}
; #@! TF.CreationDate,2024-01-15T15:14:17+00:00
; #@! TF.GenerationSoftware,Kicad,Pcbnew,7.0.7
; #@! TF.FileFunction,Plated,1,2,PTH
FMAT,2
METRIC
; #@! TA.AperFunction,Plated,PTH,ViaDrill
T1C0.400
; #@! TA.AperFunction,Plated,PTH,ComponentDrill
T2C0.500
; #@! TA.AperFunction,Plated,PTH,ComponentDrill
T3C1.000
; #@! TA.AperFunction,Plated,PTH,ComponentDrill
T4C3.200
%
G90
G05
T1
X86.015Y-59.17
X86.015Y-67.17
X86.015Y-78.17
X86.015Y-83.17
X91.015Y-59.17
X92.015Y-78.17
X92.015Y-83.17
X92.115Y-68.27
X92.37Y-72.683
X94.115Y-67.57
X94.515Y-62.87
X98.015Y-74.17
X98.015Y-78.17
X98.015Y-83.17
X98.025Y-64.29
X98.025Y-67.69
X101.3Y-72.07
X102.015Y-83.17
X102.3Y-69.27
X102.315Y-62.77
X103.015Y-74.17
X103.015Y-78.17
X103.4Y-62.92
X103.5Y-69.07
X104.05Y-72.02
X104.605Y-65.27
X104.605Y-66.54
X104.605Y-67.81
X105.423Y-70.196
X105.875Y-65.27
X105.875Y-66.54
X105.875Y-67.81
X106.115Y-77.77
X106.515Y-87.17
X106.773Y-70.306
X106.832Y-62.854
X107.145Y-65.27
X107.145Y-66.54
X107.145Y-67.81
X107.215Y-77.67
X107.6Y-80.17
X107.814Y-75.621
X107.815Y-60.37
X108.32Y-63.39
X108.415Y-69.04
X109.02Y-75.644
X109.05Y-78.27
X109.749Y-66.62
X111.149Y-77.57
X111.4Y-67.97
X111.409Y-66.626
X111.6Y-72.87
X111.622Y-74.016
X112.415Y-61.67
X112.465Y-64.62
X112.915Y-65.57
X113.122Y-77.726
X115.015Y-78.47
X115.6Y-83.17
X116.015Y-73.17
X117.015Y-59.17
X117.015Y-67.17
X120.015Y-79.17
X121.415Y-62.87
X124.015Y-59.17
X124.015Y-67.17
X124.015Y-78.17
X124.015Y-83.17
T2
X89.915Y-67.47
X102.0Y-64.67
X108.0Y-62.27
X112.515Y-63.17
X112.635Y-70.6
X115.175Y-70.6
X117.715Y-70.6
T3
X96.125Y-59.17
X98.665Y-59.17
X101.205Y-59.17
X103.745Y-59.17
X106.285Y-59.17
X106.34Y-83.27
X108.825Y-59.17
X108.88Y-83.27
X111.365Y-59.17
X113.905Y-59.17
T4
X88.015Y-73.17
X122.015Y-73.17
T0
M30
