G04 #@! TF.GenerationSoftware,KiCad,Pcbnew,7.0.7*
G04 #@! TF.CreationDate,2024-01-15T15:13:53+00:00*
G04 #@! TF.ProjectId,cardboard,63617264-626f-4617-9264-2e6b69636164,rev?*
G04 #@! TF.SameCoordinates,Original*
G04 #@! TF.FileFunction,Copper,L2,Bot*
G04 #@! TF.FilePolarity,Positive*
%FSLAX46Y46*%
G04 Gerber Fmt 4.6, Leading zero omitted, Abs format (unit mm)*
G04 Created by KiCad (PCBNEW 7.0.7) date 2024-01-15 15:13:53*
%MOMM*%
%LPD*%
G01*
G04 APERTURE LIST*
G04 #@! TA.AperFunction,ComponentPad*
%ADD10R,1.000000X1.000000*%
G04 #@! TD*
G04 #@! TA.AperFunction,ComponentPad*
%ADD11C,6.400000*%
G04 #@! TD*
G04 #@! TA.AperFunction,ComponentPad*
%ADD12R,1.700000X1.700000*%
G04 #@! TD*
G04 #@! TA.AperFunction,ComponentPad*
%ADD13O,1.700000X1.700000*%
G04 #@! TD*
G04 #@! TA.AperFunction,SMDPad,CuDef*
%ADD14R,1.050000X1.050000*%
G04 #@! TD*
G04 #@! TA.AperFunction,SMDPad,CuDef*
%ADD15R,2.200000X1.050000*%
G04 #@! TD*
G04 #@! TA.AperFunction,SMDPad,CuDef*
%ADD16R,1.050000X2.200000*%
G04 #@! TD*
G04 #@! TA.AperFunction,ViaPad*
%ADD17C,0.800000*%
G04 #@! TD*
G04 #@! TA.AperFunction,Conductor*
%ADD18C,0.250000*%
G04 #@! TD*
G04 #@! TA.AperFunction,Conductor*
%ADD19C,0.200000*%
G04 #@! TD*
G04 #@! TA.AperFunction,Conductor*
%ADD20C,0.300000*%
G04 #@! TD*
G04 APERTURE END LIST*
D10*
X117715000Y-70600000D03*
X102000000Y-64670000D03*
X108000000Y-62270000D03*
X112515000Y-63170000D03*
D11*
X122015000Y-73170000D03*
D10*
X89915000Y-67470000D03*
D11*
X88015000Y-73170000D03*
D10*
X112635000Y-70600000D03*
X115175000Y-70600000D03*
D12*
X106340000Y-83270000D03*
D13*
X108880000Y-83270000D03*
D14*
X109975000Y-77070000D03*
D15*
X111500000Y-75595000D03*
X111500000Y-78545000D03*
D12*
X96125000Y-59170000D03*
D13*
X98665000Y-59170000D03*
X101205000Y-59170000D03*
X103745000Y-59170000D03*
X106285000Y-59170000D03*
X108825000Y-59170000D03*
X111365000Y-59170000D03*
X113905000Y-59170000D03*
D14*
X109000000Y-74395000D03*
D16*
X107525000Y-72870000D03*
X110475000Y-72870000D03*
D17*
X113122343Y-77725789D03*
X106115000Y-77770000D03*
X107145000Y-67810000D03*
X107145000Y-65270000D03*
X92015000Y-83170000D03*
X105875000Y-67810000D03*
X124015000Y-83170000D03*
X115015000Y-78470000D03*
X108319999Y-63389999D03*
X92370143Y-72683450D03*
X117015000Y-67170000D03*
X124015000Y-59170000D03*
X102015000Y-83170000D03*
X104605000Y-67810000D03*
X91015000Y-59170000D03*
X124015000Y-78170000D03*
X117015000Y-59170000D03*
X98025000Y-64290000D03*
X103015000Y-78170000D03*
X86015000Y-78170000D03*
X121415000Y-62870000D03*
X107600000Y-80170000D03*
X105423190Y-70196204D03*
X98015000Y-78170000D03*
X92015000Y-78170000D03*
X115600000Y-83170000D03*
X102300000Y-69270000D03*
X94515000Y-62870000D03*
X103015000Y-74170000D03*
X101300000Y-72070000D03*
X109749370Y-66620000D03*
X120015000Y-79170000D03*
X105875000Y-65270000D03*
X107814392Y-75621454D03*
X107145000Y-66540000D03*
X111400000Y-67970000D03*
X105875000Y-66540000D03*
X112915000Y-65570000D03*
X86015000Y-83170000D03*
X111149500Y-77570000D03*
X92115000Y-68270000D03*
X104050000Y-72020000D03*
X98015000Y-83170000D03*
X107215000Y-77669996D03*
X94115000Y-67570000D03*
X104605000Y-66540000D03*
X98015000Y-74170000D03*
X116015000Y-73170000D03*
X124015000Y-67170000D03*
X98025000Y-67690000D03*
X86015000Y-67170000D03*
X107815000Y-60370000D03*
X86015000Y-59170000D03*
X108415000Y-69039502D03*
X104605000Y-65270000D03*
X103500000Y-69070000D03*
X106773190Y-70305664D03*
X112415004Y-61670000D03*
X102315000Y-62770000D03*
X109019994Y-75643728D03*
X111621626Y-74016338D03*
X109050500Y-78269502D03*
X111600000Y-72870000D03*
X111408733Y-66625768D03*
X112464750Y-64619750D03*
X103399994Y-62920000D03*
X106831860Y-62854438D03*
X106515000Y-87170000D03*
D18*
X107740000Y-79395000D02*
X106115000Y-77770000D01*
X112925000Y-79395000D02*
X107740000Y-79395000D01*
X113122343Y-77725789D02*
X113122343Y-79197657D01*
X113122343Y-79197657D02*
X112925000Y-79395000D01*
X103500000Y-69070000D02*
X105537526Y-69070000D01*
X105537526Y-69070000D02*
X106773190Y-70305664D01*
D19*
X106565562Y-62204438D02*
X106562621Y-62204438D01*
X103969233Y-62570000D02*
X103669233Y-62270000D01*
X112265004Y-61520000D02*
X107250000Y-61520000D01*
X106562621Y-62204438D02*
X106197059Y-62570000D01*
X106197059Y-62570000D02*
X103969233Y-62570000D01*
X103669233Y-62270000D02*
X102815000Y-62270000D01*
X112415004Y-61670000D02*
X112265004Y-61520000D01*
X107250000Y-61520000D02*
X106565562Y-62204438D01*
X102815000Y-62270000D02*
X102315000Y-62770000D01*
X111325000Y-74245000D02*
X111392964Y-74245000D01*
X109019994Y-75643728D02*
X109019994Y-74414994D01*
X109625000Y-74245000D02*
X109625000Y-74295000D01*
X109150000Y-74245000D02*
X109625000Y-74245000D01*
X111392964Y-74245000D02*
X111621626Y-74016338D01*
X109625000Y-74295000D02*
X111325000Y-74295000D01*
X111325000Y-74295000D02*
X111325000Y-74245000D01*
X111918269Y-74745000D02*
X112346626Y-74316643D01*
X110075000Y-74745000D02*
X111918269Y-74745000D01*
X112346626Y-74316643D02*
X112346626Y-73616626D01*
X109900000Y-77070000D02*
X109900000Y-74920000D01*
D18*
X109050500Y-77994500D02*
X109975000Y-77070000D01*
D19*
X112346626Y-73616626D02*
X111600000Y-72870000D01*
D18*
X109050500Y-78269502D02*
X109050500Y-77994500D01*
D19*
X109900000Y-74920000D02*
X110075000Y-74745000D01*
X111408733Y-65675767D02*
X112464750Y-64619750D01*
X111408733Y-66625768D02*
X111408733Y-65675767D01*
X106766298Y-62920000D02*
X103399994Y-62920000D01*
X106831860Y-62854438D02*
X106766298Y-62920000D01*
D20*
X106515000Y-87170000D02*
X106515000Y-83445000D01*
G04 #@! TA.AperFunction,Conductor*
G36*
X125688066Y-57487813D02*
G01*
X125713376Y-57531650D01*
X125714500Y-57544500D01*
X125714500Y-84096000D01*
X125697187Y-84143566D01*
X125653350Y-84168876D01*
X125640500Y-84170000D01*
X109567259Y-84170000D01*
X109519693Y-84152687D01*
X109494383Y-84108850D01*
X109503173Y-84059000D01*
X109520311Y-84038799D01*
X109590883Y-83980883D01*
X109715910Y-83828538D01*
X109808814Y-83654727D01*
X109866024Y-83466132D01*
X109885341Y-83270000D01*
X109866024Y-83073868D01*
X109808814Y-82885273D01*
X109808812Y-82885270D01*
X109808812Y-82885268D01*
X109757048Y-82788426D01*
X109715910Y-82711462D01*
X109590883Y-82559117D01*
X109438538Y-82434090D01*
X109428597Y-82428776D01*
X109264731Y-82341187D01*
X109076133Y-82283976D01*
X108880000Y-82264659D01*
X108683866Y-82283976D01*
X108495268Y-82341187D01*
X108321463Y-82434089D01*
X108169117Y-82559117D01*
X108044089Y-82711463D01*
X107951187Y-82885268D01*
X107893976Y-83073866D01*
X107874659Y-83270000D01*
X107893976Y-83466133D01*
X107951187Y-83654731D01*
X108038776Y-83818597D01*
X108044090Y-83828538D01*
X108169117Y-83980883D01*
X108239686Y-84038798D01*
X108265472Y-84082356D01*
X108257227Y-84132299D01*
X108218807Y-84165257D01*
X108192741Y-84170000D01*
X107414500Y-84170000D01*
X107366934Y-84152687D01*
X107341624Y-84108850D01*
X107340500Y-84096000D01*
X107340500Y-82405180D01*
X107331767Y-82361278D01*
X107298504Y-82311496D01*
X107248722Y-82278233D01*
X107204820Y-82269500D01*
X105475180Y-82269500D01*
X105453229Y-82273866D01*
X105431277Y-82278233D01*
X105381496Y-82311495D01*
X105381495Y-82311496D01*
X105348233Y-82361277D01*
X105339500Y-82405180D01*
X105339500Y-84096000D01*
X105322187Y-84143566D01*
X105278350Y-84168876D01*
X105265500Y-84170000D01*
X84389500Y-84170000D01*
X84341934Y-84152687D01*
X84316624Y-84108850D01*
X84315500Y-84096000D01*
X84315500Y-77770000D01*
X105559750Y-77770000D01*
X105578669Y-77913708D01*
X105615826Y-78003414D01*
X105634139Y-78047625D01*
X105722379Y-78162621D01*
X105837375Y-78250861D01*
X105971291Y-78306330D01*
X106115000Y-78325250D01*
X106225184Y-78310743D01*
X106274602Y-78321699D01*
X106287168Y-78331784D01*
X107520854Y-79565470D01*
X107530056Y-79576683D01*
X107541375Y-79593623D01*
X107541376Y-79593624D01*
X107561355Y-79606974D01*
X107561356Y-79606974D01*
X107564376Y-79608992D01*
X107564378Y-79608994D01*
X107590534Y-79626471D01*
X107632505Y-79654515D01*
X107712867Y-79670500D01*
X107712868Y-79670500D01*
X107739999Y-79675897D01*
X107740000Y-79675897D01*
X107759983Y-79671921D01*
X107774420Y-79670500D01*
X112890580Y-79670500D01*
X112905016Y-79671921D01*
X112925000Y-79675897D01*
X112925001Y-79675897D01*
X112929622Y-79674977D01*
X112952132Y-79670500D01*
X112952133Y-79670500D01*
X113032495Y-79654515D01*
X113074465Y-79626471D01*
X113100622Y-79608994D01*
X113100622Y-79608993D01*
X113108636Y-79603639D01*
X113108639Y-79603636D01*
X113123624Y-79593624D01*
X113134948Y-79576674D01*
X113144141Y-79565473D01*
X113292816Y-79416798D01*
X113304019Y-79407604D01*
X113320967Y-79396281D01*
X113381858Y-79305152D01*
X113397843Y-79224790D01*
X113397843Y-79224789D01*
X113403240Y-79197657D01*
X113399265Y-79177672D01*
X113397843Y-79163236D01*
X113397843Y-78244773D01*
X113415156Y-78197207D01*
X113426790Y-78186067D01*
X113514964Y-78118410D01*
X113603204Y-78003414D01*
X113658673Y-77869498D01*
X113677593Y-77725789D01*
X113658673Y-77582080D01*
X113603204Y-77448164D01*
X113514964Y-77333168D01*
X113399968Y-77244928D01*
X113399966Y-77244927D01*
X113266051Y-77189458D01*
X113122343Y-77170539D01*
X112978634Y-77189458D01*
X112844719Y-77244927D01*
X112729722Y-77333168D01*
X112641481Y-77448165D01*
X112586012Y-77582080D01*
X112570027Y-77703503D01*
X112567093Y-77725789D01*
X112572914Y-77770000D01*
X112575065Y-77786341D01*
X112564109Y-77835760D01*
X112523950Y-77866575D01*
X112501698Y-77870000D01*
X111650000Y-77870000D01*
X111650000Y-78621000D01*
X111632687Y-78668566D01*
X111588850Y-78693876D01*
X111576000Y-78695000D01*
X110250001Y-78695000D01*
X110250001Y-79045500D01*
X110232688Y-79093066D01*
X110188851Y-79118376D01*
X110176001Y-79119500D01*
X107884768Y-79119500D01*
X107837202Y-79102187D01*
X107832442Y-79097826D01*
X106676784Y-77942168D01*
X106655392Y-77896292D01*
X106655742Y-77880191D01*
X106670250Y-77770000D01*
X106651330Y-77626291D01*
X106595861Y-77492375D01*
X106507621Y-77377379D01*
X106392625Y-77289139D01*
X106392623Y-77289138D01*
X106258708Y-77233669D01*
X106115000Y-77214750D01*
X105971291Y-77233669D01*
X105837376Y-77289138D01*
X105722379Y-77377379D01*
X105634138Y-77492376D01*
X105578669Y-77626291D01*
X105559750Y-77770000D01*
X84315500Y-77770000D01*
X84315500Y-73170009D01*
X84660080Y-73170009D01*
X84679745Y-73532721D01*
X84679746Y-73532725D01*
X84738514Y-73891204D01*
X84738515Y-73891206D01*
X84835698Y-74241226D01*
X84835704Y-74241246D01*
X84970156Y-74578692D01*
X85140313Y-74899643D01*
X85344175Y-75200317D01*
X85540921Y-75431944D01*
X85540921Y-75431945D01*
X86725805Y-74247061D01*
X86771681Y-74225669D01*
X86820576Y-74238770D01*
X86834401Y-74251328D01*
X86880127Y-74304867D01*
X86880132Y-74304872D01*
X86933670Y-74350597D01*
X86958596Y-74394653D01*
X86949372Y-74444424D01*
X86937937Y-74459193D01*
X85754261Y-75642868D01*
X85754262Y-75642869D01*
X85843073Y-75726995D01*
X86132267Y-75946834D01*
X86443521Y-76134109D01*
X86773221Y-76286645D01*
X87117451Y-76402628D01*
X87117473Y-76402635D01*
X87472227Y-76480722D01*
X87472236Y-76480723D01*
X87833354Y-76519998D01*
X87833377Y-76520000D01*
X88196623Y-76520000D01*
X88196645Y-76519998D01*
X88557763Y-76480723D01*
X88557772Y-76480722D01*
X88912526Y-76402635D01*
X88912548Y-76402628D01*
X89256778Y-76286645D01*
X89586478Y-76134109D01*
X89897732Y-75946834D01*
X90186929Y-75726992D01*
X90186933Y-75726989D01*
X90275736Y-75642868D01*
X89092062Y-74459194D01*
X89070670Y-74413318D01*
X89083771Y-74364423D01*
X89096329Y-74350598D01*
X89096330Y-74350597D01*
X89149870Y-74304870D01*
X89195598Y-74251328D01*
X89239654Y-74226403D01*
X89289425Y-74235627D01*
X89304194Y-74247062D01*
X90489077Y-75431945D01*
X90685827Y-75200312D01*
X90889686Y-74899643D01*
X91059843Y-74578692D01*
X91194295Y-74241246D01*
X91194301Y-74241226D01*
X91291484Y-73891206D01*
X91291485Y-73891204D01*
X91350253Y-73532725D01*
X91350254Y-73532721D01*
X91369920Y-73170009D01*
X91369920Y-73169990D01*
X91361788Y-73020000D01*
X106850001Y-73020000D01*
X106850001Y-73984778D01*
X106858701Y-74028524D01*
X106891855Y-74078143D01*
X106891856Y-74078144D01*
X106941472Y-74111296D01*
X106985226Y-74119999D01*
X107375000Y-74119999D01*
X107674999Y-74119999D01*
X108064779Y-74119999D01*
X108108524Y-74111298D01*
X108158143Y-74078144D01*
X108158146Y-74078141D01*
X108188971Y-74032008D01*
X108229792Y-74002076D01*
X108280302Y-74005386D01*
X108316868Y-74040389D01*
X108324500Y-74073119D01*
X108324500Y-74934819D01*
X108333233Y-74978722D01*
X108355117Y-75011475D01*
X108366496Y-75028504D01*
X108416278Y-75061767D01*
X108460180Y-75070500D01*
X108644748Y-75070500D01*
X108692314Y-75087813D01*
X108717624Y-75131650D01*
X108708834Y-75181500D01*
X108689799Y-75203205D01*
X108627372Y-75251106D01*
X108627373Y-75251107D01*
X108539132Y-75366104D01*
X108483663Y-75500019D01*
X108464744Y-75643727D01*
X108483663Y-75787436D01*
X108532855Y-75906196D01*
X108539133Y-75921353D01*
X108627373Y-76036349D01*
X108742369Y-76124589D01*
X108876285Y-76180058D01*
X109019994Y-76198978D01*
X109163703Y-76180058D01*
X109297619Y-76124589D01*
X109412615Y-76036349D01*
X109500855Y-75921353D01*
X109507133Y-75906195D01*
X109541330Y-75868876D01*
X109591516Y-75862268D01*
X109634208Y-75889465D01*
X109649500Y-75934514D01*
X109649500Y-76320500D01*
X109632187Y-76368066D01*
X109588350Y-76393376D01*
X109575500Y-76394500D01*
X109435180Y-76394500D01*
X109413229Y-76398866D01*
X109391277Y-76403233D01*
X109341496Y-76436495D01*
X109341495Y-76436496D01*
X109308233Y-76486277D01*
X109299500Y-76530180D01*
X109299500Y-77325231D01*
X109282187Y-77372797D01*
X109277826Y-77377557D01*
X108941875Y-77713507D01*
X108911224Y-77731204D01*
X108911271Y-77731316D01*
X108910426Y-77731666D01*
X108908708Y-77732658D01*
X108906789Y-77733172D01*
X108772876Y-77788640D01*
X108657879Y-77876881D01*
X108569638Y-77991878D01*
X108514169Y-78125793D01*
X108495250Y-78269502D01*
X108514169Y-78413210D01*
X108569638Y-78547125D01*
X108569639Y-78547127D01*
X108657879Y-78662123D01*
X108772875Y-78750363D01*
X108906791Y-78805832D01*
X109050500Y-78824752D01*
X109194209Y-78805832D01*
X109328125Y-78750363D01*
X109443121Y-78662123D01*
X109531361Y-78547127D01*
X109586830Y-78413211D01*
X109605750Y-78269502D01*
X109586830Y-78125793D01*
X109531361Y-77991877D01*
X109531358Y-77991873D01*
X109528933Y-77987671D01*
X109530376Y-77986837D01*
X109517169Y-77944932D01*
X109536545Y-77898168D01*
X109538773Y-77895842D01*
X109667443Y-77767174D01*
X109713319Y-77745782D01*
X109719768Y-77745500D01*
X110296880Y-77745500D01*
X110344446Y-77762813D01*
X110369756Y-77806650D01*
X110360966Y-77856500D01*
X110337992Y-77881029D01*
X110291856Y-77911855D01*
X110291855Y-77911856D01*
X110258703Y-77961472D01*
X110250000Y-78005226D01*
X110250000Y-78395000D01*
X111350000Y-78395000D01*
X111350000Y-77870000D01*
X110603268Y-77870000D01*
X110555702Y-77852687D01*
X110530392Y-77808850D01*
X110539182Y-77759000D01*
X110562152Y-77734474D01*
X110608504Y-77703504D01*
X110641767Y-77653722D01*
X110650500Y-77609820D01*
X110650500Y-76530180D01*
X110641767Y-76486278D01*
X110608504Y-76436496D01*
X110562157Y-76405528D01*
X110532225Y-76364707D01*
X110535536Y-76314196D01*
X110570539Y-76277631D01*
X110603269Y-76269999D01*
X111350000Y-76269999D01*
X111350000Y-75745000D01*
X111650000Y-75745000D01*
X111650000Y-76269999D01*
X112614779Y-76269999D01*
X112658524Y-76261298D01*
X112708143Y-76228144D01*
X112708144Y-76228143D01*
X112741296Y-76178527D01*
X112750000Y-76134773D01*
X112750000Y-75745000D01*
X111650000Y-75745000D01*
X111350000Y-75745000D01*
X111350000Y-75519000D01*
X111367313Y-75471434D01*
X111411150Y-75446124D01*
X111424000Y-75445000D01*
X112749999Y-75445000D01*
X112749999Y-75055221D01*
X112741298Y-75011475D01*
X112708144Y-74961856D01*
X112708143Y-74961855D01*
X112658527Y-74928703D01*
X112614773Y-74920000D01*
X112276180Y-74920000D01*
X112228614Y-74902687D01*
X112203304Y-74858850D01*
X112212094Y-74809000D01*
X112223854Y-74793674D01*
X112321132Y-74696396D01*
X112501157Y-74516370D01*
X112512360Y-74507176D01*
X112527227Y-74497244D01*
X112575097Y-74425601D01*
X112582592Y-74414384D01*
X112602034Y-74316643D01*
X112599692Y-74304870D01*
X112598548Y-74299116D01*
X112597126Y-74284680D01*
X112597126Y-73648592D01*
X112598548Y-73634154D01*
X112600624Y-73623717D01*
X112602035Y-73616626D01*
X112582592Y-73518886D01*
X112541204Y-73456943D01*
X112541203Y-73456942D01*
X112527227Y-73436025D01*
X112512364Y-73426094D01*
X112501156Y-73416895D01*
X112254269Y-73170009D01*
X118660080Y-73170009D01*
X118679745Y-73532721D01*
X118679746Y-73532725D01*
X118738514Y-73891204D01*
X118738515Y-73891206D01*
X118835698Y-74241226D01*
X118835704Y-74241246D01*
X118970156Y-74578692D01*
X119140313Y-74899643D01*
X119344175Y-75200317D01*
X119540921Y-75431944D01*
X119540921Y-75431945D01*
X120725805Y-74247061D01*
X120771681Y-74225669D01*
X120820576Y-74238770D01*
X120834401Y-74251328D01*
X120880127Y-74304867D01*
X120880132Y-74304872D01*
X120933670Y-74350597D01*
X120958596Y-74394653D01*
X120949372Y-74444424D01*
X120937937Y-74459193D01*
X119754261Y-75642868D01*
X119754262Y-75642869D01*
X119843073Y-75726995D01*
X120132267Y-75946834D01*
X120443521Y-76134109D01*
X120773221Y-76286645D01*
X121117451Y-76402628D01*
X121117473Y-76402635D01*
X121472227Y-76480722D01*
X121472236Y-76480723D01*
X121833354Y-76519998D01*
X121833377Y-76520000D01*
X122196623Y-76520000D01*
X122196645Y-76519998D01*
X122557763Y-76480723D01*
X122557772Y-76480722D01*
X122912526Y-76402635D01*
X122912548Y-76402628D01*
X123256778Y-76286645D01*
X123586478Y-76134109D01*
X123897732Y-75946834D01*
X124186929Y-75726992D01*
X124186933Y-75726989D01*
X124275736Y-75642868D01*
X123092062Y-74459194D01*
X123070670Y-74413318D01*
X123083771Y-74364423D01*
X123096329Y-74350598D01*
X123096330Y-74350597D01*
X123149870Y-74304870D01*
X123195598Y-74251328D01*
X123239654Y-74226403D01*
X123289425Y-74235627D01*
X123304194Y-74247062D01*
X124489077Y-75431945D01*
X124685827Y-75200312D01*
X124889686Y-74899643D01*
X125059843Y-74578692D01*
X125194295Y-74241246D01*
X125194301Y-74241226D01*
X125291484Y-73891206D01*
X125291485Y-73891204D01*
X125350253Y-73532725D01*
X125350254Y-73532721D01*
X125369920Y-73170009D01*
X125369920Y-73169990D01*
X125350254Y-72807278D01*
X125350253Y-72807274D01*
X125291485Y-72448795D01*
X125291484Y-72448793D01*
X125194301Y-72098773D01*
X125194295Y-72098753D01*
X125059843Y-71761307D01*
X124889686Y-71440356D01*
X124685827Y-71139687D01*
X124489077Y-70908053D01*
X123304193Y-72092937D01*
X123258316Y-72114329D01*
X123209422Y-72101228D01*
X123195597Y-72088670D01*
X123149872Y-72035132D01*
X123149867Y-72035127D01*
X123096328Y-71989401D01*
X123071402Y-71945345D01*
X123080626Y-71895574D01*
X123092061Y-71880805D01*
X124275736Y-70697129D01*
X124186926Y-70613004D01*
X123897732Y-70393165D01*
X123586478Y-70205890D01*
X123256778Y-70053354D01*
X122912548Y-69937371D01*
X122912526Y-69937364D01*
X122557772Y-69859277D01*
X122557763Y-69859276D01*
X122196645Y-69820001D01*
X122196623Y-69820000D01*
X121833377Y-69820000D01*
X121833354Y-69820001D01*
X121472236Y-69859276D01*
X121472227Y-69859277D01*
X121117473Y-69937364D01*
X121117451Y-69937371D01*
X120773221Y-70053354D01*
X120443521Y-70205890D01*
X120132267Y-70393165D01*
X119843068Y-70613008D01*
X119754262Y-70697129D01*
X120937937Y-71880805D01*
X120959329Y-71926682D01*
X120946228Y-71975576D01*
X120933671Y-71989400D01*
X120880133Y-72035126D01*
X120880126Y-72035133D01*
X120834400Y-72088671D01*
X120790344Y-72113596D01*
X120740572Y-72104371D01*
X120725805Y-72092937D01*
X119540921Y-70908053D01*
X119540921Y-70908054D01*
X119344175Y-71139682D01*
X119140313Y-71440356D01*
X118970156Y-71761307D01*
X118835704Y-72098753D01*
X118835698Y-72098773D01*
X118738515Y-72448793D01*
X118738514Y-72448795D01*
X118679746Y-72807274D01*
X118679745Y-72807278D01*
X118660080Y-73169990D01*
X118660080Y-73170009D01*
X112254269Y-73170009D01*
X112157671Y-73073411D01*
X112136279Y-73027535D01*
X112136629Y-73011431D01*
X112155250Y-72870000D01*
X112136330Y-72726291D01*
X112080861Y-72592375D01*
X111992621Y-72477379D01*
X111877625Y-72389139D01*
X111857995Y-72381008D01*
X111743708Y-72333669D01*
X111600000Y-72314750D01*
X111456291Y-72333669D01*
X111322376Y-72389138D01*
X111322372Y-72389140D01*
X111269047Y-72430058D01*
X111220771Y-72445280D01*
X111174005Y-72425908D01*
X111150632Y-72381008D01*
X111149999Y-72371350D01*
X111149999Y-71755221D01*
X111141298Y-71711475D01*
X111108144Y-71661856D01*
X111108143Y-71661855D01*
X111058527Y-71628703D01*
X111014773Y-71620000D01*
X110625000Y-71620000D01*
X110625000Y-72946000D01*
X110607687Y-72993566D01*
X110563850Y-73018876D01*
X110551000Y-73020000D01*
X109800001Y-73020000D01*
X109800001Y-73766731D01*
X109782688Y-73814297D01*
X109738851Y-73839607D01*
X109689001Y-73830817D01*
X109664472Y-73807843D01*
X109633504Y-73761496D01*
X109633503Y-73761495D01*
X109583722Y-73728233D01*
X109583721Y-73728232D01*
X109539820Y-73719500D01*
X108460180Y-73719500D01*
X108438228Y-73723866D01*
X108416277Y-73728233D01*
X108366496Y-73761495D01*
X108366495Y-73761496D01*
X108335529Y-73807841D01*
X108294707Y-73837773D01*
X108244197Y-73834462D01*
X108207631Y-73799458D01*
X108200000Y-73766729D01*
X108200000Y-73020000D01*
X107675000Y-73020000D01*
X107674999Y-74119999D01*
X107375000Y-74119999D01*
X107375000Y-73020000D01*
X106850001Y-73020000D01*
X91361788Y-73020000D01*
X91350254Y-72807278D01*
X91350253Y-72807274D01*
X91335945Y-72719999D01*
X106849999Y-72719999D01*
X106850000Y-72720000D01*
X107375000Y-72720000D01*
X107375000Y-71620000D01*
X107675000Y-71620000D01*
X107675000Y-72720000D01*
X108199999Y-72720000D01*
X109800000Y-72720000D01*
X110325000Y-72720000D01*
X110324999Y-71620000D01*
X109935229Y-71620000D01*
X109891473Y-71628703D01*
X109841856Y-71661855D01*
X109841855Y-71661856D01*
X109808703Y-71711472D01*
X109800000Y-71755226D01*
X109800000Y-72720000D01*
X108199999Y-72720000D01*
X108199999Y-71755221D01*
X108191298Y-71711475D01*
X108158144Y-71661856D01*
X108158143Y-71661855D01*
X108108527Y-71628703D01*
X108064773Y-71620000D01*
X107675000Y-71620000D01*
X107375000Y-71620000D01*
X106985229Y-71620000D01*
X106941473Y-71628703D01*
X106891856Y-71661855D01*
X106891855Y-71661856D01*
X106858703Y-71711472D01*
X106850000Y-71755226D01*
X106849999Y-72719999D01*
X91335945Y-72719999D01*
X91291485Y-72448795D01*
X91291484Y-72448793D01*
X91194301Y-72098773D01*
X91194295Y-72098753D01*
X91059843Y-71761307D01*
X90889686Y-71440356D01*
X90685827Y-71139687D01*
X90664705Y-71114820D01*
X111984500Y-71114820D01*
X111993233Y-71158722D01*
X112026496Y-71208504D01*
X112076278Y-71241767D01*
X112120180Y-71250500D01*
X112120181Y-71250500D01*
X113149819Y-71250500D01*
X113149820Y-71250500D01*
X113193722Y-71241767D01*
X113243504Y-71208504D01*
X113276767Y-71158722D01*
X113285500Y-71114820D01*
X114524500Y-71114820D01*
X114533233Y-71158722D01*
X114566496Y-71208504D01*
X114616278Y-71241767D01*
X114660180Y-71250500D01*
X114660181Y-71250500D01*
X115689819Y-71250500D01*
X115689820Y-71250500D01*
X115733722Y-71241767D01*
X115783504Y-71208504D01*
X115816767Y-71158722D01*
X115825500Y-71114820D01*
X117064500Y-71114820D01*
X117073233Y-71158722D01*
X117106496Y-71208504D01*
X117156278Y-71241767D01*
X117200180Y-71250500D01*
X117200181Y-71250500D01*
X118229819Y-71250500D01*
X118229820Y-71250500D01*
X118273722Y-71241767D01*
X118323504Y-71208504D01*
X118356767Y-71158722D01*
X118365500Y-71114820D01*
X118365500Y-70085180D01*
X118356767Y-70041278D01*
X118323504Y-69991496D01*
X118273722Y-69958233D01*
X118229820Y-69949500D01*
X117200180Y-69949500D01*
X117178228Y-69953866D01*
X117156277Y-69958233D01*
X117106496Y-69991495D01*
X117106495Y-69991496D01*
X117073233Y-70041277D01*
X117073232Y-70041278D01*
X117073233Y-70041278D01*
X117064500Y-70085180D01*
X117064500Y-71114820D01*
X115825500Y-71114820D01*
X115825500Y-70085180D01*
X115816767Y-70041278D01*
X115783504Y-69991496D01*
X115733722Y-69958233D01*
X115689820Y-69949500D01*
X114660180Y-69949500D01*
X114638228Y-69953866D01*
X114616277Y-69958233D01*
X114566496Y-69991495D01*
X114566495Y-69991496D01*
X114533233Y-70041277D01*
X114533232Y-70041278D01*
X114533233Y-70041278D01*
X114524500Y-70085180D01*
X114524500Y-71114820D01*
X113285500Y-71114820D01*
X113285500Y-70085180D01*
X113276767Y-70041278D01*
X113243504Y-69991496D01*
X113193722Y-69958233D01*
X113149820Y-69949500D01*
X112120180Y-69949500D01*
X112098228Y-69953866D01*
X112076277Y-69958233D01*
X112026496Y-69991495D01*
X112026495Y-69991496D01*
X111993233Y-70041277D01*
X111993232Y-70041278D01*
X111993233Y-70041278D01*
X111984500Y-70085180D01*
X111984500Y-71114820D01*
X90664705Y-71114820D01*
X90489077Y-70908053D01*
X89304193Y-72092937D01*
X89258316Y-72114329D01*
X89209422Y-72101228D01*
X89195597Y-72088670D01*
X89149872Y-72035132D01*
X89149867Y-72035127D01*
X89096328Y-71989401D01*
X89071402Y-71945345D01*
X89080626Y-71895574D01*
X89092061Y-71880805D01*
X90275736Y-70697129D01*
X90186926Y-70613004D01*
X89897732Y-70393165D01*
X89586478Y-70205890D01*
X89256778Y-70053354D01*
X88912548Y-69937371D01*
X88912526Y-69937364D01*
X88557772Y-69859277D01*
X88557763Y-69859276D01*
X88196645Y-69820001D01*
X88196623Y-69820000D01*
X87833377Y-69820000D01*
X87833354Y-69820001D01*
X87472236Y-69859276D01*
X87472227Y-69859277D01*
X87117473Y-69937364D01*
X87117451Y-69937371D01*
X86773221Y-70053354D01*
X86443521Y-70205890D01*
X86132267Y-70393165D01*
X85843068Y-70613008D01*
X85754262Y-70697129D01*
X86937937Y-71880805D01*
X86959329Y-71926682D01*
X86946228Y-71975576D01*
X86933671Y-71989400D01*
X86880133Y-72035126D01*
X86880126Y-72035133D01*
X86834400Y-72088671D01*
X86790344Y-72113596D01*
X86740572Y-72104371D01*
X86725805Y-72092937D01*
X85540921Y-70908053D01*
X85540921Y-70908054D01*
X85344175Y-71139682D01*
X85140313Y-71440356D01*
X84970156Y-71761307D01*
X84835704Y-72098753D01*
X84835698Y-72098773D01*
X84738515Y-72448793D01*
X84738514Y-72448795D01*
X84679746Y-72807274D01*
X84679745Y-72807278D01*
X84660080Y-73169990D01*
X84660080Y-73170009D01*
X84315500Y-73170009D01*
X84315500Y-69070000D01*
X102944750Y-69070000D01*
X102963669Y-69213708D01*
X103018259Y-69345500D01*
X103019139Y-69347625D01*
X103107379Y-69462621D01*
X103222375Y-69550861D01*
X103356291Y-69606330D01*
X103500000Y-69625250D01*
X103643709Y-69606330D01*
X103777625Y-69550861D01*
X103892621Y-69462621D01*
X103960277Y-69374450D01*
X104002968Y-69347254D01*
X104018984Y-69345500D01*
X105392758Y-69345500D01*
X105440324Y-69362813D01*
X105445084Y-69367174D01*
X106211405Y-70133495D01*
X106232797Y-70179371D01*
X106232446Y-70195480D01*
X106217940Y-70305663D01*
X106236859Y-70449372D01*
X106292328Y-70583287D01*
X106292329Y-70583289D01*
X106380569Y-70698285D01*
X106495565Y-70786525D01*
X106629481Y-70841994D01*
X106773190Y-70860914D01*
X106916899Y-70841994D01*
X107050815Y-70786525D01*
X107165811Y-70698285D01*
X107254051Y-70583289D01*
X107309520Y-70449373D01*
X107328440Y-70305664D01*
X107309520Y-70161955D01*
X107254051Y-70028039D01*
X107165811Y-69913043D01*
X107050815Y-69824803D01*
X107039222Y-69820001D01*
X106916898Y-69769333D01*
X106792108Y-69752904D01*
X106773190Y-69750414D01*
X106773189Y-69750414D01*
X106663006Y-69764920D01*
X106613587Y-69753964D01*
X106601021Y-69743879D01*
X105756671Y-68899529D01*
X105747468Y-68888314D01*
X105736152Y-68871378D01*
X105736150Y-68871376D01*
X105716170Y-68858026D01*
X105716165Y-68858021D01*
X105686991Y-68838528D01*
X105645021Y-68810485D01*
X105645021Y-68810484D01*
X105564659Y-68794500D01*
X105564658Y-68794500D01*
X105564656Y-68794499D01*
X105537527Y-68789103D01*
X105537526Y-68789103D01*
X105517543Y-68793078D01*
X105503106Y-68794500D01*
X104018984Y-68794500D01*
X103971418Y-68777187D01*
X103960278Y-68765552D01*
X103892621Y-68677379D01*
X103777625Y-68589139D01*
X103777623Y-68589138D01*
X103643708Y-68533669D01*
X103518919Y-68517240D01*
X103500000Y-68514750D01*
X103499999Y-68514750D01*
X103356291Y-68533669D01*
X103222376Y-68589138D01*
X103107379Y-68677379D01*
X103019138Y-68792376D01*
X102963669Y-68926291D01*
X102944750Y-69070000D01*
X84315500Y-69070000D01*
X84315500Y-67984820D01*
X89264500Y-67984820D01*
X89273233Y-68028722D01*
X89306496Y-68078504D01*
X89356278Y-68111767D01*
X89400180Y-68120500D01*
X89400181Y-68120500D01*
X90429819Y-68120500D01*
X90429820Y-68120500D01*
X90473722Y-68111767D01*
X90523504Y-68078504D01*
X90556767Y-68028722D01*
X90565500Y-67984820D01*
X90565500Y-66955180D01*
X90556767Y-66911278D01*
X90523504Y-66861496D01*
X90473722Y-66828233D01*
X90429820Y-66819500D01*
X89400180Y-66819500D01*
X89378228Y-66823866D01*
X89356277Y-66828233D01*
X89306496Y-66861495D01*
X89306495Y-66861496D01*
X89273233Y-66911277D01*
X89273232Y-66911278D01*
X89273233Y-66911278D01*
X89264500Y-66955180D01*
X89264500Y-67984820D01*
X84315500Y-67984820D01*
X84315500Y-66625767D01*
X110853483Y-66625767D01*
X110872402Y-66769476D01*
X110910518Y-66861496D01*
X110927872Y-66903393D01*
X111016112Y-67018389D01*
X111131108Y-67106629D01*
X111265024Y-67162098D01*
X111408733Y-67181018D01*
X111552442Y-67162098D01*
X111686358Y-67106629D01*
X111801354Y-67018389D01*
X111889594Y-66903393D01*
X111945063Y-66769477D01*
X111963983Y-66625768D01*
X111945063Y-66482059D01*
X111889594Y-66348143D01*
X111801354Y-66233147D01*
X111801349Y-66233143D01*
X111688184Y-66146306D01*
X111660987Y-66103614D01*
X111659233Y-66087599D01*
X111659233Y-65810179D01*
X111676546Y-65762613D01*
X111680907Y-65757853D01*
X111962727Y-65476033D01*
X112261339Y-65177420D01*
X112307214Y-65156029D01*
X112323319Y-65156379D01*
X112464750Y-65175000D01*
X112608459Y-65156080D01*
X112742375Y-65100611D01*
X112857371Y-65012371D01*
X112945611Y-64897375D01*
X113001080Y-64763459D01*
X113020000Y-64619750D01*
X113001080Y-64476041D01*
X112945611Y-64342125D01*
X112857371Y-64227129D01*
X112742375Y-64138889D01*
X112742373Y-64138888D01*
X112608458Y-64083419D01*
X112464750Y-64064500D01*
X112321041Y-64083419D01*
X112187126Y-64138888D01*
X112072129Y-64227129D01*
X111983888Y-64342126D01*
X111928419Y-64476041D01*
X111909500Y-64619750D01*
X111928119Y-64761174D01*
X111917163Y-64810593D01*
X111907078Y-64823159D01*
X111254205Y-65476033D01*
X111242995Y-65485233D01*
X111228133Y-65495164D01*
X111192675Y-65548230D01*
X111172769Y-65578021D01*
X111172767Y-65578026D01*
X111153325Y-65675767D01*
X111156811Y-65693292D01*
X111158233Y-65707729D01*
X111158233Y-66087599D01*
X111140920Y-66135165D01*
X111129282Y-66146306D01*
X111016116Y-66233143D01*
X111016113Y-66233146D01*
X110927871Y-66348144D01*
X110872402Y-66482059D01*
X110853483Y-66625767D01*
X84315500Y-66625767D01*
X84315500Y-65184820D01*
X101349500Y-65184820D01*
X101358233Y-65228722D01*
X101391496Y-65278504D01*
X101441278Y-65311767D01*
X101485180Y-65320500D01*
X101485181Y-65320500D01*
X102514819Y-65320500D01*
X102514820Y-65320500D01*
X102558722Y-65311767D01*
X102608504Y-65278504D01*
X102641767Y-65228722D01*
X102650500Y-65184820D01*
X102650500Y-64155180D01*
X102641767Y-64111278D01*
X102608504Y-64061496D01*
X102558722Y-64028233D01*
X102514820Y-64019500D01*
X101485180Y-64019500D01*
X101463229Y-64023866D01*
X101441277Y-64028233D01*
X101391496Y-64061495D01*
X101391495Y-64061496D01*
X101358233Y-64111277D01*
X101358232Y-64111278D01*
X101358233Y-64111278D01*
X101349500Y-64155180D01*
X101349500Y-65184820D01*
X84315500Y-65184820D01*
X84315500Y-63684820D01*
X111864500Y-63684820D01*
X111873233Y-63728722D01*
X111906496Y-63778504D01*
X111956278Y-63811767D01*
X112000180Y-63820500D01*
X112000181Y-63820500D01*
X113029819Y-63820500D01*
X113029820Y-63820500D01*
X113073722Y-63811767D01*
X113123504Y-63778504D01*
X113156767Y-63728722D01*
X113165500Y-63684820D01*
X113165500Y-62655180D01*
X113156767Y-62611278D01*
X113123504Y-62561496D01*
X113073722Y-62528233D01*
X113029820Y-62519500D01*
X112000180Y-62519500D01*
X111978228Y-62523866D01*
X111956277Y-62528233D01*
X111906496Y-62561495D01*
X111906495Y-62561496D01*
X111873233Y-62611277D01*
X111867047Y-62642375D01*
X111864500Y-62655180D01*
X111864500Y-63684820D01*
X84315500Y-63684820D01*
X84315500Y-62770000D01*
X101759750Y-62770000D01*
X101778669Y-62913708D01*
X101786759Y-62933238D01*
X101834139Y-63047625D01*
X101922379Y-63162621D01*
X102037375Y-63250861D01*
X102171291Y-63306330D01*
X102315000Y-63325250D01*
X102458709Y-63306330D01*
X102592625Y-63250861D01*
X102707621Y-63162621D01*
X102757543Y-63097561D01*
X102800232Y-63070365D01*
X102850418Y-63076972D01*
X102884616Y-63114292D01*
X102884616Y-63114293D01*
X102908624Y-63172254D01*
X102919133Y-63197625D01*
X103007373Y-63312621D01*
X103122369Y-63400861D01*
X103256285Y-63456330D01*
X103399994Y-63475250D01*
X103543703Y-63456330D01*
X103677619Y-63400861D01*
X103792615Y-63312621D01*
X103879454Y-63199449D01*
X103922145Y-63172254D01*
X103938161Y-63170500D01*
X106344001Y-63170500D01*
X106391567Y-63187813D01*
X106402707Y-63199450D01*
X106439239Y-63247059D01*
X106554235Y-63335299D01*
X106688151Y-63390768D01*
X106831860Y-63409688D01*
X106975569Y-63390768D01*
X107109485Y-63335299D01*
X107224481Y-63247059D01*
X107312721Y-63132063D01*
X107368190Y-62998147D01*
X107370824Y-62978137D01*
X107394196Y-62933238D01*
X107440962Y-62913866D01*
X107458625Y-62915217D01*
X107485180Y-62920500D01*
X107485182Y-62920500D01*
X108514819Y-62920500D01*
X108514820Y-62920500D01*
X108558722Y-62911767D01*
X108608504Y-62878504D01*
X108641767Y-62828722D01*
X108650500Y-62784820D01*
X108650500Y-61844500D01*
X108667813Y-61796934D01*
X108711650Y-61771624D01*
X108724500Y-61770500D01*
X111811331Y-61770500D01*
X111858897Y-61787813D01*
X111879698Y-61816182D01*
X111914866Y-61901085D01*
X111934143Y-61947625D01*
X112022383Y-62062621D01*
X112137379Y-62150861D01*
X112271295Y-62206330D01*
X112415004Y-62225250D01*
X112558713Y-62206330D01*
X112692629Y-62150861D01*
X112807625Y-62062621D01*
X112895865Y-61947625D01*
X112951334Y-61813709D01*
X112970254Y-61670000D01*
X112951334Y-61526291D01*
X112895865Y-61392375D01*
X112807625Y-61277379D01*
X112692629Y-61189139D01*
X112692627Y-61189138D01*
X112558712Y-61133669D01*
X112415004Y-61114750D01*
X112271295Y-61133669D01*
X112137380Y-61189138D01*
X112137378Y-61189139D01*
X112137379Y-61189139D01*
X112052578Y-61254208D01*
X112007532Y-61269500D01*
X107281967Y-61269500D01*
X107267530Y-61268078D01*
X107250001Y-61264591D01*
X107250000Y-61264591D01*
X107149186Y-61284644D01*
X107143131Y-61290133D01*
X107069399Y-61339398D01*
X107069397Y-61339400D01*
X107059468Y-61354259D01*
X107050268Y-61365469D01*
X106416954Y-61998784D01*
X106405741Y-62007986D01*
X106382021Y-62023835D01*
X106382018Y-62023838D01*
X106372089Y-62038697D01*
X106362889Y-62049907D01*
X106114973Y-62297826D01*
X106069097Y-62319218D01*
X106062647Y-62319500D01*
X104103645Y-62319500D01*
X104056079Y-62302187D01*
X104051319Y-62297826D01*
X103868965Y-62115472D01*
X103859763Y-62104259D01*
X103849834Y-62089399D01*
X103796769Y-62053942D01*
X103766974Y-62034034D01*
X103669233Y-62014592D01*
X103651708Y-62018078D01*
X103637271Y-62019500D01*
X102846967Y-62019500D01*
X102832530Y-62018078D01*
X102815001Y-62014591D01*
X102815000Y-62014591D01*
X102717260Y-62034033D01*
X102717260Y-62034034D01*
X102690158Y-62052143D01*
X102634397Y-62089400D01*
X102624468Y-62104259D01*
X102615268Y-62115469D01*
X102518409Y-62212328D01*
X102472533Y-62233720D01*
X102456424Y-62233369D01*
X102315000Y-62214750D01*
X102171291Y-62233669D01*
X102037376Y-62289138D01*
X101922379Y-62377379D01*
X101834138Y-62492376D01*
X101778669Y-62626291D01*
X101759750Y-62770000D01*
X84315500Y-62770000D01*
X84315500Y-60034819D01*
X95124500Y-60034819D01*
X95133233Y-60078722D01*
X95146656Y-60098812D01*
X95166496Y-60128504D01*
X95216278Y-60161767D01*
X95260180Y-60170500D01*
X95260181Y-60170500D01*
X96989819Y-60170500D01*
X96989820Y-60170500D01*
X97033722Y-60161767D01*
X97083504Y-60128504D01*
X97116767Y-60078722D01*
X97125500Y-60034820D01*
X97125500Y-59170000D01*
X97659659Y-59170000D01*
X97678976Y-59366133D01*
X97736187Y-59554731D01*
X97801058Y-59676094D01*
X97829090Y-59728538D01*
X97954117Y-59880883D01*
X98106462Y-60005910D01*
X98160547Y-60034819D01*
X98280268Y-60098812D01*
X98280270Y-60098812D01*
X98280273Y-60098814D01*
X98468868Y-60156024D01*
X98665000Y-60175341D01*
X98861132Y-60156024D01*
X99049727Y-60098814D01*
X99223538Y-60005910D01*
X99375883Y-59880883D01*
X99500910Y-59728538D01*
X99593814Y-59554727D01*
X99651024Y-59366132D01*
X99655568Y-59320000D01*
X100214935Y-59320000D01*
X100219469Y-59366035D01*
X100276651Y-59554539D01*
X100369504Y-59728252D01*
X100369513Y-59728266D01*
X100494471Y-59880526D01*
X100494473Y-59880528D01*
X100646733Y-60005486D01*
X100646747Y-60005495D01*
X100820460Y-60098348D01*
X101008964Y-60155530D01*
X101055000Y-60160064D01*
X101055000Y-59738975D01*
X101072313Y-59691409D01*
X101116150Y-59666099D01*
X101139525Y-59665728D01*
X101169237Y-59670000D01*
X101169243Y-59670000D01*
X101240757Y-59670000D01*
X101240763Y-59670000D01*
X101270470Y-59665728D01*
X101320013Y-59676094D01*
X101351305Y-59715883D01*
X101355000Y-59738975D01*
X101355000Y-60160064D01*
X101401035Y-60155530D01*
X101589539Y-60098348D01*
X101763252Y-60005495D01*
X101763266Y-60005486D01*
X101915526Y-59880528D01*
X101915528Y-59880526D01*
X102040486Y-59728266D01*
X102040495Y-59728252D01*
X102133348Y-59554539D01*
X102190530Y-59366035D01*
X102195065Y-59320000D01*
X101779000Y-59320000D01*
X101731434Y-59302687D01*
X101706124Y-59258850D01*
X101705000Y-59246000D01*
X101705000Y-59170000D01*
X102739659Y-59170000D01*
X102758976Y-59366133D01*
X102816187Y-59554731D01*
X102881058Y-59676094D01*
X102909090Y-59728538D01*
X103034117Y-59880883D01*
X103186462Y-60005910D01*
X103240547Y-60034819D01*
X103360268Y-60098812D01*
X103360270Y-60098812D01*
X103360273Y-60098814D01*
X103548868Y-60156024D01*
X103745000Y-60175341D01*
X103941132Y-60156024D01*
X104129727Y-60098814D01*
X104303538Y-60005910D01*
X104455883Y-59880883D01*
X104580910Y-59728538D01*
X104673814Y-59554727D01*
X104731024Y-59366132D01*
X104750341Y-59170000D01*
X105279659Y-59170000D01*
X105298976Y-59366133D01*
X105356187Y-59554731D01*
X105421058Y-59676094D01*
X105449090Y-59728538D01*
X105574117Y-59880883D01*
X105726462Y-60005910D01*
X105780547Y-60034819D01*
X105900268Y-60098812D01*
X105900270Y-60098812D01*
X105900273Y-60098814D01*
X106088868Y-60156024D01*
X106285000Y-60175341D01*
X106481132Y-60156024D01*
X106669727Y-60098814D01*
X106843538Y-60005910D01*
X106995883Y-59880883D01*
X107120910Y-59728538D01*
X107213814Y-59554727D01*
X107271024Y-59366132D01*
X107290341Y-59170000D01*
X107819659Y-59170000D01*
X107838976Y-59366133D01*
X107896187Y-59554731D01*
X107961058Y-59676094D01*
X107989090Y-59728538D01*
X108114117Y-59880883D01*
X108266462Y-60005910D01*
X108320547Y-60034819D01*
X108440268Y-60098812D01*
X108440270Y-60098812D01*
X108440273Y-60098814D01*
X108628868Y-60156024D01*
X108825000Y-60175341D01*
X109021132Y-60156024D01*
X109209727Y-60098814D01*
X109383538Y-60005910D01*
X109535883Y-59880883D01*
X109660910Y-59728538D01*
X109753814Y-59554727D01*
X109811024Y-59366132D01*
X109830341Y-59170000D01*
X110359659Y-59170000D01*
X110378976Y-59366133D01*
X110436187Y-59554731D01*
X110501058Y-59676094D01*
X110529090Y-59728538D01*
X110654117Y-59880883D01*
X110806462Y-60005910D01*
X110860547Y-60034819D01*
X110980268Y-60098812D01*
X110980270Y-60098812D01*
X110980273Y-60098814D01*
X111168868Y-60156024D01*
X111365000Y-60175341D01*
X111561132Y-60156024D01*
X111749727Y-60098814D01*
X111923538Y-60005910D01*
X112075883Y-59880883D01*
X112200910Y-59728538D01*
X112293814Y-59554727D01*
X112351024Y-59366132D01*
X112370341Y-59170000D01*
X112899659Y-59170000D01*
X112918976Y-59366133D01*
X112976187Y-59554731D01*
X113041058Y-59676094D01*
X113069090Y-59728538D01*
X113194117Y-59880883D01*
X113346462Y-60005910D01*
X113400547Y-60034819D01*
X113520268Y-60098812D01*
X113520270Y-60098812D01*
X113520273Y-60098814D01*
X113708868Y-60156024D01*
X113905000Y-60175341D01*
X114101132Y-60156024D01*
X114289727Y-60098814D01*
X114463538Y-60005910D01*
X114615883Y-59880883D01*
X114740910Y-59728538D01*
X114833814Y-59554727D01*
X114891024Y-59366132D01*
X114910341Y-59170000D01*
X114891024Y-58973868D01*
X114833814Y-58785273D01*
X114833812Y-58785270D01*
X114833812Y-58785268D01*
X114760755Y-58648590D01*
X114740910Y-58611462D01*
X114615883Y-58459117D01*
X114463538Y-58334090D01*
X114453597Y-58328776D01*
X114289731Y-58241187D01*
X114101133Y-58183976D01*
X113905000Y-58164659D01*
X113708866Y-58183976D01*
X113520268Y-58241187D01*
X113346463Y-58334089D01*
X113194117Y-58459117D01*
X113069089Y-58611463D01*
X112976187Y-58785268D01*
X112918976Y-58973866D01*
X112899659Y-59170000D01*
X112370341Y-59170000D01*
X112351024Y-58973868D01*
X112293814Y-58785273D01*
X112293812Y-58785270D01*
X112293812Y-58785268D01*
X112220755Y-58648590D01*
X112200910Y-58611462D01*
X112075883Y-58459117D01*
X111923538Y-58334090D01*
X111913597Y-58328776D01*
X111749731Y-58241187D01*
X111561133Y-58183976D01*
X111365000Y-58164659D01*
X111168866Y-58183976D01*
X110980268Y-58241187D01*
X110806463Y-58334089D01*
X110654117Y-58459117D01*
X110529089Y-58611463D01*
X110436187Y-58785268D01*
X110378976Y-58973866D01*
X110359659Y-59170000D01*
X109830341Y-59170000D01*
X109811024Y-58973868D01*
X109753814Y-58785273D01*
X109753812Y-58785270D01*
X109753812Y-58785268D01*
X109680755Y-58648590D01*
X109660910Y-58611462D01*
X109535883Y-58459117D01*
X109383538Y-58334090D01*
X109373597Y-58328776D01*
X109209731Y-58241187D01*
X109021133Y-58183976D01*
X108825000Y-58164659D01*
X108628866Y-58183976D01*
X108440268Y-58241187D01*
X108266463Y-58334089D01*
X108114117Y-58459117D01*
X107989089Y-58611463D01*
X107896187Y-58785268D01*
X107838976Y-58973866D01*
X107819659Y-59170000D01*
X107290341Y-59170000D01*
X107271024Y-58973868D01*
X107213814Y-58785273D01*
X107213812Y-58785270D01*
X107213812Y-58785268D01*
X107140755Y-58648590D01*
X107120910Y-58611462D01*
X106995883Y-58459117D01*
X106843538Y-58334090D01*
X106833597Y-58328776D01*
X106669731Y-58241187D01*
X106481133Y-58183976D01*
X106285000Y-58164659D01*
X106088866Y-58183976D01*
X105900268Y-58241187D01*
X105726463Y-58334089D01*
X105574117Y-58459117D01*
X105449089Y-58611463D01*
X105356187Y-58785268D01*
X105298976Y-58973866D01*
X105279659Y-59170000D01*
X104750341Y-59170000D01*
X104731024Y-58973868D01*
X104673814Y-58785273D01*
X104673812Y-58785270D01*
X104673812Y-58785268D01*
X104600755Y-58648590D01*
X104580910Y-58611462D01*
X104455883Y-58459117D01*
X104303538Y-58334090D01*
X104293597Y-58328776D01*
X104129731Y-58241187D01*
X103941133Y-58183976D01*
X103745000Y-58164659D01*
X103548866Y-58183976D01*
X103360268Y-58241187D01*
X103186463Y-58334089D01*
X103034117Y-58459117D01*
X102909089Y-58611463D01*
X102816187Y-58785268D01*
X102758976Y-58973866D01*
X102739659Y-59170000D01*
X101705000Y-59170000D01*
X101705000Y-59094000D01*
X101722313Y-59046434D01*
X101766150Y-59021124D01*
X101779000Y-59020000D01*
X102195064Y-59020000D01*
X102190530Y-58973964D01*
X102133348Y-58785460D01*
X102040495Y-58611747D01*
X102040486Y-58611733D01*
X101915528Y-58459473D01*
X101915526Y-58459471D01*
X101763266Y-58334513D01*
X101763252Y-58334504D01*
X101589539Y-58241651D01*
X101401037Y-58184469D01*
X101355000Y-58179934D01*
X101355000Y-58601024D01*
X101337687Y-58648590D01*
X101293850Y-58673900D01*
X101270469Y-58674271D01*
X101240767Y-58670000D01*
X101240763Y-58670000D01*
X101169237Y-58670000D01*
X101169232Y-58670000D01*
X101139530Y-58674271D01*
X101089984Y-58663903D01*
X101058693Y-58624114D01*
X101054999Y-58601024D01*
X101054999Y-58179934D01*
X101008962Y-58184469D01*
X100820460Y-58241651D01*
X100646747Y-58334504D01*
X100646733Y-58334513D01*
X100494473Y-58459471D01*
X100494471Y-58459473D01*
X100369513Y-58611733D01*
X100369504Y-58611747D01*
X100276651Y-58785460D01*
X100219469Y-58973964D01*
X100214935Y-59020000D01*
X100631000Y-59020000D01*
X100678566Y-59037313D01*
X100703876Y-59081150D01*
X100705000Y-59094000D01*
X100705000Y-59246000D01*
X100687687Y-59293566D01*
X100643850Y-59318876D01*
X100631000Y-59320000D01*
X100214935Y-59320000D01*
X99655568Y-59320000D01*
X99670341Y-59170000D01*
X99651024Y-58973868D01*
X99593814Y-58785273D01*
X99593812Y-58785270D01*
X99593812Y-58785268D01*
X99520755Y-58648590D01*
X99500910Y-58611462D01*
X99375883Y-58459117D01*
X99223538Y-58334090D01*
X99213597Y-58328776D01*
X99049731Y-58241187D01*
X98861133Y-58183976D01*
X98665000Y-58164659D01*
X98468866Y-58183976D01*
X98280268Y-58241187D01*
X98106463Y-58334089D01*
X97954117Y-58459117D01*
X97829089Y-58611463D01*
X97736187Y-58785268D01*
X97678976Y-58973866D01*
X97659659Y-59170000D01*
X97125500Y-59170000D01*
X97125500Y-58305180D01*
X97116767Y-58261278D01*
X97083504Y-58211496D01*
X97033722Y-58178233D01*
X96989820Y-58169500D01*
X95260180Y-58169500D01*
X95238228Y-58173866D01*
X95216277Y-58178233D01*
X95166496Y-58211495D01*
X95166495Y-58211496D01*
X95133233Y-58261277D01*
X95124500Y-58305180D01*
X95124500Y-60034819D01*
X84315500Y-60034819D01*
X84315500Y-57544500D01*
X84332813Y-57496934D01*
X84376650Y-57471624D01*
X84389500Y-57470500D01*
X125640500Y-57470500D01*
X125688066Y-57487813D01*
G37*
G04 #@! TD.AperFunction*
M02*
