G04 #@! TF.GenerationSoftware,KiCad,Pcbnew,7.0.7*
G04 #@! TF.CreationDate,2024-01-15T15:13:53+00:00*
G04 #@! TF.ProjectId,cardboard,63617264-626f-4617-9264-2e6b69636164,rev?*
G04 #@! TF.SameCoordinates,Original*
G04 #@! TF.FileFunction,Paste,Top*
G04 #@! TF.FilePolarity,Positive*
%FSLAX46Y46*%
G04 Gerber Fmt 4.6, Leading zero omitted, Abs format (unit mm)*
G04 Created by KiCad (PCBNEW 7.0.7) date 2024-01-15 15:13:53*
%MOMM*%
%LPD*%
G01*
G04 APERTURE LIST*
G04 Aperture macros list*
%AMRoundRect*
0 Rectangle with rounded corners*
0 $1 Rounding radius*
0 $2 $3 $4 $5 $6 $7 $8 $9 X,Y pos of 4 corners*
0 Add a 4 corners polygon primitive as box body*
4,1,4,$2,$3,$4,$5,$6,$7,$8,$9,$2,$3,0*
0 Add four circle primitives for the rounded corners*
1,1,$1+$1,$2,$3*
1,1,$1+$1,$4,$5*
1,1,$1+$1,$6,$7*
1,1,$1+$1,$8,$9*
0 Add four rect primitives between the rounded corners*
20,1,$1+$1,$2,$3,$4,$5,0*
20,1,$1+$1,$4,$5,$6,$7,0*
20,1,$1+$1,$6,$7,$8,$9,0*
20,1,$1+$1,$8,$9,$2,$3,0*%
G04 Aperture macros list end*
%ADD10RoundRect,0.225000X0.225000X-0.225000X0.225000X0.225000X-0.225000X0.225000X-0.225000X-0.225000X0*%
%ADD11R,0.600000X0.600000*%
%ADD12RoundRect,0.225000X-0.225000X0.225000X-0.225000X-0.225000X0.225000X-0.225000X0.225000X0.225000X0*%
%ADD13RoundRect,0.225000X-0.225000X-0.225000X0.225000X-0.225000X0.225000X0.225000X-0.225000X0.225000X0*%
%ADD14R,0.500000X1.000000*%
%ADD15R,1.200000X1.400000*%
%ADD16R,0.800000X0.800000*%
%ADD17RoundRect,0.225000X0.225000X0.225000X-0.225000X0.225000X-0.225000X-0.225000X0.225000X-0.225000X0*%
%ADD18R,0.600000X0.700000*%
%ADD19R,0.850000X0.300000*%
%ADD20R,0.300000X0.850000*%
%ADD21R,3.600000X3.600000*%
G04 APERTURE END LIST*
D10*
X92215000Y-60320000D03*
X92215000Y-58620000D03*
D11*
X107015000Y-75970000D03*
X107015000Y-76770000D03*
X106215000Y-76770000D03*
X106215000Y-75970000D03*
D12*
X111715000Y-75020000D03*
X111715000Y-76720000D03*
D13*
X104450000Y-79370000D03*
X106150000Y-79370000D03*
D14*
X112865000Y-83670000D03*
X114165000Y-83670000D03*
X113515000Y-81670000D03*
D13*
X109050000Y-80770000D03*
X110750000Y-80770000D03*
D15*
X95225000Y-64190000D03*
X96825000Y-64190000D03*
X95225000Y-66390000D03*
X96825000Y-66390000D03*
D10*
X109715000Y-64770000D03*
X109715000Y-63070000D03*
X99125000Y-68840000D03*
X99125000Y-67140000D03*
X115515000Y-64020000D03*
X115515000Y-62320000D03*
X105100000Y-77720000D03*
X105100000Y-76020000D03*
D12*
X103375000Y-71090000D03*
X103375000Y-72790000D03*
D13*
X104450000Y-80770000D03*
X106150000Y-80770000D03*
D10*
X115915000Y-76720000D03*
X115915000Y-75020000D03*
D12*
X114515000Y-75020000D03*
X114515000Y-76720000D03*
D10*
X113915000Y-63320000D03*
X113915000Y-61620000D03*
D13*
X95265000Y-61770000D03*
X96965000Y-61770000D03*
D10*
X106300000Y-73120000D03*
X106300000Y-71420000D03*
D13*
X109050000Y-79370000D03*
X110750000Y-79370000D03*
D12*
X110100000Y-76020000D03*
X110100000Y-77720000D03*
X94975000Y-71090000D03*
X94975000Y-72790000D03*
D16*
X117815000Y-62420000D03*
X117815000Y-63920000D03*
D17*
X99965000Y-61770000D03*
X98265000Y-61770000D03*
D10*
X111415000Y-83820000D03*
X111415000Y-82120000D03*
D11*
X107200000Y-78470000D03*
X108000000Y-78470000D03*
X108000000Y-79270000D03*
X107200000Y-79270000D03*
D12*
X104775000Y-71090000D03*
X104775000Y-72790000D03*
D10*
X100525000Y-65140000D03*
X100525000Y-63440000D03*
X113915000Y-66320000D03*
X113915000Y-64620000D03*
D17*
X103665000Y-61670000D03*
X101965000Y-61670000D03*
D13*
X107650000Y-71870000D03*
X109350000Y-71870000D03*
D17*
X92965000Y-67470000D03*
X91265000Y-67470000D03*
D10*
X100525000Y-68840000D03*
X100525000Y-67140000D03*
X93615000Y-60320000D03*
X93615000Y-58620000D03*
D13*
X105050000Y-74670000D03*
X106750000Y-74670000D03*
D12*
X99175000Y-71090000D03*
X99175000Y-72790000D03*
X96375000Y-71090000D03*
X96375000Y-72790000D03*
D17*
X97775000Y-68790000D03*
X96075000Y-68790000D03*
D10*
X103815000Y-83820000D03*
X103815000Y-82120000D03*
X117315000Y-76720000D03*
X117315000Y-75020000D03*
D12*
X100575000Y-71090000D03*
X100575000Y-72790000D03*
D11*
X108150000Y-77370000D03*
X108150000Y-76570000D03*
X108950000Y-76570000D03*
X108950000Y-77370000D03*
D13*
X91265000Y-66070000D03*
X92965000Y-66070000D03*
X109665000Y-61670000D03*
X111365000Y-61670000D03*
D12*
X101975000Y-71090000D03*
X101975000Y-72790000D03*
D10*
X99125000Y-65140000D03*
X99125000Y-63440000D03*
D12*
X97775000Y-71090000D03*
X97775000Y-72790000D03*
D18*
X118265000Y-78770000D03*
X116365000Y-78770000D03*
X117315000Y-80770000D03*
D17*
X109350000Y-73270000D03*
X107650000Y-73270000D03*
X114165000Y-80170000D03*
X112465000Y-80170000D03*
D13*
X108450000Y-74670000D03*
X110150000Y-74670000D03*
X107650000Y-70470000D03*
X109350000Y-70470000D03*
D16*
X92215000Y-62420000D03*
X92215000Y-63920000D03*
D10*
X111115000Y-64770000D03*
X111115000Y-63070000D03*
X113115000Y-76720000D03*
X113115000Y-75020000D03*
D19*
X103425000Y-64790000D03*
X103425000Y-65290000D03*
X103425000Y-65790000D03*
X103425000Y-66290000D03*
X103425000Y-66790000D03*
X103425000Y-67290000D03*
X103425000Y-67790000D03*
X103425000Y-68290000D03*
D20*
X104125000Y-68990000D03*
X104625000Y-68990000D03*
X105125000Y-68990000D03*
X105625000Y-68990000D03*
X106125000Y-68990000D03*
X106625000Y-68990000D03*
X107125000Y-68990000D03*
X107625000Y-68990000D03*
D19*
X108325000Y-68290000D03*
X108325000Y-67790000D03*
X108325000Y-67290000D03*
X108325000Y-66790000D03*
X108325000Y-66290000D03*
X108325000Y-65790000D03*
X108325000Y-65290000D03*
X108325000Y-64790000D03*
D20*
X107625000Y-64090000D03*
X107125000Y-64090000D03*
X106625000Y-64090000D03*
X106125000Y-64090000D03*
X105625000Y-64090000D03*
X105125000Y-64090000D03*
X104625000Y-64090000D03*
X104125000Y-64090000D03*
D21*
X105875000Y-66540000D03*
M02*
